<svg viewBox="0 0 836.773 647.847" xmlns="http://www.w3.org/2000/svg" id="Layer_1">
  <path fill="#f3f5fd" d="M836.773,647.847H0c9.231-24.994,20.6-46.2,44.63-52.488,35.154-9.189,72.356,16.079,107.432,6.578,19.927-5.392,35.616-21.106,52.1-34.154C266.357,518.549,351.585,504,425.18,530.057c38.467,13.615,73.52,37.424,112.926,47.546,50.957,13.094,104.246,2.235,156.648.446C745.79,576.308,818.914,598.387,836.773,647.847Z"></path>
  <g>
    <g>
      <rect fill="#dee8f5" height="449.786" width="621.087"></rect>
      <rect fill="#c1d8ed" height="37.051" width="621.087"></rect>
      <circle fill="#fff" r="9.296" cy="18.526" cx="600.285"></circle>
    </g>
    <g>
      <rect fill="#8ddbe0" height="289.942" width="85.803" y="81.52" x="435.719"></rect>
      <rect fill="#c1d8ed" height="26.267" width="393.384" y="343.635" x="42.334"></rect>
      <g>
        <rect fill="#fff" height="24.808" width="479.204" y="69.116" x="42.318"></rect>
        <g>
          <polyline stroke-width="2.813" stroke-miterlimit="10" stroke="#fff" fill="none" points="42.318 69.116 42.318 371.462 521.522 371.462 521.522 69.116"></polyline>
          <line stroke-width="2.813" stroke-miterlimit="10" stroke="#fff" fill="none" y2="371.462" x2="122.273" y1="81.52" x1="122.273"></line>
          <line stroke-width="2.813" stroke-miterlimit="10" stroke="#fff" fill="none" y2="120.191" x2="42.334" y1="120.191" x1="521.522"></line>
          <line stroke-width="2.813" stroke-miterlimit="10" stroke="#fff" fill="none" y2="148.096" x2="42.334" y1="148.096" x1="521.522"></line>
          <line stroke-width="2.813" stroke-miterlimit="10" stroke="#fff" fill="none" y2="176.002" x2="42.334" y1="176.002" x1="521.522"></line>
          <line stroke-width="2.813" stroke-miterlimit="10" stroke="#fff" fill="none" y2="203.907" x2="42.334" y1="203.907" x1="521.522"></line>
          <line stroke-width="2.813" stroke-miterlimit="10" stroke="#fff" fill="none" y2="231.813" x2="42.334" y1="231.813" x1="521.522"></line>
          <line stroke-width="2.813" stroke-miterlimit="10" stroke="#fff" fill="none" y2="259.718" x2="42.334" y1="259.718" x1="521.522"></line>
          <line stroke-width="2.813" stroke-miterlimit="10" stroke="#fff" fill="none" y2="287.624" x2="42.334" y1="287.624" x1="521.522"></line>
          <line stroke-width="2.813" stroke-miterlimit="10" stroke="#fff" fill="none" y2="315.529" x2="42.334" y1="315.529" x1="521.522"></line>
          <line stroke-width="2.813" stroke-miterlimit="10" stroke="#fff" fill="none" y2="343.435" x2="42.334" y1="343.435" x1="521.522"></line>
          <line stroke-width="2.813" stroke-miterlimit="10" stroke="#fff" fill="none" y2="371.462" x2="347.604" y1="81.52" x1="347.604"></line>
          <line stroke-width="2.813" stroke-miterlimit="10" stroke="#fff" fill="none" y2="371.462" x2="435.719" y1="81.52" x1="435.719"></line>
        </g>
      </g>
    </g>
  </g>
  <g>
    <g>
      <circle fill="#fdb754" r="49.501" cy="174.667" cx="646.58"></circle>
      <g opacity="0.29">
        <circle fill="#fff" r="32.089" cy="174.667" cx="646.58"></circle>
      </g>
    </g>
    <path fill="#fff" d="M636.077,186.129l2.993-4.642c2.373,1.818,4.448,2.745,6.655,2.745,2.646,0,3.809-1.1,3.809-3.221,0-4.8-12.32-4.716-12.32-13.139,0-5.414,3.75-8.863,9.665-8.863a11.57,11.57,0,0,1,8.885,3.96l-3.433,3.932c-1.7-1.543-3.135-2.355-5.084-2.355-2.246,0-3.464.905-3.464,3,0,4.451,12.321,4.063,12.321,12.985,0,5.359-3.547,9.236-10.379,9.236A15.53,15.53,0,0,1,636.077,186.129Zm8.209-31.694h4.553v6.722h-4.553Zm0,32.533h4.553v7.375h-4.553Z"></path>
  </g>
  <g>
    <circle fill="#c1d8ed" transform="translate(-46.498 142.146) rotate(-13.283)" r="26.935" cy="270.75" cx="587.167"></circle>
    <path fill="#fff" d="M569.325,263.97c0-4.092,2.681-7.26,7.117-7.26,4.4,0,7.116,3.2,7.116,7.26,0,4.026-2.68,7.325-7.116,7.325S569.325,268,569.325,263.97Zm9.031,0c0-1.419-.574-2.541-1.914-2.541-1.309,0-1.947,1.155-1.947,2.541,0,1.419.606,2.607,1.947,2.607S578.356,265.389,578.356,263.97Zm15-5.991h0a2.368,2.368,0,0,1,2.317,3.453l-12.6,21.3a2.676,2.676,0,0,1-2.316,1.249h0a2.367,2.367,0,0,1-2.316-3.452l12.6-21.3A2.677,2.677,0,0,1,593.355,257.979ZM590.743,277.5c0-4.092,2.713-7.293,7.149-7.293,4.4,0,7.117,3.2,7.117,7.293,0,4.026-2.713,7.293-7.117,7.293C593.424,284.79,590.743,281.523,590.743,277.5Zm9.064,0c0-1.419-.607-2.574-1.915-2.574-1.34,0-1.947,1.155-1.947,2.574,0,1.386.607,2.574,1.947,2.574S599.807,278.883,599.807,277.5Z"></path>
  </g>
  <g>
    <g>
      <rect fill="#c1d8ed" transform="translate(-119.989 211.148) rotate(-14.737)" height="160.001" width="6" y="489.504" x="753.394"></rect>
      <rect fill="#c1d8ed" transform="matrix(0.155, -0.988, 0.988, 0.155, -6.85, 1130.999)" height="6" width="156.63" y="566.504" x="579.334"></rect>
      <path fill="#c1d8ed" d="M744.392,343.7s49.565-3.131,49.565,40.174-7.3,103.826-43.826,110.608-90.481,4.738-103.008,2.615c-15.391-2.609-22.1-38.311-1.6-40.7C703.7,449.618,675.523,348.4,744.392,343.7Z"></path>
    </g>
    <g>
      <path fill="#dee8f5" d="M564.5,400.3c.257-.007,62.452.124,62.575.124,8.724,0,12.1,5.054,12.1,5.054v2.725H554.138v-2.724C557.978,402.876,561.474,400.221,564.5,400.3Z"></path>
      <path fill="#c1d8ed" d="M576.352,406.152s-4.487-6.441-11.849-5.849a14.013,14.013,0,0,0-10.365,5.178v2.725h46.288v-2.725s-3.37-5.054-12.094-5.054S576.352,406.152,576.352,406.152Z"></path>
      <rect fill="#c1d8ed" transform="translate(1239.599 813.687) rotate(-180)" height="2.724" width="38.746" y="405.481" x="600.426"></rect>
    </g>
    <g>
      <rect fill="#eda59f" transform="translate(-46.532 51.07) rotate(-4.409)" height="24.531" width="21" y="617.696" x="629.615"></rect>
      <path fill="#c1d8ed" d="M603.983,646.691a4.109,4.109,0,0,1-4.089-4.126c0-.1,0-.2.013-.3h0a4.108,4.108,0,0,1,2.658-3.529l24.443-8.187a3.46,3.46,0,0,1,2.872.32,19.112,19.112,0,0,0,11.468,3.4,17.023,17.023,0,0,0,8.82-3.223,1.547,1.547,0,0,1,2.528,1.2V644.2a2.678,2.678,0,0,1-2.678,2.678h-.011Z"></path>
      <rect fill="#eda59f" transform="translate(-159.289 1071.602) rotate(-80.452)" height="21" width="24.803" y="619.461" x="541.41"></rect>
      <path fill="#55affc" d="M534.814,621.347l46.108-177.385a18.5,18.5,0,0,1,17.9-13.845H699.87v.065h56.609V447.53a38.087,38.087,0,0,1-38.086,38.088h-27.61v.109h-48.2l13.272,141.114L619.017,630.3,606.184,493.85l-35.56,136.8Z"></path>
      <path fill="#c1d8ed" d="M517.679,646.691a4.109,4.109,0,0,1-4.089-4.128c0-.1,0-.2.013-.3h0a4.109,4.109,0,0,1,2.659-3.529l24.442-8.187a3.458,3.458,0,0,1,2.873.32,19.109,19.109,0,0,0,11.467,3.4,17.026,17.026,0,0,0,8.821-3.223,1.547,1.547,0,0,1,2.527,1.2V644.2a2.678,2.678,0,0,1-2.678,2.678H563.7Z"></path>
    </g>
    <g>
      <g>
        <path fill="#eda59f" d="M611.8,345.4s-.15-12.011-8.735-11.386c-5.416.394-31.151-.8-31.534,1.544-.948,5.8,22.592,7.218,24.728,12.622Z"></path>
        <path fill="#eda59f" d="M606.109,334.4s-11.949-3.9-14.886-3.2c-2.6.618,2.82,4.85,2.82,4.85Z"></path>
      </g>
      <path fill="#2f3235" d="M636.486,408.229H672.81c-2.143,11.537-4.866,16.385-2.056,22.837,4.19,9.63,86.52,13.63,87.62-3.31.7-10.78-8.8-20.2-8.8-41.2s19.33-47.84,3.58-63.59c-4.56-4.56-12.46-7.52-22.08-7.53-.72,5.61-34.79,5.63-35.05.13-1.3.02-2.31.05-2.94.07-11.74.506-17.494,5.566-20.02,13.119l-26.7,47.791-34.138-38.407-18.374,10.332,42.633,49.634Zm38.327-25.673c.015,1.339.01,2.617,0,3.868h-8.986l8.3-14.86c.375,3.762.648,7.459.689,10.992Z"></path>
      <path fill="#eda59f" d="M696.023,315.566c.26,5.5,3.26,13.59,12.48,14.19,12.31.82,21.85-8.71,22.57-14.32h-.04C718.933,315.436,703.093,315.456,696.023,315.566Z"></path>
      <g>
        <path fill="#eda59f" d="M621.719,402.99c1.95,1.531,10.391,2.01,14.77,2.161v-16.23c-2.23-1.2-5.01-2.75-7.08-4.071-2.87-1.84-4.17-2.37-4.89-2.169h-.01a.918.918,0,0,0-.44.28,1.1,1.1,0,0,0-.22.369c-.47,1.27,1.68,3.18,2.87,4.121l.01.01c.43.339.74.56.74.56l-2.54,1.17-.01.01-2.22,1.029-.03.01-1.2.551s-.21.88-.44,2.17v.01C620.489,396.06,619.839,401.521,621.719,402.99Z"></path>
        <g>
          <polygon fill="#fdb754" points="607.312 403.012 612.473 401.253 627.674 386.535 629.737 384.53 633.424 380.965 629.971 377.406 626.251 381.01 624.182 383.007 609.028 397.687 607.312 403.012"></polygon>
          <polygon fill="#fff" points="624.182 383.007 627.674 386.535 629.737 384.53 626.251 381.01 624.182 383.007"></polygon>
        </g>
        <path fill="#eda59f" d="M625.935,387.7a30.71,30.71,0,0,0-3.908.324,21.782,21.782,0,0,0-3.926.885,11.779,11.779,0,0,0-2.054.874,7.711,7.711,0,0,0-1.049.69l-.735.636a20.606,20.606,0,0,0-2.638,2.871,1.514,1.514,0,0,0,2.05,2.169l.071-.047,2.9-1.944.725-.477a4.741,4.741,0,0,1,.521-.255,8.021,8.021,0,0,1,1.376-.42,25.975,25.975,0,0,1,3.284-.47c1.127-.089,2.329-.156,3.417-.175h.051a2.33,2.33,0,1,0-.082-4.66Z"></path>
      </g>
    </g>
    <rect fill="#c1d8ed" height="228.957" width="9.391" y="417.921" x="523.487"></rect>
    <g>
      <rect fill="#c1d8ed" height="228.957" width="9.391" y="418.511" x="723.414"></rect>
      <rect fill="#c1d8ed" height="228.957" width="9.391" y="417.921" x="804.379"></rect>
      <g opacity="0.05">
        <rect height="228.957" width="9.391" y="417.921" x="523.487"></rect>
      </g>
      <g opacity="0.05">
        <rect height="228.957" width="9.391" y="417.921" x="804.379"></rect>
      </g>
      <rect fill="#c1d8ed" height="228.957" width="9.391" y="417.921" x="443.487"></rect>
      <rect fill="#c1d8ed" height="12.913" width="396.25" y="408.465" x="430.503"></rect>
    </g>
    <g>
      <g>
        <path fill="#9ebcea" d="M528.961,350.669,541.1,401.641a5.4,5.4,0,0,1-5.251,6.649H464.268a5.4,5.4,0,0,1-5.206-3.969L445.071,353.35a5.4,5.4,0,0,1,5.206-6.828h73.432A5.4,5.4,0,0,1,528.961,350.669Z"></path>
        <path fill="#9ebcea" d="M566.587,408.29H480.068a3.172,3.172,0,0,1-3.172-3.172h0a3.172,3.172,0,0,1,3.172-3.172h86.519a3.172,3.172,0,0,1,3.172,3.172h0A3.172,3.172,0,0,1,566.587,408.29Z"></path>
      </g>
      <circle fill="#fff" r="8.466" cy="376.903" cx="490.156"></circle>
    </g>
    <g>
      <path fill="#0f1011" d="M687.344,260.248s-7.58,27.159-11.838,41.252a4.467,4.467,0,0,0,4.281,5.759h26.6A4.472,4.472,0,0,0,710.853,303l1.793-37.807Z"></path>
      <path fill="#eda59f" d="M728.11,320.662s-7.737-4.093-6.029-25.151L706.1,292.563s1.812,18.877-6.265,24.878Z"></path>
      <g opacity="0.15">
        <path d="M703.107,313.492l13.263-10.166-10.424-.1A28.766,28.766,0,0,1,703.107,313.492Z"></path>
      </g>
      <path fill="#eda59f" d="M731.139,287.339c-1.1,6.389-4.581,12.442-10.215,14.51a40.49,40.49,0,0,1-19.355,2.633c-17.491-1.418-14.067-41.189-5.77-48.921s32.67-2.862,35.646,10.055C732.984,272.3,732.186,281.262,731.139,287.339Z"></path>
      <g>
        <circle fill="#0f1011" r="1.449" cy="280.991" cx="706.114"></circle>
        <circle fill="#0f1011" r="1.449" cy="280.064" cx="694.682"></circle>
        <path fill="#0f1011" d="M692.168,276.979h.009l3.839-.052a.681.681,0,1,0-.018-1.362l-3.839.052a.681.681,0,0,0,.009,1.362Z"></path>
        <path fill="#0f1011" d="M709.238,278.363a.681.681,0,0,0,.159-1.343l-3.785-.907a.681.681,0,1,0-.318,1.324l3.784.907A.685.685,0,0,0,709.238,278.363Z"></path>
        <path fill="#fff" d="M705.454,292.4s-5.348.569-9.1-.737c0,0,.033,3.522,4.266,3.866S705.454,292.4,705.454,292.4Z"></path>
      </g>
      <g opacity="0.15">
        <path d="M699.688,289.034a.5.5,0,0,0,.147-.978l-2.947-.9,2.057-4.593a.5.5,0,0,0-.912-.408l-2.52,5.626,4.029,1.234A.5.5,0,0,0,699.688,289.034Z"></path>
      </g>
      <path fill="#0f1011" d="M686.432,263.5s2.561-20.713,35.75-15.626c8.274,1.268,20,7.728,21.9,28.9.868,9.712,4.216,18.869,6.77,24.665a4.471,4.471,0,0,1-4.083,6.286l-23.33.008a4.463,4.463,0,0,1-4.472-4.456c0-.066,0-.131,0-.2.168-3.971.3-10.694.074-20.97-1.213-5.865,2.018-10-2.672-8.652C698.955,278.456,687.74,263.839,686.432,263.5Z"></path>
      <path fill="#eda59f" d="M713.436,287.23a6.143,6.143,0,1,0,12.246.993,6.041,6.041,0,0,0-5.422-6.6c-.068-.007-.136-.013-.2-.017C715.677,281.462,713.711,283.848,713.436,287.23Z"></path>
    </g>
  </g>
  <g>
    <g>
      <path fill="#eda59f" d="M144.893,637.028l-20.853-2.481c.939-7.892,2-17.373,2.072-18.927,0,.1,0,.181,0,.245h21C147.107,616.5,147.107,618.41,144.893,637.028Z"></path>
      <path fill="#eda59f" d="M61.218,639.537l-21-.068s.07-21.684.07-23.6h21C61.288,617.79,61.218,639.537,61.218,639.537Z"></path>
      <path fill="#55affc" d="M115.646,630.4l36.995-.631c-1.538-38.963-1.8-83.528-2.214-123.855-3.649-52.868-11.556-105.2-20.108-157.551l-.267.079-.782-5.33-76.076-4.695c-5.2,57.2-10.7,173.1-18.389,290.79l36.869,3.115C78.317,564.533,88.6,465.763,94.92,394.552,113.073,472.164,117.217,551.177,115.646,630.4Z"></path>
      <path fill="#c1d8ed" d="M86.746,647.66c4.449.1,5.62-6.516,1.417-7.956-1.713-.1-26.319-10.085-27.314-7.868-13.379,9.376-22-4.022-22.816,1.38v11.953a2.678,2.678,0,0,0,2.689,2.678Z"></path>
      <path fill="#c1d8ed" d="M170.479,647.66c4.449.1,5.621-6.516,1.418-7.956-1.714-.1-26.319-10.085-27.315-7.868-13.378,9.376-21.995-4.022-22.815,1.38v11.953a2.678,2.678,0,0,0,2.689,2.678Z"></path>
    </g>
    <g>
      <g>
        <path fill="#eda59f" d="M151.533,309.749c6.5-.9,24.267-.75,6.873,4.4"></path>
        <path fill="#eda59f" d="M149.918,322.086s20.766,8.531,32.7-1.2a1.96,1.96,0,0,0-1.117-3.454c-8.043-.477-24.564-2.1-22.635-7.4H145.891"></path>
      </g>
      <path fill="#2f3235" d="M166.923,298.507a10.727,10.727,0,0,0,9.438-5.652l28.548-53.306L186.032,229.44,164.12,270.359l-35.762-34.014L115.4,253.576C119.872,256.275,161.344,301.324,166.923,298.507Z"></path>
      <path fill="#2f3235" d="M135.781,348.758c-4.272,9.819-86.219,13.9-87.341-3.375-.714-10.992,3.973-20.587,3.973-42.01-2.862-29.368-25.088-71.081,21.863-72.517.734,5.721,35.464,5.741,35.728.133,36.8-1.178,22.458,38.847,21.637,68.316C131.244,332.4,140.186,338.643,135.781,348.758Z"></path>
      <path fill="#eda59f" d="M110,230.989c-.726,23.519-33.492,14.133-35.728-.133C86.625,230.856,102.8,230.877,110,230.989Z"></path>
      <path fill="#2f3235" d="M90.037,331c.244.007,64.12-1.955,64.413-1.959l-.679-22.222-56.827,1.732-29.982-62.74L46.9,255.4l33.107,69.28A11.115,11.115,0,0,0,90.037,331Z"></path>
      <path fill="#eda59f" d="M208.925,228.144l-7.32,9.64L187.085,230c2.6-3.96,8.92-9.1,8.92-9.1Z"></path>
      <g>
        <rect fill="#55affc" transform="translate(39.603 -33.495) rotate(9.369)" rx="3.179" height="62.434" width="49.173" y="193.676" x="199.59"></rect>
        <rect fill="#fff" transform="translate(36.201 -34.347) rotate(9.369)" rx="1.124" height="8.659" width="40.121" y="199.382" x="207.61"></rect>
        <rect fill="#fd5d76" transform="translate(37.535 -31.685) rotate(9.369)" rx="1.853" height="8.203" width="11.034" y="209.082" x="206.581"></rect>
        <rect opacity="0.29" fill="#fff" transform="translate(38.084 -33.875) rotate(9.369)" rx="1.853" height="8.203" width="11.034" y="211.333" x="220.22"></rect>
        <rect opacity="0.29" fill="#fff" transform="translate(38.632 -36.066) rotate(9.369)" rx="1.853" height="8.203" width="11.034" y="213.583" x="233.859"></rect>
        <rect opacity="0.29" fill="#fff" transform="translate(39.215 -31.265) rotate(9.369)" rx="1.853" height="8.203" width="11.034" y="219.538" x="204.855"></rect>
        <rect opacity="0.29" fill="#fff" transform="translate(39.763 -33.455) rotate(9.369)" rx="1.853" height="8.203" width="11.034" y="221.788" x="218.495"></rect>
        <rect opacity="0.29" fill="#fff" transform="matrix(0.987, 0.163, -0.163, 0.987, 40.311, -35.646)" rx="1.853" height="8.203" width="11.034" y="224.039" x="232.134"></rect>
        <rect opacity="0.29" fill="#fff" transform="translate(40.894 -30.844) rotate(9.369)" rx="1.853" height="8.203" width="11.034" y="229.993" x="203.13"></rect>
        <rect opacity="0.29" fill="#fff" transform="translate(41.442 -33.035) rotate(9.369)" rx="1.853" height="8.203" width="11.034" y="232.243" x="216.77"></rect>
        <rect opacity="0.29" fill="#fff" transform="translate(42.573 -30.424) rotate(9.369)" rx="1.853" height="8.203" width="11.034" y="240.448" x="201.405"></rect>
        <rect opacity="0.29" fill="#fff" transform="translate(43.121 -32.615) rotate(9.369)" rx="1.853" height="8.203" width="11.034" y="242.699" x="215.045"></rect>
        <path fill="#fdb754" d="M232.979,233.952a1.853,1.853,0,0,0-2.13,1.527l-1.321,8-.3,1.8-.838,5.075a1.855,1.855,0,0,0,1.527,2.131l7.23,1.192a1.852,1.852,0,0,0,2.13-1.526l.837-5.076.3-1.8,1.32-8a1.853,1.853,0,0,0-1.526-2.13Z"></path>
      </g>
      <path fill="#eda59f" d="M193.417,229.806s-4.3-2.154-1.542-5.06c3.647-3.839,8.481-7.972,11.279-6.485,1.762.937-3.232,6.311-7,10.081"></path>
    </g>
    <g>
      <path fill="#eda59f" d="M84.188,217.39c.01-.28.01-.549.01-.84.01-1.819-.069-3.8-.25-5.959l2.1-.391,13.879-2.57a57.482,57.482,0,0,0,.161,10.66c.049.4.1.811.159,1.221.04.319.091.649.15.97s.1.629.17.939c.12.66.26,1.321.43,1.97a4.174,4.174,0,0,0,.12.461.262.262,0,0,0,.02.079c.08.331.18.671.29.99.11.37.23.73.371,1.091.04.109.08.23.129.34.13.36.28.709.44,1.049.17.39.36.77.56,1.14a.01.01,0,0,1,.01.01,11.648,11.648,0,0,0,3.111,3.81H80.918C82.468,229.68,84.068,225.07,84.188,217.39Z"></path>
      <path opacity="0.15" d="M102.941,228.555,89.669,218.4l10.424-.108A28.761,28.761,0,0,0,102.941,228.555Z"></path>
      <path fill="#eda59f" d="M74.886,202.427c1.106,6.388,4.593,12.438,10.228,14.5,6.689,2.45,11.644,2.616,19.357,2.616,10.526,0,10.178-10.977,10.473-22.038.3-11.106-.586-23.019-4.746-26.889-8.3-7.724-32.673-2.832-35.637,10.088C73.028,187.387,73.834,196.346,74.886,202.427Z"></path>
      <path fill="#0f1011" d="M121.447,170.494c-1.761-6.456-7.248-9.611-16.323-7.239-6.454,1.687-7.271.17-12.736-2.461-3.13-1.507-13.4-.818-15.941,6.132-2.724,7.446-11.152,1.416-11.935,13.546-.654,10.153,1.312,23.339,12.591,32.213h0a27.231,27.231,0,0,0,6.073,4.594c.957.569,1.189.106,1.521-.956,1.174-3.756,3.548-16.888,2.578-27.574-.159-1.758.169-4.49,4.677-4.68,4.924-.207,17.721.9,22.25-2.346C114.2,181.723,123.208,176.951,121.447,170.494Z"></path>
      <g>
        <circle fill="#0f1011" r="1.449" cy="196.057" cx="99.905"></circle>
        <circle fill="#0f1011" r="1.449" cy="195.12" cx="111.336"></circle>
        <path fill="#0f1011" d="M113.847,192.032h-.008L110,191.984a.681.681,0,0,1,.009-1.361h.008l3.839.047a.681.681,0,0,1-.009,1.362Z"></path>
        <path fill="#0f1011" d="M96.777,193.431a.681.681,0,0,1-.158-1.343l3.784-.911a.681.681,0,0,1,.318,1.325l-3.784.911A.727.727,0,0,1,96.777,193.431Z"></path>
      </g>
      <path fill="#eda59f" d="M92.367,199.6a6.143,6.143,0,1,1-12.244,1,6.041,6.041,0,0,1,5.62-6.624C90.121,193.839,92.09,196.221,92.367,199.6Z"></path>
      <g opacity="0.15">
        <path d="M106.337,204.094a.5.5,0,0,1-.147-.978l2.947-.905-2.061-4.59a.5.5,0,1,1,.912-.41l2.293,5.106a.5.5,0,0,1-.309.684l-3.488,1.071A.5.5,0,0,1,106.337,204.094Z"></path>
      </g>
      <path fill="#f8fcff" d="M100.575,207.468s5.349.565,9.1-.745c0,0-.03,3.522-4.262,3.869S100.575,207.468,100.575,207.468Z"></path>
    </g>
  </g>
</svg>
