<svg viewBox="0 0 924.27 657.498" xmlns="http://www.w3.org/2000/svg" id="Layer_1">
  <path fill="#f3f5fd" d="M924.27,657.5H0c10.128-27.421,28.831-50.684,55.2-57.585,38.568-10.082,79.383,17.64,117.865,7.216,21.863-5.915,39.075-23.155,57.162-37.471,68.234-54.015,161.739-69.979,242.481-41.389,42.2,14.937,80.661,41.058,123.894,52.163,55.906,14.366,114.37,2.453,171.862.49C824.452,579.01,904.678,603.234,924.27,657.5Z"></path>
  <rect fill="#dee8f5" height="449.786" width="621.087" x="133.761"></rect>
  <rect fill="#c1d8ed" height="37.051" width="621.087" x="133.761"></rect>
  <circle fill="#fff" r="9.296" cy="18.526" cx="734.046"></circle>
  <g>
    <rect fill="#c1d8ed" height="132.685" width="220.962" y="81.634" x="646.614"></rect>
    <path fill="#fdb754" d="M844.846,148.019a45,45,0,1,1-84.17-22.161l39.17,22.161,43.72-10.65h.01A45.061,45.061,0,0,1,844.846,148.019Z"></path>
    <path fill="#dee8f5" d="M843.576,137.369l-43.73,10.65,17.44-41.49A45.051,45.051,0,0,1,843.576,137.369Z"></path>
    <g>
      <rect fill="#fff" height="9.863" width="59.744" y="117.025" x="669.62"></rect>
      <rect fill="#fff" height="9.863" width="59.744" y="143.045" x="669.62"></rect>
      <rect fill="#fff" height="9.863" width="59.744" y="169.065" x="669.62"></rect>
    </g>
    <path fill="#fff" d="M817.286,106.529l-17.44,41.49-39.17-22.161A45.026,45.026,0,0,1,817.286,106.529Z"></path>
  </g>
  <g>
    <rect fill="#c1d8ed" height="132.685" width="220.962" y="265.522" x="646.614"></rect>
    <rect fill="#fff" height="61.291" width="21.816" y="315.714" x="668.511"></rect>
    <rect fill="#fff" height="53.681" width="21.816" y="323.325" x="784.401"></rect>
    <rect fill="#fff" height="77.507" width="21.816" y="299.498" x="707.141"></rect>
    <rect fill="#fff" height="43.116" width="21.816" y="333.89" x="745.771"></rect>
    <rect fill="#fff" height="65.029" width="21.816" y="311.977" x="823.03"></rect>
  </g>
  <rect fill="#fff" height="266.43" width="412.043" y="81.634" x="180.571"></rect>
  <g>
    <path fill="#dee8f5" d="M563.266,318.942H208.745a1.5,1.5,0,0,1-1.5-1.5V113.463a1.5,1.5,0,1,1,3,0V315.942H563.266a1.5,1.5,0,0,1,0,3Z"></path>
    <path fill="#dee8f5" d="M220.485,303.948a1.5,1.5,0,0,1-.988-2.631l95.087-82.984a1.5,1.5,0,0,1,1.95-.019l28.451,23.83,80.053-57.988a1.5,1.5,0,0,1,1.751-.007l46.882,33.433,76.913-62.12a1.5,1.5,0,0,1,1.885,2.334h0l-77.8,62.835a1.5,1.5,0,0,1-1.813.054l-46.931-33.471L345.8,245.256a1.5,1.5,0,0,1-1.843-.065l-28.364-23.758L221.47,303.574A1.5,1.5,0,0,1,220.485,303.948Z"></path>
    <circle fill="#dee8f5" r="7" cy="158.792" cx="548.592"></circle>
    <g opacity="0.77">
      <g>
        <rect fill="#dee8f5" height="1" width="355.526" y="130.329" x="207.74"></rect>
        <rect fill="#dee8f5" height="1" width="355.526" y="161.164" x="207.74"></rect>
        <rect fill="#dee8f5" height="1" width="355.526" y="191.998" x="207.74"></rect>
        <rect fill="#dee8f5" height="1" width="355.526" y="222.833" x="207.74"></rect>
        <rect fill="#dee8f5" height="1" width="355.526" y="253.668" x="207.74"></rect>
        <rect fill="#dee8f5" height="1" width="355.526" y="284.502" x="207.74"></rect>
      </g>
    </g>
  </g>
  <g>
    <g>
      <path fill="#eda59f" d="M86.473,246.032s7.732-4.1,6.006-25.156l15.973-2.962s-1.8,18.878,6.288,24.872Z"></path>
      <g opacity="0.15">
        <path d="M111.469,238.839,98.2,228.686l10.424-.108A28.706,28.706,0,0,0,111.469,238.839Z"></path>
      </g>
      <path fill="#eda59f" d="M83.414,212.714c1.106,6.389,4.592,12.438,10.227,14.5,6.69,2.449,11.645,2.615,19.358,2.615,10.525,0,10.177-10.976,10.473-22.038.3-11.106-.586-23.018-4.746-26.888-8.3-7.725-32.674-2.833-35.638,10.087C81.552,197.671,82.361,206.631,83.414,212.714Z"></path>
      <path fill="#0f1011" d="M129.113,187.322s4.311-.963,3.13-5.261c-.782-2.85-4.434-2.217-4.434-2.217s3.458-.633,3.458-3.652c0-1.9-1.462-5.125-5.871-3.283-5.174,2.161-11.074,1.883-15.561,1.129a51.753,51.753,0,0,0-7.707-1.088h-.014a29.653,29.653,0,0,0-8.814,1.179c-8.02,2.4-20.157,9.591-17.577,25.893,2.88,18.194,11.418,25.152,15.174,27.384a1.712,1.712,0,0,0,2.35-.583,1.747,1.747,0,0,0,.168-.374c1.065-3.409,2.9-11.989,2.387-29.681,24.652-1.21,31.745-1.576,31.745-1.576s5.8.217,5.8-4.022S129.113,187.322,129.113,187.322Z"></path>
      <g>
        <circle fill="#0f1011" r="1.449" cy="206.341" cx="108.433"></circle>
        <circle fill="#0f1011" r="1.449" cy="205.404" cx="119.864"></circle>
        <path fill="#0f1011" d="M122.375,202.316h-.009l-3.839-.048a.681.681,0,0,1,.009-1.361h.009l3.838.047a.681.681,0,0,1-.008,1.362Z"></path>
        <path fill="#0f1011" d="M105.3,203.716a.681.681,0,0,1-.158-1.344l3.784-.91a.681.681,0,1,1,.319,1.324l-3.785.911A.728.728,0,0,1,105.3,203.716Z"></path>
      </g>
      <path fill="#eda59f" d="M100.9,209.887a6.143,6.143,0,1,1-12.23,1.173c-.006-.057-.01-.115-.014-.173a6.039,6.039,0,0,1,5.413-6.607c.069-.007.138-.013.207-.017C98.652,204.124,100.618,206.506,100.9,209.887Z"></path>
      <g opacity="0.15">
        <path d="M114.865,214.378a.5.5,0,0,1-.147-.977l2.947-.906-2.063-4.59a.5.5,0,0,1,.912-.411l2.3,5.108a.5.5,0,0,1-.309.683l-3.489,1.071A.488.488,0,0,1,114.865,214.378Z"></path>
      </g>
      <path fill="#fff" d="M109.1,217.753s5.349.564,9.1-.746c0,0-.03,3.523-4.263,3.87S109.1,217.753,109.1,217.753Z"></path>
    </g>
    <g>
      <path fill="#eda59f" d="M194.252,246.105s.15-12.01,8.735-11.386c5.416.394,31.151-.8,31.534,1.544.948,5.8-22.592,7.218-24.728,12.623Z"></path>
      <path fill="#eda59f" d="M199.944,235.1s11.949-3.894,14.886-3.2c2.6.617-2.82,4.85-2.82,4.85Z"></path>
    </g>
    <path fill="#eda59f" d="M193.509,646.676,172.656,644.2c.938-7.894,2-17.374,2.071-18.929,0,.1,0,.182,0,.245h21C195.722,626.143,195.722,628.059,193.509,646.676Z"></path>
    <path fill="#eda59f" d="M99.834,649.187l-21-.068s.07-21.685.07-23.605h21C99.9,627.44,99.834,649.187,99.834,649.187Z"></path>
    <path fill="#55affc" d="M164.752,643.984l36.01-8.5c-23.31-91.532-42.877-184.957-61.827-277.47l-.267.079-.781-5.33-76.077-4.7s-2.031,37.261-1.918,49.693c.339,37.116,8.668,162.443,13.488,243.6l36.951-1.893c-2.174-78.7-6.047-157.514-5.625-236.235C126.833,482.87,146.9,563.361,164.752,643.984Z"></path>
    <path fill="#c1d8ed" d="M125.362,657.314a4.108,4.108,0,0,0,4.088-4.128c0-.1,0-.2-.012-.3h0a4.108,4.108,0,0,0-2.658-3.53l-24.443-8.186a3.463,3.463,0,0,0-2.872.319A19.1,19.1,0,0,1,88,644.89a17.031,17.031,0,0,1-8.82-3.222,1.546,1.546,0,0,0-2.528,1.2V654.82a2.678,2.678,0,0,0,2.678,2.678h.011Z"></path>
    <path fill="#c1d8ed" d="M219.1,657.314a4.108,4.108,0,0,0,4.088-4.128c0-.1,0-.2-.012-.3h0a4.107,4.107,0,0,0-2.659-3.53l-24.442-8.186a3.461,3.461,0,0,0-2.873.319,19.1,19.1,0,0,1-11.467,3.4,17.034,17.034,0,0,1-8.821-3.222,1.546,1.546,0,0,0-2.527,1.2V654.82a2.676,2.676,0,0,0,2.676,2.678h.013Z"></path>
    <path fill="#2f3235" d="M193.24,239.088l-21.548,40.234-32.24-30.157a16.494,16.494,0,0,0-5.919-5.538l-.154-.143-.036.039a26.738,26.738,0,0,0-11.729-2.845c-.63-.03-1.64-.05-2.94-.07-.26,5.5-34.32,5.48-35.04-.13-9.62.01-17.51,2.96-22.08,7.53-15.75,15.75,3.58,42.59,3.58,63.59s-9.5,30.42-8.8,41.2c1.1,16.94,83.43,12.94,87.619,3.31,2.453-5.632.687-10.044-1.227-18.74l19.536-.6-.664-21.794-21.605.658c-.093-2.486-.134-5.149-.1-8.028.1-8.479,1.526-17.892,2.517-26.919l24.912,23.3a10.5,10.5,0,0,0,16.428-2.711l28-52.28Z"></path>
    <path fill="#eda59f" d="M118.676,240.608c-.26,5.5-3.25,13.59-12.48,14.2-12.3.81-21.84-8.72-22.56-14.33h.03C95.776,240.478,111.616,240.5,118.676,240.608Z"></path>
    <g>
      <g>
        <path fill="#9ebcea" d="M157.117,262.993l-12.143,50.971a5.4,5.4,0,0,0,5.252,6.65H221.81a5.4,5.4,0,0,0,5.206-3.97l13.991-50.971a5.4,5.4,0,0,0-5.206-6.827H162.369A5.4,5.4,0,0,0,157.117,262.993Z"></path>
        <path fill="#9ebcea" d="M119.491,314.269H206.01a3.172,3.172,0,0,1,3.172,3.172h0a3.172,3.172,0,0,1-3.172,3.172H119.491a3.172,3.172,0,0,1-3.172-3.172h0A3.172,3.172,0,0,1,119.491,314.269Z"></path>
      </g>
      <circle fill="#fff" r="8.466" cy="289.226" cx="195.922"></circle>
    </g>
    <path fill="#eda59f" d="M179.617,327.3c-4.489,2.77-11.439,4.08-17.5,4.56l-.34-11.04c2.851-.08,7.231-.38,11.52-.21,1.939-1.581,3.055-2.05,5.044-4.04,2.119-2.118,7.677-3.39,8.726,0S183.558,324.864,179.617,327.3Z"></path>
  </g>
  <g>
    <path fill="#8ddbe0" d="M856.638,576.35c-4.84-1.585-9.807.193-14.558,3.808,6.258-15.807,8.842-30.083-1.859-30.726-7.487-.45-13.223,5.295-17.581,13.462-1.532-14.36-5.487-25.069-14.343-21.518-9.723,3.9-11.2,17.257-9.727,31.235-4.284-7.14-8.9-11.121-13.084-6.933-12.5,12.5,18.18,47.722,18.18,47.722h7.618l4.348,4.72c-.88,1.86-1.362,2.969-1.362,2.969l5.523,11.239S876.722,582.923,856.638,576.35Z"></path>
    <polygon fill="#c1d8ed" points="842.978 657.497 799.858 657.497 792.639 607.16 850.195 607.16 842.978 657.497"></polygon>
  </g>
</svg>
