<svg viewBox="0 0 1166.753 679.017" xmlns="http://www.w3.org/2000/svg" id="Layer_1">
  <g id="Layer_8">
    <path fill="#f3f5fd" d="M94.882,677.054c-33.271.03-62.981-20.13-74.261-50.388-24.189-65.14-45.5-185.806,49.207-316.325C174.548,166.026,384.037,16.834,531.388,1.55,762.227-22.382,826.75,237.8,930.326,298.345c89.49,52.311,219.086,130.753,236.026,294.7,4.363,41.966-27.293,79.406-70.7,83.624q-3.919.38-7.861.382Z"></path>
  </g>
  <path fill="#8ddbe0" d="M106.427,672.668c-19.806-6.139-39.022-14.16-56.531-36.609-3.593-4.6-6.969-10.494-5-16,1.482-4.144,5.769-6.8,10.125-7.476a21.007,21.007,0,0,1,4.9-.135c.008,0,.016.006.019,0A41.337,41.337,0,0,1,67.35,613.9l.692.2a122.111,122.111,0,0,1,32.668,14.755,4.811,4.811,0,0,0,6.7-6.55,29.091,29.091,0,0,0-3.58-4.7,46.158,46.158,0,0,0-6.514-5.649c-3.113-2.271-6.436-4.3-9.687-6.373a268.4,268.4,0,0,1-34.24-25.876c-7.64-6.806-15.112-14.359-18.743-23.927-1.669-4.4-2.428-9.473-.438-13.738,3.284-7,12.587-8.962,20.194-7.509,13.33,2.553,23.979,12.324,33.422,22.064,7.831,8.093,16.605,17.053,27.856,17.551a9.854,9.854,0,0,0,5.547-1.113c3.209-1.944,4.034-6.448,2.89-10.024s-3.79-6.433-6.346-9.177C102.923,537.9,88.308,521.325,78.665,501.8s-13.915-42.571-7.214-63.3c1.965-6.06,4.917-11.956,9.522-16.358s11.063-7.163,17.385-6.32c8.613,1.134,15.1,8.405,19.464,15.908,15,25.754,14.083,57.309,18.308,86.809,1.183,8.259,2.9,16.729,7.82,23.527a5.565,5.565,0,0,0,1.726,1.61c4.048,2.344,7.681-2.383,9.2-6.394,6-15.869,7.5-34.017,18.243-47.151,4.1-5,9.9-9.178,16.364-9.137,7.895.054,14.655,6.648,16.959,14.2s.925,15.756-1.543,23.255c-4.582,13.906-12.794,26.4-22.471,37.38-5.1,5.8-10.871,11.655-12.4,19.218a15.332,15.332,0,0,0,4.813,14.134,8.988,8.988,0,0,0,6.654,2.176c2.592-.238,4.936-1.559,7.195-2.844.949-.54,1.9-1.089,2.857-1.626q5.66-3.222,11.322-6.452c9.595-5.474,21.181-11.067,31.175-6.353,5.1,2.41,8.442,7.148,10.013,12.586a27.532,27.532,0,0,1,0,15.1c-2.977,10.263-21.741,38.822-29.48,46.187C205.54,656.562,174.2,693.67,106.427,672.668Z"></path>
  <g>
    <rect fill="#dee8f5" height="449.786" width="621.087" y="7.666" x="293.247"></rect>
    <rect fill="#c1d8ed" height="37.051" width="621.087" y="7.666" x="293.247"></rect>
    <circle fill="#fff" r="9.296" cy="26.192" cx="893.532"></circle>
  </g>
  <g>
    <rect fill="#fff" height="82.222" width="82.222" y="99.757" x="341.493"></rect>
    <rect fill="#fff" height="82.222" width="82.222" y="99.757" x="452.086"></rect>
    <rect fill="#fff" height="82.222" width="82.222" y="99.757" x="562.679"></rect>
    <rect fill="#fff" height="82.222" width="82.222" y="99.757" x="673.272"></rect>
    <rect fill="#fff" height="82.222" width="82.222" y="209.345" x="341.493"></rect>
    <rect fill="#fdb754" height="82.222" width="82.222" y="209.345" x="452.086"></rect>
    <rect fill="#fff" height="82.222" width="82.222" y="209.345" x="562.679"></rect>
    <rect fill="#fff" height="82.222" width="82.222" y="209.345" x="673.272"></rect>
    <rect fill="#fff" height="82.222" width="82.222" y="318.932" x="341.493"></rect>
    <rect fill="#fff" height="82.222" width="82.222" y="318.932" x="452.086"></rect>
    <rect fill="#fff" height="82.222" width="82.222" y="318.932" x="562.679"></rect>
    <rect fill="#fff" height="82.222" width="82.222" y="318.932" x="673.272"></rect>
    <rect fill="#fff" height="82.222" width="82.222" y="99.757" x="783.866"></rect>
    <rect fill="#fff" height="82.222" width="82.222" y="209.345" x="783.866"></rect>
    <rect fill="#fff" height="82.222" width="82.222" y="318.932" x="783.866"></rect>
  </g>
  <g>
    <path fill="#eda59f" d="M403.293,668.2l-20.854-2.479c.939-7.894,2-17.374,2.071-18.929,0,.1,0,.182,0,.245h21C405.506,647.665,405.506,649.581,403.293,668.2Z"></path>
    <path fill="#eda59f" d="M319.616,670.71l-21-.068s.07-21.686.07-23.606h21C319.686,648.962,319.616,670.71,319.616,670.71Z"></path>
    <path fill="#55affc" d="M411.04,660.939c-1.738-44.009-1.843-90.231-2.388-134.357-7.222-47.593-11.019-99.793-19.934-147.049l-.267.079-.781-5.33-76.077-4.695-2.96,49.7h.284c-3.83,66.581-11.233,173.615-15.713,241.089l36.869,3.115c6.585-66.359,16.322-172.075,22.272-237.478,6.53,33.326,13.687,70.855,19.485,104.577,1.269,43.078,2.331,87.97,2.215,130.978Z"></path>
    <path fill="#c1d8ed" d="M345.145,678.833a4.108,4.108,0,0,0,4.088-4.128c0-.1,0-.2-.012-.3h0a4.105,4.105,0,0,0-2.658-3.529L322.12,662.69a3.463,3.463,0,0,0-2.872.319,19.1,19.1,0,0,1-11.468,3.4,17.039,17.039,0,0,1-8.82-3.222,1.547,1.547,0,0,0-2.528,1.2v11.952a2.678,2.678,0,0,0,2.678,2.678h.011Z"></path>
    <path fill="#c1d8ed" d="M428.879,678.833a4.108,4.108,0,0,0,4.088-4.128c0-.1,0-.2-.012-.3h0a4.1,4.1,0,0,0-2.659-3.529l-24.442-8.187a3.465,3.465,0,0,0-2.873.319,19.109,19.109,0,0,1-11.467,3.4,17.043,17.043,0,0,1-8.821-3.222,1.546,1.546,0,0,0-2.527,1.2v11.952a2.678,2.678,0,0,0,2.678,2.678h.011Z"></path>
    <g>
      <path fill="#0f1011" d="M348.63,220.7l-3.424,1.15s.447,12.144,1.712,18.322,2.251,14.228,6.182,15.112c5.217,1.174,11.44,1.607,15.961-.009,3.419-1.222,3.944-12.83,4.278-18.563.149-2.547-.175-2.325-2.72-2.151-5.208.358-13.308.633-16.29-.8C349.786,231.581,348.63,220.7,348.63,220.7Z"></path>
      <g>
        <path fill="#eda59f" d="M335.97,266.211s7.733-4.1,6.006-25.156l15.976-2.963s-1.8,18.879,6.288,24.872Z"></path>
        <path fill="#eda59f" d="M332.911,232.89c1.106,6.388,4.592,12.438,10.228,14.5,6.689,2.45,11.644,2.616,19.357,2.616,10.525,0,10.177-10.977,10.473-22.039.3-11.1.232-20.483-3.928-24.353-8.3-7.725-33.491-5.368-36.456,7.552C331.052,217.848,331.858,226.809,332.911,232.89Z"></path>
      </g>
      <path fill="#0f1011" d="M327.843,224.673c1.537,9.711,3.55,12.774,6.456,17.416a24.091,24.091,0,0,0,6.787,7.359c2.142,1.379,23.154,1.093,26.781.563,5.352-.783,6.163-16.031,5.207-16.031-1.19,0-1.473-.032-2.813-.032-2.445,0-2.689-14.567-3.15-21.012a8.28,8.28,0,0,1,1.134-.079C379.75,212.853,325.263,208.371,327.843,224.673Z"></path>
      <path fill="#eda59f" d="M365.051,234.259a6.134,6.134,0,0,1-6.27-5.63,6.031,6.031,0,0,1,5.4-6.606c.054-.006.109-.01.163-.014C364.486,226.369,364.711,230.958,365.051,234.259Z"></path>
      <path fill="#55affc" d="M327.843,224.673s-5.394-27.279,20.673-29.8,24.5,21.851,24.5,21.851L362.674,222S351.129,225.167,327.843,224.673Z"></path>
      <path fill="#0f1011" d="M331.56,221.5a8.951,8.951,0,0,1,17.895-.5"></path>
      <path fill="#55affc" d="M362.679,221.994s8.506-2.868,13.058-5.556c4.847-2.863,11.4-8.064,11.367-9.612-.06-2.7-9.489-3.453-17.192-3.148l.059.115a12.251,12.251,0,0,1-3.45,15.221Z"></path>
    </g>
    <g>
      <path fill="#eda59f" d="M289.2,405.62c0,2.98,1.573,12.942-.958,13.654-1.517.427-3.309-7-3.309-7"></path>
      <path fill="#eda59f" d="M277.255,404.055s-8.264,20.114,1.162,31.669a1.888,1.888,0,0,0,3.346-1.076c.458-7.791,2.029-23.794,7.166-21.925V400.155"></path>
    </g>
    <path fill="#eda59f" d="M463.6,296.891s11.542-9.168,12.358-12.461-7.312-9.77-7.312-9.77,10.808-10.9,8.653-12.474c-2.544-1.864-15.085,13.982-15.085,13.982s1.772-5.7-.436-6.075c-.907-.153-1.626.737-3.046,4.772-1.618,4.6-4.852,11.515-4.852,11.515Z"></path>
    <path fill="#2f3235" d="M451.446,284.7,417.308,323.11l-26.7-47.8c-2.528-7.551-8.284-12.609-20.023-13.112-4.015-.172-23.606-.2-37.95-.2-9.636,0-17.547,2.956-22.116,7.525a20.136,20.136,0,0,0-5.02,8.129l-.139-.051-22.953,62.417a10.959,10.959,0,0,0-.552,2.162l-9.264,62.414,21.569,3.2,9.1-61.305,9.27-25.207a53.4,53.4,0,0,1,1.572,11.837c0,21-9.5,30.418-8.8,41.2,1.1,16.945,83.429,12.941,87.624,3.316,4.319-9.926-4.447-16.042-4.063-48.51.041-3.533.314-7.229.69-10.992l16.2,29a10.9,10.9,0,0,0,17.666,1.925l44.884-52.5Z"></path>
  </g>
  <g>
    <g>
      <path fill="#c1d8ed" d="M969.248,520.663,937.759,674.248a3.712,3.712,0,0,1-3.6,2.806h0a3.71,3.71,0,0,1-3.6-4.614L962.5,517.081Z"></path>
      <path fill="#c1d8ed" d="M1043.23,520.417,1074.719,674a3.712,3.712,0,0,0,3.6,2.807h0a3.71,3.71,0,0,0,3.6-4.614l-31.937-155.359Z"></path>
    </g>
    <rect fill="#dee8f5" rx="6.417" height="26.962" width="153.01" y="505.641" x="929.734"></rect>
  </g>
  <g>
    <path fill="#8ddbe0" d="M1036.483,434.606c-4.191-1.372-8.492.167-12.606,3.3,5.419-13.688,7.657-26.05-1.609-26.606-6.484-.39-11.451,4.584-15.224,11.656-1.327-12.434-4.751-21.707-12.42-18.633-8.42,3.375-9.7,14.944-8.423,27.047-3.71-6.182-7.7-9.629-11.33-6-10.822,10.822,15.742,41.323,15.742,41.323h6.6l3.765,4.088c-.762,1.61-1.179,2.57-1.179,2.57l4.782,9.732S1053.875,440.3,1036.483,434.606Z"></path>
    <polygon fill="#c1d8ed" points="1024.655 504.873 987.316 504.873 981.066 461.285 1030.904 461.285 1024.655 504.873"></polygon>
  </g>
</svg>
