<svg viewBox="0 0 901.189 700.945" xmlns="http://www.w3.org/2000/svg" id="Layer_1">
  <g id="Layer_8">
    <path fill="#f3f5fd" d="M73.286,700.945a60.909,60.909,0,0,1-57.358-40.26C-2.756,608.639-19.216,512.227,53.935,407.943c80.884-115.307,242.691-234.511,356.5-246.722,178.3-19.122,228.135,188.762,308.137,237.137,69.12,41.8,169.22,104.472,182.3,235.464a61.018,61.018,0,0,1-54.611,66.814q-3.027.3-6.072.306Z"></path>
  </g>
  <g>
    <rect fill="#dee8f5" height="494.601" width="381.27" x="245.064"></rect>
    <rect fill="#fff" height="119.37" width="310.986" y="140.303" x="280.206"></rect>
    <rect fill="#fff" height="60.491" width="310.986" y="400.218" x="280.206"></rect>
    <g>
      <rect fill="#fff" height="11.776" width="310.986" y="283.046" x="280.206"></rect>
      <rect fill="#fff" height="11.776" width="310.986" y="312.088" x="280.206"></rect>
      <rect fill="#fff" height="11.776" width="310.986" y="341.129" x="280.206"></rect>
      <rect fill="#fff" height="11.776" width="310.986" y="367.163" x="280.206"></rect>
    </g>
    <g>
      <path fill="#c1d8ed" d="M364.916,78.081a42.355,42.355,0,1,1-42.355-42.354A42.229,42.229,0,0,1,364.916,78.081Z"></path>
      <circle fill="#fff" r="16.768" cy="65.678" cx="322.561"></circle>
      <path fill="#fff" d="M353.082,107.451a42.363,42.363,0,0,1-61.043,0c5.711-12.763,17.24-21.486,30.522-21.486S347.372,94.688,353.082,107.451Z"></path>
    </g>
    <rect fill="#fff" height="25.841" width="85.51" y="35.989" x="382.174"></rect>
    <rect fill="#fff" height="9.402" width="209.017" y="77.815" x="382.174"></rect>
    <rect fill="#fff" height="9.402" width="209.017" y="103.2" x="382.174"></rect>
  </g>
  <g>
    <path fill="#eda59f" d="M290.214,343.767s8.208-3.989,14.374-2.458,3.276,4.184-1.21,5.128-14.343,2.479-14.343,2.479"></path>
    <path fill="#eda59f" d="M295.008,343.58s15.218-1.6,15.377,2.062c0,0,.666,11.3-1.4,13.043-3.121,2.635-18.58.571-18.58.571Z"></path>
  </g>
  <g>
    <g>
      <path fill="#eda59f" d="M184.659,690.126l-20.854-2.48c.939-7.893,2-17.374,2.072-18.928,0,.1,0,.182,0,.245h21C186.873,669.592,186.873,671.508,184.659,690.126Z"></path>
      <path fill="#eda59f" d="M100.983,692.636l-21-.068s.07-21.685.07-23.605h21C101.053,670.889,100.983,692.636,100.983,692.636Z"></path>
      <path fill="#55affc" d="M155.411,683.5l37-.63c-1.538-38.963-1.8-83.529-2.213-123.855a234.064,234.064,0,0,0-2.26-29.873c-5.952-42.723-9.835-85.2-17.848-127.678l-.268.079-.781-5.33-76.077-4.7L89,441.218S79.089,613.165,74.57,682.3l36.869,3.115c6.643-67.786,16.923-166.556,23.246-237.767,7.261,34.669,12.2,70.568,18.514,104.94C154.463,595.618,155.529,640.6,155.411,683.5Z"></path>
      <path fill="#c1d8ed" d="M126.511,700.759a4.11,4.11,0,0,0,4.077-4.428h0a4.11,4.11,0,0,0-2.659-3.529l-24.443-8.186a3.461,3.461,0,0,0-2.872.319,19.1,19.1,0,0,1-11.468,3.4,17.035,17.035,0,0,1-8.82-3.222,1.547,1.547,0,0,0-2.528,1.2v11.952a2.678,2.678,0,0,0,2.689,2.678Z"></path>
      <path fill="#c1d8ed" d="M210.245,700.759a4.108,4.108,0,0,0,4.076-4.428h0a4.108,4.108,0,0,0-2.658-3.529l-24.443-8.186a3.461,3.461,0,0,0-2.872.319,19.1,19.1,0,0,1-11.468,3.4,17.038,17.038,0,0,1-8.821-3.222,1.546,1.546,0,0,0-2.527,1.2v11.952a2.678,2.678,0,0,0,2.689,2.678Z"></path>
    </g>
    <path fill="#2f3235" d="M254.778,362.245H195.3a10.5,10.5,0,0,1-8.841-4.837L148.877,298.74l17.682-11.327,34.485,53.832h53.734Z"></path>
    <path fill="#2f3235" d="M174.465,398.033c-4.189,9.63-86.52,13.63-87.62-3.31-.7-10.78,8.8-20.19,8.8-41.2s-19.33-47.84-3.58-63.59c4.57-4.57,12.461-7.52,22.08-7.53.72,5.61,34.78,5.63,35.04.13,1.3.02,2.31.04,2.94.07,33.18,1.43,18.6,39.19,18.28,66.93C170.015,381.993,178.785,388.113,174.465,398.033Z"></path>
    <path fill="#eda59f" d="M149.185,282.533c-.26,5.5-3.25,13.59-12.48,14.2-12.3.81-21.84-8.72-22.56-14.33h.03C126.285,282.4,142.125,282.423,149.185,282.533Z"></path>
    <g>
      <path fill="#eda59f" d="M117.146,287.957s7.732-4.1,6.006-25.156l15.976-2.962s-1.795,18.878,6.287,24.872Z"></path>
      <g opacity="0.15">
        <path d="M142.142,280.764,128.869,270.61l10.425-.108A28.735,28.735,0,0,0,142.142,280.764Z"></path>
      </g>
      <path fill="#eda59f" d="M114.087,254.636c1.106,6.389,4.592,12.438,10.227,14.5,6.69,2.449,11.645,2.615,19.358,2.615,10.525,0,10.177-10.977,10.473-22.038.3-11.106-.587-23.018-4.747-26.888-8.3-7.725-32.673-2.833-35.637,10.087C112.228,239.6,113.034,248.555,114.087,254.636Z"></path>
      <path fill="#0f1011" d="M159.786,229.247s4.31-.963,3.13-5.261c-.782-2.851-4.434-2.217-4.434-2.217s3.458-.634,3.458-3.653c0-1.9-1.462-5.124-5.872-3.282-5.173,2.161-11.074,1.883-15.56,1.129a51.71,51.71,0,0,0-7.708-1.088l-.013,0v0a29.662,29.662,0,0,0-8.814,1.179c-8.02,2.4-20.157,9.591-17.577,25.893,2.88,18.194,11.418,25.152,15.174,27.384a1.711,1.711,0,0,0,2.517-.957c1.066-3.409,2.9-11.989,2.388-29.681,24.652-1.21,31.745-1.577,31.745-1.577s5.8.218,5.8-4.022S159.786,229.247,159.786,229.247Z"></path>
      <g>
        <circle fill="#0f1011" r="1.449" cy="248.266" cx="139.105"></circle>
        <circle fill="#0f1011" r="1.449" cy="247.329" cx="150.537"></circle>
        <path fill="#0f1011" d="M153.047,244.241h-.008l-3.839-.048a.681.681,0,0,1-.672-.69.691.691,0,0,1,.69-.672l3.838.049a.681.681,0,0,1-.009,1.361Z"></path>
        <path fill="#0f1011" d="M135.978,245.641a.681.681,0,0,1-.159-1.344l3.785-.91a.681.681,0,1,1,.318,1.324l-3.784.911A.728.728,0,0,1,135.978,245.641Z"></path>
      </g>
      <path fill="#eda59f" d="M131.568,251.812a6.143,6.143,0,0,1-12.245,1,6.041,6.041,0,0,1,5.62-6.624C129.321,246.049,131.29,248.431,131.568,251.812Z"></path>
      <g opacity="0.15">
        <path d="M145.537,256.3a.5.5,0,0,1-.147-.978l2.948-.905-2.062-4.59a.5.5,0,0,1,.912-.41l2.294,5.107a.5.5,0,0,1-.309.683l-3.489,1.071A.5.5,0,0,1,145.537,256.3Z"></path>
      </g>
      <path fill="#fff" d="M139.776,259.678s5.348.564,9.1-.746c0,0-.029,3.523-4.262,3.87S139.776,259.678,139.776,259.678Z"></path>
    </g>
  </g>
  <circle fill="#8ddbe0" r="60" cy="351.745" cx="246.045"></circle>
  <path fill="#eda59f" d="M308.98,358.688a3.472,3.472,0,0,1-.93.528c-1.793.37-6.315-.712-7.04-1.966-1.18-2.041-.448-9.415.593-12.091.977-2.5,5.843-1.453,6.482-1.334a.371.371,0,0,0,.062.016c1.326.364,2.2.932,2.236,1.805C310.383,345.646,311.053,356.936,308.98,358.688Z"></path>
  <g>
    <path fill="#eda59f" d="M176.5,365.505s2.409-13.154,11.714-10.865c5.872,1.445,22.934-1.133,23.194,6.406.225,6.542-15.8,8.286-21.1,7.741C185.551,368.3,176.5,365.505,176.5,365.505Z"></path>
    <path fill="#eda59f" d="M184.806,354.5s13.843-2.042,16.936-.727c2.738,1.163-4,4.8-4,4.8Z"></path>
  </g>
  <path fill="#2f3235" d="M189.234,372.81l-61.879-1.888a10.9,10.9,0,0,1-9.323-5.834L87.481,306.834l19.309-10.127,27.594,52.615,55.515,1.694Z"></path>
  <path fill="#fff" d="M237.192,376.348a4.043,4.043,0,0,1-2.774-1.1L214.806,356.74a4.042,4.042,0,0,1,5.548-5.879l16.614,15.678,34.55-38.072A4.042,4.042,0,1,1,277.5,333.9l-37.319,41.123a4.041,4.041,0,0,1-2.836,1.323Z"></path>
  <g>
    <g>
      <rect fill="#c1d8ed" height="15.388" width="13.959" y="685.558" x="685.979"></rect>
      <rect fill="#c1d8ed" height="15.388" width="13.959" y="685.558" x="818.787"></rect>
    </g>
    <rect fill="#c1d8ed" height="177.231" width="58.568" y="510.11" x="786.196"></rect>
    <rect fill="#c1d8ed" height="171.523" width="59.977" y="514.035" x="625.823"></rect>
    <path fill="#dee8f5" d="M790.141,687.341H621.878V510.11H790.141Zm-160.373-7.89H782.251V518H629.768Z"></path>
    <path fill="#dee8f5" d="M790.141,687.341H621.878V589.627H790.141Zm-160.373-7.89H782.251V597.517H629.768Z"></path>
    <g>
      <polygon fill="#c1d8ed" points="698.156 532.058 698.156 543.344 698.156 589.563 769.634 589.563 769.634 543.344 769.634 532.058 698.156 532.058"></polygon>
      <rect fill="#dee8f5" height="46.219" width="71.478" y="543.344" x="674.728"></rect>
      <rect fill="#c1d8ed" height="3.465" width="71.478" y="543.344" x="674.728"></rect>
      <rect fill="#dee8f5" transform="translate(1420.935 1075.402) rotate(180)" height="11.286" width="71.478" y="532.058" x="674.728"></rect>
      <rect fill="#fff" rx="1.647" height="6.94" width="19.137" y="552.627" x="700.899"></rect>
    </g>
    <g>
      <rect fill="#dee8f5" height="15.388" width="13.959" y="685.558" x="632.626"></rect>
      <rect fill="#dee8f5" height="15.388" width="13.959" y="685.558" x="765.434"></rect>
    </g>
    <g>
      <rect fill="#c1d8ed" height="17.596" width="77.709" y="661.855" x="685.805"></rect>
      <rect fill="#c1d8ed" height="17.596" width="77.709" y="626.703" x="687.141"></rect>
      <g>
        <rect fill="#dee8f5" height="17.596" width="82.177" y="661.855" x="654.82"></rect>
        <g opacity="0.62">
          <rect fill="#c1d8ed" height="17.596" width="3.989" y="661.855" x="726.3"></rect>
        </g>
        <g opacity="0.62">
          <rect fill="#c1d8ed" height="17.596" width="3.989" y="661.855" x="718.323"></rect>
        </g>
        <circle fill="#f3f5fd" r="5.674" cy="670.653" cx="664.241"></circle>
      </g>
      <g>
        <rect fill="#dee8f5" height="17.596" width="82.177" y="626.703" x="656.155"></rect>
        <rect fill="#f3f5fd" height="9.67" width="57.345" y="630.666" x="661.446"></rect>
        <g opacity="0.62">
          <rect fill="#c1d8ed" height="17.596" width="7.548" y="626.703" x="724.076"></rect>
        </g>
      </g>
      <g>
        <rect fill="#c1d8ed" transform="translate(1461.995 1306.155) rotate(-180)" height="17.596" width="77.709" y="644.279" x="692.143"></rect>
        <g>
          <rect fill="#f3f5fd" transform="translate(1404.492 1306.155) rotate(-180)" height="17.596" width="82.177" y="644.279" x="661.157"></rect>
          <rect fill="#dee8f5" transform="translate(1339.72 1306.155) rotate(-180)" height="17.596" width="3.989" y="644.279" x="667.866"></rect>
          <rect fill="#dee8f5" transform="translate(1355.675 1306.155) rotate(-180)" height="17.596" width="3.989" y="644.279" x="675.843"></rect>
          <circle fill="#dee8f5" r="5.674" cy="653.077" cx="733.914"></circle>
        </g>
        <rect fill="#dee8f5" height="8.626" width="36.276" y="648.764" x="685.979"></rect>
      </g>
    </g>
  </g>
  <g>
    <path fill="#8ddbe0" d="M757.416,470.761a4.37,4.37,0,0,1-5.944,1.7c-1.124-.619-3.385-.092-4.316.775-2.46,2.275-3.62,4.06-3.876,6.008H720.264a31.515,31.515,0,0,0-.534-4.131c-.576-2.908-1.927-6.982-5.027-9.848a4.117,4.117,0,0,0-2.4-1.287,4.371,4.371,0,1,1-3.847-7.85c3.7-1.841,8.377-.8,12.173,2.709a22.243,22.243,0,0,1,3.15,3.62,38.453,38.453,0,0,0-1.628-6.563,15.237,15.237,0,0,0-4.657-6.926A4.376,4.376,0,0,1,722.8,442a23.57,23.57,0,0,1,7.594,10.929c.157.433.306.874.441,1.322,2.723-6.783,5.511-12.521,11.135-15.828a4.376,4.376,0,0,1,4.437,7.544c-3.434,2.02-5.489,6.578-7.807,12.429a32.837,32.837,0,0,1,9.037-7.3,4.373,4.373,0,1,1,4.188,7.679,24.139,24.139,0,0,0-6.968,5.774,12.662,12.662,0,0,1,10.865.263A4.379,4.379,0,0,1,757.416,470.761Z"></path>
    <rect fill="#dee8f5" height="11.825" width="40.669" y="479.243" x="711.66"></rect>
    <path fill="#c1d8ed" d="M752.325,491.068v12.963a6.081,6.081,0,0,1-6.08,6.079H717.732a6.081,6.081,0,0,1-6.079-6.079V491.068Z"></path>
  </g>
</svg>
