<svg viewBox="0 0 759.359 586.419" xmlns="http://www.w3.org/2000/svg" id="Layer_1">
  <path fill="#f3f5fd" d="M696.379,586.289A62.98,62.98,0,0,0,759.3,520.522c-2.072-46.864-31.856-114.028-113.037-174.687C533.62,261.671,607.884,69.5,460.025,49.428,216.99,16.444,262.968,232.159,112.9,310.805,17.374,360.867.006,458.82,0,523.409a62.939,62.939,0,0,0,62.977,62.88Z"></path>
  <g>
    <g>
      <rect fill="#fff" rx="34.026" height="568.772" width="313.451" y="8.823" x="269.323"></rect>
      <path fill="#dee8f5" d="M548.748,586.419H303.35a42.9,42.9,0,0,1-42.85-42.85V42.85A42.9,42.9,0,0,1,303.35,0h245.4A42.9,42.9,0,0,1,591.6,42.85V543.569A42.9,42.9,0,0,1,548.748,586.419ZM303.35,17.646a25.232,25.232,0,0,0-25.2,25.2V543.569a25.231,25.231,0,0,0,25.2,25.2h245.4a25.231,25.231,0,0,0,25.2-25.2V42.85a25.232,25.232,0,0,0-25.2-25.2Z"></path>
    </g>
    <path fill="#dee8f5" d="M372.317,8.823H479.78a0,0,0,0,1,0,0V29.673a15.607,15.607,0,0,1-15.607,15.607h-76.25a15.607,15.607,0,0,1-15.607-15.607V8.823A0,0,0,0,1,372.317,8.823Z"></path>
  </g>
  <g>
    <g>
      <path fill="#0f1011" d="M87.593,133.585c-.154-14.869,5.723-24.083,13.69-29.142,7.862-4.992,32.516-9.337,41.863,8.784,6.1,11.825,3.692,16.052,5.42,34.991s8.366,20.927,15.1,43.883c5.28,18.007-24.3,27.566-49.911,26.74s-41.85-6.5-43.336-22.787C68.282,172.675,87.893,162.723,87.593,133.585Z"></path>
      <path fill="#eda59f" d="M102.854,174.7s7.694-4.171,5.775-25.211l15.948-3.109s-1.622,18.9,6.515,24.814Z"></path>
      <g opacity="0.15">
        <path d="M127.783,167.272l-13.365-10.031,10.423-.2A28.737,28.737,0,0,0,127.783,167.272Z"></path>
      </g>
      <path fill="#eda59f" d="M99.489,141.4c1.165,6.378,4.706,12.4,10.36,14.407a40.515,40.515,0,0,0,19.381,2.438c17.476-1.595,13.652-41.329,5.278-48.977s-32.7-2.533-35.544,10.413C97.493,126.38,98.381,135.332,99.489,141.4Z"></path>
      <g>
        <circle fill="#0f1011" r="1.449" cy="134.804" cx="124.448"></circle>
        <circle fill="#0f1011" r="1.449" cy="133.761" cx="135.871"></circle>
        <path fill="#0f1011" d="M138.346,130.651a.681.681,0,0,0,0-1.362l-3.838-.012h0a.681.681,0,0,0,0,1.361l3.838.013Z"></path>
        <path fill="#0f1011" d="M121.29,132.206a.679.679,0,0,0,.166-.02l3.776-.945a.681.681,0,0,0-.33-1.321l-3.776.946a.68.68,0,0,0,.164,1.34Z"></path>
        <path fill="#fff" d="M125.223,146.209s5.354.515,9.091-.83c0,0,0,3.523-4.227,3.909S125.223,146.209,125.223,146.209Z"></path>
      </g>
      <path fill="#0f1011" d="M111.105,124.744c-.38,28.853-3.161,40.061-3.161,40.061s-13.662-16.509-15.724-34c-1.933-16.391,10.069-26.19,18.222-28.092,30.98-7.226,33.131,15.371,33.131,15.371-2,7.709-35.823,12.492-35.823,12.492"></path>
      <path fill="#eda59f" d="M117.19,141.115a6.143,6.143,0,0,1-12.235,1.117,6.042,6.042,0,0,1,5.559-6.676C114.891,135.373,116.881,137.737,117.19,141.115Z"></path>
      <g opacity="0.15">
        <path d="M130.95,142.781a.5.5,0,0,1-.152-.976l2.939-.932-2.1-4.572a.5.5,0,1,1,.908-.418l2.341,5.086a.5.5,0,0,1-.3.685l-3.478,1.1A.5.5,0,0,1,130.95,142.781Z"></path>
      </g>
    </g>
    <g>
      <path fill="#eda59f" d="M234.214,219.911s5.881-6.979,12.137-8.085,4.693,2.493.977,5.178-12.1,8.091-12.1,8.091"></path>
      <path fill="#eda59f" d="M238.519,217.792s11.673-4.747,16.676-2.6c0,0,4.361,4.279.087,9.9-4.1,5.391-14.8,7.393-14.8,7.393Z"></path>
    </g>
    <g>
      <path fill="#eda59f" d="M171.047,575.47l-20.854-2.481c.939-7.892,2-17.373,2.072-18.928,0,.1,0,.182,0,.246h21C173.261,554.936,173.261,556.851,171.047,575.47Z"></path>
      <path fill="#eda59f" d="M87.371,577.979l-21-.068s.07-21.685.07-23.6h21C87.441,556.232,87.371,577.979,87.371,577.979Z"></path>
      <path fill="#55affc" d="M141.8,568.838l37-.63c-1.538-38.963-1.8-83.528-2.213-123.855a234.035,234.035,0,0,0-2.26-29.872c-5.952-42.723-9.835-85.2-17.848-127.679l-.268.079-.781-5.33-76.077-4.695-3.96,49.7s-9.91,171.947-14.429,241.085l36.869,3.115c6.643-67.786,16.923-166.556,23.246-237.767,7.261,34.67,12.2,70.568,18.514,104.941C140.85,480.961,141.917,525.94,141.8,568.838Z"></path>
      <path fill="#c1d8ed" d="M112.9,586.1a4.108,4.108,0,0,0,4.077-4.427h0a4.109,4.109,0,0,0-2.659-3.529l-24.443-8.187a3.461,3.461,0,0,0-2.872.32,19.112,19.112,0,0,1-11.468,3.4,17.024,17.024,0,0,1-8.82-3.223,1.547,1.547,0,0,0-2.528,1.2v11.952a2.678,2.678,0,0,0,2.689,2.678Z"></path>
      <path fill="#c1d8ed" d="M196.633,586.1a4.107,4.107,0,0,0,4.076-4.427h0a4.106,4.106,0,0,0-2.659-3.529l-24.442-8.187a3.461,3.461,0,0,0-2.872.32,19.114,19.114,0,0,1-11.468,3.4,17.03,17.03,0,0,1-8.821-3.223,1.547,1.547,0,0,0-2.527,1.2v11.952a2.678,2.678,0,0,0,2.689,2.678Z"></path>
    </g>
    <path fill="#2f3235" d="M182.776,254.639a10.5,10.5,0,0,1-9.042-5.16l-36.158-61.194,18.08-10.684,31.809,53.834,50.27-17.195,6.8,19.869-58.359,19.963A10.481,10.481,0,0,1,182.776,254.639Z"></path>
    <path fill="#2f3235" d="M160.363,284.9c-4.19,9.63-86.52,13.63-87.62-3.31-.7-10.78,8.8-20.19,8.8-41.2s-19.33-47.84-3.58-63.59c4.57-4.57,12.46-7.52,22.08-7.53.72,5.61,34.78,5.63,35.04.13,1.3.02,2.31.04,2.94.07,33.18,1.43,18.6,39.19,18.28,66.93C155.913,268.859,164.683,274.979,160.363,284.9Z"></path>
    <path fill="#fdb754" d="M212.308,264.353a10,10,0,0,1-6.862-2.726l-48.525-45.788a10,10,0,1,1,13.725-14.547l41.11,38.79,85.484-94.2a10,10,0,1,1,14.81,13.439L219.714,261.073a10,10,0,0,1-7.018,3.273C212.567,264.35,212.437,264.353,212.308,264.353Z"></path>
    <path fill="#eda59f" d="M135.083,169.4c-.26,5.5-3.25,13.59-12.48,14.2-12.3.81-21.84-8.72-22.56-14.33h.03C112.183,169.269,128.023,169.289,135.083,169.4Z"></path>
    <g>
      <path fill="#eda59f" d="M163.047,246.391s-2.315-13.171,7.206-14.26c6.007-.687,21.109-9.037,23.974-2.058,2.485,6.055-11.937,13.263-17.1,14.6C172.5,245.862,163.047,246.391,163.047,246.391Z"></path>
      <path fill="#eda59f" d="M167.007,233.18s12.269-6.728,15.626-6.571c2.972.139-2.084,5.888-2.084,5.888Z"></path>
    </g>
    <path fill="#2f3235" d="M113.583,267.942a10.9,10.9,0,0,1-9.953-6.458l-30.551-68.4,19.909-8.893,26.617,59.6,51.245-15.728,6.4,20.843L116.783,267.46A10.888,10.888,0,0,1,113.583,267.942Z"></path>
    <path fill="#eda59f" d="M261.161,217.3a2.027,2.027,0,0,0-.175-2.524c-1.516-1.639-4.33-4.238-6.182-3.277-2.641,1.369-7.924,6.456-6.457,9.1s4.5,5.546,6.46,4.666C256.289,224.6,259.467,219.764,261.161,217.3Z"></path>
  </g>
  <g>
    <rect fill="#fdb754" height="41.45" width="96.809" y="382.358" x="320.504"></rect>
    <rect fill="#c1d8ed" height="41.45" width="96.809" y="382.358" x="434.784"></rect>
  </g>
  <path fill="#c1d8ed" d="M682.5,586.289H510.45c-9.436-24.554,18.916-36.663,27.931-20.751-5.377-9.492-6.808-21.523,4.361-29.268,11.705-6.139,25.8.879,27.953,11.984-2.87-14.787,10.8-29.523,26.011-32.874,39.045-8.594,47.749,29.918,44.211,35.972C651.23,533.71,693.866,555.485,682.5,586.289Z"></path>
  <g>
    <path fill="#c1d8ed" d="M495.9,194.5a69.568,69.568,0,0,1-19.52,48.42c-9.42-21.05-28.43-35.42-50.32-35.42-21.91,0-40.92,14.39-50.34,35.44A69.854,69.854,0,1,1,495.9,194.5Z"></path>
    <circle fill="#f3f5fd" r="27.655" cy="174.041" cx="426.048"></circle>
    <path fill="#f3f5fd" d="M476.379,242.92a69.84,69.84,0,0,1-100.66.02c9.42-21.05,28.43-35.44,50.34-35.44C447.949,207.5,466.959,221.87,476.379,242.92Z"></path>
  </g>
  <g>
    <rect fill="#dee8f5" height="8.429" width="211.089" y="291.995" x="320.504"></rect>
    <rect fill="#dee8f5" height="8.429" width="211.089" y="314.943" x="320.504"></rect>
    <rect fill="#dee8f5" height="8.429" width="96.809" y="338.677" x="320.504"></rect>
  </g>
</svg>
