<svg viewBox="0 0 1143.803 679.685" xmlns="http://www.w3.org/2000/svg" id="Layer_1">
  <path fill="#f3f5fd" d="M51.772,679.685a49.748,49.748,0,0,1-49-41.294c-9.688-55.9-1.292-160.774,148.377-265.559C295.451,271.8,230.365-19.082,536.977.989s277.378,235.04,465.384,333.568c133.856,70.15,145.216,215.357,140.656,293.185a55.115,55.115,0,0,1-55,51.943Z"></path>
  <g>
    <rect fill="#dee8f5" transform="translate(1259.747 472.475) rotate(-180)" height="449.786" width="621.087" y="11.344" x="319.33"></rect>
    <rect fill="#c1d8ed" transform="translate(1259.747 59.74) rotate(-180)" height="37.051" width="621.087" y="11.344" x="319.33"></rect>
    <circle fill="#fff" r="9.296" cy="29.87" cx="340.132"></circle>
  </g>
  <g>
    <rect fill="#fdb754" transform="translate(1257.883 294.967) rotate(180)" rx="7.003" height="40.475" width="44.604" y="127.246" x="606.639"></rect>
    <g>
      <path fill="#fdb754" d="M563.448,115.73c3.712,0,14.026,4.613,29.671,20.59q-4.263.163-8.306.164a146.884,146.884,0,0,1-17.493-.949c-8.4-1.021-9.517-9.754-9.617-10.749a11.7,11.7,0,0,1,.583-4.978c.535-1.4,1.515-2.975,4.723-4.042a1.9,1.9,0,0,1,.439-.036m0-11a12.324,12.324,0,0,0-3.9.6c-13.334,4.433-13.158,16.857-12.786,20.56.921,9.186,7.227,19.109,19.236,20.568a157.749,157.749,0,0,0,18.819,1.03c9.5,0,18.641-.657,25.779-1.374a2.8,2.8,0,0,0,2.4-1.8,2.755,2.755,0,0,0-.46-2.918c-19.718-23.406-37.6-36.665-49.081-36.665Z"></path>
      <path fill="#fdb754" d="M693.944,115.73a1.938,1.938,0,0,1,.435.035h0c3.211,1.068,4.192,2.643,4.727,4.043a11.689,11.689,0,0,1,.583,4.98c-.1.993-1.215,9.726-9.617,10.747a146.651,146.651,0,0,1-17.491.949q-4.041,0-8.308-.164c15.644-15.978,25.958-20.59,29.671-20.59m0-11c-11.482,0-29.363,13.257-49.08,36.665a2.76,2.76,0,0,0-.46,2.919,2.8,2.8,0,0,0,2.4,1.8c7.139.717,16.277,1.374,25.781,1.374a157.767,157.767,0,0,0,18.818-1.03c12.008-1.459,18.313-11.382,19.235-20.568.372-3.7.548-16.127-12.786-20.56a12.324,12.324,0,0,0-3.9-.6Z"></path>
      <rect fill="#fdb754" transform="translate(1259.747 526.557) rotate(-180)" height="183.649" width="214.048" y="171.454" x="522.85"></rect>
      <rect fill="#fff" transform="translate(1259.747 526.924) rotate(-180)" height="183.282" width="42.294" y="171.821" x="608.727"></rect>
      <g opacity="0.19">
        <rect transform="translate(1259.747 381.075) rotate(-180)" height="38.167" width="214.048" y="171.454" x="522.85"></rect>
      </g>
      <rect fill="#fdb754" transform="translate(1259.747 324.371) rotate(-180)" height="37.94" width="243.788" y="143.215" x="507.98"></rect>
      <rect fill="#fff" transform="translate(1259.747 324.371) rotate(-180)" height="37.94" width="61.395" y="143.215" x="599.176"></rect>
    </g>
  </g>
  <g>
    <g>
      <path fill="#eda59f" d="M818.167,265.451s-8.042-3.455-8.042-24.582l-16.165-1.647s3.332,18.669-4.234,25.3Z"></path>
      <path fill="#eda59f" d="M818.492,231.991c-.58,6.457-3.56,12.771-9.008,15.289a40.5,40.5,0,0,1-19.079,4.188c-17.548,0-17.35-39.917-9.706-48.295s32.333-5.493,36.343,7.142C819.116,216.849,819.045,225.844,818.492,231.991Z"></path>
    </g>
    <path fill="#eda59f" d="M750.833,668.866c-2.214-18.618-2.214-20.533-2.214-21.163h21c0-.063,0-.146,0-.245.075,1.554,1.134,11.035,2.073,18.928Z"></path>
    <path fill="#eda59f" d="M834.509,671.377s-.07-21.748-.07-23.674h21c0,1.92.07,23.605.07,23.605Z"></path>
    <path fill="#55affc" d="M780.081,662.235l-36.994-.63c1.737-44.032,1.844-90.219,2.385-134.357,7.221-47.573,11.024-99.816,19.936-147.049l.266.079.782-5.33,76.077-4.695,2.726,49.7c3.973,71.393,11.143,171.95,15.662,241.088l-36.868,3.115C817.41,596.372,807.13,497.6,800.807,426.391c-7.261,34.67-12.2,70.568-18.514,104.94C781.031,574.357,779.962,619.337,780.081,662.235Z"></path>
    <path fill="#c1d8ed" d="M808.981,679.5a4.108,4.108,0,0,1-4.076-4.427h0a4.106,4.106,0,0,1,2.658-3.529l24.443-8.187a3.461,3.461,0,0,1,2.872.319,19.1,19.1,0,0,0,11.468,3.4,17.031,17.031,0,0,0,8.82-3.222,1.547,1.547,0,0,1,2.528,1.2v11.952a2.678,2.678,0,0,1-2.689,2.678Z"></path>
    <path fill="#c1d8ed" d="M725.247,679.5a4.108,4.108,0,0,1-4.076-4.427h0a4.106,4.106,0,0,1,2.659-3.529l24.442-8.187a3.463,3.463,0,0,1,2.873.319,19.1,19.1,0,0,0,11.467,3.4,17.035,17.035,0,0,0,8.821-3.222,1.546,1.546,0,0,1,2.527,1.2v11.952a2.677,2.677,0,0,1-2.689,2.678Z"></path>
    <g>
      <path fill="#eda59f" d="M864.923,406.286c0,2.98-1.573,12.942.957,13.654,1.518.427,3.31-7,3.31-7"></path>
      <path fill="#eda59f" d="M876.871,404.721s8.264,20.114-1.162,31.669a1.888,1.888,0,0,1-3.346-1.081c-.458-7.791-2.029-23.794-7.166-21.925V400.821"></path>
    </g>
    <path fill="#eda59f" d="M690.529,297.557s-11.542-9.168-12.358-12.461,7.312-9.77,7.312-9.77-10.808-10.9-8.653-12.474c2.544-1.864,15.085,13.982,15.085,13.982s-1.772-5.7.436-6.075c.907-.153,1.626.737,3.046,4.772,1.618,4.6,4.852,11.515,4.852,11.515Z"></path>
    <path fill="#2f3235" d="M702.679,285.368l34.139,38.407,26.7-47.794c2.528-7.551,8.283-12.609,20.023-13.112,4.015-.172,23.606-.2,37.95-.2,9.637,0,17.547,2.956,22.116,7.525a20.166,20.166,0,0,1,5.021,8.129l.137-.051,22.953,62.415a10.873,10.873,0,0,1,.552,2.162l9.265,62.414-21.569,3.2-9.1-61.305-9.27-25.206a53.353,53.353,0,0,0-1.573,11.836c0,21,9.5,30.418,8.8,41.2-1.1,16.945-83.429,12.941-87.624,3.316-4.319-9.926,4.447-16.042,4.063-48.51-.041-3.533-.314-7.23-.69-10.993l-16.2,29a10.9,10.9,0,0,1-17.666,1.925l-44.885-52.5Z"></path>
    <path fill="#0f1011" d="M771.456,218.53s1.106-28.45,32.614-24.068a23.78,23.78,0,0,1,10.178,4.331c7.371-7.645,17.549-4.707,21.277-1.029,4.838,4.774,8.22,13.761,7.619,28.589-1.176,29.058,10.816,38.315,8.683,61.694-1.487,16.291-11.8,24.085-28.015,24.185-19.866.122-27.411-14.355-26.52-32.885.695-14.463,3.884-16.914,5.938-28.151-9.7.191-14.861-9.15-20.143-31.8A69.767,69.767,0,0,1,771.456,218.53Z"></path>
    <path fill="#eda59f" d="M781.675,233.836a6.143,6.143,0,1,0,12.285,0,6.042,6.042,0,0,0-6.143-6.143C783.442,227.909,781.675,230.444,781.675,233.836Z"></path>
  </g>
  <g>
    <path fill="#8ddbe0" d="M989.045,595.846c5-1.636,10.132.205,15.041,3.935-6.466-16.33-9.136-31.08,1.921-31.745,7.735-.464,13.661,5.47,18.163,13.908,1.583-14.835,5.669-25.9,14.819-22.231,10.046,4.027,11.574,17.829,10.051,32.271,4.425-7.376,9.19-11.49,13.517-7.163,12.913,12.913-18.783,49.3-18.783,49.3H1035.9L1031.411,639c.909,1.922,1.407,3.067,1.407,3.067l-5.706,11.612S968.294,602.639,989.045,595.846Z"></path>
    <polygon fill="#c1d8ed" points="1003.159 679.685 1047.708 679.685 1055.166 627.678 995.701 627.678 1003.159 679.685"></polygon>
  </g>
  <g>
    <polygon fill="#dee8f5" points="336.514 639.98 347.061 679.685 332.171 679.685 315.42 639.98 336.514 639.98"></polygon>
    <polygon fill="#dee8f5" points="144.186 639.98 133.64 679.685 148.529 679.685 165.28 639.98 144.186 639.98"></polygon>
    <g>
      <polygon fill="#c1d8ed" points="268.678 639.98 279.225 679.685 264.336 679.685 247.585 639.98 268.678 639.98"></polygon>
      <polygon fill="#c1d8ed" points="76.351 639.98 65.804 679.685 80.694 679.685 97.445 639.98 76.351 639.98"></polygon>
    </g>
    <path fill="#c1d8ed" d="M60.559,582.782H252.426L239.414,441.235a13.637,13.637,0,0,0-13.581-12.389H61.358a13.638,13.638,0,0,0-13.581,14.886Z"></path>
    <rect fill="#c1d8ed" transform="translate(592.284 1163.669) rotate(-180)" height="130.441" width="130.441" y="516.614" x="230.922"></rect>
    <path fill="#dee8f5" d="M97.744,582.782H282.536L269.524,441.235a13.638,13.638,0,0,0-13.581-12.389H98.543a13.638,13.638,0,0,0-13.581,14.886Z"></path>
    <g opacity="0.48">
      <path fill="#c1d8ed" d="M97.744,582.782H282.536L269.524,441.235a13.638,13.638,0,0,0-13.581-12.389H98.543a13.638,13.638,0,0,0-13.581,14.886Z"></path>
    </g>
    <path fill="#c1d8ed" transform="translate(195.489 1169.507) rotate(-180)" d="M32.524,516.614H143.618a19.347,19.347,0,0,1,19.347,19.347v97.584a19.347,19.347,0,0,1-19.347,19.347H32.524a0,0,0,0,1,0,0V516.614a0,0,0,0,1,0,0Z"></path>
    <path fill="#dee8f5" d="M162.965,652.893h198.4a21.226,21.226,0,0,0,21.226-21.226V537.84a21.226,21.226,0,0,0-42.452,0v72.6H184.191v-72.6a21.226,21.226,0,0,0-42.452,0v93.827A21.226,21.226,0,0,0,162.965,652.893Z"></path>
    <path fill="#f3f5fd" transform="translate(548.719 1182.489) rotate(-180)" d="M197.468,568.542H364.817a0,0,0,0,1,0,0v45.406a0,0,0,0,1,0,0H197.468A13.566,13.566,0,0,1,183.9,600.381V582.108A13.566,13.566,0,0,1,197.468,568.542Z"></path>
    <g opacity="0.15">
      <path fill="#c1d8ed" transform="translate(548.719 1182.489) rotate(-180)" d="M197.468,568.542H364.817a0,0,0,0,1,0,0v45.406a0,0,0,0,1,0,0H197.468A13.566,13.566,0,0,1,183.9,600.381V582.108A13.566,13.566,0,0,1,197.468,568.542Z"></path>
    </g>
  </g>
</svg>
