<svg xmlns:xlink="http://www.w3.org/1999/xlink" xmlns="http://www.w3.org/2000/svg" version="1.1" viewBox="0 0 100 100" height="100px" width="100px">
    <title>编组 58</title>
    <defs>
        <linearGradient id="linearGradient-1" y2="100%" x2="82%" y1="0%" x1="18%">
            <stop offset="0%" stop-color="#33AFFF"></stop>
            <stop offset="100%" stop-color="#405CFF"></stop>
        </linearGradient>
        <linearGradient id="linearGradient-2" y2="74.5%" x2="100%" y1="25.5%" x1="0%">
            <stop offset="0%" stop-color="#33AFFF"></stop>
            <stop offset="100%" stop-color="#405CFF"></stop>
        </linearGradient>
        <linearGradient id="linearGradient-3" y2="129.432174%" x2="128.242342%" y1="-6.73935396%" x1="-5.18718658%">
            <stop offset="0%" stop-color="#33AFFF"></stop>
            <stop offset="100%" stop-color="#405CFF"></stop>
        </linearGradient>
    </defs>
    <g fill-rule="evenodd" fill="none" stroke-width="1" stroke="none" id="页面-1">
        <g transform="translate(-500.000000, -3450.000000)" id="消费版">
            <g transform="translate(500.000000, 3450.000000)" id="编组-59">
                <rect height="100" width="100" y="0" x="0" id="矩形"></rect>
                <rect height="61.25" width="41.25" y="25" x="17.75" fill="#C0D5FB" id="矩形备份-31"></rect>
                <rect height="73" width="53" y="12.25" x="5" stroke-width="2" stroke="#333333" id="矩形"></rect>
                <g fill="url(#linearGradient-1)" transform="translate(33.000000, 40.000000)" id="编组-109">
                    <rect height="50" width="40" y="0" x="0" id="矩形备份-26"></rect>
                </g>
                <polyline points="75.1036524 45 85.1036524 45 85.1036524 30" stroke-width="2" stroke="#333333" id="路径-4"></polyline>
                <path fill="url(#linearGradient-2)" id="路径" d="M92.1700004,17.5400979 L92.1700004,17.4963352 C92.1668264,13.8450515 89.5427972,10.7263122 85.9542938,10.1087772 C82.3657905,9.49124225 78.8550844,11.554273 77.6382588,14.9956106 C74.1952476,15.0491287 71.4473977,17.891545 71.5007644,21.3443251 C71.554131,24.7971052 74.3885054,27.5527516 77.8315166,27.4992335 L91.5465881,27.4992335 C94.1664979,27.4813068 96.3259163,25.433491 96.490061,22.8112481 C96.6542056,20.1890053 94.7671075,17.8864501 92.1700004,17.5400979 L92.1700004,17.5400979 Z"></path>
                <path transform="translate(55.145833, 60.256944) rotate(-270.000000) translate(-55.145833, -60.256944)" fill="#FFFFFF" id="三角形" d="M56.1451477,54.465661 L63.7524566,65.6230475 C64.1287562,66.1749535 63.986399,66.9274129 63.434493,67.3037125 C63.2336562,67.4406466 62.9962192,67.5138889 62.7531423,67.5138889 L47.5385244,67.5138889 C46.8705411,67.5138889 46.3290336,66.9723814 46.3290336,66.3043981 C46.3290336,66.0613213 46.4022759,65.8238843 46.5392101,65.6230475 L54.146519,54.465661 C54.5228186,53.9137549 55.2752779,53.7713978 55.827184,54.1476974 C55.9521156,54.232878 56.059967,54.3407294 56.1451477,54.465661 Z"></path>
                <rect height="4" width="24" y="82" x="41.25" fill="#FFFFFF" id="矩形"></rect>
                <rect height="8" width="8" y="82" x="89" fill="url(#linearGradient-3)" id="矩形"></rect>
            </g>
        </g>
    </g>
</svg>