<svg xmlns:xlink="http://www.w3.org/1999/xlink" xmlns="http://www.w3.org/2000/svg" version="1.1" viewBox="0 0 100 100" height="100px" width="100px">
    <title>编组 82</title>
    <defs>
        <linearGradient id="linearGradient-1" y2="146.615429%" x2="144.888344%" y1="0%" x1="-4.14335719%">
            <stop offset="0%" stop-color="#33AFFF"></stop>
            <stop offset="100%" stop-color="#405CFF"></stop>
        </linearGradient>
        <linearGradient id="linearGradient-2" y2="161.514397%" x2="160.484338%" y1="0%" x1="-4.14335719%">
            <stop offset="0%" stop-color="#33AFFF"></stop>
            <stop offset="100%" stop-color="#405CFF"></stop>
        </linearGradient>
    </defs>
    <g fill-rule="evenodd" fill="none" stroke-width="1" stroke="none" id="页面-1">
        <g transform="translate(-500.000000, -1761.000000)" id="消费版">
            <g transform="translate(500.000000, 1761.000000)" id="编组-80">
                <g transform="translate(5.000000, 5.000000)" id="编组-78">
                    <g fill-rule="nonzero" transform="translate(10.000000, 0.000000)" id="编组-77">
                        <path stroke-width="2" stroke="#333333" id="形状" d="M65.1308411,11.25 C65.1308411,11.25 59.9719626,11.25 51.5887851,8.03571425 C42.5607477,4.8214285 37.0794392,1.28571425 37.0794392,1.28571425 L34.5,0 L32.2429906,1.28571425 C32.2429906,1.28571425 26.4392523,4.8214285 17.7336448,8.03571425 C9.0280373,10.9285714 4.19158869,11.25 4.19158869,11.25 L0,11.5714286 L0,55.9285714 C0,72.3214286 30.6308411,90 34.5,90 C38.0467289,90 69,72.3214286 69,55.9285714 L69,11.5714286 L65.1308411,11.25 Z"></path>
                        <path fill="#C0D5FB" id="形状结合" d="M34.998,8 L35,81 C30.501178,80.0522675 7,66.1926493 7,53.3084398 L7,53.3084398 L7,17.1901087 L10.4516865,16.9283817 C10.4516865,16.9283817 14.4344018,16.6666546 21.6032893,14.3111113 C24.9990782,13.0713516 27.8586898,11.7728665 29.9281456,10.7494638 L30.3749148,10.5267047 C32.3981762,9.50955999 33.5514352,8.81484348 33.5514352,8.81484348 L33.5514352,8.81484348 L34.998,8 Z"></path>
                    </g>
                    <g transform="translate(65.000000, 50.000000)" id="编组-6">
                        <circle r="13" cy="13" cx="13" fill="url(#linearGradient-1)" id="椭圆形"></circle>
                        <g fill-rule="nonzero" fill="#FFFFFF" transform="translate(11.000000, 5.000000)" id="gantanhao-2">
                            <path id="形状" d="M0.799316823,9.90404883 C1.00085397,10.3624008 1.40051238,10.6671007 1.99829206,10.6671007 C2.59948762,10.6671007 2.99914603,10.3624008 3.19726729,9.90404883 L3.99658412,1.52349949 C3.99658412,0.609399797 2.99573015,0 1.99829206,0 C0.799316823,0 0,0.763051882 0,1.67715158 L0.799316823,9.90404883 L0.799316823,9.90404883 Z M2.00170794,12.1906002 C0.802732707,12.1906002 0.00341588386,12.9524802 0.00341588386,14.0953001 C0.00341588386,15.23812 0.802732707,16 2.00170794,16 C3.20068318,16 4,15.23812 4,14.0953001 C4,12.9524802 3.20068318,12.1906002 2.00170794,12.1906002 Z"></path>
                        </g>
                    </g>
                    <rect height="8" width="8" y="82" x="0" fill="url(#linearGradient-2)" id="矩形"></rect>
                    <rect height="6" width="6" y="0" x="82" fill="url(#linearGradient-2)" id="矩形备份-3"></rect>
                    <g fill-rule="nonzero" fill="#333333" transform="translate(31.000000, 36.000000)" id="gou">
                        <path id="路径" d="M10.4764041,19.2638508 L0.727918325,9.55271558 C0.336645187,9.16294157 0.335429902,8.52977776 0.725203909,8.13850462 C0.731576477,8.13210754 0.738035396,8.12579707 0.74457889,8.11957494 L2.33478921,6.60746273 C2.72978059,6.23187009 3.35280333,6.24177586 3.73565457,6.62973584 L10.3378705,13.3200511 C10.725798,13.7131551 11.3589491,13.7173514 11.752053,13.3294239 C11.7641153,13.3175205 11.775873,13.3053124 11.7873148,13.2928115 L23.2822391,0.733779077 C23.6537301,0.327898416 24.2833258,0.298379308 24.6911637,0.667720497 L26.2547535,2.08371967 C26.6641201,2.45444524 26.6954448,3.08683487 26.3247193,3.49620145 C26.3235082,3.49753872 26.3222936,3.49887271 26.3210753,3.50020341 L11.9197322,19.2306481 C11.5467964,19.6380022 10.9142465,19.6659037 10.5068924,19.2929679 C10.4965261,19.2834776 10.4863611,19.2737697 10.4764041,19.2638508 Z"></path>
                    </g>
                </g>
                <rect height="100" width="100" y="0" x="0" id="矩形备份-49"></rect>
            </g>
        </g>
    </g>
</svg>