<svg xmlns:xlink="http://www.w3.org/1999/xlink" xmlns="http://www.w3.org/2000/svg" version="1.1" viewBox="0 0 100 100" height="100px" width="100px">
    <title>编组 9</title>
    <defs>
        <linearGradient id="linearGradient-1" y2="263.535276%" x2="287.622893%" y1="-42.1481261%" x1="-53.3461971%">
            <stop offset="0%" stop-color="#33AFFF"></stop>
            <stop offset="100%" stop-color="#405CFF"></stop>
        </linearGradient>
        <linearGradient id="linearGradient-2" y2="100%" x2="82%" y1="0%" x1="18%">
            <stop offset="0%" stop-color="#33AFFF"></stop>
            <stop offset="100%" stop-color="#405CFF"></stop>
        </linearGradient>
        <linearGradient id="linearGradient-3" y2="120.003688%" x2="122.424922%" y1="0%" x1="-5.53418418%">
            <stop offset="0%" stop-color="#33AFFF"></stop>
            <stop offset="100%" stop-color="#405CFF"></stop>
        </linearGradient>
    </defs>
    <g fill-rule="evenodd" fill="none" stroke-width="1" stroke="none" id="页面-1">
        <g transform="translate(-500.000000, -1469.000000)" id="消费版">
            <g transform="translate(500.000000, 1469.000000)" id="编组-81">
                <g transform="translate(7.000000, 10.000000)" id="编组-43">
                    <rect height="5" width="5" y="75" x="80" fill="url(#linearGradient-1)" id="矩形备份-5"></rect>
                    <rect height="55" width="40" y="21.25" x="15" fill="#C0D5FB" id="矩形备份-31"></rect>
                    <rect height="73" width="53" y="2.25" x="1" stroke-width="2" stroke="#333333" id="矩形"></rect>
                    <g transform="translate(28.750000, 30.000000)" id="编组-109">
                        <rect height="50" width="40" y="0" x="0" fill="url(#linearGradient-2)" id="矩形备份-26"></rect>
                        <rect height="5" width="25" y="7.5" x="7.5" fill="#FFFFFF" id="矩形"></rect>
                        <rect height="5" width="25" y="19" x="7.5" fill="#FFFFFF" id="矩形备份-38"></rect>
                        <rect height="5" width="25" y="31" x="7.5" fill="#FFFFFF" id="矩形备份-39"></rect>
                    </g>
                    <g transform="translate(65.000000, 0.000000)" id="编组-12">
                        <circle r="10" cy="10" cx="10" fill="url(#linearGradient-3)" id="椭圆形"></circle>
                        <g fill-rule="nonzero" fill="#FFFFFF" transform="translate(4.444444, 5.000000)" id="pinpai">
                            <path id="形状" d="M10.7305588,3.00140483 L8.71571604,0.60051456 C8.40569026,0.224886031 7.93821448,0.00450173283 7.44253317,0.000291989282 L3.57972104,0.000291989282 C3.073918,-0.00919985212 2.59304326,0.213183064 2.28181617,0.60051456 L0.378222347,3.00140483 C-0.144150153,3.63673397 -0.123329654,4.54410386 0.427666341,5.15620386 L4.32138097,9.44779523 C4.61818862,9.77393456 5.03602016,9.97250745 5.48331485,10 L5.55748085,10 C5.97739471,9.98964913 6.37921629,9.83185071 6.68851224,9.5558353 L6.79358073,9.44779523 L10.6625734,5.18621499 C11.2338349,4.57266726 11.2626289,3.64733326 10.7305588,3.00140483 Z M8.15947109,4.97013487 L6.42275076,6.68076919 L6.36712627,6.73478922 C6.15387531,6.94674575 5.86260164,7.06766814 5.55748085,7.07091386 L5.48331485,7.07091386 C5.15122652,7.05077955 4.84152025,6.901475 4.62422544,6.65676028 L2.9431296,4.8861037 C2.85680352,4.80882888 2.80769554,4.70000944 2.80769554,4.58599241 C2.80769554,4.47197539 2.85680352,4.36315595 2.9431296,4.28588113 C3.01700443,4.20550506 3.12267498,4.1595484 3.23361308,4.1595484 C3.34455117,4.1595484 3.45022172,4.20550506 3.52409655,4.28588113 L5.21137288,6.05053549 C5.27916922,6.13343769 5.38059643,6.18378295 5.48949535,6.18858668 C5.60144227,6.19452106 5.71096934,6.15544717 5.79233983,6.08054661 L7.57850416,4.40592565 C7.65237899,4.32554958 7.75804953,4.27959293 7.86898763,4.27959293 C7.97992572,4.27959293 8.08559626,4.32554958 8.15947109,4.40592565 C8.31486822,4.56372036 8.31486822,4.81234016 8.15947109,4.97013487 Z"></path>
                        </g>
                    </g>
                    <line stroke-width="2" stroke="#333333" id="路径-8" y2="17" x2="54" y1="17.25" x1="1"></line>
                    <g fill="url(#linearGradient-1)" transform="translate(34.000000, 8.000000)" id="编组-8">
                        <rect height="3.75" width="3.75" y="0" x="12.5" id="矩形"></rect>
                        <rect height="3.75" width="3.75" y="0" x="6.25" id="矩形备份-50"></rect>
                        <rect height="3.75" width="3.75" y="0" x="0" id="矩形备份-51"></rect>
                    </g>
                </g>
                <rect height="98.8505747" width="98.8505747" y="0.574712644" x="0.574712644" opacity="0" stroke-width="1.14942529" stroke="#979797" id="矩形"></rect>
            </g>
        </g>
    </g>
</svg>