<svg xmlns:xlink="http://www.w3.org/1999/xlink" xmlns="http://www.w3.org/2000/svg" version="1.1" viewBox="0 0 100 100" height="100px" width="100px">
    <title>编组 10</title>
    <defs>
        <linearGradient id="linearGradient-1" y2="263.535276%" x2="287.223359%" y1="-42.1481261%" x1="-53.172433%">
            <stop offset="0%" stop-color="#33AFFF"></stop>
            <stop offset="100%" stop-color="#405CFF"></stop>
        </linearGradient>
        <linearGradient id="linearGradient-2" y2="263.535276%" x2="287.223359%" y1="-42.1481261%" x1="-53.172433%">
            <stop offset="0%" stop-color="#33AFFF"></stop>
            <stop offset="100%" stop-color="#405CFF"></stop>
        </linearGradient>
        <linearGradient id="linearGradient-3" y2="74.4846043%" x2="122.424922%" y1="32.5119182%" x1="-5.53418418%">
            <stop offset="0%" stop-color="#33AFFF"></stop>
            <stop offset="100%" stop-color="#405CFF"></stop>
        </linearGradient>
        <linearGradient id="linearGradient-4" y2="263.535276%" x2="287.223359%" y1="-42.1481261%" x1="-53.172433%">
            <stop offset="0%" stop-color="#33AFFF"></stop>
            <stop offset="100%" stop-color="#405CFF"></stop>
        </linearGradient>
    </defs>
    <g fill-rule="evenodd" fill="none" stroke-width="1" stroke="none" id="页面-1">
        <g transform="translate(-910.000000, -1469.000000)" id="消费版">
            <g transform="translate(910.000000, 1469.000000)" id="编组-42">
                <rect height="98.8505747" width="98.8505747" y="0.574712644" x="0.574712644" opacity="0" stroke-width="1.14942529" stroke="#979797" id="矩形备份-49"></rect>
                <g transform="translate(6.000000, 9.000000)" id="编组-41">
                    <g transform="translate(0.000000, 17.209877)" id="编组-39">
                        <rect height="62.7901235" width="66.7816092" y="1" x="1" stroke-width="2" stroke="#333333" id="矩形"></rect>
                        <g fill="url(#linearGradient-1)" transform="translate(6.574713, 6.327160)" id="编组-8">
                            <rect height="3.7962963" width="3.79310345" y="0" x="12.6436782" id="矩形"></rect>
                            <rect height="3.7962963" width="3.79310345" y="0" x="6.32183908" id="矩形备份-50"></rect>
                            <rect height="3.7962963" width="3.79310345" y="0" x="0" id="矩形备份-51"></rect>
                        </g>
                        <rect height="39.4814815" width="30.3448276" y="20.2469136" x="7.08045977" fill="#C0D5FB" id="矩形"></rect>
                        <line stroke-width="2" stroke="#333333" id="路径-7" y2="14.7681918" x2="67.5708178" y1="15.1851852" x1="1.01149425"></line>
                        <g transform="translate(22.252874, 34.419753)" id="编组-38">
                            <rect height="12.1481481" width="38.4367816" y="0" x="0" stroke-width="2" stroke="#333333" id="矩形备份-4"></rect>
                            <ellipse ry="3.03703704" rx="3.03448276" cy="6.07407407" cx="31.3563218" fill="url(#linearGradient-2)" id="椭圆形"></ellipse>
                        </g>
                    </g>
                    <g transform="translate(43.494253, 0.000000)" id="编组-40">
                        <rect height="26.3209877" width="44.5057471" y="0" x="0" fill="url(#linearGradient-3)" id="矩形"></rect>
                        <path fill-rule="nonzero" fill="#FFFFFF" id="形状" d="M33.9764772,12.587913 L29.0192109,7.51067912 C28.4540251,7.01495312 27.6115264,7.0482827 27.0853595,7.58718304 C26.5591926,8.12608338 26.5266506,8.98897085 27.0106633,9.56783427 L30.9565333,13.6237855 L26.9964183,17.6797367 C26.5898995,18.0362955 26.4128257,18.5961459 26.5379992,19.1291103 C26.6631728,19.6620748 27.0694674,20.0782019 27.5898387,20.2064047 C28.11021,20.3346076 28.656832,20.1532485 29.0049658,19.7368918 L33.9622322,14.6596579 C34.2338007,14.387661 34.3880599,14.0158453 34.3907701,13.6268248 C34.3934096,13.2378042 34.2442786,12.8638002 33.9764772,12.587913 L33.9764772,12.587913 Z M17.5092362,7.51067912 C16.9536271,6.94499996 16.0562977,6.94499996 15.5006886,7.51067912 L10.5291773,12.587913 C9.97686428,13.156968 9.97686428,14.0760132 10.5291773,14.6450682 L15.4864436,19.722302 C16.0516293,20.2180279 16.8941279,20.1846983 17.4202948,19.645798 C17.9464616,19.1068977 17.9790037,18.2440104 17.4949912,17.6651469 L13.5633661,13.6237855 L17.5092362,9.56783427 C18.0615492,8.99877927 18.0615492,8.07973412 17.5092362,7.51067912 L17.5092362,7.51067912 Z M24.2471298,7.18970458 C23.8920689,7.05303735 23.498452,7.067047 23.1535107,7.22862878 C22.8085694,7.39021057 22.5407921,7.68601963 22.4095225,8.05049999 L18.7485528,18.1757883 C18.5352917,18.6709436 18.6071623,19.2463223 18.9352627,19.6705437 C19.2633631,20.0947651 19.7937809,20.2981222 20.3132157,20.1988378 C20.8326505,20.0995534 21.2557502,19.7139416 21.4123712,19.197071 L25.0733409,9.07178268 C25.2075096,8.70999306 25.1958341,8.30842935 25.0408835,7.95545771 C24.885933,7.60248607 24.6004044,7.32702983 24.2471298,7.18970458 Z"></path>
                    </g>
                    <rect height="6.07407407" width="6.06896552" y="0" x="0" fill="url(#linearGradient-2)" id="矩形"></rect>
                    <rect height="8.09876543" width="8.09195402" y="73.9012346" x="79.908046" fill="url(#linearGradient-4)" id="矩形备份-2"></rect>
                </g>
            </g>
        </g>
    </g>
</svg>