<svg xml:space="preserve" style="enable-background:new 0 0 256.5 253.117;" viewBox="0 0 256.5 253.117" height="253.117px" width="256.5px" y="0px" x="0px" xmlns:xlink="http://www.w3.org/1999/xlink" xmlns="http://www.w3.org/2000/svg" id="Layer_1" version="1.1">
<path d="M253.479,119.326c0-40.701-33.074-73.693-73.871-73.693c-0.635,0-1.262,0.029-1.893,0.046
	c-12.881-21.591-36.498-36.067-63.514-36.067c-40.798,0-73.871,32.995-73.871,73.696c0,0.529,0.029,1.049,0.04,1.576
	C18.056,97.563,3,121.491,3,148.941c0,40.699,33.073,73.688,73.872,73.688c2.32,0,4.612-0.119,6.878-0.325
	c13.551,16.375,34.051,26.812,56.998,26.812c37.711,0,68.793-28.192,73.289-64.597C237.488,172.174,253.479,147.618,253.479,119.326
	z" style="fill:#D6F0FF;"></path>
<g style="display:none;" id="Layer_3">
	<g style="display:inline;">
		<path d="M85.16,142.542c0-11.563-10.059-20.936-22.467-20.936
			c-0.194,0-0.385,0.009-0.576,0.014c-3.917-6.134-11.102-10.245-19.318-10.245c-12.409,0-22.469,9.372-22.469,20.936
			c0,0.149,0.009,0.297,0.012,0.446c-6.785,3.603-11.365,10.399-11.365,18.198c0,11.562,10.059,20.934,22.468,20.934
			c0.705,0,1.403-0.033,2.092-0.094c4.122,4.65,10.358,7.617,17.335,7.617c11.471,0,20.925-8.01,22.293-18.35
			C80.297,157.555,85.16,150.579,85.16,142.542z" style="fill:#D7F7E4;stroke:#CCCCDE;stroke-width:3;"></path>
		<path d="M62.314,120.853c-0.193,0-0.384,0.009-0.575,0.014
			c-3.141-4.918-8.383-8.534-14.573-9.775c4.898,1.229,9.023,4.208,11.558,8.175c0.165-0.004,2.416,3.886,2.583,3.886
			c10.648,0,15.601,5.738,15.601,15.66c0,6.896-2.583,11.291-8.704,14.303c-1.173,8.875-9.287,15.747-19.129,15.747
			c-5.99,0-11.34-2.544-14.877-6.532c-0.591,0.05-1.189,0.078-1.794,0.078c-10.649,0-19.013-5.049-19.013-14.969
			c0-6.683,2.99-9.973,8.432-13.938c-0.145-0.855-0.75-8.421,1.267-10.437c4.792-4.793,6.963-8.909,11.25-11.038
			c-8.414,3.025-14.385,10.627-14.385,19.536c0,0.147,0.009,0.3,0.012,0.446c-6.787,3.604-11.366,10.396-11.366,18.196
			c0,11.562,10.059,20.938,22.468,20.938c0.707,0,1.403-0.035,2.093-0.098c4.121,4.648,10.356,7.617,17.336,7.617
			c11.469,0,20.924-8.012,22.291-18.354c7.133-3.507,11.997-10.479,11.997-18.521C84.783,130.227,74.724,120.853,62.314,120.853z" style="opacity:0.1;fill:#6E6E96;enable-background:new    ;"></path>
		<path d="M30.336,153.865c0,0,11.635,2.277,11.635,13.662
			c0,0,3.132,19.342-8.976,33.026h27.96c-0.277-0.388-24.422-32.645,2.449-51.815C47.016,158.107,30.336,153.865,30.336,153.865z" style="fill:#EDE3DA;stroke:#CCCCDE;stroke-width:3;"></path>
		<g>
			<path d="M37.703,131.025" style="fill:#D57E58;"></path>
		</g>
		<path d="M56.43,153.833c0,0-17.654,22.793-4.085,46.722h8.611
			C60.955,200.555,43.04,175.518,56.43,153.833z" style="opacity:0.11;fill:#6E6E96;enable-background:new    ;"></path>
	</g>
	<g style="display:inline;">
		<path d="M255,141.26c0-10.828-9.42-19.604-21.04-19.604
			c-0.183,0-0.36,0.008-0.539,0.013c-3.669-5.744-10.396-9.595-18.091-9.595c-11.62,0-21.041,8.777-21.041,19.604
			c0,0.142,0.009,0.279,0.012,0.418c-6.354,3.375-10.644,9.739-10.644,17.043c0,10.825,9.421,19.604,21.04,19.604
			c0.66,0,1.312-0.032,1.96-0.09c3.858,4.354,9.698,7.135,16.233,7.135c10.737,0,19.596-7.499,20.875-17.186
			C250.445,155.316,255,148.786,255,141.26z" style="fill:#D7F7E4;stroke:#CCCCDE;stroke-width:3;"></path>
		<path d="M233.605,120.949c-0.185,0-0.358,0.008-0.539,0.012
			c-2.94-4.606-7.854-7.992-13.646-9.154c4.586,1.15,8.449,3.94,10.822,7.655c0.154-0.004,2.263,3.639,2.419,3.639
			c9.971,0,14.608,5.374,14.608,14.665c0,6.459-2.42,10.573-8.148,13.396c-1.1,8.311-8.698,14.742-17.914,14.742
			c-5.607,0-10.619-2.381-13.934-6.117c-0.558,0.047-1.112,0.072-1.683,0.072c-9.975,0-17.806-4.729-17.806-14.018
			c0-6.257,2.8-9.339,7.896-13.055c-0.139-0.807-0.701-7.885,1.188-9.772c4.484-4.488,6.521-8.343,10.533-10.337
			c-7.879,2.833-13.471,9.952-13.471,18.292c0,0.14,0.006,0.275,0.012,0.418c-6.354,3.373-10.646,9.736-10.646,17.041
			c0,10.824,9.421,19.604,21.041,19.604c0.661,0,1.313-0.032,1.959-0.09c3.859,4.355,9.699,7.135,16.234,7.135
			c10.739,0,19.594-7.5,20.875-17.188c6.68-3.285,11.231-9.812,11.231-17.342C254.646,129.727,245.227,120.949,233.605,120.949z" style="opacity:0.1;fill:#6E6E96;enable-background:new    ;"></path>
		<path d="M203.66,151.861c0,0,10.896,2.133,10.896,12.797
			c0,0,2.934,18.109-8.406,30.927h26.184c-0.26-0.358-22.87-30.565,2.294-48.521C219.279,155.836,203.66,151.861,203.66,151.861z" style="fill:#EDE3DA;stroke:#CCCCDE;stroke-width:3;"></path>
		<g>
			<path d="M210.561,130.477" style="fill:#D57E58;"></path>
		</g>
		<path d="M228.096,151.833c0,0-16.531,21.345-3.824,43.752h8.063
			C232.333,195.585,215.557,172.139,228.096,151.833z" style="opacity:0.11;fill:#6E6E96;enable-background:new    ;"></path>
	</g>
	<g style="display:inline;">
		<path d="M218.298,143.02c0-16.622-14.461-30.095-32.299-30.095
			c-0.278,0-0.554,0.012-0.828,0.019c-5.632-8.817-15.959-14.729-27.771-14.729c-17.838,0-32.301,13.475-32.301,30.096
			c0,0.215,0.014,0.43,0.018,0.646c-9.755,5.182-16.339,14.945-16.339,26.157c0,16.62,14.462,30.097,32.3,30.097
			c1.014,0,2.018-0.05,3.008-0.138c5.926,6.688,14.889,10.95,24.921,10.95c16.489,0,30.081-11.515,32.048-26.379
			C211.307,164.602,218.298,154.572,218.298,143.02z" style="fill:#D7F7E4;stroke:#CCCCDE;stroke-width:3;"></path>
		<path d="M185.456,111.841c-0.276,0-0.552,0.012-0.827,0.019
			c-4.516-7.071-12.051-12.269-20.949-14.052c7.041,1.766,12.971,6.049,16.614,11.751c0.237-0.006,3.474,5.586,3.713,5.586
			c15.308,0,22.429,8.248,22.429,22.511c0,9.914-3.715,16.231-12.513,20.562c-1.687,12.754-13.353,22.636-27.5,22.636
			c-8.61,0-16.302-3.655-21.387-9.396c-0.851,0.07-1.71,0.114-2.58,0.114c-15.31,0-27.332-7.255-27.332-21.517
			c0-9.604,4.298-14.337,12.12-20.039c-0.209-1.233-1.077-12.104,1.82-15.002c6.89-6.89,10.011-12.808,16.174-15.868
			c-12.096,4.349-20.679,15.277-20.679,28.081c0,0.215,0.011,0.428,0.017,0.646c-9.756,5.178-16.34,14.946-16.34,26.155
			c0,16.621,14.461,30.098,32.3,30.098c1.017,0,2.017-0.049,3.008-0.135c5.925,6.688,14.89,10.947,24.922,10.947
			c16.487,0,30.078-11.515,32.046-26.379c10.254-5.043,17.244-15.068,17.244-26.623
			C217.756,125.314,203.295,111.841,185.456,111.841z" style="opacity:0.1;fill:#6E6E96;enable-background:new    ;"></path>
		<path d="M139.484,159.296c0,0,16.727,3.272,16.727,19.644
			c0,0,4.504,27.807-12.904,47.479h40.195c-0.398-0.555-35.107-46.922,3.521-74.483
			C163.464,165.396,139.484,159.296,139.484,159.296z" style="fill:#EDE3DA;stroke:#CCCCDE;stroke-width:3;"></path>
		<g>
			<path d="M150.077,126.465" style="fill:#D57E58;"></path>
		</g>
		<path d="M176.997,159.251c0,0-25.378,32.767-5.873,67.164h12.378
			C183.502,226.415,157.748,190.423,176.997,159.251z" style="opacity:0.11;fill:#6E6E96;enable-background:new    ;"></path>
	</g>
	<g style="display:inline;">
		<path d="M146.461,144.131c0-13.645-11.873-24.707-26.517-24.707
			c-0.229,0-0.454,0.01-0.68,0.016c-4.624-7.239-13.102-12.092-22.8-12.092c-14.644,0-26.518,11.063-26.518,24.707
			c0,0.178,0.012,0.354,0.015,0.529c-8.01,4.251-13.414,12.271-13.414,21.477c0,13.646,11.872,24.707,26.518,24.707
			c0.832,0,1.655-0.041,2.469-0.105c4.864,5.484,12.224,8.984,20.46,8.984c13.537,0,24.695-9.45,26.309-21.652
			C140.721,161.85,146.461,153.617,146.461,144.131z" style="fill:#D7F7E4;stroke:#CCCCDE;stroke-width:3;"></path>
		<path d="M119.498,118.535c-0.228,0-0.452,0.009-0.679,0.015
			c-3.707-5.805-9.894-10.072-17.199-11.537c5.78,1.45,10.648,4.966,13.641,9.647c0.194-0.005,2.851,4.586,3.048,4.586
			c12.567,0,18.414,6.771,18.414,18.48c0,8.139-3.05,13.324-10.271,16.881c-1.384,10.472-10.961,18.584-22.576,18.584
			c-7.069,0-13.384-3.004-17.559-7.715c-0.698,0.061-1.404,0.096-2.118,0.096c-12.568,0-22.438-5.957-22.438-17.664
			c0-7.885,3.528-11.771,9.949-16.452c-0.171-1.015-0.884-9.938,1.496-12.316c5.655-5.657,8.218-10.515,13.277-13.028
			c-9.93,3.571-16.978,12.542-16.978,23.053c0,0.177,0.01,0.353,0.015,0.528c-8.011,4.25-13.415,12.271-13.415,21.477
			c0,13.645,11.873,24.706,26.518,24.706c0.834,0,1.655-0.04,2.469-0.108c4.864,5.488,12.224,8.988,20.461,8.988
			c13.536,0,24.693-9.451,26.311-21.656c8.418-4.141,14.158-12.371,14.158-21.854C146.016,129.598,134.143,118.535,119.498,118.535z" style="opacity:0.1;fill:#6E6E96;enable-background:new    ;"></path>
		<path d="M81.757,157.494c0,0,13.731,2.688,13.731,16.128
			c0,0,3.697,22.823-10.595,38.978h33c-0.328-0.455-28.824-38.521,2.89-61.15C101.443,162.502,81.757,157.494,81.757,157.494z" style="fill:#EDE3DA;stroke:#CCCCDE;stroke-width:3;"></path>
		<g>
			<path d="M90.453,130.541" style="fill:#D57E58;"></path>
		</g>
		<path d="M112.553,157.458c0,0-20.835,26.899-4.821,55.142h10.162
			C117.894,212.6,96.75,183.049,112.553,157.458z" style="opacity:0.11;fill:#6E6E96;enable-background:new    ;"></path>
	</g>
	<g style="display:inline;">
		<path d="M253.684,168.268c0-12.345-10.74-22.35-23.988-22.35
			c-0.201,0-0.405,0.008-0.609,0.014c-4.188-6.549-11.854-10.938-20.625-10.938c-13.248,0-23.984,10.007-23.984,22.35
			c0,0.161,0.012,0.318,0.014,0.479c-7.244,3.849-12.135,11.104-12.135,19.431c0,12.348,10.735,22.354,23.984,22.354
			c0.753,0,1.497-0.039,2.229-0.104c4.4,4.969,11.062,8.135,18.513,8.135c12.245,0,22.339-8.553,23.799-19.593
			C248.49,184.295,253.684,176.85,253.684,168.268z" style="fill:#D7F7E4;stroke:#CCCCDE;stroke-width:3;"></path>
		<path d="M229.292,145.111c-0.206,0-0.409,0.011-0.614,0.016
			c-3.354-5.251-8.949-9.111-15.558-10.438c5.229,1.312,9.633,4.492,12.339,8.728c0.175-0.004,2.579,4.149,2.757,4.149
			c11.368,0,16.655,6.123,16.655,16.718c0,7.362-2.757,12.055-9.291,15.271c-1.252,9.473-9.915,16.813-20.423,16.813
			c-6.396,0-12.106-2.72-15.884-6.979c-0.631,0.055-1.271,0.086-1.916,0.086c-11.368,0-20.299-5.389-20.299-15.979
			c0-7.135,3.188-10.646,9.002-14.885c-0.156-0.918-0.805-8.987,1.353-11.143c5.116-5.115,7.435-9.513,12.011-11.783
			c-8.98,3.229-15.357,11.346-15.357,20.854c0,0.159,0.014,0.316,0.018,0.479c-7.246,3.847-12.139,11.104-12.139,19.429
			c0,12.344,10.738,22.351,23.988,22.351c0.754,0,1.496-0.035,2.231-0.101c4.401,4.967,11.06,8.133,18.509,8.133
			c12.245,0,22.338-8.554,23.799-19.592c7.615-3.743,12.812-11.191,12.812-19.771C253.279,155.118,242.541,145.111,229.292,145.111z" style="opacity:0.1;fill:#6E6E96;enable-background:new    ;"></path>
		<path d="M195.15,180.355c0,0,12.422,2.431,12.422,14.588
			c0,0,3.345,20.646-9.584,35.259h29.853c-0.296-0.41-26.073-34.847,2.615-55.317C212.96,184.887,195.15,180.355,195.15,180.355z" style="fill:#EDE3DA;stroke:#CCCCDE;stroke-width:3;"></path>
		<g>
			<path d="M203.018,155.975" style="fill:#D57E58;"></path>
		</g>
		<path d="M223.01,180.322c0,0-18.847,24.334-4.361,49.88h9.192
			C227.841,230.202,208.714,203.473,223.01,180.322z" style="opacity:0.11;fill:#6E6E96;enable-background:new    ;"></path>
	</g>
	<g style="display:inline;">
		<path d="M89.418,166.416c0-13.111-11.408-23.738-25.479-23.738
			c-0.22,0-0.436,0.008-0.653,0.014c-4.443-6.954-12.589-11.613-21.907-11.613c-14.071,0-25.48,10.629-25.48,23.736
			c0,0.17,0.011,0.336,0.015,0.507c-7.695,4.087-12.889,11.796-12.889,20.641c0,13.106,11.407,23.737,25.479,23.737
			c0.8,0,1.59-0.041,2.372-0.104c4.674,5.271,11.745,8.64,19.659,8.64c13.007,0,23.729-9.082,25.279-20.811
			C83.903,183.439,89.418,175.531,89.418,166.416z" style="fill:#D7F7E4;stroke:#CCCCDE;stroke-width:3;"></path>
		<path d="M63.511,141.822c-0.219,0-0.435,0.01-0.652,0.015
			c-3.562-5.577-9.506-9.678-16.525-11.085c5.553,1.393,10.231,4.771,13.106,9.27c0.186-0.004,2.739,4.406,2.928,4.406
			c12.076,0,17.692,6.506,17.692,17.758c0,7.82-2.929,12.807-9.87,16.223c-1.33,10.062-10.531,17.854-21.693,17.854
			c-6.792,0-12.859-2.886-16.871-7.412c-0.67,0.059-1.348,0.092-2.035,0.092c-12.076,0-21.561-5.723-21.561-16.975
			c0-7.574,3.391-11.308,9.561-15.807c-0.165-0.975-0.85-9.549,1.437-11.836c5.435-5.434,7.896-10.103,12.758-12.516
			c-9.541,3.43-16.313,12.051-16.313,22.146c0,0.17,0.01,0.338,0.014,0.508c-7.696,4.084-12.889,11.792-12.889,20.64
			c0,13.105,11.407,23.734,25.479,23.734c0.801,0,1.591-0.039,2.373-0.104c4.674,5.271,11.745,8.639,19.659,8.639
			c13.006,0,23.728-9.081,25.278-20.809c8.089-3.979,13.604-11.893,13.604-21.002C88.991,152.449,77.583,141.822,63.511,141.822z" style="opacity:0.1;fill:#6E6E96;enable-background:new    ;"></path>
		<path d="M27.248,179.256c0,0,13.193,2.583,13.193,15.496
			c0,0,3.553,21.932-10.179,37.45h31.707c-0.314-0.437-27.694-37.015,2.777-58.759C46.163,184.066,27.248,179.256,27.248,179.256z" style="fill:#EDE3DA;stroke:#CCCCDE;stroke-width:3;"></path>
		<g>
			<path d="M35.603,153.357" style="fill:#D57E58;"></path>
		</g>
		<path d="M56.838,179.221c0,0-20.02,25.848-4.633,52.981h9.764
			C61.969,232.202,41.654,203.811,56.838,179.221z" style="opacity:0.11;fill:#6E6E96;enable-background:new    ;"></path>
	</g>
</g>
<g style="opacity:0.19;enable-background:new    ;">
	<path d="M181.021,131.354C166.146,161.415,143.662,82,117.809,82c-39.147,0-30.059,64.059-73.789,37.353
		c-21.338-13.032-33.719-0.206-39.155,13.605c-1.042,4.929-1.595,10.038-1.595,15.276c0,40.699,33.073,73.688,73.872,73.688
		c2.319,0,4.612-0.119,6.878-0.325c13.551,16.375,34.051,26.812,56.998,26.812c37.711,0,68.793-28.192,73.289-64.598
		c15.762-8.299,28.146-22.116,34.575-38.873C223.695,111.208,210.001,72.783,181.021,131.354z" style="fill:#6E6E96;"></path>
</g>
<g style="opacity:0.2;enable-background:new    ;">
	<path d="M230.75,28.559h-24c-0.828,0-1.5-0.671-1.5-1.5s0.672-1.5,1.5-1.5h24c0.828,0,1.5,0.671,1.5,1.5
		S231.578,28.559,230.75,28.559z" style="fill:#6E6E96;"></path>
</g>
<g style="opacity:0.2;enable-background:new    ;">
	<path d="M221.25,35.559h-24.5c-0.828,0-1.5-0.671-1.5-1.5s0.672-1.5,1.5-1.5h24.5c0.828,0,1.5,0.671,1.5,1.5
		S222.078,35.559,221.25,35.559z" style="fill:#6E6E96;"></path>
</g>
<g style="opacity:0.2;enable-background:new    ;">
	<path d="M19.75,66.559h-14c-0.829,0-1.5-0.671-1.5-1.5s0.671-1.5,1.5-1.5h14c0.829,0,1.5,0.671,1.5,1.5
		S20.579,66.559,19.75,66.559z" style="fill:#6E6E96;"></path>
</g>
<g style="opacity:0.2;enable-background:new    ;">
	<path d="M29.75,73.559h-12c-0.829,0-1.5-0.671-1.5-1.5s0.671-1.5,1.5-1.5h12c0.829,0,1.5,0.671,1.5,1.5
		S30.579,73.559,29.75,73.559z" style="fill:#6E6E96;"></path>
</g>
<g>
	<path d="M63.337,115.51c0-6.477-5.637-11.727-12.589-11.727c-0.109,0-0.216,0.003-0.323,0.007
		c-2.194-3.436-6.219-5.74-10.823-5.74c-6.954,0-12.59,5.252-12.59,11.73c0,0.082,0.006,0.166,0.007,0.249
		c-3.802,2.018-6.368,5.825-6.368,10.196c0,6.477,5.636,11.727,12.588,11.727c0.395,0,0.786-0.019,1.172-0.052
		c2.309,2.607,5.803,4.267,9.712,4.267c6.427,0,11.724-4.487,12.49-10.28C60.612,123.921,63.337,120.014,63.337,115.51z" style="fill:#BFDBCA;"></path>
	<path d="M50.537,103.36c-0.107,0-0.215,0.004-0.322,0.008
		c-1.759-2.756-4.697-4.782-8.165-5.478c2.744,0.689,5.055,2.358,6.476,4.582c0.092-0.004,1.353,2.178,1.446,2.178
		c5.966,0,8.741,3.213,8.741,8.771c0,3.866-1.447,6.325-4.876,8.014c-0.658,4.971-5.205,8.823-10.717,8.823
		c-3.356,0-6.353-1.425-8.336-3.662c-0.331,0.03-0.665,0.045-1.004,0.045c-5.966,0-10.652-2.827-10.652-8.386
		c0-3.742,1.675-5.586,4.724-7.806c-0.08-0.481-0.419-4.718,0.711-5.85c2.685-2.686,3.9-4.992,6.303-6.183
		c-4.714,1.694-8.06,5.952-8.06,10.942c0,0.083,0.003,0.167,0.008,0.251c-3.803,2.018-6.37,5.823-6.37,10.196
		c0,6.476,5.636,11.725,12.588,11.725c0.396,0,0.787-0.02,1.172-0.05c2.31,2.607,5.804,4.266,9.712,4.266
		c6.425,0,11.723-4.488,12.49-10.282c3.996-1.963,6.721-5.871,6.721-10.374C63.125,108.61,57.489,103.36,50.537,103.36z" style="opacity:0.24;fill:#6E6E96;enable-background:new    ;"></path>
	<path d="M32.622,121.854c0,0,6.518,1.277,6.518,7.657c0,0,1.755,10.837-5.028,18.503h15.664
		c-0.155-0.214-13.682-18.287,1.374-29.031C41.967,124.23,32.622,121.854,32.622,121.854z" style="fill:#EDE3DA;"></path>
	<g>
		<path d="M36.75,109.059" style="fill:#D57E58;"></path>
	</g>
	<path d="M47.241,121.837c0,0-9.89,12.769-2.29,26.177h4.825
		C49.775,148.014,39.74,133.984,47.241,121.837z" style="opacity:0.11;fill:#6E6E96;enable-background:new    ;"></path>
</g>
<path d="M156.75,43.559h-27c-0.828,0-1.5-0.671-1.5-1.5s0.672-1.5,1.5-1.5h27c0.828,0,1.5,0.671,1.5,1.5
	S157.578,43.559,156.75,43.559z" style="fill:#FFFFFF;"></path>
<path d="M117.284,245.314" style="fill:none;stroke:#6E6E96;stroke-width:3;stroke-linecap:round;stroke-linejoin:round;"></path>
<g style="opacity:0.27;enable-background:new    ;">
	<path d="M37.46,211.413c19.729-26.521,46.556-45.188,76.874-51.683
		c-35.214,2.06-66.647,18.051-88.772,42.498c3.693,3.559,7.768,6.722,12.137,9.457C37.62,211.596,37.539,211.506,37.46,211.413z" style="fill:#FFFFFF;"></path>
</g>
<path d="M165.75,51.559h-26c-0.828,0-1.5-0.671-1.5-1.5s0.672-1.5,1.5-1.5h26c0.828,0,1.5,0.671,1.5,1.5
	S166.578,51.559,165.75,51.559z" style="fill:#FFFFFF;"></path>
<g style="opacity:0.23;enable-background:new    ;">
	<path d="M57.518,149.384c-10.425-1.788-23.768-2.394-40.561-0.396c-0.048,0.01-0.096,0.02-0.143,0.029
		c2.273,0.168,62.8,5.836,46.436,15.041c-6.441,3.623-39.998,12.502-49.938,22.44c3.402,5.717,7.559,10.935,12.33,15.519
		c11.267-10.504,38.667-33.906,63.867-38.721C80.223,156.846,69.374,152.027,57.518,149.384z" style="fill:#6E6E96;"></path>
</g>
<g style="opacity:0.15;enable-background:new    ;">
	<path d="M63.25,11.059c-1.01,0-2.003,0.068-2.981,0.187c10.583,0.627,18.98,9.384,18.98,20.125
		c0,11.148-9.038,20.187-20.187,20.187c-10.742,0-19.498-8.396-20.125-18.979c-0.119,0.978-0.187,1.971-0.187,2.98
		c0,13.531,10.969,24.5,24.5,24.5s24.5-10.969,24.5-24.5C87.75,22.028,76.781,11.059,63.25,11.059z" style="fill:#6E6E96;"></path>
</g>
<path d="M209.611,202.018c0.878-2.264,1.66-4.574,2.314-6.938c-23.304-22.215-54.959-35.88-89.839-35.88
	c-38.34,0-72.789,16.503-96.526,42.73c0.031,0.03,0.064,0.059,0.096,0.088H209.611z" style="fill:#90DBB2;"></path>
<path d="M25.64,202.018h93.118c-9.855-31.662-43.05-54.959-82.507-54.959c-11.753,0-22.951,2.069-33.144,5.81
	C4.12,172.148,12.569,189.459,25.64,202.018z" style="fill:#81C49F;"></path>
<circle r="25.641" cy="32.729" cx="62.392" style="fill:#FFE97A;"></circle>
</svg>
