<svg xml:space="preserve" style="enable-background:new 0 0 250.896 236.988;" viewBox="0 0 250.896 236.988" height="236.988px" width="250.896px" y="0px" x="0px" xmlns:xlink="http://www.w3.org/1999/xlink" xmlns="http://www.w3.org/2000/svg" id="Layer_1" version="1.1">
<path d="M249.747,108.561c0-40.273-31.915-72.918-71.282-72.918c-0.612,0-1.216,0.029-1.825,0.046
	C164.211,14.325,141.421,0,115.352,0C75.983,0,44.069,32.649,44.069,72.922c0,0.523,0.028,1.038,0.039,1.559
	C22.576,87.027,8.047,110.703,8.047,137.866c0,40.271,31.915,72.914,71.284,72.914c2.238,0,4.451-0.116,6.637-0.321
	c13.075,16.202,33.822,26.529,55.965,26.529c36.391,0,65.418-27.896,69.756-63.913C234.316,160.854,249.747,136.557,249.747,108.561
	z" style="fill:#FFF8DF;"></path>
<g>
	<g>
		<polygon points="236.435,89.277 156.179,89.277 156.179,207.193 249.397,207.193 249.397,101.625" style="fill:#FFFFFF;"></polygon>
		<path d="M249.397,208.693h-93.218c-0.828,0-1.5-0.672-1.5-1.5V89.277c0-0.829,0.672-1.5,1.5-1.5h80.256
			c0.385,0,0.756,0.148,1.034,0.414l12.962,12.348c0.298,0.283,0.466,0.675,0.466,1.086v105.568
			C250.897,208.021,250.225,208.693,249.397,208.693z M157.679,205.693h90.218V102.268l-12.062-11.491h-78.155V205.693z" style="fill:#CCCCDE;"></path>
	</g>
	<g>
		<polygon points="249.397,101.625 236.435,101.625 236.435,89.277" style="fill:#FFFFFF;"></polygon>
		<path d="M249.416,103.125c-0.005,0-0.013,0-0.02,0h-12.962c-0.828,0-1.5-0.671-1.5-1.5V89.277
			c0-0.6,0.357-1.143,0.909-1.379c0.552-0.237,1.19-0.121,1.625,0.293l12.825,12.217c0.377,0.272,0.622,0.716,0.622,1.217
			C250.916,102.454,250.245,103.125,249.416,103.125z M237.935,100.125h7.713l-7.713-7.348V100.125z" style="fill:#CCCCDE;"></path>
	</g>
	<path d="M209.278,109.368h-16.631c-0.828,0-1.5-0.671-1.5-1.5
		s0.672-1.5,1.5-1.5h16.631c0.828,0,1.5,0.671,1.5,1.5S210.106,109.368,209.278,109.368z" style="opacity:0.21;fill:#6E6E96;enable-background:new    ;"></path>
	<g style="opacity:0.21;">
		<path d="M213.115,120.636h-42.218c-0.828,0-1.5-0.672-1.5-1.5c0-0.829,0.672-1.5,1.5-1.5h42.218
			c0.828,0,1.5,0.671,1.5,1.5C214.615,119.964,213.944,120.636,213.115,120.636z" style="fill:#6E6E96;"></path>
		<path d="M231.665,120.636h-9.592c-0.828,0-1.5-0.672-1.5-1.5c0-0.829,0.672-1.5,1.5-1.5h9.592
			c0.828,0,1.5,0.671,1.5,1.5C233.165,119.964,232.493,120.636,231.665,120.636z" style="fill:#6E6E96;"></path>
		<path d="M205.44,126.393h-34.542c-0.828,0-1.5-0.672-1.5-1.5s0.672-1.5,1.5-1.5h34.542
			c0.828,0,1.5,0.672,1.5,1.5S206.268,126.393,205.44,126.393z" style="fill:#6E6E96;"></path>
		<path d="M231.665,126.393h-21.746c-0.828,0-1.5-0.672-1.5-1.5s0.672-1.5,1.5-1.5h21.746
			c0.828,0,1.5,0.672,1.5,1.5S232.493,126.393,231.665,126.393z" style="fill:#6E6E96;"></path>
		<path d="M187.213,133.43h-16.315c-0.828,0-1.5-0.672-1.5-1.5s0.672-1.5,1.5-1.5h16.315
			c0.828,0,1.5,0.672,1.5,1.5S188.041,133.43,187.213,133.43z" style="fill:#6E6E96;"></path>
		<path d="M202.882,133.43h-9.597c-0.828,0-1.5-0.672-1.5-1.5s0.672-1.5,1.5-1.5h9.597
			c0.828,0,1.5,0.672,1.5,1.5S203.71,133.43,202.882,133.43z" style="fill:#6E6E96;"></path>
		<path d="M231.665,133.43H207.36c-0.828,0-1.5-0.672-1.5-1.5s0.672-1.5,1.5-1.5h24.306
			c0.828,0,1.5,0.672,1.5,1.5S232.493,133.43,231.665,133.43z" style="fill:#6E6E96;"></path>
		<path d="M196.805,140.465h-25.907c-0.828,0-1.5-0.672-1.5-1.5s0.672-1.5,1.5-1.5h25.907
			c0.828,0,1.5,0.672,1.5,1.5S197.633,140.465,196.805,140.465z" style="fill:#6E6E96;"></path>
		<path d="M207.041,140.465h-3.199c-0.828,0-1.5-0.672-1.5-1.5s0.672-1.5,1.5-1.5h3.199
			c0.828,0,1.5,0.672,1.5,1.5S207.869,140.465,207.041,140.465z" style="fill:#6E6E96;"></path>
		<path d="M231.665,140.465h-18.23c-0.828,0-1.5-0.672-1.5-1.5s0.672-1.5,1.5-1.5h18.23
			c0.828,0,1.5,0.672,1.5,1.5S232.493,140.465,231.665,140.465z" style="fill:#6E6E96;"></path>
	</g>
	<path d="M208.322,192.845c-0.338,0-0.677-0.113-0.957-0.346
		c-0.638-0.529-0.726-1.475-0.196-2.112c5.864-7.065,9.973-10.125,12.191-9.103c1.947,0.897,1.473,3.653,1.316,4.559
		c-0.369,2.139-0.353,3.225-0.287,3.742c0.884-0.516,2.396-2.029,3.025-2.659c1.259-1.258,2.433-1.678,3.492-1.235
		c0.537,0.223,0.898,0.606,1.141,1.034l3.679-1.561c0.765-0.323,1.644,0.032,1.967,0.795s-0.032,1.644-0.795,1.967l-5.277,2.239
		c-0.464,0.197-0.995,0.147-1.414-0.13c-0.351-0.232-0.584-0.599-0.651-1.006c-0.006,0.006-0.013,0.012-0.019,0.018
		c-2.123,2.125-4.531,4.533-6.639,3.442c-1.951-1.011-1.69-4.185-1.179-7.156c0.086-0.494,0.115-0.849,0.12-1.097
		c-1.586,0.799-5.202,4.259-8.362,8.066C209.18,192.66,208.752,192.845,208.322,192.845z" style="opacity:0.3;fill:#6E6E96;enable-background:new    ;"></path>
	<path d="M205.121,147.184h-34.224c-0.828,0-1.5-0.672-1.5-1.5
		s0.672-1.5,1.5-1.5h34.224c0.828,0,1.5,0.672,1.5,1.5S205.949,147.184,205.121,147.184z" style="opacity:0.21;fill:#6E6E96;enable-background:new    ;"></path>
	<g style="opacity:0.21;">
		<path d="M213.115,153.13h-42.218c-0.828,0-1.5-0.672-1.5-1.5s0.672-1.5,1.5-1.5h42.218
			c0.828,0,1.5,0.672,1.5,1.5S213.944,153.13,213.115,153.13z" style="fill:#6E6E96;"></path>
		<path d="M231.665,153.13h-9.592c-0.828,0-1.5-0.672-1.5-1.5s0.672-1.5,1.5-1.5h9.592
			c0.828,0,1.5,0.672,1.5,1.5S232.493,153.13,231.665,153.13z" style="fill:#6E6E96;"></path>
		<path d="M205.44,158.889h-34.542c-0.828,0-1.5-0.672-1.5-1.5s0.672-1.5,1.5-1.5h34.542
			c0.828,0,1.5,0.672,1.5,1.5S206.268,158.889,205.44,158.889z" style="fill:#6E6E96;"></path>
		<path d="M231.665,158.889h-21.746c-0.828,0-1.5-0.672-1.5-1.5s0.672-1.5,1.5-1.5h21.746
			c0.828,0,1.5,0.672,1.5,1.5S232.493,158.889,231.665,158.889z" style="fill:#6E6E96;"></path>
		<path d="M187.213,165.926h-16.315c-0.828,0-1.5-0.672-1.5-1.5s0.672-1.5,1.5-1.5h16.315
			c0.828,0,1.5,0.672,1.5,1.5S188.041,165.926,187.213,165.926z" style="fill:#6E6E96;"></path>
		<path d="M202.882,165.926h-9.597c-0.828,0-1.5-0.672-1.5-1.5s0.672-1.5,1.5-1.5h9.597
			c0.828,0,1.5,0.672,1.5,1.5S203.71,165.926,202.882,165.926z" style="fill:#6E6E96;"></path>
		<path d="M231.665,165.926H207.36c-0.828,0-1.5-0.672-1.5-1.5s0.672-1.5,1.5-1.5h24.306
			c0.828,0,1.5,0.672,1.5,1.5S232.493,165.926,231.665,165.926z" style="fill:#6E6E96;"></path>
		<path d="M196.805,172.961h-25.907c-0.828,0-1.5-0.672-1.5-1.5s0.672-1.5,1.5-1.5h25.907
			c0.828,0,1.5,0.672,1.5,1.5S197.633,172.961,196.805,172.961z" style="fill:#6E6E96;"></path>
		<path d="M207.041,172.961h-3.199c-0.828,0-1.5-0.672-1.5-1.5s0.672-1.5,1.5-1.5h3.199
			c0.828,0,1.5,0.672,1.5,1.5S207.869,172.961,207.041,172.961z" style="fill:#6E6E96;"></path>
		<path d="M231.665,172.961h-18.23c-0.828,0-1.5-0.672-1.5-1.5s0.672-1.5,1.5-1.5h18.23
			c0.828,0,1.5,0.672,1.5,1.5S232.493,172.961,231.665,172.961z" style="fill:#6E6E96;"></path>
	</g>
</g>
<g id="Layer_2_3_">
	<g>
		<rect height="64.914" width="83.4" style="fill:#FFFFFF;" y="32.816" x="31"></rect>
		<path d="M114.401,99.23H31c-0.829,0-1.5-0.671-1.5-1.5V32.816c0-0.829,0.671-1.5,1.5-1.5h83.4
			c0.829,0,1.5,0.671,1.5,1.5V97.73C115.901,98.559,115.229,99.23,114.401,99.23z M32.5,96.23h80.4V34.316H32.5V96.23z" style="fill:#CCCCDE;"></path>
	</g>
	<g id="Layer_2_1_">
		<rect height="50.268" width="67.085" style="fill:#D6F1FF;" y="39.901" x="38.72"></rect>
	</g>
	<g style="opacity:0.47;" id="Layer_3_1_">
		<path d="M38.72,60.451c0,0,2.62-3.667,9.172-3.667
			c6.551,0,2.099-4.456,9.958-4.456c7.86,0,12.838-3.93,22.276-0.265c9.434,3.67,25.679,3.849,25.679,3.849l0.214,13.169
			L38.72,72.766V60.451L38.72,60.451z" style="opacity:0.08;enable-background:new    ;"></path>
		<polygon points="70.596,62.6 38.72,81.252 38.72,90.004 106.019,90.004" style="fill:#FFE5B0;"></polygon>
		<path d="M38.72,69.8c0,0,9.849-5.67,16.024-5.103c6.172,0.562-3.984,9.511-3.984,9.511l-12.04,7.044V69.8z" style="fill:#FFE5B0;"></path>
		<path d="M54.746,64.696c0,0,2.131,0.945-2.459,2.722c-4.594,1.774-6.087,9.578,1.39,5.793
			c7.479-3.785,16.918-10.609,16.918-10.609S63.93,66.79,54.746,64.696z" style="fill:#F2D9A6;"></path>
		<path d="M80.126,62.785c0,0,8.471-5.242,25.599-1.808l0.292,5.138L80.126,62.785z" style="fill:#FFE5B0;"></path>
		<path d="M53.677,73.21c3.14-1.588,6.624-3.715,9.614-5.645c-6.548-0.623-7.575-2.668-7.575-2.668
			l-0.003-0.003c-0.321-0.059-0.643-0.123-0.969-0.196c0,0,2.135,0.945-2.459,2.721C47.695,69.191,46.199,76.997,53.677,73.21z" style="fill:#D6C093;"></path>
		<path d="M83.385,61.411c0,0,12.588,0.028,22.483,2.113l0.15,2.591
			L83.385,61.411z" style="opacity:0.42;fill:#D6C093;enable-background:new    ;"></path>
		<g>
			<path d="M77.603,60.912c0,0-11.537-0.946-5.77,6.385c5.77,7.333,34.186,22.708,34.186,22.708v-23.89
				C106.019,66.114,85.72,60.912,77.603,60.912z" style="fill:#D6C093;"></path>
		</g>
		<path d="M38.72,82.904c0,0,17.847-3.712,26.218-15.22
			c0,0-4.729,9.457-26.218,19.15V82.904z" style="opacity:0.27;fill:#D6C093;enable-background:new    ;"></path>
		<path d="M73.105,68.698c0,0,16.195,12.945,19.337,21.306h13.577
			L73.105,68.698z" style="opacity:0.25;fill:#D6C093;enable-background:new    ;"></path>
		<g>
			<path d="M75.512,69.301c-6.738-8.452,6.745-7.359,6.745-7.359c1.455,0,3.009,0.006,4.6,0.013
				c-3.578-0.61-6.918-1.043-9.254-1.043c0,0-11.537-0.945-5.77,6.386c2.558,3.248,9.562,8.078,16.568,12.449
				C83.167,76.333,78.111,72.555,75.512,69.301z M105.545,65.993v23.706c0,0-0.668-0.343-1.812-0.954
				c1.433,0.798,2.285,1.257,2.285,1.257V66.115C106.019,66.114,105.85,66.072,105.545,65.993z" style="fill:#C7B289;"></path>
		</g>
		<g>
			<path d="M53.86,67.417c1.737-0.673,2.508-1.225,2.802-1.649c-0.75-0.489-0.943-0.874-0.943-0.874
				s-0.003,0-0.004,0c-0.319-0.059-0.641-0.125-0.967-0.197c0,0,2.131,0.945-2.459,2.722c-3.992,1.541-5.644,7.637-1.094,6.719
				C48.733,73.414,50.435,68.739,53.86,67.417z" style="fill:#C7B289;"></path>
		</g>
	</g>
</g>
<g>
	<g>
		<polygon points="6.711,194.413 6.711,151.016 75.185,151.016 75.185,219.487 31.786,219.487" style="fill:#FAFFFA;"></polygon>
		<path d="M75.185,220.987H31.786c-0.398,0-0.779-0.158-1.061-0.439L5.651,195.474
			c-0.281-0.281-0.439-0.663-0.439-1.061v-43.397c0-0.828,0.671-1.5,1.5-1.5h68.474c0.829,0,1.5,0.672,1.5,1.5v68.472
			C76.685,220.315,76.013,220.987,75.185,220.987z M32.407,217.987h41.277v-65.472H8.211v41.276L32.407,217.987z" style="fill:#CCCCDE;"></path>
	</g>
	<g>
		<polygon points="6.711,194.413 31.786,194.413 31.786,219.487" style="fill:#EDFFEB;"></polygon>
		<path d="M31.787,220.987c-0.391,0-0.774-0.152-1.061-0.439L5.651,195.474
			c-0.429-0.429-0.558-1.074-0.325-1.635c0.232-0.561,0.779-0.926,1.386-0.926h25.075c0.829,0,1.5,0.672,1.5,1.5v25.074
			c0,0.606-0.365,1.153-0.926,1.386C32.175,220.95,31.98,220.987,31.787,220.987z M10.333,195.913l19.954,19.953v-19.953H10.333z" style="fill:#CCCCDE;"></path>
	</g>
</g>
<g id="Layer_2_2_">
	<g id="Layer_4_1_">
		<g>
			<path d="M97.197,176.823h-2.704C94.491,176.823,95.716,177.091,97.197,176.823z M138.11,169.341v-9.181
				h-35.776v8.82c0,5.781-2.868,7.438-5.137,7.842h5.137v2.449h35.776v-2.449h7.844C138.781,176.823,138.153,170.872,138.11,169.341
				z" style="fill:#F0F0FF;"></path>
			<path d="M139.61,180.771h-38.776v-2.449H97.33c-0.483,0.08-0.985,0.12-1.493,0.12c0,0,0,0,0,0
				c-1.064,0-2.845,0-2.845-1.619v-1.5h4.059c2.509-0.504,3.782-2.637,3.782-6.343v-10.32h38.776v10.681
				c0.05,1.77,0.77,5.981,6.342,5.981v3h-6.342V180.771z M103.833,177.771h32.776v-2.449h2.133
				c-1.436-1.709-2.075-3.908-2.132-5.939l-0.001-7.723h-32.776v7.32c0,2.923-0.672,4.944-1.63,6.342h1.63V177.771z M133.087,174.77
				c-0.828,0-1.5-0.672-1.5-1.5c0-0.829,0.672-1.5,1.5-1.5s1.5,0.671,1.5,1.5C134.587,174.098,133.915,174.77,133.087,174.77z" style="fill:#6E6E96;"></path>
		</g>
		<g>
			<rect height="4.903" width="51.462" style="fill:#F2F2F2;" y="176.823" x="94.491"></rect>
			<path d="M145.953,183.227H94.491c-0.829,0-1.5-0.672-1.5-1.5v-4.903c0-0.828,0.671-1.5,1.5-1.5h51.462
				c0.828,0,1.5,0.672,1.5,1.5v4.903C147.453,182.555,146.781,183.227,145.953,183.227z M95.991,180.227h48.462v-1.903H95.991
				V180.227z" style="fill:#6E6E96;"></path>
		</g>
		<g>
			<path d="M57.487,146.927V68.019c0-5.392,4.41-9.803,9.803-9.803h105.865c5.392,0,9.803,4.411,9.803,9.803
				v78.908" style="fill:#BBC0D9;"></path>
		</g>
		<rect height="67.045" width="110.537" style="fill:#BDDCFF;" y="65.581" x="64.593"></rect>
		<g>
			<path d="M182.958,139.086v11.271c0,5.393-4.413,9.803-9.804,9.803H67.29c-5.394,0-9.803-4.411-9.803-9.803
				v-11.271H182.958z" style="fill:#F0F0FF;"></path>
		</g>
		<rect height="4.504" width="110.537" style="opacity:0.15;fill:#6E6E96;enable-background:new    ;" y="65.581" x="64.593"></rect>
		<path d="M172.741,57.268H66.875c-5.393,0-9.802,4.411-9.802,9.802v4.135c0-5.393,4.411-9.802,9.802-9.802
			h105.866c5.392,0,9.803,4.41,9.803,9.802V67.07C182.545,61.678,178.133,57.268,172.741,57.268z" style="fill:#D5DBF7;"></path>
		<g>
			<path d="M173.155,161.66H67.29c-6.232,0-11.303-5.07-11.303-11.303v-12.771h128.471v12.771
				C184.458,156.59,179.387,161.66,173.155,161.66z M58.988,140.586v9.771c0,4.578,3.725,8.303,8.303,8.303h105.864
				c4.579,0,8.304-3.725,8.304-8.303v-9.771H58.988z" style="fill:#6E6E96;"></path>
		</g>
		<g>
			<path d="M184.457,146.927h-3V68.019c0-4.579-3.725-8.303-8.303-8.303H67.289
				c-4.578,0-8.303,3.725-8.303,8.303v78.908h-3V68.019c0-6.232,5.07-11.303,11.303-11.303h105.865
				c6.232,0,11.303,5.071,11.303,11.303V146.927z" style="fill:#6E6E96;"></path>
		</g>
		<path d="M173.155,155.408H67.29c-5.394,0-9.803-4.413-9.803-9.805
			v4.754c0,5.393,4.41,9.805,9.803,9.805h105.866c5.391,0,9.802-4.412,9.802-9.805v-4.754
			C182.958,150.995,178.546,155.408,173.155,155.408z" style="opacity:0.15;fill:#6E6E96;enable-background:new    ;"></path>
		<rect height="3.925" width="125.471" style="opacity:0.15;fill:#6E6E96;enable-background:new    ;" y="135.161" x="57.487"></rect>
		<rect height="6.258" width="35.776" style="opacity:0.15;fill:#6E6E96;enable-background:new    ;" y="160.16" x="102.333"></rect>
		<rect height="4.903" width="14.595" style="opacity:0.15;fill:#6E6E96;enable-background:new    ;" y="176.823" x="131.358"></rect>
		<polygon points="108.917,132.061 174.499,66.476 174.499,88.565 
			131.004,132.061" style="opacity:0.31;fill:#DEEFFF;enable-background:new    ;"></polygon>
		<polygon points="174.499,88.565 131.004,132.061 174.499,132.061" style="opacity:0.31;fill:#FFFFFF;enable-background:new    ;"></polygon>
		<path d="M123.915,150.555h-8.27c-0.829,0-1.5-0.672-1.5-1.5s0.671-1.5,1.5-1.5h8.27
			c0.829,0,1.5,0.672,1.5,1.5S124.744,150.555,123.915,150.555z" style="fill:#6E6E96;"></path>
		<polygon points="64.593,92.825 87.334,70.085 121.435,70.085 
			65.107,126.415" style="opacity:0.17;fill:#FFFFFF;enable-background:new    ;"></polygon>
		<path d="M175.13,134.126H64.593c-0.829,0-1.5-0.672-1.5-1.5V65.581c0-0.829,0.671-1.5,1.5-1.5H175.13
			c0.828,0,1.5,0.671,1.5,1.5v67.045C176.63,133.454,175.958,134.126,175.13,134.126z M66.093,131.126H173.63V67.081H66.093V131.126
			z" style="fill:#6E6E96;"></path>
	</g>
	<g>
		<path d="M76.883,175.896c0,3.107-2.544,5.652-5.653,5.652H46.169c-3.109,0-5.654-2.545-5.654-5.652v-54.561
			c0-3.108,2.544-5.653,5.654-5.653h25.062c3.109,0,5.653,2.544,5.653,5.653L76.883,175.896L76.883,175.896L76.883,175.896z" style="fill:#F0F0FF;"></path>
		<path d="M76.883,175.896c0,3.107-2.544,5.652-5.653,5.652H46.169c-3.109,0-5.654-2.545-5.654-5.652v-54.561
			c0-3.108,2.544-5.653,5.654-5.653h25.062c3.109,0,5.653,2.544,5.653,5.653L76.883,175.896L76.883,175.896L76.883,175.896z" style="fill:#FFFFFF;"></path>
		<rect height="50.914" width="36.368" style="fill:#BDDCFF;" y="122.884" x="40.515"></rect>
		<polygon points="42.198,173.798 76.883,139.114 76.883,150.796 
			53.88,173.798" style="opacity:0.49;fill:#DEEFFF;enable-background:new    ;"></polygon>
		<polygon points="76.883,150.796 53.88,173.798 76.883,173.798" style="opacity:0.4;fill:#FFFFFF;enable-background:new    ;"></polygon>
		<rect height="3" width="36.368" style="fill:#6E6E96;" y="120.938" x="40.515"></rect>
		<rect height="3" width="36.368" style="fill:#6E6E96;" y="172.298" x="40.515"></rect>
		<path d="M61.154,120.123h-4.908c-0.552,0-1-0.447-1-1c0-0.552,0.448-1,1-1h4.908c0.552,0,1,0.448,1,1
			C62.154,119.676,61.706,120.123,61.154,120.123z" style="fill:#6E6E96;"></path>
		<path d="M58.7,180.698c-1.628,0-2.952-1.324-2.952-2.952s1.324-2.952,2.952-2.952
			c1.627,0,2.951,1.324,2.951,2.952S60.328,180.698,58.7,180.698z M58.7,176.794c-0.525,0-0.952,0.427-0.952,0.952
			s0.427,0.952,0.952,0.952c0.524,0,0.951-0.427,0.951-0.952S59.225,176.794,58.7,176.794z" style="fill:#6E6E96;"></path>
		<polygon points="76.883,122.438 40.515,122.438 40.515,173.798 
			42.198,173.798 42.198,124.16 76.883,124.16" style="opacity:0.15;fill:#6E6E96;enable-background:new    ;"></polygon>
		<rect height="1.479" width="36.368" style="opacity:0.15;fill:#6E6E96;enable-background:new    ;" y="120.155" x="40.515"></rect>
		<path d="M71.481,178.684H46.42c-3.108,0-5.653-1.535-5.653-5.653
			v1.385c0,5.125,2.544,5.655,5.653,5.655h25.062c3.109,0,5.653-1.539,5.653-5.655h0.001v-1.385h-0.001
			C77.135,176.141,74.59,178.684,71.481,178.684z" style="opacity:0.15;fill:#6E6E96;enable-background:new    ;"></path>
		<polygon points="40.896,135.143 49.587,124.749 65.173,124.749 
			41.13,150.493" style="opacity:0.17;fill:#FFFFFF;enable-background:new    ;"></polygon>
		<polygon points="72.669,124.749 41.635,155.782 41.598,160.223 
			77.071,124.749" style="opacity:0.2;fill:#FFFFFF;enable-background:new    ;"></polygon>
		<path d="M71.23,183.049H46.169c-4.948,0-7.154-2.206-7.154-7.152v-54.561c0-4.947,2.207-7.153,7.154-7.153
			h25.062c4.947,0,7.153,2.206,7.153,7.153l-0.001,54.561C78.383,180.843,76.177,183.049,71.23,183.049z M46.169,117.183
			c-3.3,0-4.154,0.854-4.154,4.153v54.561c0,3.299,0.854,4.152,4.154,4.152H71.23c3.299,0,4.153-0.854,4.153-4.152l0.001-54.561
			c0-3.299-0.854-4.153-4.153-4.153H46.169z" style="fill:#6E6E96;"></path>
	</g>
</g>
<g>
	<path d="M219.845,176.157c0,3.108-2.545,5.653-5.654,5.653h-42.218c-3.108,0-5.653-2.545-5.653-9.512v-69.99
		c0,0.75,2.545-1.795,5.653-1.795h42.22c3.109,0,5.652,2.544,5.652,1.795v69.99V176.157L219.845,176.157z" style="fill:#F0F0FF;"></path>
	<path d="M219.845,176.157c0,3.108-2.545,5.653-5.654,5.653h-42.218c-3.108,0-5.653-2.545-5.653-9.512v-69.99
		c0,0.75,2.545-1.795,5.653-1.795h42.22c3.109,0,5.652,2.544,5.652,1.795v69.99V176.157L219.845,176.157z" style="fill:#FFFFFF;"></path>
	<rect height="62.487" width="53.526" style="fill:#BDDCFF;" y="107.716" x="166.318"></rect>
	<polygon points="168.002,170.203 219.845,126.505 219.845,146.236 
		190.007,170.203" style="opacity:0.49;fill:#DEEFFF;enable-background:new    ;"></polygon>
	<polygon points="219.845,146.236 190.007,170.203 219.845,170.203" style="opacity:0.4;fill:#FFFFFF;enable-background:new    ;"></polygon>
	<rect height="3" width="53.527" style="fill:#6E6E96;" y="105.771" x="166.318"></rect>
	<rect height="3" width="53.527" style="fill:#6E6E96;" y="168.703" x="166.318"></rect>
	<path d="M194.827,179.031c-1.628,0-2.952-1.324-2.952-2.952s1.324-2.952,2.952-2.952
		c1.627,0,2.951,1.324,2.951,2.952S196.454,179.031,194.827,179.031z M194.827,175.127c-0.525,0-0.952,0.427-0.952,0.952
		s0.427,0.952,0.952,0.952c0.524,0,0.951-0.427,0.951-0.952S195.352,175.127,194.827,175.127z" style="fill:#6E6E96;"></path>
	<polygon points="219.845,107.271 166.318,107.271 166.318,170.203 
		168.002,170.203 168.002,108.992 219.845,108.992" style="opacity:0.15;fill:#6E6E96;enable-background:new    ;"></polygon>
	<rect height="1.479" width="53.526" style="opacity:0.15;fill:#6E6E96;enable-background:new    ;" y="104.988" x="166.318"></rect>
	<path d="M214.442,178.946h-42.22c-3.106,0-5.652-5.395-5.652-9.513
		v1.387c0,5.123,2.546,9.512,5.652,9.512h42.22c3.11,0,5.653-5.396,5.653-9.512h0.002v-1.387h-0.002
		C220.096,172.545,217.553,178.946,214.442,178.946z" style="opacity:0.15;fill:#6E6E96;enable-background:new    ;"></path>
	<polygon points="166.253,124.15 185.713,108.992 205.158,108.992 
		166.488,139.503" style="opacity:0.17;fill:#FFFFFF;enable-background:new    ;"></polygon>
	<path d="M214.191,183.311h-42.218c-6.047,0-7.153-3.708-7.153-11.012v-68.061
		c0-1.807,1.495-5.224,7.153-5.224h42.22c5.938,0,7.152,4.121,7.152,5.224v71.919C221.345,181.104,219.139,183.311,214.191,183.311z
		 M171.973,102.014c-3.949,0-4.145,2.013-4.153,2.242v68.042c0,8.012,1.563,8.012,4.153,8.012h42.218c3.3,0,4.154-0.854,4.154-4.153
		v-71.919c-0.024-0.14-0.389-2.224-4.152-2.224H171.973z" style="fill:#6E6E96;"></path>
</g>
<g id="Layer_11_1_">
	<g>
		<path d="M222.14,37.07c0.699-2.14,2.886-4.77,4.865-5.842l0.008-0.005c1.98-1.072,1.98-2.827,0-3.899
			l-0.008-0.004c-1.979-1.073-4.279-3.488-5.112-5.37c-0.832-1.88-2.192-1.88-3.028,0c-0.83,1.882-3.132,4.299-5.114,5.37
			l-0.011,0.004c-1.983,1.073-1.983,2.828,0,3.899l0.011,0.005c1.982,1.072,4.166,3.702,4.865,5.842l0.497,1.51
			c0.698,2.142,1.83,2.142,2.533,0L222.14,37.07z" style="fill:#7FE5FF;"></path>
	</g>
	<g>
		<path d="M67.973,20.814c0.492-1.512,2.039-3.369,3.438-4.126l0.006-0.002c1.397-0.757,1.397-1.999,0-2.755
			l-0.006-0.002c-1.397-0.758-3.023-2.464-3.612-3.794c-0.587-1.328-1.549-1.328-2.136,0c-0.587,1.33-2.214,3.036-3.611,3.795
			l-0.007,0.002c-1.398,0.757-1.398,1.997,0,2.754l0.007,0.004c1.396,0.757,2.944,2.614,3.438,4.126l0.348,1.068
			c0.492,1.513,1.298,1.513,1.79,0L67.973,20.814z" style="fill:#FFB0B8;"></path>
	</g>
	<g>
		<path d="M8.402,86.003c0.593-1.821,2.455-4.058,4.14-4.967l0.007-0.005c1.684-0.91,1.684-2.404,0-3.316
			l-0.007-0.005c-1.685-0.909-3.642-2.966-4.349-4.565c-0.708-1.601-1.866-1.601-2.574,0c-0.707,1.599-2.665,3.656-4.35,4.565
			l-0.007,0.005c-1.684,0.91-1.684,2.404,0,3.316l0.007,0.005c1.685,0.91,3.546,3.151,4.14,4.967l0.419,1.287
			c0.593,1.823,1.562,1.823,2.155,0L8.402,86.003z" style="fill:#9ADFC0;"></path>
	</g>
</g>
<g>
	<path d="M130.562,225.135c0.652-2.005,2.704-4.468,4.561-5.472l0.008-0.003c1.854-1.003,1.854-2.648,0-3.651
		l-0.008-0.004c-1.854-1.005-4.01-3.267-4.79-5.028c-0.777-1.762-2.055-1.762-2.831,0c-0.777,1.763-2.935,4.023-4.786,5.03
		l-0.009,0.004c-1.854,1.003-1.854,2.646,0,3.649l0.009,0.005c1.852,1.005,3.903,3.466,4.557,5.472l0.462,1.414
		c0.652,2.008,1.723,2.008,2.373,0L130.562,225.135z" style="fill:#FFBF00;"></path>
</g>
</svg>
