<svg xml:space="preserve" style="enable-background:new 0 0 250.979 244.246;" viewBox="0 0 250.979 244.246" height="244.246px" width="250.979px" y="0px" x="0px" xmlns:xlink="http://www.w3.org/1999/xlink" xmlns="http://www.w3.org/2000/svg" id="Layer_1" version="1.1">
<g id="Layer_1_1_">
	<path d="M250.398,114.598c0-42.68-33.093-77.274-73.912-77.274c-0.636,0-1.262,0.031-1.894,0.049
		C161.705,14.73,138.073-0.45,111.043-0.45c-40.821,0-73.913,34.6-73.913,77.28c0,0.554,0.029,1.1,0.04,1.652
		C14.844,91.777-0.221,116.867-0.221,145.654c0,42.678,33.095,77.27,73.914,77.27c2.321,0,4.615-0.123,6.885-0.342
		c13.558,4.969,35.067,28.115,58.027,28.115c37.732,0,67.832-29.563,72.33-67.734C234.398,170.016,250.398,144.266,250.398,114.598z" style="fill:#F7E9E3;"></path>
	<g style="display:none;" id="Layer_3_4_">
		<g style="display:inline;">
			<g>
				<path d="M81.137,139.988c0-11.563-10.059-20.938-22.467-20.938c-0.194,0-0.385,0.01-0.576,0.015
					c-3.917-6.135-11.102-10.245-19.318-10.245c-12.406,0-22.469,9.372-22.469,20.935c0,0.15,0.009,0.297,0.012,0.447
					C9.534,133.805,4.954,140.602,4.954,148.4c0,11.562,10.059,20.934,22.468,20.934c0.705,0,1.403-0.033,2.092-0.094
					c4.122,4.647,10.358,7.617,17.335,7.617c11.471,0,20.925-8.013,22.293-18.353C76.274,155.001,81.137,148.027,81.137,139.988z" style="fill:#D7F7E4;"></path>
				<path d="M46.849,178.357c-6.892,0-13.39-2.749-17.95-7.568c-0.499,0.03-0.993,0.045-1.477,0.045
					c-13.216,0-23.968-10.063-23.968-22.434c0-7.768,4.329-14.997,11.357-19.076c0.247-12.171,10.902-22.003,23.964-22.003
					c8.091,0,15.716,3.899,20.112,10.23c13.115,0.11,23.75,10.133,23.75,22.437c0,8.111-4.626,15.515-12.127,19.502
					C68.662,170.301,58.638,178.357,46.849,178.357z M30.135,167.68l0.501,0.565c4.009,4.52,9.918,7.112,16.213,7.112
					c10.575,0,19.52-7.33,20.806-17.049l0.105-0.796l0.72-0.354c6.882-3.381,11.157-9.96,11.157-17.17
					c0-10.718-9.406-19.438-20.967-19.438c-0.11,0-0.219,0.004-0.327,0.008l-1.058,0.028l-0.456-0.714
					c-3.762-5.892-10.68-9.552-18.054-9.552c-11.562,0-20.969,8.718-20.969,19.435l0.029,1.34l-0.814,0.433
					c-6.518,3.46-10.567,9.925-10.567,16.872c0,10.716,9.406,19.434,20.968,19.434c0.637,0,1.296-0.029,1.96-0.088L30.135,167.68z" style="fill:#CCCCDE;"></path>
			</g>
			<path d="M58.291,118.3c-0.193,0-0.387,0.01-0.575,0.015
				c-3.141-4.918-8.383-8.534-14.573-9.775c4.898,1.229,9.023,4.208,11.561,8.175c0.164-0.004,2.416,3.886,2.583,3.886
				c10.646,0,15.601,5.738,15.601,15.659c0,6.896-2.583,11.291-8.704,14.303c-1.173,8.875-9.287,15.746-19.129,15.746
				c-5.99,0-11.34-2.543-14.877-6.528c-0.591,0.049-1.189,0.075-1.794,0.075c-10.649,0-19.013-5.049-19.013-14.969
				c0-6.682,2.987-9.973,8.432-13.938c-0.146-0.855-0.75-8.42,1.267-10.438c4.792-4.793,6.964-8.908,11.25-11.038
				c-8.414,3.025-14.385,10.627-14.385,19.535c0,0.148,0.009,0.299,0.012,0.447C9.156,133.061,4.578,139.85,4.578,147.65
				c0,11.562,10.059,20.938,22.468,20.938c0.707,0,1.402-0.035,2.093-0.098c4.121,4.646,10.356,7.617,17.336,7.617
				c11.469,0,20.924-8.015,22.291-18.354c7.133-3.506,11.997-10.479,11.997-18.521C80.76,127.673,70.701,118.3,58.291,118.3z" style="opacity:0.1;fill:#6E6E96;enable-background:new    ;"></path>
			<g>
				<path d="M26.313,151.312c0,0,11.637,2.276,11.637,13.662c0,0,3.133,19.342-8.978,33.026h27.96
					c-0.277-0.388-24.422-32.646,2.449-51.815C42.993,155.555,26.313,151.312,26.313,151.312z" style="fill:#EDE3DA;"></path>
				<path d="M56.932,199.501H25.641l2.207-2.494c11.479-12.972,8.65-31.606,8.62-31.794l-0.019-0.238
					c0-9.079-8.399-11.683-10.145-12.124c-0.238-0.053-0.362-0.084-0.362-0.084l0.658-2.926c0,0,0.139,0.026,0.391,0.089
					c0.935,0.203,4.231,0.841,8.801,0.841c5.724,0,14.333-1.021,22.844-5.887l1.616,2.522c-6.629,4.729-10.566,10.706-11.701,17.764
					c-2.417,15.021,8.335,30.23,9.569,31.915l1.748,2.387L56.932,199.501z M32.107,196.501h21.996
					c-3.446-5.396-10.642-18.577-8.514-31.808c0.804-4.998,2.847-9.497,6.1-13.449c-6.069,2.011-11.71,2.526-15.896,2.526
					c-0.463,0-0.914-0.006-1.351-0.018c2.654,2.276,4.974,5.786,5.007,11.104C39.71,166.593,41.88,183.188,32.107,196.501z" style="fill:#CCCCDE;"></path>
			</g>
			<g>
				<path d="M33.68,128.473" style="fill:#D57E58;"></path>
			</g>
			<path d="M52.406,151.279c0,0-17.652,22.793-4.086,46.722h8.611
				C56.932,198.001,39.017,172.964,52.406,151.279z" style="opacity:0.11;fill:#6E6E96;enable-background:new    ;"></path>
		</g>
		<g style="display:inline;">
			<g>
				<path d="M250.977,138.706c0-10.828-9.42-19.604-21.04-19.604c-0.183,0-0.357,0.008-0.539,0.013
					c-3.669-5.744-10.396-9.595-18.091-9.595c-11.62,0-21.041,8.776-21.041,19.604c0,0.142,0.009,0.278,0.012,0.418
					c-6.354,3.375-10.644,9.739-10.644,17.043c0,10.826,9.421,19.604,21.04,19.604c0.66,0,1.312-0.033,1.96-0.09
					c3.858,4.354,9.698,7.135,16.233,7.135c10.735,0,19.596-7.5,20.875-17.188C246.422,152.764,250.977,146.234,250.977,138.706z" style="fill:#D7F7E4;"></path>
				<path d="M218.867,174.734c-6.467,0-12.562-2.573-16.848-7.086c-0.461,0.027-0.906,0.041-1.346,0.041
					c-12.429,0-22.54-9.468-22.54-21.104c0-7.289,4.053-14.077,10.637-17.92c0.262-11.426,10.271-20.645,22.536-20.645
					c7.59,0,14.744,3.651,18.885,9.583c12.312,0.128,22.285,9.545,22.285,21.103c0,7.615-4.335,14.568-11.367,18.325
					C239.354,167.179,229.939,174.734,218.867,174.734z M203.256,164.539l0.501,0.565c3.733,4.214,9.241,6.63,15.11,6.63
					c9.857,0,18.192-6.828,19.388-15.884l0.105-0.796l0.72-0.354c6.413-3.152,10.396-9.281,10.396-15.995
					c0-9.982-8.766-18.104-19.54-18.104c-0.12,0-0.236,0.004-0.354,0.008l-0.99,0.029l-0.458-0.717
					c-3.508-5.492-9.955-8.903-16.827-8.903c-10.775,0-19.541,8.122-19.541,18.104l0.03,1.31l-0.814,0.433
					c-6.074,3.227-9.848,9.25-9.848,15.719c0,9.982,8.766,18.104,19.54,18.104c0.584,0,1.182-0.027,1.829-0.084L203.256,164.539z" style="fill:#CCCCDE;"></path>
			</g>
			<path d="M229.583,118.396c-0.187,0-0.358,0.008-0.539,0.012
				c-2.94-4.606-7.854-7.992-13.646-9.154c4.586,1.15,8.449,3.94,10.822,7.655c0.154-0.004,2.263,3.639,2.419,3.639
				c9.971,0,14.608,5.374,14.608,14.664c0,6.459-2.42,10.574-8.148,13.396c-1.1,8.312-8.698,14.742-17.914,14.742
				c-5.604,0-10.619-2.381-13.934-6.117c-0.56,0.048-1.112,0.072-1.685,0.072c-9.975,0-17.806-4.728-17.806-14.017
				c0-6.259,2.8-9.341,7.896-13.056c-0.141-0.809-0.701-7.887,1.188-9.771c4.485-4.488,6.521-8.343,10.534-10.337
				c-7.879,2.833-13.471,9.952-13.471,18.291c0,0.14,0.006,0.274,0.012,0.418c-6.354,3.373-10.646,9.735-10.646,17.041
				c0,10.823,9.421,19.604,21.041,19.604c0.661,0,1.313-0.033,1.959-0.09c3.859,4.354,9.699,7.135,16.234,7.135
				c10.739,0,19.594-7.5,20.875-17.188c6.68-3.285,11.229-9.813,11.229-17.342C250.624,127.173,241.204,118.396,229.583,118.396z" style="opacity:0.1;fill:#6E6E96;enable-background:new    ;"></path>
			<g>
				<path d="M199.637,149.309c0,0,10.896,2.133,10.896,12.797c0,0,2.935,18.108-8.405,30.93h26.184
					c-0.26-0.359-22.87-30.565,2.294-48.521C215.256,153.281,199.637,149.309,199.637,149.309z" style="fill:#EDE3DA;"></path>
				<path d="M228.312,194.535h-29.513l2.205-2.494c10.745-12.148,8.077-29.521,8.049-29.695l-0.02-0.24
					c0-8.433-7.802-10.853-9.427-11.265c-0.223-0.049-0.34-0.078-0.34-0.078l0.658-2.926c0,0,0.131,0.024,0.368,0.084
					c0.875,0.19,3.954,0.785,8.227,0.785c5.348,0,13.391-0.953,21.342-5.495l1.615,2.523c-6.193,4.42-9.868,10.004-10.923,16.597
					c-2.249,14.062,7.798,28.226,8.951,29.795l1.755,2.388L228.312,194.535z M205.25,191.535h20.234
					c-3.271-5.143-9.863-17.357-7.893-29.678c0.736-4.604,2.591-8.759,5.535-12.42c-5.577,1.803-10.751,2.269-14.607,2.269
					c-0.344,0-0.681-0.003-1.01-0.01c2.418,2.148,4.49,5.411,4.523,10.291C212.281,163.65,214.284,179.078,205.25,191.535z" style="fill:#CCCCDE;"></path>
			</g>
			<g>
				<path d="M206.538,127.923" style="fill:#D57E58;"></path>
			</g>
			<path d="M224.073,149.279c0,0-16.53,21.345-3.823,43.752h8.062
				C228.31,193.031,211.534,169.585,224.073,149.279z" style="opacity:0.11;fill:#6E6E96;enable-background:new    ;"></path>
		</g>
		<g style="display:inline;">
			<g>
				<path d="M214.275,140.466c0-16.62-14.461-30.094-32.299-30.094c-0.276,0-0.554,0.012-0.828,0.019
					c-5.632-8.816-15.959-14.729-27.771-14.729c-17.838,0-32.301,13.475-32.301,30.096c0,0.215,0.014,0.43,0.018,0.646
					c-9.755,5.181-16.339,14.943-16.339,26.156c0,16.618,14.462,30.098,32.3,30.098c1.014,0,2.02-0.049,3.008-0.139
					c5.927,6.688,14.892,10.948,24.921,10.948c16.489,0,30.081-11.514,32.05-26.379C207.284,162.048,214.275,152.02,214.275,140.466
					z" style="fill:#D7F7E4;"></path>
				<path d="M164.984,194.968c-9.839,0-19.101-3.961-25.536-10.895c-0.806,0.057-1.607,0.085-2.393,0.085
					c-18.637,0-33.8-14.175-33.8-31.598c0-11.044,6.23-21.322,16.322-27.035c0.134-17.315,15.245-31.363,33.8-31.363
					c11.535,0,22.397,5.615,28.566,14.71c0.011,0,0.021,0,0.032,0c18.637,0,33.799,14.173,33.799,31.594
					c0,11.517-6.634,22.026-17.369,27.61C195.946,183.462,181.727,194.968,164.984,194.968z M140.682,180.957l0.504,0.567
					c5.881,6.637,14.556,10.443,23.798,10.443c15.53,0,28.67-10.78,30.562-25.076l0.105-0.795l0.72-0.354
					c10.118-4.976,16.403-14.661,16.403-25.277c0-15.767-13.816-28.594-30.799-28.594c-0.187,0-0.373,0.006-0.56,0.012l-1.076,0.029
					l-0.456-0.714c-5.531-8.658-15.688-14.037-26.507-14.037c-16.983,0-30.801,12.828-30.801,28.596
					c0,0.106,0.004,0.213,0.008,0.319l0.025,1.221l-0.812,0.432c-9.587,5.091-15.542,14.605-15.542,24.831
					c0,15.769,13.817,28.598,30.8,28.598c0.938,0,1.904-0.045,2.872-0.133L140.682,180.957z" style="fill:#CCCCDE;"></path>
			</g>
			<path d="M181.433,109.288c-0.274,0-0.552,0.012-0.827,0.019
				c-4.516-7.07-12.051-12.269-20.947-14.052c7.041,1.767,12.972,6.049,16.612,11.751c0.237-0.006,3.477,5.586,3.713,5.586
				c15.311,0,22.432,8.248,22.432,22.512c0,9.914-3.716,16.231-12.516,20.563c-1.687,12.754-13.353,22.636-27.5,22.636
				c-8.607,0-16.302-3.656-21.387-9.396c-0.851,0.069-1.71,0.112-2.58,0.112c-15.31,0-27.332-7.254-27.332-21.517
				c0-9.604,4.298-14.336,12.12-20.039c-0.209-1.233-1.077-12.104,1.82-15.002c6.89-6.89,10.011-12.808,16.174-15.868
				c-12.096,4.35-20.679,15.277-20.679,28.08c0,0.215,0.011,0.43,0.017,0.646c-9.756,5.177-16.34,14.945-16.34,26.156
				c0,16.618,14.461,30.098,32.3,30.098c1.018,0,2.018-0.049,3.008-0.137c5.925,6.688,14.893,10.946,24.922,10.946
				c16.487,0,30.078-11.514,32.047-26.379c10.256-5.043,17.243-15.067,17.243-26.623
				C213.733,122.762,199.272,109.288,181.433,109.288z" style="opacity:0.1;fill:#6E6E96;enable-background:new    ;"></path>
			<g>
				<path d="M135.461,156.743c0,0,16.727,3.271,16.727,19.644c0,0,4.504,27.807-12.901,47.479h40.192
					c-0.396-0.558-35.104-46.923,3.521-74.483C159.441,162.844,135.461,156.743,135.461,156.743z" style="fill:#EDE3DA;"></path>
				<path d="M179.479,225.366h-43.522l2.207-2.494c16.74-18.922,12.588-45.975,12.544-46.245l-0.02-0.24
					c0-13.558-12.514-17.422-15.085-18.071c-0.336-0.073-0.512-0.118-0.512-0.118l0.658-2.926c0,0,0.193,0.037,0.54,0.123
					c1.35,0.295,6.158,1.228,12.812,1.228c8.306,0,20.799-1.481,33.155-8.542l1.615,2.523c-9.67,6.9-15.418,15.629-17.083,25.944
					c-3.521,21.815,12.075,43.933,13.865,46.383l1.742,2.385L179.479,225.366z M142.476,222.366h34.147
					c-4.57-6.937-15.971-26.633-12.797-46.296c1.269-7.854,4.705-14.84,10.251-20.865c-9.523,3.546-18.479,4.417-24.977,4.417
					c-1.404,0-2.727-0.039-3.957-0.104c4.313,3.1,8.505,8.287,8.544,16.75C154.025,178.476,157.377,203.139,142.476,222.366z" style="fill:#CCCCDE;"></path>
			</g>
			<g>
				<path d="M146.054,123.912" style="fill:#D57E58;"></path>
			</g>
			<path d="M172.974,156.697c0,0-25.378,32.767-5.873,67.164h12.378
				C179.479,223.863,153.725,187.87,172.974,156.697z" style="opacity:0.11;fill:#6E6E96;enable-background:new    ;"></path>
		</g>
		<g style="display:inline;">
			<g>
				<path d="M142.438,141.577c0-13.646-11.873-24.707-26.517-24.707c-0.229,0-0.454,0.01-0.681,0.016
					c-4.623-7.238-13.104-12.092-22.802-12.092c-14.644,0-26.518,11.063-26.518,24.706c0,0.178,0.012,0.355,0.015,0.529
					c-8.01,4.252-13.414,12.271-13.414,21.477c0,13.646,11.872,24.707,26.521,24.707c0.832,0,1.652-0.041,2.469-0.104
					c4.864,5.481,12.224,8.981,20.46,8.981c13.537,0,24.695-9.45,26.31-21.649C136.698,159.296,142.438,151.064,142.438,141.577z" style="fill:#D7F7E4;"></path>
				<path d="M101.971,186.591c-8.108,0-15.747-3.248-21.08-8.936c-0.659,0.039-1.269,0.058-1.849,0.058
					c-15.451,0-28.021-11.757-28.021-26.207c0-9.118,5.111-17.604,13.402-22.355c0.2-14.29,12.69-25.856,28.015-25.856
					c9.511,0,18.47,4.606,23.597,12.076c15.395,0.059,27.902,11.793,27.902,26.207c0,9.51-5.454,18.197-14.287,22.85
					C127.552,177.117,115.801,186.591,101.971,186.591z M82.139,174.557l0.494,0.557c4.781,5.388,11.829,8.478,19.338,8.478
					c12.616,0,23.288-8.747,24.822-20.346l0.105-0.795l0.719-0.354c8.217-4.046,13.32-11.908,13.32-20.519
					c0-12.797-11.223-23.207-25.017-23.207c-0.148,0-0.294,0.005-0.441,0.009l-1.048,0.028l-0.456-0.714
					c-4.491-7.031-12.744-11.399-21.538-11.399c-13.795,0-25.018,10.41-25.018,23.206l0.03,1.423l-0.812,0.432
					c-7.783,4.131-12.617,11.853-12.617,20.151c0,12.797,11.224,23.207,25.021,23.207c0.713,0,1.483-0.032,2.354-0.1L82.139,174.557
					z" style="fill:#CCCCDE;"></path>
			</g>
			<path d="M115.475,115.982c-0.228,0-0.452,0.009-0.679,0.015
				c-3.707-5.805-9.896-10.072-17.199-11.537c5.78,1.45,10.648,4.966,13.641,9.647c0.194-0.005,2.854,4.586,3.051,4.586
				c12.564,0,18.414,6.771,18.414,18.479c0,8.141-3.053,13.326-10.271,16.881c-1.384,10.475-10.961,18.584-22.576,18.584
				c-7.066,0-13.384-3.004-17.559-7.715c-0.698,0.062-1.404,0.098-2.118,0.098c-12.568,0-22.438-5.957-22.438-17.664
				c0-7.887,3.527-11.771,9.948-16.45c-0.171-1.019-0.884-9.938,1.496-12.316c5.655-5.657,8.218-10.515,13.277-13.027
				c-9.933,3.57-16.979,12.542-16.979,23.054c0,0.176,0.013,0.352,0.018,0.524c-8.014,4.25-13.415,12.271-13.415,21.479
				c0,13.646,11.873,24.707,26.518,24.707c0.834,0,1.655-0.041,2.469-0.109c4.864,5.488,12.227,8.988,20.463,8.988
				c13.534,0,24.691-9.451,26.311-21.656C136.26,158.408,142,150.178,142,140.695C141.993,127.044,130.12,115.982,115.475,115.982z" style="opacity:0.1;fill:#6E6E96;enable-background:new    ;"></path>
			<g>
				<path d="M77.734,154.941c0,0,13.731,2.688,13.731,16.129c0,0,3.697,22.822-10.595,38.977h33
					c-0.328-0.455-28.824-38.52,2.89-61.15C97.42,159.947,77.734,154.941,77.734,154.941z" style="fill:#EDE3DA;"></path>
				<path d="M113.87,211.547H77.54l2.207-2.494c13.663-15.443,10.273-37.521,10.238-37.742l-0.02-0.24
					c0-10.928-10.096-14.051-12.181-14.577c-0.276-0.062-0.42-0.098-0.42-0.098l0.658-2.926c0,0,0.16,0.03,0.449,0.103
					c1.105,0.241,5.024,1,10.455,1c6.787,0,16.996-1.211,27.09-6.979l1.615,2.523c-7.892,5.632-12.576,12.753-13.923,21.167
					c-2.861,17.866,9.887,35.854,11.351,37.846l1.753,2.388L113.87,211.547z M84.032,208.547h26.991
					c-3.932-6.047-12.823-21.844-10.278-37.737c0.989-6.178,3.596-11.705,7.778-16.519c-7.479,2.623-14.467,3.281-19.598,3.281
					c-0.832,0-1.629-0.017-2.388-0.046c3.334,2.628,6.391,6.832,6.427,13.426C93.258,172.888,95.91,192.795,84.032,208.547z" style="fill:#CCCCDE;"></path>
			</g>
			<g>
				<path d="M86.43,127.988" style="fill:#D57E58;"></path>
			</g>
			<path d="M108.53,154.904c0,0-20.835,26.897-4.818,55.142h10.162
				C113.871,210.046,92.727,180.495,108.53,154.904z" style="opacity:0.11;fill:#6E6E96;enable-background:new    ;"></path>
		</g>
		<g style="display:inline;">
			<g>
				<path d="M249.661,165.714c0-12.344-10.74-22.351-23.988-22.351c-0.202,0-0.406,0.009-0.61,0.015
					c-4.187-6.549-11.854-10.938-20.625-10.938c-13.248,0-23.982,10.009-23.982,22.352c0,0.162,0.012,0.316,0.014,0.479
					c-7.244,3.851-12.135,11.104-12.135,19.433c0,12.348,10.733,22.354,23.982,22.354c0.753,0,1.497-0.039,2.229-0.104
					c4.397,4.969,11.062,8.135,18.512,8.135c12.245,0,22.339-8.553,23.799-19.592C244.467,181.74,249.661,174.296,249.661,165.714z" style="fill:#D7F7E4;"></path>
				<path d="M213.058,206.587c-7.356,0-14.283-2.937-19.126-8.083c-0.556,0.035-1.089,0.053-1.615,0.053
					c-14.051,0-25.482-10.701-25.482-23.854c0-8.271,4.622-15.974,12.125-20.311c0.228-12.968,11.57-23.452,25.479-23.452
					c8.619,0,16.745,4.165,21.419,10.925c13.971,0.092,25.305,10.755,25.305,23.85c0,8.629-4.937,16.518-12.936,20.766
					C236.285,197.998,225.614,206.587,213.058,206.587z M195.167,195.391l0.502,0.567c4.291,4.849,10.629,7.629,17.389,7.629
					c11.341,0,20.933-7.862,22.312-18.288l0.105-0.795l0.718-0.354c7.383-3.643,11.969-10.707,11.969-18.437
					c0-11.497-10.088-20.851-22.488-20.851c-0.136,0-0.271,0.005-0.408,0.009l-1.009,0.029l-0.457-0.716
					c-4.041-6.32-11.459-10.246-19.361-10.246c-12.396,0-22.482,9.354-22.482,20.852l0.024,1.374l-0.807,0.429
					c-6.994,3.718-11.339,10.656-11.339,18.108c0,11.499,10.086,20.854,22.482,20.854c0.668,0,1.354-0.032,2.096-0.099
					L195.167,195.391z" style="fill:#CCCCDE;"></path>
			</g>
			<path d="M225.269,142.559c-0.206,0-0.409,0.013-0.614,0.018
				c-3.354-5.25-8.946-9.111-15.558-10.438c5.229,1.313,9.633,4.492,12.339,8.729c0.175-0.004,2.579,4.148,2.757,4.148
				c11.368,0,16.655,6.122,16.655,16.719c0,7.36-2.757,12.056-9.291,15.271c-1.252,9.474-9.915,16.813-20.423,16.813
				c-6.396,0-12.106-2.721-15.884-6.979c-0.631,0.056-1.271,0.086-1.916,0.086c-11.368,0-20.299-5.389-20.299-15.979
				c0-7.136,3.188-10.646,9.002-14.886c-0.156-0.918-0.807-8.985,1.353-11.142c5.116-5.117,7.438-9.515,12.011-11.785
				c-8.979,3.229-15.354,11.347-15.354,20.854c0,0.158,0.013,0.313,0.017,0.479c-7.246,3.848-12.138,11.104-12.138,19.43
				c0,12.345,10.738,22.353,23.988,22.353c0.754,0,1.495-0.035,2.229-0.103c4.401,4.968,11.062,8.134,18.509,8.134
				c12.245,0,22.339-8.556,23.802-19.595c7.612-3.739,12.812-11.188,12.812-19.77C249.256,152.566,238.518,142.559,225.269,142.559z" style="opacity:0.1;fill:#6E6E96;enable-background:new    ;"></path>
			<g>
				<path d="M191.127,177.803c0,0,12.422,2.432,12.422,14.588c0,0,3.345,20.646-9.584,35.26h29.853
					c-0.296-0.409-26.07-34.848,2.615-55.316C208.937,182.333,191.127,177.803,191.127,177.803z" style="fill:#EDE3DA;"></path>
				<path d="M223.818,229.15h-33.183l2.207-2.494c12.288-13.89,9.258-33.827,9.227-34.027l-0.02-0.238
					c0-9.772-9.035-12.571-10.908-13.045c-0.252-0.056-0.384-0.089-0.384-0.089l0.658-2.926c0,0,0.147,0.027,0.412,0.094
					c0.999,0.218,4.531,0.901,9.427,0.901c6.122,0,15.331-1.092,24.435-6.295l1.615,2.523c-7.107,5.072-11.325,11.483-12.537,19.058
					c-2.577,16.118,8.922,32.33,10.242,34.126l1.755,2.389L223.818,229.15z M197.111,226.15h23.867
					c-3.634-5.638-11.451-19.768-9.173-34.012c0.871-5.446,3.124-10.337,6.726-14.616c-6.595,2.235-12.738,2.804-17.276,2.804
					c-0.6,0-1.18-0.009-1.737-0.026c2.908,2.41,5.497,6.182,5.532,11.973C205.322,194.085,207.671,211.921,197.111,226.15z" style="fill:#CCCCDE;"></path>
			</g>
			<g>
				<path d="M198.995,153.421" style="fill:#D57E58;"></path>
			</g>
			<path d="M218.987,177.77c0,0-18.847,24.334-4.358,49.881h9.189
				C223.818,227.65,204.691,200.919,218.987,177.77z" style="opacity:0.11;fill:#6E6E96;enable-background:new    ;"></path>
		</g>
		<g style="display:inline;">
			<g>
				<path d="M85.395,163.863c0-13.111-11.408-23.738-25.479-23.738c-0.223,0-0.438,0.008-0.653,0.014
					c-4.443-6.953-12.589-11.61-21.907-11.61c-14.068,0-25.479,10.629-25.479,23.733c0,0.17,0.011,0.336,0.015,0.508
					c-7.695,4.084-12.889,11.793-12.889,20.64c0,13.104,11.407,23.735,25.479,23.735c0.802,0,1.59-0.041,2.372-0.104
					c4.674,5.271,11.745,8.641,19.659,8.641c13.007,0,23.729-9.082,25.279-20.811C79.88,180.887,85.395,172.979,85.395,163.863z" style="fill:#D7F7E4;"></path>
				<path d="M46.513,207.182c-7.795,0-15.142-3.123-20.278-8.594c-0.623,0.038-1.201,0.057-1.753,0.057
					c-14.876,0-26.979-11.32-26.979-25.235c0-8.775,4.911-16.939,12.877-21.518c0.213-13.743,12.232-24.863,26.976-24.863
					c9.147,0,17.764,4.423,22.703,11.597c14.811,0.072,26.836,11.366,26.836,25.238c0,9.149-5.242,17.508-13.733,21.993
					C71.131,198.069,59.822,207.182,46.513,207.182z M27.48,195.486l0.497,0.56c4.584,5.17,11.34,8.136,18.537,8.136
					c12.094,0,22.323-8.386,23.792-19.507l0.105-0.795l0.719-0.354c7.874-3.879,12.766-11.413,12.766-19.662
					c0-12.263-10.757-22.238-23.979-22.238c-0.165,0-0.325,0.005-0.484,0.01l-0.976,0.026l-0.457-0.715
					c-4.303-6.734-12.213-10.918-20.643-10.918c-13.222,0-23.979,9.974-23.979,22.233l0.035,1.398l-0.817,0.435
					c-7.458,3.958-12.092,11.359-12.092,19.314c0,12.261,10.757,22.235,23.979,22.235c0.684,0,1.421-0.032,2.252-0.099
					L27.48,195.486z" style="fill:#CCCCDE;"></path>
			</g>
			<path d="M59.488,139.27c-0.219,0-0.435,0.011-0.649,0.018
				c-3.563-5.578-9.506-9.68-16.525-11.086c5.555,1.394,10.231,4.771,13.106,9.271c0.186-0.006,2.737,4.404,2.928,4.404
				c12.076,0,17.692,6.506,17.692,17.759c0,7.819-2.932,12.806-9.87,16.222c-1.33,10.062-10.531,17.854-21.693,17.854
				c-6.792,0-12.857-2.885-16.871-7.412c-0.67,0.059-1.348,0.094-2.035,0.094c-12.073,0-21.561-5.725-21.561-16.977
				c0-7.574,3.391-11.309,9.561-15.809c-0.165-0.976-0.85-9.549,1.438-11.836c5.435-5.435,7.896-10.103,12.758-12.517
				c-9.541,3.431-16.312,12.052-16.312,22.146c0,0.171,0.011,0.339,0.015,0.51c-7.696,4.084-12.89,11.793-12.89,20.639
				c0,13.106,11.405,23.736,25.479,23.736c0.801,0,1.591-0.039,2.373-0.104c4.674,5.271,11.745,8.639,19.659,8.639
				c13.006,0,23.728-9.08,25.277-20.81c8.09-3.979,13.604-11.892,13.604-21.003C84.968,149.896,73.56,139.27,59.488,139.27z" style="opacity:0.1;fill:#6E6E96;enable-background:new    ;"></path>
			<g>
				<path d="M23.225,176.702c0,0,13.193,2.584,13.193,15.495c0,0,3.553,21.933-10.182,37.451h31.707
					c-0.312-0.438-27.691-37.018,2.777-58.761C42.14,181.514,23.225,176.702,23.225,176.702z" style="fill:#EDE3DA;"></path>
				<path d="M57.944,231.148H22.906l2.208-2.494c13.111-14.814,9.858-36.005,9.824-36.217l-0.02-0.24
					c0-10.452-9.66-13.441-11.658-13.947c-0.266-0.059-0.405-0.094-0.405-0.094l0.659-2.926c0,0,0.154,0.029,0.433,0.099
					c1.061,0.231,4.819,0.96,10.028,0.96c6.514,0,16.313-1.163,26.001-6.703l1.616,2.522c-7.56,5.396-12.051,12.215-13.348,20.271
					c-2.754,17.102,9.48,34.429,10.884,36.348l1.745,2.386L57.944,231.148z M29.393,228.148h25.712
					c-3.807-5.892-12.269-21.057-9.823-36.246c0.944-5.861,3.402-11.114,7.334-15.699c-7.115,2.464-13.755,3.086-18.641,3.086
					c-0.734,0-1.439-0.014-2.114-0.037c3.159,2.539,6.021,6.565,6.057,12.827C38.203,193.966,40.732,213.024,29.393,228.148z" style="fill:#CCCCDE;"></path>
			</g>
			<g>
				<path d="M31.58,150.805" style="fill:#D57E58;"></path>
			</g>
			<path d="M52.815,176.667c0,0-20.02,25.849-4.633,52.981h9.764
				C57.946,229.65,37.631,201.257,52.815,176.667z" style="opacity:0.11;fill:#6E6E96;enable-background:new    ;"></path>
		</g>
	</g>
	<g style="display:none;" id="Layer_3_3_">
		<g style="display:inline;">
			<g>
				<path d="M82.137,139.988c0-11.563-10.059-20.938-22.467-20.938c-0.194,0-0.385,0.01-0.576,0.015
					c-3.917-6.135-11.102-10.245-19.318-10.245c-12.406,0-22.469,9.372-22.469,20.935c0,0.15,0.009,0.297,0.012,0.447
					c-6.782,3.602-11.362,10.398-11.362,18.197c0,11.562,10.059,20.934,22.468,20.934c0.705,0,1.403-0.033,2.092-0.094
					c4.122,4.648,10.358,7.617,17.335,7.617c11.471,0,20.925-8.012,22.293-18.353C77.274,155.001,82.137,148.027,82.137,139.988z" style="fill:#D7F7E4;"></path>
				<path d="M47.851,178.357c-6.893,0-13.391-2.749-17.95-7.568c-0.499,0.03-0.993,0.045-1.477,0.045
					c-13.216,0-23.968-10.063-23.968-22.434c0-7.767,4.328-14.997,11.355-19.075c0.247-12.172,10.902-22.004,23.964-22.004
					c8.091,0,15.716,3.899,20.112,10.23c13.115,0.11,23.75,10.133,23.75,22.437c0,8.11-4.625,15.515-12.125,19.502
					C69.664,170.301,59.64,178.357,47.851,178.357z M31.137,167.68l0.501,0.565c4.008,4.52,9.917,7.112,16.213,7.112
					c10.575,0,19.52-7.33,20.806-17.049l0.105-0.796l0.72-0.354c6.88-3.381,11.155-9.96,11.155-17.17
					c0-10.718-9.406-19.438-20.967-19.438c-0.11,0-0.219,0.004-0.327,0.008l-1.058,0.028l-0.456-0.714
					c-3.762-5.892-10.68-9.552-18.054-9.552c-11.562,0-20.969,8.718-20.969,19.435l0.029,1.34l-0.814,0.433
					c-6.517,3.46-10.566,9.926-10.566,16.872c0,10.716,9.406,19.434,20.968,19.434c0.637,0,1.296-0.029,1.96-0.088L31.137,167.68z" style="fill:#CCCCDE;"></path>
			</g>
			<path d="M59.291,118.3c-0.193,0-0.387,0.01-0.575,0.015
				c-3.141-4.918-8.383-8.534-14.573-9.775c4.898,1.229,9.023,4.208,11.561,8.175c0.164-0.004,2.416,3.886,2.583,3.886
				c10.646,0,15.601,5.738,15.601,15.659c0,6.896-2.583,11.291-8.704,14.303c-1.173,8.875-9.287,15.746-19.129,15.746
				c-5.99,0-11.34-2.543-14.877-6.531c-0.591,0.052-1.189,0.078-1.794,0.078c-10.649,0-19.013-5.049-19.013-14.969
				c0-6.682,2.987-9.973,8.432-13.938c-0.146-0.857-0.75-8.421,1.267-10.438c4.792-4.793,6.964-8.908,11.25-11.038
				c-8.414,3.025-14.385,10.627-14.385,19.534c0,0.147,0.009,0.3,0.012,0.447C10.158,133.059,5.58,139.85,5.58,147.65
				c0,11.562,10.059,20.937,22.468,20.937c0.707,0,1.402-0.034,2.093-0.096c4.121,4.646,10.356,7.616,17.336,7.616
				c11.469,0,20.924-8.013,22.291-18.354c7.133-3.506,11.997-10.479,11.997-18.521C81.76,127.673,71.701,118.3,59.291,118.3z" style="opacity:0.1;fill:#6E6E96;enable-background:new    ;"></path>
			<g>
				<path d="M27.313,151.312c0,0,11.637,2.276,11.637,13.662c0,0,3.133,19.342-8.978,33.026h27.96
					c-0.277-0.388-24.422-32.644,2.449-51.815C43.993,155.555,27.313,151.312,27.313,151.312z" style="fill:#EDE3DA;"></path>
				<path d="M57.932,199.501H26.641l2.207-2.494c11.479-12.972,8.65-31.606,8.62-31.794l-0.019-0.238
					c0-9.079-8.399-11.683-10.145-12.124c-0.238-0.053-0.362-0.084-0.362-0.084l0.658-2.926c0,0,0.139,0.026,0.391,0.089
					c0.935,0.203,4.231,0.841,8.801,0.841c5.724,0,14.333-1.021,22.844-5.887l1.616,2.522c-6.629,4.73-10.566,10.707-11.702,17.766
					c-2.416,15.02,8.336,30.229,9.57,31.913l1.748,2.387L57.932,199.501z M33.107,196.501h21.996
					c-3.446-5.395-10.642-18.576-8.514-31.806c0.804-4.999,2.848-9.498,6.101-13.451c-6.069,2.011-11.71,2.526-15.897,2.526
					c-0.463,0-0.914-0.006-1.351-0.018c2.654,2.276,4.974,5.786,5.007,11.104C40.71,166.593,42.88,183.188,33.107,196.501z" style="fill:#CCCCDE;"></path>
			</g>
			<g>
				<path d="M34.68,128.473" style="fill:#D57E58;"></path>
			</g>
			<path d="M53.406,151.279c0,0-17.652,22.793-4.086,46.722h8.611
				C57.932,198.001,40.017,172.964,53.406,151.279z" style="opacity:0.11;fill:#6E6E96;enable-background:new    ;"></path>
		</g>
		<g style="display:inline;">
			<g>
				<path d="M251.977,138.706c0-10.828-9.42-19.604-21.04-19.604c-0.183,0-0.357,0.008-0.539,0.013
					c-3.669-5.744-10.396-9.595-18.091-9.595c-11.62,0-21.041,8.776-21.041,19.604c0,0.142,0.009,0.278,0.012,0.418
					c-6.354,3.375-10.644,9.739-10.644,17.043c0,10.826,9.421,19.604,21.04,19.604c0.66,0,1.312-0.033,1.96-0.09
					c3.858,4.354,9.698,7.135,16.233,7.135c10.736,0,19.596-7.5,20.875-17.188C247.422,152.764,251.977,146.234,251.977,138.706z" style="fill:#D7F7E4;"></path>
				<path d="M219.867,174.734c-6.467,0-12.562-2.573-16.848-7.086c-0.461,0.027-0.906,0.041-1.346,0.041
					c-12.429,0-22.54-9.468-22.54-21.104c0-7.289,4.053-14.077,10.637-17.92c0.262-11.426,10.271-20.645,22.536-20.645
					c7.59,0,14.744,3.651,18.885,9.583c12.312,0.128,22.285,9.545,22.285,21.103c0,7.615-4.335,14.568-11.367,18.325
					C240.354,167.179,230.939,174.734,219.867,174.734z M204.256,164.539l0.501,0.565c3.733,4.214,9.241,6.63,15.11,6.63
					c9.857,0,18.192-6.828,19.388-15.884l0.105-0.796l0.72-0.354c6.413-3.152,10.396-9.281,10.396-15.995
					c0-9.982-8.766-18.104-19.54-18.104c-0.12,0-0.236,0.004-0.354,0.008l-0.99,0.029l-0.458-0.717
					c-3.508-5.492-9.955-8.903-16.827-8.903c-10.775,0-19.541,8.122-19.541,18.104l0.03,1.31l-0.814,0.433
					c-6.074,3.227-9.848,9.25-9.848,15.719c0,9.982,8.766,18.104,19.54,18.104c0.584,0,1.182-0.027,1.829-0.084L204.256,164.539z" style="fill:#CCCCDE;"></path>
			</g>
			<path d="M230.583,118.396c-0.186,0-0.358,0.008-0.539,0.012
				c-2.94-4.606-7.854-7.992-13.646-9.154c4.586,1.15,8.449,3.94,10.822,7.655c0.154-0.004,2.263,3.639,2.419,3.639
				c9.971,0,14.608,5.374,14.608,14.664c0,6.459-2.42,10.574-8.148,13.396c-1.1,8.312-8.698,14.742-17.914,14.742
				c-5.604,0-10.619-2.381-13.934-6.117c-0.559,0.048-1.112,0.072-1.684,0.072c-9.975,0-17.806-4.728-17.806-14.017
				c0-6.257,2.8-9.338,7.896-13.056c-0.141-0.806-0.701-7.885,1.188-9.771c4.486-4.488,6.521-8.343,10.535-10.337
				c-7.879,2.833-13.471,9.952-13.471,18.292c0,0.141,0.006,0.273,0.012,0.418c-6.355,3.373-10.646,9.734-10.646,17.041
				c0,10.824,9.42,19.604,21.041,19.604c0.661,0,1.313-0.03,1.959-0.088c3.859,4.354,9.699,7.133,16.234,7.133
				c10.74,0,19.594-7.5,20.875-17.188c6.68-3.285,11.232-9.812,11.232-17.342C251.624,127.173,242.204,118.396,230.583,118.396z" style="opacity:0.1;fill:#6E6E96;enable-background:new    ;"></path>
			<g>
				<path d="M200.637,149.309c0,0,10.896,2.133,10.896,12.797c0,0,2.935,18.108-8.405,30.93h26.184
					c-0.26-0.359-22.87-30.565,2.294-48.521C216.256,153.281,200.637,149.309,200.637,149.309z" style="fill:#EDE3DA;"></path>
				<path d="M229.312,194.535h-29.513l2.205-2.494c10.745-12.148,8.077-29.521,8.049-29.695l-0.02-0.24
					c0-8.433-7.802-10.853-9.427-11.265c-0.223-0.049-0.34-0.078-0.34-0.078l0.658-2.926c0,0,0.131,0.024,0.368,0.084
					c0.875,0.19,3.954,0.785,8.227,0.785c5.348,0,13.391-0.953,21.342-5.495l1.615,2.523c-6.193,4.42-9.868,10.004-10.923,16.597
					c-2.249,14.062,7.798,28.226,8.951,29.795l1.755,2.388L229.312,194.535z M206.25,191.535h20.234
					c-3.271-5.143-9.863-17.357-7.893-29.678c0.736-4.604,2.591-8.759,5.535-12.42c-5.577,1.803-10.751,2.269-14.607,2.269
					c-0.344,0-0.681-0.003-1.01-0.01c2.418,2.148,4.49,5.411,4.523,10.291C213.281,163.65,215.284,179.078,206.25,191.535z" style="fill:#CCCCDE;"></path>
			</g>
			<g>
				<path d="M207.538,127.923" style="fill:#D57E58;"></path>
			</g>
			<path d="M225.073,149.279c0,0-16.53,21.345-3.823,43.752h8.062
				C229.31,193.031,212.534,169.585,225.073,149.279z" style="opacity:0.11;fill:#6E6E96;enable-background:new    ;"></path>
		</g>
		<g style="display:inline;">
			<g>
				<path d="M215.275,140.466c0-16.62-14.461-30.094-32.299-30.094c-0.276,0-0.554,0.012-0.828,0.019
					c-5.632-8.816-15.959-14.729-27.771-14.729c-17.838,0-32.301,13.475-32.301,30.096c0,0.215,0.014,0.43,0.018,0.646
					c-9.755,5.18-16.339,14.945-16.339,26.156c0,16.621,14.462,30.099,32.3,30.099c1.014,0,2.02-0.052,3.008-0.14
					c5.927,6.688,14.892,10.95,24.921,10.95c16.489,0,30.081-11.515,32.05-26.38C208.284,162.048,215.275,152.02,215.275,140.466z" style="fill:#D7F7E4;"></path>
				<path d="M165.984,194.97c-9.838,0-19.101-3.962-25.537-10.896c-0.823,0.057-1.624,0.086-2.392,0.086
					c-18.637,0-33.8-14.175-33.8-31.599c0-11.045,6.229-21.323,16.322-27.035c0.134-17.315,15.245-31.363,33.8-31.363
					c11.535,0,22.397,5.615,28.566,14.71c0.011,0,0.021,0,0.032,0c18.637,0,33.799,14.173,33.799,31.594
					c0,11.517-6.634,22.026-17.369,27.611C196.946,183.464,182.727,194.97,165.984,194.97z M141.684,180.958l0.502,0.566
					c5.883,6.639,14.557,10.445,23.798,10.445c15.53,0,28.669-10.78,30.562-25.077l0.105-0.795l0.72-0.354
					c10.118-4.977,16.403-14.663,16.403-25.278c0-15.767-13.816-28.594-30.799-28.594c-0.187,0-0.373,0.006-0.56,0.012l-1.076,0.029
					l-0.456-0.714c-5.531-8.658-15.688-14.037-26.507-14.037c-16.983,0-30.801,12.828-30.801,28.596
					c0,0.106,0.004,0.213,0.008,0.319l0.025,1.221l-0.812,0.432c-9.587,5.09-15.542,14.604-15.542,24.831
					c0,15.77,13.817,28.599,30.8,28.599c0.91,0,1.877-0.045,2.875-0.134L141.684,180.958z" style="fill:#CCCCDE;"></path>
			</g>
			<path d="M182.433,109.288c-0.274,0-0.552,0.012-0.827,0.019
				c-4.516-7.07-12.051-12.269-20.947-14.052c7.041,1.767,12.972,6.049,16.612,11.751c0.237-0.006,3.477,5.586,3.713,5.586
				c15.311,0,22.432,8.248,22.432,22.512c0,9.914-3.716,16.231-12.516,20.563c-1.687,12.754-13.353,22.636-27.5,22.636
				c-8.607,0-16.302-3.656-21.387-9.396c-0.851,0.069-1.71,0.112-2.58,0.112c-15.31,0-27.332-7.254-27.332-21.517
				c0-9.604,4.298-14.336,12.12-20.039c-0.209-1.233-1.077-12.104,1.82-15.002c6.89-6.89,10.011-12.808,16.174-15.868
				c-12.096,4.35-20.679,15.277-20.679,28.08c0,0.215,0.011,0.43,0.017,0.646c-9.756,5.177-16.34,14.945-16.34,26.156
				c0,16.618,14.461,30.098,32.3,30.098c1.018,0,2.018-0.049,3.008-0.135c5.925,6.688,14.893,10.944,24.922,10.944
				c16.487,0,30.078-11.514,32.047-26.379c10.256-5.043,17.243-15.065,17.243-26.623
				C214.733,122.762,200.272,109.288,182.433,109.288z" style="opacity:0.1;fill:#6E6E96;enable-background:new    ;"></path>
			<g>
				<path d="M136.461,156.743c0,0,16.727,3.271,16.727,19.644c0,0,4.504,27.805-12.901,47.479h40.192
					c-0.396-0.556-35.104-46.923,3.521-74.484C160.441,162.844,136.461,156.743,136.461,156.743z" style="fill:#EDE3DA;"></path>
				<path d="M180.479,225.366h-43.522l2.207-2.494c16.713-18.893,12.587-45.975,12.544-46.246l-0.02-0.239
					c0-13.557-12.514-17.422-15.084-18.071c-0.337-0.074-0.513-0.118-0.513-0.118l0.658-2.926c0,0,0.192,0.037,0.541,0.124
					c1.349,0.294,6.157,1.227,12.81,1.227c8.306,0,20.8-1.482,33.156-8.543l1.615,2.523c-9.673,6.902-15.421,15.635-17.085,25.955
					c-3.519,21.832,12.079,43.929,13.869,46.376l1.744,2.386L180.479,225.366z M143.476,222.366h34.146
					c-4.57-6.934-15.967-26.611-12.796-46.286c1.267-7.858,4.704-14.848,10.252-20.876c-9.523,3.547-18.48,4.418-24.978,4.418
					c-1.403,0-2.726-0.039-3.956-0.104c4.313,3.1,8.505,8.286,8.544,16.75C155.025,178.476,158.377,203.137,143.476,222.366z" style="fill:#CCCCDE;"></path>
			</g>
			<g>
				<path d="M147.054,123.912" style="fill:#D57E58;"></path>
			</g>
			<path d="M173.974,156.697c0,0-25.378,32.767-5.873,67.164h12.378
				C180.479,223.863,154.725,187.87,173.974,156.697z" style="opacity:0.11;fill:#6E6E96;enable-background:new    ;"></path>
		</g>
		<g style="display:inline;">
			<g>
				<path d="M143.438,141.577c0-13.646-11.873-24.707-26.517-24.707c-0.229,0-0.454,0.01-0.681,0.016
					c-4.623-7.238-13.104-12.092-22.802-12.092c-14.644,0-26.518,11.063-26.518,24.706c0,0.178,0.012,0.355,0.015,0.529
					c-8.01,4.252-13.414,12.271-13.414,21.477c0,13.646,11.872,24.707,26.521,24.707c0.832,0,1.652-0.041,2.469-0.105
					c4.864,5.484,12.224,8.984,20.46,8.984c13.537,0,24.695-9.451,26.31-21.652C137.698,159.296,143.438,151.064,143.438,141.577z" style="fill:#D7F7E4;"></path>
				<path d="M102.971,186.592c-8.109,0-15.747-3.248-21.079-8.938c-0.653,0.039-1.263,0.059-1.85,0.059
					c-15.451,0-28.021-11.757-28.021-26.207c0-9.118,5.111-17.604,13.402-22.355c0.2-14.29,12.69-25.856,28.015-25.856
					c9.511,0,18.47,4.606,23.597,12.076c15.395,0.059,27.902,11.793,27.902,26.207c0,9.511-5.454,18.197-14.287,22.848
					C128.552,177.117,116.801,186.592,102.971,186.592z M83.137,174.554l0.496,0.559c4.78,5.389,11.828,8.479,19.338,8.479
					c12.616,0,23.288-8.748,24.822-20.349l0.105-0.795l0.72-0.354c8.216-4.044,13.319-11.905,13.319-20.517
					c0-12.797-11.223-23.207-25.017-23.207c-0.148,0-0.294,0.005-0.441,0.009l-1.048,0.028l-0.456-0.714
					c-4.491-7.031-12.744-11.399-21.538-11.399c-13.795,0-25.018,10.41-25.018,23.206l0.03,1.423l-0.812,0.432
					c-7.783,4.131-12.617,11.853-12.617,20.151c0,12.797,11.224,23.207,25.021,23.207c0.722,0,1.491-0.033,2.351-0.101
					L83.137,174.554z" style="fill:#CCCCDE;"></path>
			</g>
			<path d="M116.475,115.982c-0.228,0-0.452,0.009-0.679,0.015
				c-3.707-5.805-9.896-10.072-17.199-11.537c5.78,1.45,10.648,4.966,13.641,9.647c0.194-0.005,2.854,4.586,3.051,4.586
				c12.564,0,18.414,6.771,18.414,18.479c0,8.141-3.053,13.326-10.271,16.881c-1.384,10.475-10.961,18.584-22.576,18.584
				c-7.066,0-13.384-3.004-17.559-7.715c-0.698,0.062-1.404,0.098-2.118,0.098c-12.568,0-22.438-5.957-22.438-17.664
				c0-7.887,3.527-11.771,9.948-16.45c-0.171-1.019-0.884-9.938,1.496-12.316c5.655-5.657,8.218-10.515,13.277-13.027
				c-9.933,3.57-16.979,12.542-16.979,23.054c0,0.176,0.013,0.352,0.018,0.524c-8.014,4.25-13.415,12.271-13.415,21.479
				c0,13.646,11.873,24.707,26.518,24.707c0.834,0,1.655-0.041,2.469-0.109c4.864,5.488,12.227,8.988,20.463,8.988
				c13.534,0,24.691-9.451,26.311-21.656C137.26,158.408,143,150.178,143,140.695C142.993,127.044,131.12,115.982,116.475,115.982z" style="opacity:0.1;fill:#6E6E96;enable-background:new    ;"></path>
			<g>
				<path d="M78.734,154.941c0,0,13.731,2.688,13.731,16.129c0,0,3.697,22.822-10.595,38.977h33
					c-0.328-0.455-28.824-38.52,2.89-61.15C98.42,159.947,78.734,154.941,78.734,154.941z" style="fill:#EDE3DA;"></path>
				<path d="M114.87,211.547H78.54l2.207-2.494c13.663-15.443,10.273-37.521,10.238-37.742l-0.02-0.24
					c0-10.928-10.096-14.051-12.181-14.577c-0.276-0.062-0.42-0.098-0.42-0.098l0.658-2.926c0,0,0.16,0.03,0.449,0.103
					c1.105,0.241,5.024,1,10.455,1c6.787,0,16.996-1.211,27.09-6.979l1.615,2.523c-7.892,5.632-12.576,12.753-13.923,21.167
					c-2.861,17.866,9.887,35.854,11.351,37.846l1.753,2.388L114.87,211.547z M85.032,208.547h26.991
					c-3.932-6.047-12.823-21.844-10.278-37.737c0.989-6.178,3.596-11.705,7.778-16.519c-7.479,2.623-14.467,3.281-19.598,3.281
					c-0.832,0-1.629-0.017-2.388-0.046c3.334,2.628,6.391,6.832,6.427,13.426C94.258,172.888,96.91,192.795,85.032,208.547z" style="fill:#CCCCDE;"></path>
			</g>
			<g>
				<path d="M87.43,127.988" style="fill:#D57E58;"></path>
			</g>
			<path d="M109.53,154.904c0,0-20.835,26.897-4.818,55.142h10.162
				C114.871,210.046,93.727,180.495,109.53,154.904z" style="opacity:0.11;fill:#6E6E96;enable-background:new    ;"></path>
		</g>
		<g style="display:inline;">
			<g>
				<path d="M250.661,165.714c0-12.344-10.74-22.351-23.988-22.351c-0.203,0-0.407,0.009-0.611,0.015
					c-4.186-6.549-11.854-10.938-20.625-10.938c-13.248,0-23.983,10.009-23.983,22.352c0,0.162,0.012,0.316,0.014,0.479
					c-7.244,3.851-12.135,11.104-12.135,19.433c0,12.346,10.734,22.352,23.983,22.352c0.753,0,1.497-0.038,2.23-0.102
					c4.397,4.967,11.061,8.133,18.511,8.133c12.245,0,22.339-8.551,23.799-19.592C245.467,181.74,250.661,174.296,250.661,165.714z" style="fill:#D7F7E4;"></path>
				<path d="M214.057,206.585c-7.356,0-14.282-2.937-19.127-8.083c-0.556,0.035-1.089,0.052-1.614,0.052
					c-14.052,0-25.483-10.7-25.483-23.852c0-8.271,4.622-15.974,12.125-20.311c0.228-12.968,11.57-23.452,25.479-23.452
					c8.62,0,16.745,4.166,21.419,10.925c13.971,0.092,25.306,10.755,25.306,23.85c0,8.63-4.937,16.518-12.937,20.764
					C237.284,197.996,226.613,206.585,214.057,206.585z M196.169,195.393l0.5,0.565c4.292,4.847,10.629,7.627,17.388,7.627
					c11.341,0,20.934-7.862,22.312-18.288l0.105-0.795l0.719-0.354c7.383-3.64,11.969-10.703,11.969-18.434
					c0-11.497-10.088-20.851-22.488-20.851c-0.136,0-0.272,0.005-0.409,0.009l-1.009,0.029l-0.457-0.716
					c-4.04-6.32-11.458-10.246-19.361-10.246c-12.397,0-22.483,9.354-22.483,20.852l0.024,1.374l-0.807,0.429
					c-6.994,3.718-11.339,10.656-11.339,18.108c0,11.498,10.086,20.852,22.483,20.852c0.668,0,1.354-0.031,2.102-0.096
					L196.169,195.393z" style="fill:#CCCCDE;"></path>
			</g>
			<path d="M226.269,142.559c-0.206,0-0.409,0.013-0.614,0.018
				c-3.354-5.25-8.946-9.111-15.558-10.438c5.229,1.313,9.633,4.492,12.339,8.729c0.175-0.004,2.579,4.148,2.757,4.148
				c11.368,0,16.655,6.122,16.655,16.719c0,7.36-2.757,12.056-9.291,15.271c-1.252,9.474-9.915,16.813-20.423,16.813
				c-6.396,0-12.106-2.721-15.884-6.979c-0.631,0.056-1.271,0.086-1.916,0.086c-11.368,0-20.299-5.389-20.299-15.979
				c0-7.136,3.188-10.646,9.002-14.886c-0.156-0.918-0.806-8.985,1.353-11.142c5.116-5.117,7.438-9.513,12.011-11.785
				c-8.979,3.229-15.354,11.347-15.354,20.854c0,0.158,0.012,0.315,0.016,0.479c-7.246,3.848-12.137,11.104-12.137,19.43
				c0,12.344,10.738,22.351,23.988,22.351c0.754,0,1.496-0.035,2.229-0.101c4.401,4.967,11.062,8.133,18.509,8.133
				c12.245,0,22.34-8.553,23.802-19.592c7.612-3.744,12.811-11.19,12.811-19.771C250.256,152.566,239.518,142.559,226.269,142.559z" style="opacity:0.1;fill:#6E6E96;enable-background:new    ;"></path>
			<g>
				<path d="M192.127,177.803c0,0,12.422,2.432,12.422,14.588c0,0,3.345,20.646-9.584,35.26h29.853
					c-0.296-0.409-26.07-34.848,2.615-55.316C209.937,182.333,192.127,177.803,192.127,177.803z" style="fill:#EDE3DA;"></path>
				<path d="M224.818,229.15h-33.183l2.207-2.494c12.288-13.89,9.258-33.827,9.227-34.027l-0.02-0.238
					c0-9.772-9.035-12.571-10.908-13.045c-0.252-0.056-0.384-0.089-0.384-0.089l0.658-2.926c0,0,0.147,0.027,0.412,0.094
					c0.999,0.218,4.531,0.901,9.427,0.901c6.122,0,15.331-1.092,24.435-6.295l1.615,2.523c-7.107,5.072-11.325,11.483-12.537,19.058
					c-2.577,16.118,8.922,32.33,10.242,34.126l1.755,2.389L224.818,229.15z M198.111,226.15h23.867
					c-3.634-5.638-11.451-19.768-9.173-34.012c0.871-5.446,3.124-10.337,6.726-14.616c-6.595,2.235-12.738,2.804-17.276,2.804
					c-0.6,0-1.18-0.009-1.737-0.026c2.908,2.41,5.497,6.182,5.532,11.973C206.322,194.085,208.671,211.921,198.111,226.15z" style="fill:#CCCCDE;"></path>
			</g>
			<g>
				<path d="M199.995,153.421" style="fill:#D57E58;"></path>
			</g>
			<path d="M219.987,177.77c0,0-18.847,24.334-4.358,49.881h9.189
				C224.818,227.65,205.691,200.919,219.987,177.77z" style="opacity:0.11;fill:#6E6E96;enable-background:new    ;"></path>
		</g>
		<g style="display:inline;">
			<g>
				<path d="M86.395,163.863c0-13.111-11.408-23.738-25.479-23.738c-0.223,0-0.438,0.008-0.653,0.014
					c-4.443-6.953-12.589-11.613-21.907-11.613c-14.068,0-25.479,10.63-25.479,23.736c0,0.17,0.011,0.336,0.015,0.508
					c-7.695,4.084-12.889,11.793-12.889,20.64c0,13.104,11.407,23.735,25.479,23.735c0.802,0,1.59-0.041,2.372-0.104
					c4.674,5.271,11.745,8.641,19.659,8.641c13.007,0,23.729-9.082,25.279-20.811C80.88,180.887,86.395,172.979,86.395,163.863z" style="fill:#D7F7E4;"></path>
				<path d="M47.513,207.182c-7.795,0-15.142-3.123-20.278-8.594c-0.623,0.038-1.201,0.057-1.753,0.057
					c-14.876,0-26.979-11.32-26.979-25.235c0-8.775,4.911-16.939,12.877-21.518c0.213-13.745,12.232-24.866,26.976-24.866
					c9.146,0,17.763,4.424,22.703,11.6c14.811,0.072,26.836,11.366,26.836,25.238c0,9.149-5.242,17.508-13.733,21.993
					C72.131,198.069,60.822,207.182,47.513,207.182z M28.48,195.486l0.497,0.56c4.584,5.17,11.34,8.136,18.537,8.136
					c12.094,0,22.323-8.386,23.792-19.507l0.105-0.795l0.719-0.354c7.874-3.879,12.766-11.413,12.766-19.662
					c0-12.263-10.757-22.238-23.979-22.238c-0.165,0-0.326,0.005-0.485,0.01l-0.976,0.026l-0.457-0.715
					c-4.305-6.736-12.215-10.921-20.643-10.921c-13.222,0-23.979,9.976-23.979,22.236l0.035,1.398l-0.817,0.435
					c-7.458,3.958-12.092,11.359-12.092,19.314c0,12.261,10.757,22.235,23.979,22.235c0.684,0,1.421-0.032,2.252-0.099
					L28.48,195.486z" style="fill:#CCCCDE;"></path>
			</g>
			<path d="M60.488,139.27c-0.219,0-0.435,0.011-0.649,0.018
				c-3.563-5.578-9.506-9.68-16.525-11.086c5.555,1.394,10.231,4.771,13.106,9.271c0.186-0.006,2.737,4.404,2.928,4.404
				c12.076,0,17.692,6.506,17.692,17.759c0,7.819-2.932,12.806-9.87,16.222c-1.33,10.062-10.531,17.854-21.693,17.854
				c-6.792,0-12.857-2.885-16.871-7.412c-0.67,0.059-1.348,0.094-2.035,0.094c-12.073,0-21.561-5.725-21.561-16.977
				c0-7.574,3.391-11.309,9.561-15.809c-0.165-0.976-0.85-9.549,1.438-11.836c5.435-5.435,7.896-10.103,12.758-12.517
				c-9.541,3.431-16.312,12.052-16.312,22.147c0,0.17,0.011,0.338,0.015,0.509c-7.696,4.084-12.89,11.791-12.89,20.637
				c0,13.106,11.405,23.736,25.479,23.736c0.801,0,1.591-0.039,2.373-0.104c4.674,5.273,11.745,8.642,19.659,8.642
				c13.006,0,23.728-9.082,25.277-20.812c8.09-3.979,13.604-11.891,13.604-21.002C85.968,149.896,74.56,139.27,60.488,139.27z" style="opacity:0.1;fill:#6E6E96;enable-background:new    ;"></path>
			<g>
				<path d="M24.225,176.702c0,0,13.193,2.584,13.193,15.495c0,0,3.553,21.933-10.182,37.451h31.707
					c-0.312-0.438-27.691-37.018,2.777-58.761C43.14,181.514,24.225,176.702,24.225,176.702z" style="fill:#EDE3DA;"></path>
				<path d="M58.944,231.148H23.906l2.208-2.494c13.111-14.814,9.858-36.005,9.824-36.217l-0.02-0.24
					c0-10.452-9.66-13.441-11.658-13.947c-0.266-0.059-0.405-0.094-0.405-0.094l0.659-2.926c0,0,0.154,0.029,0.433,0.099
					c1.061,0.231,4.819,0.96,10.028,0.96c6.514,0,16.313-1.163,26.001-6.703l1.616,2.522c-7.56,5.396-12.051,12.215-13.348,20.271
					c-2.754,17.102,9.48,34.429,10.884,36.348l1.745,2.386L58.944,231.148z M30.393,228.148h25.712
					c-3.807-5.892-12.269-21.057-9.823-36.246c0.944-5.861,3.402-11.114,7.334-15.699c-7.115,2.464-13.755,3.086-18.641,3.086
					c-0.734,0-1.439-0.014-2.114-0.037c3.159,2.539,6.021,6.565,6.057,12.827C39.203,193.966,41.732,213.024,30.393,228.148z" style="fill:#CCCCDE;"></path>
			</g>
			<g>
				<path d="M32.58,150.805" style="fill:#D57E58;"></path>
			</g>
			<path d="M53.815,176.667c0,0-20.02,25.849-4.633,52.981h9.764
				C58.946,229.65,38.631,201.257,53.815,176.667z" style="opacity:0.11;fill:#6E6E96;enable-background:new    ;"></path>
		</g>
	</g>
</g>
<g id="Layer_3_2_">
	<g>
		<g>
			<g>
				<path d="M134.727,117.482c0,2.375-1.94,4.317-4.315,4.317H27.624c-2.375,0-4.319-1.942-4.319-4.317
					V44.928c0-2.375,1.944-4.318,4.319-4.318h102.785c2.375,0,4.315,1.942,4.315,4.318L134.727,117.482L134.727,117.482z" style="fill:#DAE7F5;"></path>
				<path d="M130.411,123.299H27.624c-3.209,0-5.819-2.609-5.819-5.817V44.928
					c0-3.208,2.61-5.818,5.819-5.818h102.785c3.207,0,5.815,2.61,5.815,5.818l0.002,72.554
					C136.227,120.689,133.618,123.299,130.411,123.299z M27.624,42.11c-1.555,0-2.819,1.264-2.819,2.818v72.554
					c0,1.553,1.265,2.817,2.819,2.817h102.787c1.553,0,2.815-1.264,2.815-2.817l-0.002-72.554c0-1.554-1.263-2.818-2.815-2.818
					H27.624z" style="fill:#CCCCDE;"></path>
			</g>
			<g>
				<path d="M134.727,117.482c0,2.375-1.94,4.317-4.315,4.317H27.624c-2.375,0-4.319-1.942-4.319-4.317
					V44.928c0-2.375,1.944-4.318,4.319-4.318h102.785c2.375,0,4.315,1.942,4.315,4.318L134.727,117.482L134.727,117.482z" style="fill:#FFFFFF;"></path>
				<path d="M130.411,122.299H27.624c-2.657,0-4.819-2.161-4.819-4.817V44.928
					c0-2.657,2.162-4.818,4.819-4.818h102.785c2.655,0,4.815,2.161,4.815,4.818l0.002,72.554
					C135.227,120.138,133.067,122.299,130.411,122.299z M27.624,41.11c-2.106,0-3.819,1.713-3.819,3.818v72.554
					c0,2.104,1.713,3.817,3.819,3.817h102.787c2.104,0,3.815-1.712,3.815-3.817l-0.002-72.554c0-2.105-1.712-3.818-3.815-3.818
					H27.624z" style="fill:#CCCCDE;"></path>
			</g>
		</g>
		<g>
			<rect height="65.213" width="92.852" style="fill:#DAE7F5;" y="48.598" x="32.375"></rect>
			<path d="M125.227,115.311H32.375c-0.829,0-1.5-0.671-1.5-1.5V48.598c0-0.829,0.671-1.5,1.5-1.5h92.852
				c0.828,0,1.5,0.671,1.5,1.5v65.213C126.727,114.64,126.055,115.311,125.227,115.311z M33.875,112.311h89.852V50.098H33.875
				V112.311z" style="fill:#CCCCDE;"></path>
		</g>
	</g>
	<g>
		<g>
			<path d="M126.087,213.885c0,2.75-2.25,5-5,5H20.74c-2.75,0-5-2.25-5-5V150.32c0-2.75,2.25-5,5-5h100.348
				c2.75,0,5,2.25,5,5L126.087,213.885L126.087,213.885z" style="fill:#FFFFFF;"></path>
			<path d="M121.087,220.385H20.74c-3.584,0-6.5-2.916-6.5-6.5V150.32c0-3.584,2.916-6.5,6.5-6.5h100.348
				c3.584,0,6.5,2.916,6.5,6.5l-0.001,63.564C127.587,217.469,124.671,220.385,121.087,220.385z M20.74,146.82
				c-1.93,0-3.5,1.57-3.5,3.5v63.564c0,1.93,1.57,3.5,3.5,3.5h100.347c1.93,0,3.5-1.57,3.5-3.5l0.001-63.564
				c0-1.93-1.57-3.5-3.5-3.5H20.74z" style="fill:#CCCCDE;"></path>
		</g>
		<g>
			<rect height="53.86" width="89.328" style="fill:#D3E3F5;" y="154.296" x="26.25"></rect>
			<path d="M115.578,209.656H26.25c-0.829,0-1.5-0.672-1.5-1.5v-53.86c0-0.828,0.671-1.5,1.5-1.5h89.328
				c0.829,0,1.5,0.672,1.5,1.5v53.86C117.078,208.984,116.407,209.656,115.578,209.656z M27.75,206.656h86.328v-50.86H27.75V206.656
				z" style="fill:#CCCCDE;"></path>
		</g>
		<g>
			<path d="M132.656,218.885c0,0,0,2.76,0,6.131s-2.955,6.131-6.567,6.131H17.054
				c-3.612,0-6.568-2.76-6.568-6.131s0-6.131,0-6.131" style="fill:#FFFFFF;"></path>
			<path d="M126.087,232.646H17.054c-4.449,0-8.068-3.423-8.068-7.631v-6.131c0-0.828,0.671-1.5,1.5-1.5
				h122.167c0.828,0,1.5,0.672,1.5,1.5v6.131C134.153,229.224,130.534,232.646,126.087,232.646z M11.986,220.385v4.631
				c0,2.554,2.273,4.631,5.068,4.631h109.033c2.793,0,5.065-2.077,5.065-4.631v-4.631H11.986z" style="fill:#CCCCDE;"></path>
		</g>
	</g>
	<g>
		<g>
			<polyline points="199.763,232.959 193.692,204.416 167.891,204.416 162.226,233.365" style="fill:#F0F0FF;"></polyline>
			<path d="M162.228,234.865c-0.096,0-0.192-0.009-0.29-0.028c-0.813-0.159-1.343-0.946-1.184-1.76
				l5.665-28.949c0.138-0.704,0.754-1.212,1.472-1.212h25.801c0.708,0,1.32,0.495,1.467,1.188l6.071,28.543
				c0.173,0.811-0.345,1.607-1.154,1.779c-0.812,0.17-1.607-0.344-1.779-1.154l-5.819-27.355h-23.351l-5.429,27.737
				C163.558,234.369,162.93,234.865,162.228,234.865z" style="fill:#CCCCDE;"></path>
		</g>
		<path d="M206.827,234.865h-51.663c-0.828,0-1.5-0.672-1.5-1.5s0.672-1.5,1.5-1.5h51.663
			c0.828,0,1.5,0.672,1.5,1.5S207.656,234.865,206.827,234.865z" style="fill:#CCCCDE;"></path>
		<g>
			<path d="M249.878,199.9c0,2.965-2.423,5.39-5.393,5.39H117.502c-2.967,0-5.395-2.425-5.395-5.39v-92.248
				c0-2.964,2.428-5.392,5.395-5.392h126.983c2.968,0,5.393,2.427,5.393,5.392V199.9L249.878,199.9z" style="fill:#FFFFFF;"></path>
			<path d="M244.486,205.79H117.502c-3.25,0-5.895-2.642-5.895-5.89v-92.248c0-3.249,2.644-5.892,5.895-5.892
				h126.983c3.249,0,5.893,2.643,5.893,5.892V199.9C250.378,203.148,247.735,205.79,244.486,205.79z M117.502,102.761
				c-2.699,0-4.895,2.194-4.895,4.892V199.9c0,2.696,2.196,4.89,4.895,4.89h126.983c2.698,0,4.893-2.193,4.893-4.89v-92.248
				c0-2.698-2.194-4.892-4.893-4.892H117.502z" style="fill:#CCCCDE;"></path>
		</g>
		<g>
			<rect height="69.266" width="114.109" style="fill:#D3E3F5;" y="114.842" x="123.94"></rect>
			<path d="M238.049,185.607H123.94c-0.829,0-1.5-0.672-1.5-1.5v-69.266c0-0.829,0.671-1.5,1.5-1.5h114.109
				c0.828,0,1.5,0.671,1.5,1.5v69.266C239.549,184.936,238.877,185.607,238.049,185.607z M125.44,182.607h111.109v-66.266H125.44
				V182.607z" style="fill:#CCCCDE;"></path>
		</g>
		<path d="M244.486,206.79H117.502c-3.802,0-6.895-3.091-6.895-6.89v-92.248c0-3.8,3.093-6.892,6.895-6.892
			h126.983c3.801,0,6.893,3.092,6.893,6.892V199.9C251.378,203.699,248.286,206.79,244.486,206.79z M117.502,103.761
			c-2.147,0-3.895,1.746-3.895,3.892V199.9c0,2.145,1.747,3.89,3.895,3.89h126.983c2.146,0,3.893-1.745,3.893-3.89v-92.248
			c0-2.146-1.746-3.892-3.893-3.892H117.502z" style="fill:#CCCCDE;"></path>
	</g>
	<g>
		<g>
			<g>
				<path d="M226.727,126.3c0,2.75-2.25,5-5,5h-48c-2.75,0-5-2.25-5-5v-84c0-2.75,2.25-5,5-5h48
					c2.75,0,5,2.25,5,5V126.3z" style="fill:#DAE7F5;"></path>
				<path d="M221.727,132.8h-48c-3.584,0-6.5-2.916-6.5-6.5v-84c0-3.584,2.916-6.5,6.5-6.5h48
					c3.584,0,6.5,2.916,6.5,6.5v84C228.227,129.884,225.311,132.8,221.727,132.8z M173.727,38.8c-1.93,0-3.5,1.57-3.5,3.5v84
					c0,1.93,1.57,3.5,3.5,3.5h48c1.93,0,3.5-1.57,3.5-3.5v-84c0-1.93-1.57-3.5-3.5-3.5H173.727z" style="fill:#CCCCDE;"></path>
			</g>
			<g>
				<path d="M226.727,126.3c0,2.75-2.25,5-5,5h-48c-2.75,0-5-2.25-5-5v-84c0-2.75,2.25-5,5-5h48
					c2.75,0,5,2.25,5,5V126.3z" style="fill:#DAE7F5;"></path>
				<path d="M221.727,132.8h-48c-3.584,0-6.5-2.916-6.5-6.5v-84c0-3.584,2.916-6.5,6.5-6.5h48
					c3.584,0,6.5,2.916,6.5,6.5v84C228.227,129.884,225.311,132.8,221.727,132.8z M173.727,38.8c-1.93,0-3.5,1.57-3.5,3.5v84
					c0,1.93,1.57,3.5,3.5,3.5h48c1.93,0,3.5-1.57,3.5-3.5v-84c0-1.93-1.57-3.5-3.5-3.5H173.727z" style="fill:#CCCCDE;"></path>
			</g>
		</g>
		<path d="M204.227,45.3h-13c-0.828,0-1.5-0.671-1.5-1.5s0.672-1.5,1.5-1.5h13c0.828,0,1.5,0.671,1.5,1.5
			S205.055,45.3,204.227,45.3z" style="fill:#CCCCDE;"></path>
	</g>
</g>
<g>
	<g id="Layer_2_2_">
		<path d="M90.005,239.639H65.422c-0.829,0-1.5-0.672-1.5-1.5
			s0.671-1.5,1.5-1.5h24.583c0.829,0,1.5,0.672,1.5,1.5S90.834,239.639,90.005,239.639z" style="opacity:0.45;fill:#D8D8F5;enable-background:new    ;"></path>
		<path d="M58.49,239.639h-8c-0.829,0-1.5-0.672-1.5-1.5
			s0.671-1.5,1.5-1.5h8c0.829,0,1.5,0.672,1.5,1.5S59.319,239.639,58.49,239.639z" style="opacity:0.45;fill:#D8D8F5;enable-background:new    ;"></path>
		<path d="M190.49,239.639h-27.5c-0.828,0-1.5-0.672-1.5-1.5
			s0.672-1.5,1.5-1.5h27.5c0.828,0,1.5,0.672,1.5,1.5S191.319,239.639,190.49,239.639z" style="opacity:0.45;fill:#D8D8F5;enable-background:new    ;"></path>
		<path d="M208.49,239.639h-10.5c-0.828,0-1.5-0.672-1.5-1.5
			s0.672-1.5,1.5-1.5h10.5c0.828,0,1.5,0.672,1.5,1.5S209.319,239.639,208.49,239.639z" style="opacity:0.45;fill:#D8D8F5;enable-background:new    ;"></path>
		<g>
			<path d="M173.857,224.466c0,7.808-6.389,14.198-14.194,14.198H96.73c-7.808,0-14.194-6.391-14.194-14.198
				v-137c0-7.809,6.389-14.197,14.194-14.197h62.934c7.808,0,14.194,6.389,14.194,14.197L173.857,224.466L173.857,224.466
				L173.857,224.466z" style="fill:#F0F0FF;"></path>
			<path d="M173.857,224.466c0,7.808-6.389,14.198-14.194,14.198H96.73c-7.808,0-14.194-6.391-14.194-14.198
				v-137c0-7.809,6.389-14.197,14.194-14.197h62.934c7.808,0,14.194,6.389,14.194,14.197L173.857,224.466L173.857,224.466
				L173.857,224.466z" style="fill:#FFFFFF;"></path>
			<rect height="127.854" width="91.323" style="fill:#BDDCFF;" y="91.349" x="82.533"></rect>
			<polygon points="86.761,219.203 173.859,132.104 173.859,161.439 
				116.094,219.203" style="opacity:0.49;fill:#DEEFFF;enable-background:new    ;"></polygon>
			<polygon points="173.859,161.439 116.094,219.203 173.859,219.203" style="opacity:0.4;fill:#FFFFFF;enable-background:new    ;"></polygon>
			<path d="M159.662,240.164H96.73c-11.147,0-15.694-4.548-15.694-15.698v-137
				c0-11.149,4.547-15.697,15.694-15.697h62.934c11.147,0,15.694,4.548,15.694,15.697l-0.001,137
				C175.357,235.616,170.81,240.164,159.662,240.164z M96.73,74.769c-9.491,0-12.694,3.204-12.694,12.697v137
				c0,9.494,3.203,12.698,12.694,12.698h62.933c9.491,0,12.694-3.204,12.694-12.698l0.001-137c0-9.493-3.203-12.697-12.694-12.697
				H96.73z" style="fill:#6E6E96;"></path>
			<rect height="3" width="91.325" style="fill:#6E6E96;" y="88.728" x="82.533"></rect>
			<rect height="3" width="91.325" style="fill:#6E6E96;" y="217.703" x="82.533"></rect>
			<path d="M134.362,83.408H122.03c-0.829,0-1.5-0.671-1.5-1.5s0.671-1.5,1.5-1.5h12.332
				c0.828,0,1.5,0.671,1.5,1.5S135.19,83.408,134.362,83.408z" style="fill:#6E6E96;"></path>
			<path d="M128.196,235.514c-3.529,0-6.4-2.871-6.4-6.4s2.871-6.401,6.4-6.401s6.401,2.872,6.401,6.401
				S131.725,235.514,128.196,235.514z M128.196,225.712c-1.875,0-3.4,1.525-3.4,3.401c0,1.875,1.525,3.4,3.4,3.4
				c1.876,0,3.401-1.525,3.401-3.4C131.597,227.237,130.072,225.712,128.196,225.712z" style="fill:#6E6E96;"></path>
			<circle r="1.897" cy="81.907" cx="163.921" style="fill:#6E6E96;"></circle>
			<circle r="1.897" cy="81.907" cx="156.964" style="fill:#6E6E96;"></circle>
			<polygon points="173.859,90.228 82.533,90.228 82.533,219.203 
				86.761,219.203 86.761,94.557 173.859,94.557" style="opacity:0.15;fill:#6E6E96;enable-background:new    ;"></polygon>
			<rect height="3.711" width="91.323" style="opacity:0.15;fill:#6E6E96;enable-background:new    ;" y="86.517" x="82.533"></rect>
			<path d="M160.291,235.502H97.361
				c-7.808,0-14.194-3.859-14.194-14.199v3.479c0,12.868,6.389,14.198,14.194,14.198h62.932c7.809,0,14.194-3.858,14.194-14.198
				h0.005v-3.479h-0.005C174.49,229.111,168.1,235.502,160.291,235.502z" style="opacity:0.15;fill:#6E6E96;enable-background:new    ;"></path>
		</g>
	</g>
	<path d="M106.99,98.78v84.843h60.533V98.78H106.99z M106.99,212.29
		h60.533v-24H106.99V212.29z" style="opacity:0.51;fill:#6E6E96;enable-background:new    ;"></path>
	<g>
		<rect height="2" width="9.403" style="fill:#A1FFD2;" y="112.539" x="111.116"></rect>
		<rect height="2" width="16.271" style="fill:#CCCCDE;" y="112.539" x="127.39"></rect>
		<rect height="2" width="18.082" style="fill:#FCBAFF;" y="117.041" x="111.116"></rect>
		<rect height="2" width="7.953" style="fill:#CCCCDE;" y="117.041" x="134.984"></rect>
		<rect height="2" width="11.211" style="fill:#CCCCDE;" y="122.294" x="111.116"></rect>
		<rect height="2" width="4.338" style="fill:#FCBAFF;" y="122.294" x="128.474"></rect>
		<rect height="2" width="14.466" style="fill:#CCCCDE;" y="127.172" x="111.116"></rect>
		<rect height="2" width="14.103" style="fill:#CCCCDE;" y="131.675" x="119.073"></rect>
		<rect height="2" width="4.701" style="fill:#FCBAFF;" y="131.675" x="138.96"></rect>
		<rect height="2" width="18.439" style="fill:#CCCCDE;" y="131.675" x="145.832"></rect>
		<rect height="2" width="3.254" style="fill:#CCCCDE;" y="137.303" x="111.116"></rect>
		<rect height="2" width="8.498" style="fill:#CCCCDE;" y="142.182" x="111.116"></rect>
		<rect height="2" width="12.746" style="fill:#CCCCDE;" y="147.059" x="111.116"></rect>
		<rect height="2" width="3.98" style="fill:#CCCCDE;" y="147.059" x="131.003"></rect>
		<rect height="2" width="15.188" style="fill:#A1FFD2;" y="153.062" x="111.116"></rect>
		<rect height="2" width="11.937" style="fill:#CCCCDE;" y="157.939" x="116.178"></rect>
		<rect height="2" width="4.704" style="fill:#CCCCDE;" y="157.939" x="131.003"></rect>
		<rect height="2" width="4.339" style="fill:#CCCCDE;" y="157.939" x="140.769"></rect>
		<rect height="2" width="17.72" style="fill:#FCBAFF;" y="163.566" x="116.178"></rect>
		<rect height="2" width="2.893" style="fill:#CCCCDE;" y="163.566" x="140.769"></rect>
		<rect height="2" width="3.615" style="fill:#CCCCDE;" y="168.82" x="111.116"></rect>
	</g>
	<rect height="113.51" width="14.302" style="opacity:0.51;fill:#6E6E96;enable-background:new    ;" y="98.78" x="87.448"></rect>
</g>
</svg>
