<svg xml:space="preserve" style="enable-background:new 0 0 250.979 244.246;" viewBox="0 0 250.979 244.246" height="244.246px" width="250.979px" y="0px" x="0px" xmlns:xlink="http://www.w3.org/1999/xlink" xmlns="http://www.w3.org/2000/svg" id="Layer_1" version="1.1">
<g id="Layer_1_1_">
	<g id="Layer_4_1_">
		<path d="M250.979,109.715c0-40.701-33.074-73.693-73.871-73.693c-0.635,0-1.262,0.029-1.893,0.046
			C162.334,14.476,138.717,0,111.701,0C70.903,0,37.83,32.995,37.83,73.696c0,0.529,0.026,1.049,0.04,1.576
			C15.556,87.952,0.5,111.88,0.5,139.332c0,40.699,33.073,73.691,73.872,73.691c2.317,0,4.609-0.123,6.878-0.33
			c13.551,16.377,34.051,26.812,56.998,26.812c37.711,0,68.793-28.191,73.289-64.596
			C234.988,162.562,250.979,138.007,250.979,109.715z" style="fill:#D6F0FF;"></path>
	</g>
	<g id="Layer_2_2_">
		<rect height="148.542" width="117.768" style="fill:#FFFFFF;" y="56.671" x="46.401"></rect>
		<g style="opacity:0.33;">
			<g>
				<rect height="141.454" width="145.377" style="fill:#FFFFFF;" y="56.671" x="47.401"></rect>
				<path d="M192.778,199.625H47.401c-0.829,0-1.5-0.672-1.5-1.5V56.671c0-0.829,0.671-1.5,1.5-1.5h145.377
					c0.828,0,1.5,0.671,1.5,1.5v141.454C194.278,198.953,193.606,199.625,192.778,199.625z M48.901,196.625h142.377V58.171H48.901
					V196.625z" style="fill:#6E6E96;"></path>
			</g>
			<g>
				<rect height="24.311" width="15.658" style="fill:#BDDFFF;" y="105.244" x="144.564"></rect>
				<path d="M160.222,131.055h-15.658c-0.828,0-1.5-0.672-1.5-1.5v-24.311c0-0.829,0.672-1.5,1.5-1.5h15.658
					c0.828,0,1.5,0.671,1.5,1.5v24.311C161.722,130.383,161.05,131.055,160.222,131.055z M146.064,128.055h12.658v-21.311h-12.658
					V128.055z" style="fill:#6E6E96;"></path>
			</g>
			<g>
				<rect height="24.16" width="15.658" style="fill:#BDDFFF;" y="135.445" x="144.564"></rect>
				<path d="M160.222,161.105h-15.658c-0.828,0-1.5-0.672-1.5-1.5v-24.16c0-0.828,0.672-1.5,1.5-1.5h15.658
					c0.828,0,1.5,0.672,1.5,1.5v24.16C161.722,160.434,161.05,161.105,160.222,161.105z M146.064,158.105h12.658v-21.16h-12.658
					V158.105z" style="fill:#6E6E96;"></path>
			</g>
			<g>
				<rect height="24.677" width="15.66" style="fill:#BDDFFF;" y="74.671" x="122.5"></rect>
				<path d="M138.16,100.848H122.5c-0.829,0-1.5-0.671-1.5-1.5V74.671c0-0.829,0.671-1.5,1.5-1.5h15.66
					c0.828,0,1.5,0.671,1.5,1.5v24.677C139.66,100.177,138.989,100.848,138.16,100.848z M124,97.848h12.66V76.171H124V97.848z" style="fill:#6E6E96;"></path>
			</g>
			<g>
				<rect height="24.311" width="15.66" style="fill:#BDDFFF;" y="105.244" x="122.5"></rect>
				<path d="M138.16,131.055H122.5c-0.829,0-1.5-0.672-1.5-1.5v-24.311c0-0.829,0.671-1.5,1.5-1.5h15.66
					c0.828,0,1.5,0.671,1.5,1.5v24.311C139.66,130.383,138.989,131.055,138.16,131.055z M124,128.055h12.66v-21.311H124V128.055z" style="fill:#6E6E96;"></path>
			</g>
			<g>
				<rect height="24.311" width="18.425" style="fill:#BDDFFF;" y="105.244" x="166.629"></rect>
				<path d="M185.054,131.055h-18.425c-0.828,0-1.5-0.672-1.5-1.5v-24.311c0-0.829,0.672-1.5,1.5-1.5h18.425
					c0.828,0,1.5,0.671,1.5,1.5v24.311C186.554,130.383,185.882,131.055,185.054,131.055z M168.129,128.055h15.425v-21.311h-15.425
					V128.055z" style="fill:#6E6E96;"></path>
			</g>
			<g>
				<rect height="24.677" width="15.658" style="fill:#BDDFFF;" y="74.671" x="144.564"></rect>
				<path d="M160.222,100.848h-15.658c-0.828,0-1.5-0.671-1.5-1.5V74.671c0-0.829,0.672-1.5,1.5-1.5h15.658
					c0.828,0,1.5,0.671,1.5,1.5v24.677C161.722,100.177,161.05,100.848,160.222,100.848z M146.064,97.848h12.658V76.171h-12.658
					V97.848z" style="fill:#6E6E96;"></path>
			</g>
			<g>
				<rect height="24.16" width="15.66" style="fill:#BDDFFF;" y="135.445" x="122.5"></rect>
				<path d="M138.16,161.105H122.5c-0.829,0-1.5-0.672-1.5-1.5v-24.16c0-0.828,0.671-1.5,1.5-1.5h15.66
					c0.828,0,1.5,0.672,1.5,1.5v24.16C139.66,160.434,138.989,161.105,138.16,161.105z M124,158.105h12.66v-21.16H124V158.105z" style="fill:#6E6E96;"></path>
			</g>
			<g>
				<rect height="24.677" width="18.425" style="fill:#BDDFFF;" y="74.671" x="166.629"></rect>
				<path d="M185.054,100.848h-18.425c-0.828,0-1.5-0.671-1.5-1.5V74.671c0-0.829,0.672-1.5,1.5-1.5h18.425
					c0.828,0,1.5,0.671,1.5,1.5v24.677C186.554,100.177,185.882,100.848,185.054,100.848z M168.129,97.848h15.425V76.171h-15.425
					V97.848z" style="fill:#6E6E96;"></path>
			</g>
			<g>
				<rect height="24.16" width="18.425" style="fill:#BDDFFF;" y="135.445" x="166.629"></rect>
				<path d="M185.054,161.105h-18.425c-0.828,0-1.5-0.672-1.5-1.5v-24.16c0-0.828,0.672-1.5,1.5-1.5h18.425
					c0.828,0,1.5,0.672,1.5,1.5v24.16C186.554,160.434,185.882,161.105,185.054,161.105z M168.129,158.105h15.425v-21.16h-15.425
					V158.105z" style="fill:#6E6E96;"></path>
			</g>
			<g>
				<rect height="24.311" width="16.942" style="fill:#BDDFFF;" y="105.244" x="55.025"></rect>
				<path d="M71.967,131.055H55.025c-0.829,0-1.5-0.672-1.5-1.5v-24.311c0-0.829,0.671-1.5,1.5-1.5h16.942
					c0.829,0,1.5,0.671,1.5,1.5v24.311C73.467,130.383,72.796,131.055,71.967,131.055z M56.525,128.055h13.942v-21.311H56.525
					V128.055z" style="fill:#6E6E96;"></path>
			</g>
			<g>
				<rect height="24.677" width="16.942" style="fill:#BDDFFF;" y="74.671" x="55.025"></rect>
				<path d="M71.967,100.848H55.025c-0.829,0-1.5-0.671-1.5-1.5V74.671c0-0.829,0.671-1.5,1.5-1.5h16.942
					c0.829,0,1.5,0.671,1.5,1.5v24.677C73.467,100.177,72.796,100.848,71.967,100.848z M56.525,97.848h13.942V76.171H56.525V97.848z" style="fill:#6E6E96;"></path>
			</g>
			<g>
				<rect height="24.16" width="16.942" style="fill:#BDDFFF;" y="135.445" x="55.025"></rect>
				<path d="M71.967,161.105H55.025c-0.829,0-1.5-0.672-1.5-1.5v-24.16c0-0.828,0.671-1.5,1.5-1.5h16.942
					c0.829,0,1.5,0.672,1.5,1.5v24.16C73.467,160.434,72.796,161.105,71.967,161.105z M56.525,158.105h13.942v-21.16H56.525V158.105
					z" style="fill:#6E6E96;"></path>
			</g>
			<g>
				<rect height="24.16" width="15.655" style="fill:#BDDFFF;" y="135.445" x="78.373"></rect>
				<path d="M94.029,161.105H78.373c-0.829,0-1.5-0.672-1.5-1.5v-24.16c0-0.828,0.671-1.5,1.5-1.5h15.655
					c0.829,0,1.5,0.672,1.5,1.5v24.16C95.529,160.434,94.857,161.105,94.029,161.105z M79.873,158.105h12.655v-21.16H79.873V158.105
					z" style="fill:#6E6E96;"></path>
			</g>
			<g>
				<rect height="24.311" width="15.655" style="fill:#BDDFFF;" y="105.244" x="78.373"></rect>
				<path d="M94.029,131.055H78.373c-0.829,0-1.5-0.672-1.5-1.5v-24.311c0-0.829,0.671-1.5,1.5-1.5h15.655
					c0.829,0,1.5,0.671,1.5,1.5v24.311C95.529,130.383,94.857,131.055,94.029,131.055z M79.873,128.055h12.655v-21.311H79.873
					V128.055z" style="fill:#6E6E96;"></path>
			</g>
			<g>
				<rect height="24.16" width="15.659" style="fill:#BDDFFF;" y="135.445" x="100.437"></rect>
				<path d="M116.096,161.105h-15.659c-0.829,0-1.5-0.672-1.5-1.5v-24.16c0-0.828,0.671-1.5,1.5-1.5h15.659
					c0.829,0,1.5,0.672,1.5,1.5v24.16C117.596,160.434,116.925,161.105,116.096,161.105z M101.937,158.105h12.659v-21.16h-12.659
					V158.105z" style="fill:#6E6E96;"></path>
			</g>
			<g>
				<rect height="24.677" width="15.659" style="fill:#BDDFFF;" y="74.671" x="100.437"></rect>
				<path d="M116.096,100.848h-15.659c-0.829,0-1.5-0.671-1.5-1.5V74.671c0-0.829,0.671-1.5,1.5-1.5h15.659
					c0.829,0,1.5,0.671,1.5,1.5v24.677C117.596,100.177,116.925,100.848,116.096,100.848z M101.937,97.848h12.659V76.171h-12.659
					V97.848z" style="fill:#6E6E96;"></path>
			</g>
			<g>
				<rect height="24.311" width="15.659" style="fill:#BDDFFF;" y="105.244" x="100.437"></rect>
				<path d="M116.096,131.055h-15.659c-0.829,0-1.5-0.672-1.5-1.5v-24.311c0-0.829,0.671-1.5,1.5-1.5h15.659
					c0.829,0,1.5,0.671,1.5,1.5v24.311C117.596,130.383,116.925,131.055,116.096,131.055z M101.937,128.055h12.659v-21.311h-12.659
					V128.055z" style="fill:#6E6E96;"></path>
			</g>
			<g>
				<rect height="24.677" width="15.655" style="fill:#BDDFFF;" y="74.671" x="78.373"></rect>
				<path d="M94.029,100.848H78.373c-0.829,0-1.5-0.671-1.5-1.5V74.671c0-0.829,0.671-1.5,1.5-1.5h15.655
					c0.829,0,1.5,0.671,1.5,1.5v24.677C95.529,100.177,94.857,100.848,94.029,100.848z M79.873,97.848h12.655V76.171H79.873V97.848z" style="fill:#6E6E96;"></path>
			</g>
			<g>
				<rect height="7.074" width="153.227" style="fill:#D5B697;" y="56.671" x="43.483"></rect>
				<path d="M196.709,65.245H43.483c-0.829,0-1.5-0.671-1.5-1.5v-7.074c0-0.829,0.671-1.5,1.5-1.5h153.227
					c0.828,0,1.5,0.671,1.5,1.5v7.074C198.209,64.574,197.537,65.245,196.709,65.245z M44.983,62.245h150.227v-4.074H44.983V62.245z" style="fill:#6E6E96;"></path>
			</g>
			<g>
				<rect height="24.16" width="15.658" style="fill:#BDDFFF;" y="165.895" x="144.564"></rect>
				<path d="M160.222,191.555h-15.658c-0.828,0-1.5-0.672-1.5-1.5v-24.16c0-0.828,0.672-1.5,1.5-1.5h15.658
					c0.828,0,1.5,0.672,1.5,1.5v24.16C161.722,190.883,161.05,191.555,160.222,191.555z M146.064,188.555h12.658v-21.16h-12.658
					V188.555z" style="fill:#6E6E96;"></path>
			</g>
			<g>
				<rect height="24.16" width="18.425" style="fill:#BDDFFF;" y="165.895" x="166.629"></rect>
				<path d="M185.054,191.555h-18.425c-0.828,0-1.5-0.672-1.5-1.5v-24.16c0-0.828,0.672-1.5,1.5-1.5h18.425
					c0.828,0,1.5,0.672,1.5,1.5v24.16C186.554,190.883,185.882,191.555,185.054,191.555z M168.129,188.555h15.425v-21.16h-15.425
					V188.555z" style="fill:#6E6E96;"></path>
			</g>
			<g>
				<rect height="24.16" width="16.942" style="fill:#BDDFFF;" y="165.895" x="55.025"></rect>
				<path d="M71.967,191.555H55.025c-0.829,0-1.5-0.672-1.5-1.5v-24.16c0-0.828,0.671-1.5,1.5-1.5h16.942
					c0.829,0,1.5,0.672,1.5,1.5v24.16C73.467,190.883,72.796,191.555,71.967,191.555z M56.525,188.555h13.942v-21.16H56.525V188.555
					z" style="fill:#6E6E96;"></path>
			</g>
			<g>
				<rect height="24.16" width="15.655" style="fill:#BDDFFF;" y="165.895" x="78.373"></rect>
				<path d="M94.029,191.555H78.373c-0.829,0-1.5-0.672-1.5-1.5v-24.16c0-0.828,0.671-1.5,1.5-1.5h15.655
					c0.829,0,1.5,0.672,1.5,1.5v24.16C95.529,190.883,94.857,191.555,94.029,191.555z M79.873,188.555h12.655v-21.16H79.873V188.555
					z" style="fill:#6E6E96;"></path>
			</g>
			<g>
				<rect height="32.229" width="37.784" style="fill:#E4BC96;" y="165.895" x="100.437"></rect>
				<path d="M138.221,199.624h-37.784c-0.829,0-1.5-0.672-1.5-1.5v-32.229c0-0.828,0.671-1.5,1.5-1.5h37.784
					c0.828,0,1.5,0.672,1.5,1.5v32.229C139.721,198.952,139.049,199.624,138.221,199.624z M101.937,196.624h34.784v-29.229h-34.784
					V196.624z" style="fill:#6E6E96;"></path>
			</g>
			<path d="M119.113,199.625c-0.829,0-1.5-0.672-1.5-1.5v-32.23c0-0.828,0.671-1.5,1.5-1.5s1.5,0.672,1.5,1.5
				v32.23C120.613,198.953,119.941,199.625,119.113,199.625z" style="fill:#6E6E96;"></path>
		</g>
		<rect height="18" width="38" style="fill:#D6F0FF;" y="195.557" x="85.833"></rect>
		<path d="M101.625,25.598H80.5c-1.381,0-2.5-1.119-2.5-2.5s1.119-2.5,2.5-2.5h21.125
			c1.381,0,2.5,1.119,2.5,2.5S103.006,25.598,101.625,25.598z" style="fill:#FFFFFF;"></path>
		<path d="M115.465,36.525H90.698c-1.381,0-2.5-1.119-2.5-2.5s1.119-2.5,2.5-2.5h24.767
			c1.381,0,2.5,1.119,2.5,2.5S116.846,36.525,115.465,36.525z" style="fill:#FFFFFF;"></path>
	</g>
	<g id="Layer_3_2_">
		<g>
			<rect height="9.561" width="67.122" style="fill:#EBEBF7;" y="21.587" x="156.502"></rect>
			<path d="M223.624,32.648h-67.122c-0.828,0-1.5-0.671-1.5-1.5v-9.561c0-0.829,0.672-1.5,1.5-1.5h67.122
				c0.828,0,1.5,0.671,1.5,1.5v9.561C225.124,31.977,224.452,32.648,223.624,32.648z M158.002,29.648h64.122v-6.561h-64.122V29.648z" style="fill:#CCCCDE;"></path>
		</g>
		<g>
			<rect height="169.355" width="105.589" style="fill:#FFFFFF;" y="30.982" x="137.1"></rect>
			<path d="M242.689,201.837H137.1c-0.828,0-1.5-0.672-1.5-1.5V30.982c0-0.829,0.672-1.5,1.5-1.5h105.589
				c0.828,0,1.5,0.671,1.5,1.5v169.355C244.189,201.165,243.517,201.837,242.689,201.837z M138.6,198.837h102.589V32.482H138.6
				V198.837z" style="fill:#CCCCDE;"></path>
		</g>
		<g>
			<rect height="160.893" width="88.036" style="fill:#CFE7FF;" y="39.445" x="146.174"></rect>
			<path d="M234.21,201.838h-88.036c-0.828,0-1.5-0.672-1.5-1.5V39.445c0-0.829,0.672-1.5,1.5-1.5h88.036
				c0.828,0,1.5,0.671,1.5,1.5v160.893C235.71,201.166,235.038,201.838,234.21,201.838z M147.674,198.838h85.036V40.945h-85.036
				V198.838z" style="fill:#CCCCDE;"></path>
		</g>
		<polygon points="147.297,123.091 229.938,40.452 169.996,40.619 
			147.297,63.995" style="opacity:0.49;fill:#FFFFFF;enable-background:new    ;"></polygon>
		<polygon points="233.478,62.664 146.653,149.486 170.497,150.176 
			233.478,87.196" style="opacity:0.27;fill:#FFFFFF;enable-background:new    ;"></polygon>
		<g>
			<rect height="50.793" width="88.036" style="fill:#CFE7FF;" y="149.544" x="146.174"></rect>
			<path d="M234.21,201.837h-88.036c-0.828,0-1.5-0.672-1.5-1.5v-50.793c0-0.828,0.672-1.5,1.5-1.5h88.036
				c0.828,0,1.5,0.672,1.5,1.5v50.793C235.71,201.165,235.038,201.837,234.21,201.837z M147.674,198.837h85.036v-47.793h-85.036
				V198.837z" style="fill:#CCCCDE;"></path>
		</g>
		<g style="opacity:0.37;">
			<polygon points="169.293,162.003 147.475,183.188 
				147.475,196.125 169.293,174.939" style="opacity:0.49;fill:#FFFFFF;enable-background:new    ;"></polygon>
			<polyline points="147.349,173.376 159.062,162.003 
				147.349,162.003" style="opacity:0.49;fill:#FFFFFF;enable-background:new    ;"></polyline>
		</g>
		<g style="opacity:0.37;">
			<polygon points="200.758,162.003 179.573,183.188 
				179.573,196.125 200.758,174.939" style="opacity:0.49;fill:#FFFFFF;enable-background:new    ;"></polygon>
			<polyline points="180.294,173.376 191.667,162.003 
				180.294,162.003" style="opacity:0.49;fill:#FFFFFF;enable-background:new    ;"></polyline>
		</g>
		<g style="opacity:0.37;">
			<polygon points="233.018,162.003 209.48,183.188 209.48,196.125 
				233.018,174.939" style="opacity:0.49;fill:#FFFFFF;enable-background:new    ;"></polygon>
			<polyline points="210.28,173.376 222.918,162.003 210.28,162.003" style="opacity:0.49;fill:#FFFFFF;enable-background:new    ;"></polyline>
		</g>
		<rect height="110.099" width="3" style="fill:#CCCCDE;" y="39.445" x="155.893"></rect>
		<rect height="110.099" width="3" style="fill:#CCCCDE;" y="39.445" x="167.127"></rect>
		<rect height="110.099" width="3" style="fill:#CCCCDE;" y="39.445" x="178.079"></rect>
		<rect height="110.099" width="3" style="fill:#CCCCDE;" y="39.445" x="189.593"></rect>
		<rect height="110.099" width="3" style="fill:#CCCCDE;" y="39.445" x="200.545"></rect>
		<rect height="110.099" width="3" style="fill:#CCCCDE;" y="39.445" x="211.216"></rect>
		<rect height="110.099" width="3" style="fill:#CCCCDE;" y="39.445" x="221.888"></rect>
		<path d="M234.21,64.16h-88.036c-0.828,0-1.5-0.671-1.5-1.5s0.672-1.5,1.5-1.5h88.036
			c0.828,0,1.5,0.671,1.5,1.5S235.038,64.16,234.21,64.16z" style="fill:#CCCCDE;"></path>
		<path d="M234.21,86.625h-88.036c-0.828,0-1.5-0.671-1.5-1.5s0.672-1.5,1.5-1.5h88.036
			c0.828,0,1.5,0.671,1.5,1.5S235.038,86.625,234.21,86.625z" style="fill:#CCCCDE;"></path>
		<path d="M234.21,107.969h-88.036c-0.828,0-1.5-0.671-1.5-1.5s0.672-1.5,1.5-1.5h88.036
			c0.828,0,1.5,0.671,1.5,1.5S235.038,107.969,234.21,107.969z" style="fill:#CCCCDE;"></path>
		<rect height="3" width="88.036" style="fill:#CCCCDE;" y="126.311" x="146.174"></rect>
		<g>
			<rect height="42.618" width="8.981" style="fill:#F0F0FF;" y="157.719" x="170.592"></rect>
			<path d="M179.573,201.837h-8.981c-0.828,0-1.5-0.672-1.5-1.5v-42.618c0-0.828,0.672-1.5,1.5-1.5h8.981
				c0.828,0,1.5,0.672,1.5,1.5v42.618C181.073,201.165,180.402,201.837,179.573,201.837z M172.092,198.837h5.981v-39.618h-5.981
				V198.837z" style="fill:#CCCCDE;"></path>
		</g>
		<g>
			<rect height="44.562" width="8.425" style="fill:#F0F0FF;" y="155.773" x="200.5"></rect>
			<path d="M208.925,201.836H200.5c-0.828,0-1.5-0.672-1.5-1.5v-44.562c0-0.828,0.672-1.5,1.5-1.5h8.425
				c0.828,0,1.5,0.672,1.5,1.5v44.562C210.425,201.164,209.753,201.836,208.925,201.836z M202,198.836h5.425v-41.562H202V198.836z" style="fill:#CCCCDE;"></path>
		</g>
		<g>
			<rect height="12.459" width="88.036" style="fill:#F0F0FF;" y="149.544" x="146.174"></rect>
			<path d="M234.21,163.503h-88.036c-0.828,0-1.5-0.672-1.5-1.5v-12.459c0-0.828,0.672-1.5,1.5-1.5h88.036
				c0.828,0,1.5,0.672,1.5,1.5v12.459C235.71,162.831,235.038,163.503,234.21,163.503z M147.674,160.503h85.036v-9.459h-85.036
				V160.503z" style="fill:#CCCCDE;"></path>
		</g>
		<g>
			<rect height="7.509" width="29.486" style="fill:#EBEBF7;" y="14.078" x="175.319"></rect>
			<path d="M204.805,23.087h-29.486c-0.828,0-1.5-0.671-1.5-1.5v-7.509c0-0.829,0.672-1.5,1.5-1.5h29.486
				c0.828,0,1.5,0.671,1.5,1.5v7.509C206.305,22.416,205.633,23.087,204.805,23.087z M176.819,20.087h26.486v-4.509h-26.486V20.087z" style="fill:#CCCCDE;"></path>
		</g>
		<path d="M190.063,15.578c-0.828,0-1.5-0.671-1.5-1.5V1.826c0-0.829,0.672-1.5,1.5-1.5s1.5,0.671,1.5,1.5
			v12.252C191.563,14.907,190.891,15.578,190.063,15.578z" style="fill:#CCCCDE;"></path>
		<g>
			<rect height="8.706" width="114.727" style="fill:#F0F0FF;" y="196.051" x="133.373"></rect>
			<path d="M248.1,206.257H133.373c-0.828,0-1.5-0.672-1.5-1.5v-8.706c0-0.828,0.672-1.5,1.5-1.5H248.1
				c0.828,0,1.5,0.672,1.5,1.5v8.706C249.6,205.585,248.928,206.257,248.1,206.257z M134.873,203.257H246.6v-5.706H134.873V203.257z" style="fill:#CCCCDE;"></path>
		</g>
	</g>
	<g id="Layer_6_1_">
		<g>
			<polygon points="98.442,204.757 9.331,204.757 9.331,128.594 53.887,100.072 98.442,128.594" style="fill:#FFFFFF;"></polygon>
			<path d="M99.942,206.257H7.831v-78.484l46.056-29.481l46.055,29.481V206.257z M10.831,203.257h86.11
				v-73.842l-43.055-27.562l-43.056,27.562V203.257z" style="fill:#CCCCDE;"></path>
		</g>
		<g>
			<polygon points="53.887,95.235 1.5,127.083 1.5,132.32 9.331,132.32 53.887,104.815 98.321,132.684 
				105.193,132.791 105.193,127.083" style="fill:#E0E6FC;"></polygon>
			<path d="M105.193,134.291c-0.008,0-0.016,0-0.023,0l-6.872-0.107c-0.274-0.005-0.542-0.084-0.773-0.229
				l-43.643-27.373l-43.761,27.015c-0.237,0.146-0.51,0.224-0.788,0.224H1.5c-0.829,0-1.5-0.672-1.5-1.5v-5.237
				c0-0.523,0.273-1.01,0.721-1.281l52.387-31.849c0.482-0.293,1.09-0.291,1.57,0.007l51.306,31.848
				c0.441,0.273,0.709,0.756,0.709,1.274v5.708c0,0.402-0.161,0.787-0.448,1.069C105.964,134.137,105.586,134.291,105.193,134.291z
				 M98.763,131.19l4.93,0.077v-3.351L53.879,96.995L3,127.927v2.894h5.905l44.193-27.282c0.487-0.3,1.102-0.297,1.585,0.006
				L98.763,131.19z" style="fill:#CCCCDE;"></path>
		</g>
		<g>
			<rect height="19.961" width="30.25" style="fill:#D4EAFF;" y="166.613" x="17.744"></rect>
			<path d="M47.994,188.074h-30.25c-0.829,0-1.5-0.672-1.5-1.5v-19.961c0-0.828,0.671-1.5,1.5-1.5h30.25
				c0.829,0,1.5,0.672,1.5,1.5v19.961C49.494,187.402,48.823,188.074,47.994,188.074z M19.244,185.074h27.25v-16.961h-27.25V185.074
				z" style="fill:#CCCCDE;"></path>
		</g>
		<g>
			<rect height="12.131" width="89.109" style="fill:#FCEBE3;" y="192.626" x="9.331"></rect>
			<path d="M98.441,206.257H9.331c-0.829,0-1.5-0.672-1.5-1.5v-12.131c0-0.828,0.671-1.5,1.5-1.5h89.109
				c0.829,0,1.5,0.672,1.5,1.5v12.131C99.941,205.585,99.269,206.257,98.441,206.257z M10.831,203.257h86.109v-9.131H10.831V203.257
				z" style="fill:#CCCCDE;"></path>
		</g>
		<g>
			<path d="M49.257,204.757c0-0.022,0.004-0.045,0.004-0.069c0-3.756-2.626-6.801-5.865-6.801
				c-1.5,0-2.861,0.659-3.898,1.731c-0.809-4.466-4.22-7.817-8.31-7.817c-1.858,0-3.578,0.702-4.977,1.881
				c-1.759-2.806-4.604-4.638-7.822-4.638c-4.419,0-8.138,3.438-9.296,8.134c-0.435-0.111-0.884-0.177-1.348-0.177
				c-3.449,0-6.245,3.242-6.245,7.246c0,0.172,0.012,0.34,0.021,0.51H49.257L49.257,204.757z" style="fill:#CCE8D6;"></path>
			<path d="M49.257,206.257H1.521c-0.798,0-1.457-0.625-1.498-1.423C0.009,204.574,0,204.412,0,204.247
				c0-4.929,3.607-8.927,8.029-8.74c1.685-4.75,5.785-7.963,10.359-7.963c3.108,0,6.068,1.49,8.167,4.052
				c1.422-0.851,2.999-1.295,4.631-1.295c4.023,0,7.607,2.765,9.166,6.829c0.948-0.486,1.982-0.743,3.042-0.743
				c4.061,0,7.365,3.724,7.365,8.301c0,0.043-0.004,0.121-0.007,0.163C50.754,205.68,50.086,206.257,49.257,206.257z M3.071,203.257
				h44.543c-0.502-2.204-2.203-3.87-4.218-3.87c-1.312,0-2.258,0.693-2.82,1.274c-0.391,0.404-0.976,0.552-1.514,0.393
				c-0.538-0.164-0.94-0.614-1.04-1.168c-0.691-3.815-3.564-6.585-6.833-6.585c-1.438,0-2.824,0.528-4.01,1.527
				c-0.333,0.281-0.77,0.399-1.199,0.336c-0.429-0.067-0.808-0.317-1.039-0.686c-1.567-2.501-3.955-3.935-6.551-3.935
				c-3.6,0-6.824,2.876-7.839,6.993c-0.096,0.389-0.343,0.723-0.687,0.928c-0.344,0.206-0.755,0.266-1.142,0.166
				c-0.341-0.088-0.66-0.13-0.976-0.13C5.408,198.501,3.459,200.559,3.071,203.257z" style="fill:#CCCCDE;"></path>
		</g>
		<g>
			<rect height="38.145" width="23.24" style="fill:#FFDEDE;" y="166.613" x="61.471"></rect>
			<path d="M84.711,206.258h-23.24c-0.829,0-1.5-0.672-1.5-1.5v-38.145c0-0.828,0.671-1.5,1.5-1.5h23.24
				c0.829,0,1.5,0.672,1.5,1.5v38.145C86.211,205.586,85.54,206.258,84.711,206.258z M62.971,203.258h20.24v-35.145h-20.24V203.258z" style="fill:#CCCCDE;"></path>
		</g>
		<path d="M98.442,161.007H9.331c-0.829,0-1.5-0.672-1.5-1.5s0.671-1.5,1.5-1.5h89.11
			c0.829,0,1.5,0.672,1.5,1.5S99.27,161.007,98.442,161.007z" style="fill:#CCCCDE;"></path>
		<g>
			<g>
				<rect height="18.535" width="16.274" style="fill:#D4EAFF;" y="133.689" x="17.744"></rect>
				<path d="M34.019,153.725H17.744c-0.829,0-1.5-0.672-1.5-1.5v-18.535c0-0.828,0.671-1.5,1.5-1.5h16.274
					c0.829,0,1.5,0.672,1.5,1.5v18.535C35.519,153.053,34.847,153.725,34.019,153.725z M19.244,150.725h13.274v-15.535H19.244
					V150.725z" style="fill:#CCCCDE;"></path>
			</g>
			<path d="M34.021,144.457H17.744c-0.829,0-1.5-0.672-1.5-1.5s0.671-1.5,1.5-1.5h16.276
				c0.829,0,1.5,0.672,1.5,1.5S34.849,144.457,34.021,144.457z" style="fill:#CCCCDE;"></path>
		</g>
		<g>
			<g>
				<rect height="18.535" width="16.277" style="fill:#D4EAFF;" y="133.689" x="73.422"></rect>
				<path d="M89.699,153.725H73.422c-0.829,0-1.5-0.672-1.5-1.5v-18.535c0-0.828,0.671-1.5,1.5-1.5h16.277
					c0.829,0,1.5,0.672,1.5,1.5v18.535C91.199,153.053,90.528,153.725,89.699,153.725z M74.922,150.725h13.277v-15.535H74.922
					V150.725z" style="fill:#CCCCDE;"></path>
			</g>
			<path d="M89.699,144.457H73.422c-0.829,0-1.5-0.672-1.5-1.5s0.671-1.5,1.5-1.5h16.277
				c0.829,0,1.5,0.672,1.5,1.5S90.528,144.457,89.699,144.457z" style="fill:#CCCCDE;"></path>
		</g>
		<g>
			<g>
				<rect height="18.535" width="16.274" style="fill:#D4EAFF;" y="133.689" x="45.664"></rect>
				<path d="M61.939,153.725H45.664c-0.829,0-1.5-0.672-1.5-1.5v-18.535c0-0.828,0.671-1.5,1.5-1.5h16.274
					c0.829,0,1.5,0.672,1.5,1.5v18.535C63.439,153.053,62.767,153.725,61.939,153.725z M47.164,150.725h13.274v-15.535H47.164
					V150.725z" style="fill:#CCCCDE;"></path>
			</g>
			<path d="M61.941,144.457H45.664c-0.829,0-1.5-0.672-1.5-1.5s0.671-1.5,1.5-1.5h16.276
				c0.829,0,1.5,0.672,1.5,1.5S62.769,144.457,61.941,144.457z" style="fill:#CCCCDE;"></path>
		</g>
		<path d="M32.906,188.074c-0.829,0-1.5-0.672-1.5-1.5v-19.961c0-0.828,0.671-1.5,1.5-1.5s1.5,0.672,1.5,1.5
			v19.961C34.406,187.402,33.735,188.074,32.906,188.074z" style="fill:#CCCCDE;"></path>
		<g>
			<rect height="4.355" width="29.531" style="fill:#F0F0FF;" y="200.4" x="58.325"></rect>
			<path d="M87.857,206.256H58.325c-0.829,0-1.5-0.672-1.5-1.5V200.4c0-0.828,0.671-1.5,1.5-1.5h29.531
				c0.829,0,1.5,0.672,1.5,1.5v4.355C89.357,205.584,88.685,206.256,87.857,206.256z M59.825,203.256h26.531V201.9H59.825V203.256z" style="fill:#CCCCDE;"></path>
		</g>
		<g>
			<path d="M111.875,204.757c0-0.017,0.003-0.03,0.003-0.047c0-2.513-1.756-4.549-3.924-4.549
				c-1.002,0-1.916,0.44-2.609,1.157c-0.539-2.985-2.82-5.229-5.556-5.229c-1.244,0-2.395,0.472-3.328,1.259
				c-1.176-1.878-3.079-3.103-5.231-3.103c-2.955,0-5.44,2.301-6.217,5.438c-0.291-0.074-0.592-0.115-0.901-0.115
				c-2.308,0-4.177,2.168-4.177,4.846c0,0.113,0.007,0.229,0.018,0.342L111.875,204.757L111.875,204.757z" style="fill:#CCE8D6;"></path>
			<path d="M111.875,206.257L111.875,206.257l-31.923-0.001c-0.773,0-1.42-0.588-1.493-1.358
				c-0.015-0.16-0.024-0.323-0.024-0.483c0-3.441,2.464-6.252,5.523-6.344c1.268-3.191,4.11-5.325,7.272-5.325
				c2.098,0,4.098,0.941,5.575,2.576c0.93-0.482,1.941-0.732,2.985-0.732c2.736,0,5.187,1.763,6.391,4.404
				c0.565-0.219,1.164-0.332,1.774-0.332c2.991,0,5.424,2.714,5.424,6.049c0,0.036-0.002,0.084-0.005,0.127
				c-0.02,0.368-0.175,0.718-0.438,0.98C112.655,206.099,112.273,206.257,111.875,206.257z M81.6,203.256l28.484,0.001
				c-0.411-0.95-1.212-1.596-2.13-1.596c-0.706,0-1.222,0.381-1.531,0.7c-0.392,0.404-0.977,0.553-1.514,0.393
				c-0.539-0.164-0.94-0.615-1.04-1.169c-0.418-2.315-2.134-3.996-4.08-3.996c-0.842,0-1.659,0.313-2.361,0.905
				c-0.333,0.28-0.768,0.403-1.199,0.335c-0.429-0.066-0.808-0.317-1.039-0.686c-0.954-1.524-2.397-2.398-3.96-2.398
				c-2.177,0-4.134,1.768-4.761,4.299c-0.096,0.388-0.343,0.722-0.686,0.927c-0.343,0.206-0.754,0.267-1.141,0.166
				C83.277,200.795,82.035,201.788,81.6,203.256z" style="fill:#CCCCDE;"></path>
		</g>
		<path d="M65.345,187.375c-0.829,0-1.5-0.672-1.5-1.5v-4.84c0-0.828,0.671-1.5,1.5-1.5s1.5,0.672,1.5,1.5
			v4.84C66.845,186.703,66.174,187.375,65.345,187.375z" style="fill:#CCCCDE;"></path>
	</g>
</g>
<g id="Layer_2_1_">
	<path d="M90.005,239.639H65.422c-0.829,0-1.5-0.672-1.5-1.5
		s0.671-1.5,1.5-1.5h24.583c0.829,0,1.5,0.672,1.5,1.5S90.834,239.639,90.005,239.639z" style="opacity:0.45;fill:#D8D8F5;enable-background:new    ;"></path>
	<path d="M58.49,239.639h-8c-0.829,0-1.5-0.672-1.5-1.5
		s0.671-1.5,1.5-1.5h8c0.829,0,1.5,0.672,1.5,1.5S59.319,239.639,58.49,239.639z" style="opacity:0.45;fill:#D8D8F5;enable-background:new    ;"></path>
	<path d="M190.49,239.639h-27.5c-0.828,0-1.5-0.672-1.5-1.5
		s0.672-1.5,1.5-1.5h27.5c0.828,0,1.5,0.672,1.5,1.5S191.319,239.639,190.49,239.639z" style="opacity:0.45;fill:#D8D8F5;enable-background:new    ;"></path>
	<path d="M208.49,239.639h-10.5c-0.828,0-1.5-0.672-1.5-1.5
		s0.672-1.5,1.5-1.5h10.5c0.828,0,1.5,0.672,1.5,1.5S209.319,239.639,208.49,239.639z" style="opacity:0.45;fill:#D8D8F5;enable-background:new    ;"></path>
	<g>
		<path d="M173.857,224.466c0,7.808-6.389,14.198-14.196,14.198H96.73c-7.808,0-14.196-6.391-14.196-14.198
			v-137c0-7.809,6.389-14.197,14.196-14.197h62.932c7.808,0,14.196,6.389,14.196,14.197L173.857,224.466L173.857,224.466
			L173.857,224.466z" style="fill:#F0F0FF;"></path>
		<path d="M173.857,224.466c0,7.808-6.389,14.198-14.196,14.198H96.73c-7.808,0-14.196-6.391-14.196-14.198
			v-137c0-7.809,6.389-14.197,14.196-14.197h62.932c7.808,0,14.196,6.389,14.196,14.197L173.857,224.466L173.857,224.466
			L173.857,224.466z" style="fill:#FFFFFF;"></path>
		<rect height="127.854" width="91.325" style="fill:#BDDCFF;" y="91.349" x="82.533"></rect>
		<polygon points="86.761,219.203 173.859,132.104 173.859,161.439 
			116.094,219.203" style="opacity:0.49;fill:#DEEFFF;enable-background:new    ;"></polygon>
		<polygon points="173.859,161.439 116.094,219.203 173.859,219.203" style="opacity:0.4;fill:#FFFFFF;enable-background:new    ;"></polygon>
		<path d="M159.66,240.164H96.73c-11.149,0-15.696-4.548-15.696-15.698v-137
			c0-11.149,4.547-15.697,15.696-15.697h62.932c11.148,0,15.696,4.548,15.696,15.697v137
			C175.357,235.616,170.809,240.164,159.66,240.164z M96.73,74.769c-9.493,0-12.696,3.204-12.696,12.697v137
			c0,9.494,3.204,12.698,12.696,12.698h62.931c9.492,0,12.696-3.204,12.696-12.698l0.001-137c0-9.493-3.204-12.697-12.696-12.697
			H96.73z" style="fill:#6E6E96;"></path>
		<rect height="3" width="91.325" style="fill:#6E6E96;" y="88.728" x="82.533"></rect>
		<rect height="3" width="91.325" style="fill:#6E6E96;" y="217.703" x="82.533"></rect>
		<path d="M134.362,83.408H122.03c-0.829,0-1.5-0.671-1.5-1.5s0.671-1.5,1.5-1.5h12.332
			c0.828,0,1.5,0.671,1.5,1.5S135.19,83.408,134.362,83.408z" style="fill:#6E6E96;"></path>
		<path d="M128.196,235.514c-3.529,0-6.4-2.871-6.4-6.4s2.871-6.401,6.4-6.401s6.401,2.872,6.401,6.401
			S131.725,235.514,128.196,235.514z M128.196,225.712c-1.875,0-3.4,1.525-3.4,3.401c0,1.875,1.525,3.4,3.4,3.4
			c1.876,0,3.401-1.525,3.401-3.4C131.597,227.237,130.072,225.712,128.196,225.712z" style="fill:#6E6E96;"></path>
		<circle r="1.897" cy="81.907" cx="163.921" style="fill:#6E6E96;"></circle>
		<circle r="1.897" cy="81.907" cx="156.964" style="fill:#6E6E96;"></circle>
		<polygon points="173.859,90.228 82.533,90.228 82.533,219.203 
			86.761,219.203 86.761,94.557 173.859,94.557" style="opacity:0.15;fill:#6E6E96;enable-background:new    ;"></polygon>
		<rect height="3.711" width="91.325" style="opacity:0.15;fill:#6E6E96;enable-background:new    ;" y="86.517" x="82.533"></rect>
		<path d="M160.291,235.502h-62.93
			c-7.808,0-14.196-3.859-14.196-14.199v3.479c0,12.868,6.389,14.198,14.196,14.198h62.93c7.809,0,14.196-3.86,14.196-14.198h0.003
			v-3.479h-0.003C174.49,229.111,168.1,235.502,160.291,235.502z" style="opacity:0.15;fill:#6E6E96;enable-background:new    ;"></path>
	</g>
</g>
<g id="Layer_3_1_">
	<g>
		<g>
			<path d="M181.703,200.354c16.128,0,29.199-12.841,29.199-28.679c0-15.839-13.071-28.679-29.199-28.679
				c-16.126,0-29.2,12.84-29.2,28.679l0.517,5.399c3.822,16.143-6.59,23.277-6.59,23.277h35.273" style="fill:#FFEF9C;"></path>
			<path d="M181.703,201.854c-0.026,0-0.052-0.001-0.077-0.002H146.43c-0.657,0-1.238-0.428-1.433-1.057
				c-0.194-0.628,0.042-1.31,0.585-1.681c0.385-0.269,9.5-6.818,5.978-21.694c-0.016-0.066-0.026-0.135-0.033-0.203l-0.517-5.399
				c-0.005-0.047-0.007-0.095-0.007-0.143c0-16.641,13.772-30.179,30.7-30.179s30.699,13.538,30.699,30.179
				S198.631,201.854,181.703,201.854z M150.172,198.852h31.531c0.025,0,0.05,0.001,0.075,0.002
				c15.239-0.04,27.624-12.217,27.624-27.179c0-14.986-12.426-27.179-27.699-27.179c-15.25,0-27.661,12.154-27.7,27.108l0.5,5.226
				C157.152,188.156,153.198,195.29,150.172,198.852z" style="fill:#6E6E96;"></path>
		</g>
		<g>
			<path d="M197.622,175.834c-3.374,6.434-9.088,10.665-15.569,10.665c-6.408,0-12.067-4.136-15.455-10.446
				L197.622,175.834z" style="fill:#FFF4DF;"></path>
			<path d="M182.053,187.999c-6.728,0-12.999-4.2-16.776-11.236c-0.249-0.464-0.237-1.023,0.031-1.476
				s0.754-0.73,1.279-0.734l31.024-0.219c0.004,0,0.007,0,0.011,0c0.522,0,1.009,0.272,1.281,0.72
				c0.273,0.449,0.292,1.011,0.047,1.477C195.185,183.712,188.867,187.999,182.053,187.999z M169.256,177.534
				c3.262,4.717,7.907,7.465,12.797,7.465c4.963,0,9.654-2.815,12.92-7.646L169.256,177.534z" style="fill:#6E6E96;"></path>
		</g>
		<g>
			<rect height="6.355" width="4.334" style="fill:#6E6E96;" y="160.787" x="172.951"></rect>
		</g>
		<g>
			<rect height="6.355" width="4.332" style="fill:#6E6E96;" y="160.787" x="187.398"></rect>
		</g>
		<path d="M183.084,142.156c-8.686,0-16.48,3.728-21.829,9.641
			c5.305-4.954,12.571-8.036,20.152-8.036c14.864,0,26.916,11.835,26.916,26.436s-12.052,26.435-26.916,26.435H150.72
			c-1.554,1.948-2.91,2.883-2.91,2.883h35.273c16.128,0,29.201-12.84,29.201-28.679
			C212.285,154.994,199.212,142.156,183.084,142.156z" style="opacity:0.15;fill:#6E6E96;enable-background:new    ;"></path>
	</g>
	<g>
		<g>
			<path d="M100.207,161.914v-21.477v-31.391c0-3.786-3.099-6.884-6.884-6.884H52.297
				c-3.787,0-6.884,3.098-6.884,6.884v31.391c0,3.787,3.098,6.884,6.884,6.884h26.158L100.207,161.914z" style="fill:#FFFFFF;"></path>
			<path d="M100.207,163.414c-0.292,0-0.584-0.085-0.835-0.254l-21.373-14.339H52.297
				c-4.623,0-8.384-3.761-8.384-8.384v-31.391c0-4.623,3.761-8.384,8.384-8.384h41.026c4.623,0,8.384,3.761,8.384,8.384v52.867
				c0,0.554-0.305,1.062-0.794,1.323C100.692,163.355,100.449,163.414,100.207,163.414z M52.297,103.663
				c-2.969,0-5.384,2.415-5.384,5.384v31.391c0,2.969,2.415,5.384,5.384,5.384h26.158c0.298,0,0.588,0.089,0.835,0.254
				l19.417,13.026v-50.055c0-2.969-2.415-5.384-5.384-5.384H52.297z" style="fill:#6E6E96;"></path>
		</g>
		<path d="M45.688,109.875v31.389c0,3.786,3.099,6.885,6.884,6.885
			H78.73l21.752,14.594v-52.867c0-3.787-3.098-6.884-6.884-6.884H52.572C48.785,102.99,45.688,106.088,45.688,109.875z
			 M49.267,135.816v-26.471c0-3.193,2.88-5.805,6.401-5.805h38.146c3.521,0,6.4,2.612,6.4,5.805v44.583L79.99,141.623H55.668
			C52.148,141.623,49.267,139.011,49.267,135.816L49.267,135.816z" style="opacity:0.15;fill:#6E6E96;enable-background:new    ;"></path>
	</g>
	<path d="M80.49,115.123h-21.5c-0.829,0-1.5-0.671-1.5-1.5
		s0.671-1.5,1.5-1.5h21.5c0.829,0,1.5,0.671,1.5,1.5S81.319,115.123,80.49,115.123z" style="opacity:0.29;fill:#6E6E96;enable-background:new    ;"></path>
	<path d="M69.99,121.623h-11c-0.829,0-1.5-0.671-1.5-1.5
		s0.671-1.5,1.5-1.5h11c0.829,0,1.5,0.671,1.5,1.5S70.819,121.623,69.99,121.623z" style="opacity:0.29;fill:#6E6E96;enable-background:new    ;"></path>
	<path d="M77.24,128.623H58.99c-0.829,0-1.5-0.672-1.5-1.5
		s0.671-1.5,1.5-1.5h18.25c0.829,0,1.5,0.672,1.5,1.5S78.069,128.623,77.24,128.623z" style="opacity:0.29;fill:#6E6E96;enable-background:new    ;"></path>
</g>
</svg>
