<svg xml:space="preserve" style="enable-background:new 0 0 249.461 258.328;" viewBox="0 0 249.461 258.328" height="258.328px" width="249.461px" y="0px" x="0px" xmlns:xlink="http://www.w3.org/1999/xlink" xmlns="http://www.w3.org/2000/svg" id="Layer_1" version="1.1">
<g id="Layer_2">
	<path d="M126.514,181.268c-28.397,0-51.5-23.103-51.5-51.5
		c0-28.397,23.103-51.5,51.5-51.5c28.397,0,51.5,23.103,51.5,51.5C178.014,158.165,154.912,181.268,126.514,181.268z
		 M126.514,80.268c-27.294,0-49.5,22.206-49.5,49.5s22.206,49.5,49.5,49.5c27.294,0,49.5-22.206,49.5-49.5
		S153.808,80.268,126.514,80.268z" style="opacity:0.42;fill:#6E6E96;enable-background:new    ;"></path>
	<path d="M126.514,197.348c-37.264,0-67.58-30.316-67.58-67.58
		s30.316-67.58,67.58-67.58s67.58,30.316,67.58,67.58S163.778,197.348,126.514,197.348z M126.514,63.188
		c-36.712,0-66.58,29.868-66.58,66.58s29.868,66.58,66.58,66.58c36.712,0,66.58-29.868,66.58-66.58S163.226,63.188,126.514,63.188z" style="opacity:0.47;fill:#6E6E96;enable-background:new    ;"></path>
	<path d="M126.514,221.386c-50.519,0-91.619-41.1-91.619-91.618
		c0-50.519,41.1-91.62,91.619-91.62c50.519,0,91.619,41.101,91.619,91.62C218.133,180.286,177.033,221.386,126.514,221.386z
		 M126.514,39.148c-49.968,0-90.619,40.652-90.619,90.62c0,49.967,40.651,90.618,90.619,90.618s90.619-40.651,90.619-90.618
		C217.133,79.8,176.482,39.148,126.514,39.148z" style="opacity:0.25;fill:#6E6E96;enable-background:new    ;"></path>
	<path d="M126.514,251.386c-67.794,0-122.948-55.154-122.948-122.948
		S58.72,5.49,126.514,5.49c67.793,0,122.947,55.154,122.947,122.948S194.307,251.386,126.514,251.386z M126.514,6.49
		C59.271,6.49,4.566,61.196,4.566,128.438c0,67.243,54.706,121.948,121.948,121.948c67.242,0,121.947-54.705,121.947-121.948
		C248.461,61.196,193.756,6.49,126.514,6.49z" style="opacity:0.1;fill:#6E6E96;enable-background:new    ;"></path>
	<g>
		<polygon points="126.514,111 116.459,130 126.514,130 126.514,145.5 138.959,124 126.514,124" style="fill:#B6B6D4;"></polygon>
		<path d="M126.514,147c-0.129,0-0.26-0.017-0.389-0.052c-0.655-0.176-1.111-0.77-1.111-1.448v-14h-8.555
			c-0.526,0-1.014-0.275-1.285-0.727c-0.271-0.45-0.287-1.01-0.041-1.475l10.055-19c0.323-0.609,1.021-0.919,1.687-0.754
			c0.669,0.166,1.139,0.767,1.139,1.456v11.5h10.945c0.536,0,1.031,0.286,1.3,0.75c0.268,0.465,0.267,1.037-0.002,1.501
			l-12.445,21.5C127.54,146.723,127.04,147,126.514,147z M118.95,128.5h7.564c0.828,0,1.5,0.671,1.5,1.5v9.914l8.344-14.414h-9.844
			c-0.828,0-1.5-0.671-1.5-1.5v-6.959L118.95,128.5z" style="fill:#6E6E96;"></path>
	</g>
	<g style="opacity:0.17;">
		<path d="M240.651,123.587c0.725-2.219,2.993-4.942,5.045-6.057l0.01-0.004c2.055-1.113,2.055-2.932,0-4.043
			l-0.01-0.006c-2.052-1.111-4.438-3.617-5.3-5.566c-0.862-1.951-2.274-1.951-3.14,0c-0.862,1.951-3.248,4.455-5.305,5.566
			l-0.011,0.006c-2.055,1.111-2.055,2.93,0,4.043l0.011,0.004c2.057,1.112,4.32,3.838,5.045,6.057l0.516,1.568
			c0.724,2.22,1.898,2.22,2.627,0L240.651,123.587z" style="fill:#6E6E96;"></path>
	</g>
	<g style="opacity:0.52;">
		<path d="M27.47,64.037c0.677-2.079,2.803-4.632,4.728-5.673l0.008-0.004c1.922-1.042,1.922-2.746,0-3.787
			l-0.008-0.005c-1.922-1.042-4.157-3.388-4.966-5.215c-0.808-1.826-2.131-1.826-2.937,0c-0.81,1.828-3.046,4.173-4.966,5.215
			l-0.01,0.005c-1.92,1.041-1.92,2.745,0,3.787l0.01,0.004c1.92,1.041,4.05,3.595,4.729,5.673l0.478,1.471
			c0.679,2.078,1.784,2.078,2.461,0L27.47,64.037z" style="fill:#6E6E96;"></path>
	</g>
	<g style="opacity:0.17;">
		<path d="M13.705,199.259c0.615-1.889,2.546-4.207,4.292-5.151l0.009-0.004c1.744-0.944,1.744-2.494,0-3.438
			l-0.009-0.006c-1.746-0.941-3.773-3.076-4.508-4.733c-0.733-1.658-1.936-1.658-2.67,0c-0.731,1.657-2.763,3.792-4.509,4.733
			l-0.007,0.006c-1.746,0.942-1.746,2.492,0,3.438l0.007,0.004c1.746,0.944,3.677,3.268,4.292,5.151l0.435,1.334
			c0.615,1.89,1.621,1.89,2.235,0L13.705,199.259z" style="fill:#6E6E96;"></path>
	</g>
	<g style="opacity:0.52;" id="Layer_7_1_">
		<path d="M227.095,219.932c0.635-1.947,2.626-4.34,4.428-5.315l0.009-0.003c1.803-0.979,1.803-2.574,0-3.547
			l-0.009-0.008c-1.802-0.977-3.894-3.174-4.649-4.886c-0.758-1.709-2-1.709-2.76,0c-0.754,1.712-2.85,3.909-4.648,4.886
			l-0.01,0.008c-1.803,0.973-1.803,2.568,0,3.547l0.01,0.003c1.802,0.979,3.793,3.372,4.428,5.315l0.451,1.375
			c0.632,1.948,1.674,1.948,2.304,0L227.095,219.932z" style="fill:#6E6E96;"></path>
	</g>
	<g style="opacity:0.3;">
		<path d="M200.438,33.537c0.465-1.429,1.926-3.184,3.248-3.896l0.006-0.003c1.32-0.718,1.32-1.89,0-2.604
			l-0.006-0.003c-1.32-0.717-2.855-2.328-3.412-3.584c-0.555-1.255-1.465-1.255-2.02,0c-0.557,1.256-2.092,2.867-3.41,3.584
			l-0.008,0.003c-1.318,0.715-1.318,1.886,0,2.604l0.008,0.003c1.318,0.715,2.779,2.47,3.248,3.896l0.328,1.009
			c0.467,1.432,1.227,1.432,1.689,0L200.438,33.537z" style="fill:#6E6E96;"></path>
	</g>
	<g style="opacity:0.13;">
		<path d="M64.56,242.9c0.465-1.428,1.926-3.186,3.248-3.897L67.813,239c1.32-0.716,1.32-1.888,0-2.604
			l-0.006-0.002c-1.32-0.72-2.854-2.328-3.412-3.584c-0.555-1.256-1.465-1.256-2.019,0c-0.557,1.256-2.091,2.864-3.411,3.584
			l-0.007,0.002c-1.319,0.716-1.319,1.887,0,2.604l0.007,0.003c1.32,0.715,2.781,2.472,3.248,3.897l0.329,1.01
			c0.466,1.43,1.226,1.43,1.689,0L64.56,242.9z" style="fill:#6E6E96;"></path>
	</g>
</g>
<g id="Layer_1_1_">
	<g id="Layer_2_5_">
		<path d="M93.994,255.18v-91.123c0-5.521,4.519-10.041,10.042-10.041h44.511
			c5.521,0,10.039,4.521,10.039,10.041v91.123l0,0l0,0" style="fill:#F0F0FF;"></path>
		<path d="M93.994,255.18v-91.123c0-5.521,4.519-10.041,10.042-10.041h44.511
			c5.521,0,10.039,4.521,10.039,10.041v91.123l0,0l0,0" style="fill:#FFFFFF;"></path>
		<rect height="90.428" width="64.593" style="fill:#BDDCFF;" y="166.807" x="93.993"></rect>
		<polygon points="96.982,257.232 158.586,195.633 158.586,216.38 
			117.73,257.232" style="opacity:0.49;fill:#DEEFFF;enable-background:new    ;"></polygon>
		<polygon points="158.586,216.38 117.73,257.232 158.586,257.232" style="opacity:0.4;fill:#FFFFFF;enable-background:new    ;"></polygon>
		<rect height="3" width="64.593" style="fill:#6E6E96;" y="164.516" x="93.993"></rect>
		<path d="M130.65,161.127h-8.721c-0.552,0-1-0.447-1-1s0.448-1,1-1h8.721c0.553,0,1,0.447,1,1
			S131.203,161.127,130.65,161.127z" style="fill:#6E6E96;"></path>
		<path d="M126.29,255" style="fill:none;stroke:#6E6E96;stroke-width:2;stroke-linecap:round;"></path>
		<polygon points="158.586,166.016 93.993,166.016 93.993,257.232 
			96.982,257.232 96.982,169.073 158.586,169.073" style="opacity:0.15;fill:#6E6E96;enable-background:new    ;"></polygon>
		<rect height="2.63" width="64.593" style="opacity:0.15;fill:#6E6E96;enable-background:new    ;" y="161.96" x="93.993"></rect>
		<path d="M159.034,258.328h0.002v-2.46h-0.002" style="opacity:0.15;fill:#6E6E96;enable-background:new    ;"></path>
		<path d="M94.44,255.868v2.46" style="opacity:0.15;fill:#6E6E96;enable-background:new    ;"></path>
		<polygon points="94.669,188.579 110.105,170.119 137.788,170.119 
			95.086,215.843" style="opacity:0.17;fill:#FFFFFF;enable-background:new    ;"></polygon>
		<path d="M160.086,256.18h-3v-92.123c0-6.466-2.075-8.541-8.539-8.541h-44.511
			c-6.466,0-8.542,2.075-8.542,8.541v92.123h-3v-92.123c0-8.09,3.452-11.541,11.542-11.541h44.511
			c8.088,0,11.539,3.451,11.539,11.541V256.18z" style="fill:#6E6E96;"></path>
	</g>
	<g style="display:none;" id="Layer_11_2_">
		<g style="display:inline;">
			<path d="M222.14,47.97c0.698-2.14,2.886-4.77,4.864-5.842l0.009-0.005c1.979-1.072,1.979-2.827,0-3.899
				l-0.009-0.004c-1.979-1.073-4.278-3.488-5.111-5.37c-0.832-1.88-2.193-1.88-3.029,0c-0.83,1.882-3.131,4.299-5.113,5.37
				l-0.012,0.004c-1.982,1.073-1.982,2.828,0,3.899l0.012,0.005c1.982,1.072,4.166,3.702,4.865,5.842l0.497,1.51
				c0.698,2.142,1.83,2.142,2.533,0L222.14,47.97z" style="fill:#7FE5FF;"></path>
		</g>
		<g style="display:inline;">
			<path d="M67.973,31.713c0.492-1.512,2.039-3.369,3.438-4.126l0.006-0.002c1.398-0.757,1.398-1.999,0-2.755
				l-0.006-0.002c-1.397-0.758-3.023-2.464-3.612-3.794c-0.587-1.328-1.549-1.328-2.136,0c-0.587,1.33-2.214,3.036-3.611,3.795
				l-0.007,0.002c-1.398,0.757-1.398,1.997,0,2.754l0.007,0.004c1.396,0.757,2.944,2.614,3.438,4.126l0.348,1.068
				c0.492,1.513,1.298,1.513,1.79,0L67.973,31.713z" style="fill:#FFB0B8;"></path>
		</g>
		<g style="display:inline;">
			<path d="M8.402,96.902c0.592-1.821,2.455-4.058,4.139-4.967l0.007-0.005c1.684-0.91,1.684-2.404,0-3.316
				l-0.007-0.005C10.857,87.7,8.9,85.643,8.193,84.044c-0.708-1.601-1.867-1.601-2.575,0c-0.707,1.599-2.665,3.656-4.349,4.565
				l-0.007,0.005c-1.684,0.91-1.684,2.404,0,3.316l0.007,0.005c1.684,0.91,3.546,3.151,4.139,4.967l0.419,1.287
				c0.593,1.823,1.563,1.823,2.156,0L8.402,96.902z" style="fill:#9ADFC0;"></path>
		</g>
	</g>
	<g style="display:none;">
		<path d="M130.562,236.034c0.651-2.005,2.704-4.468,4.56-5.472l0.008-0.004
			c1.854-1.002,1.854-2.647,0-3.65l-0.008-0.004c-1.853-1.006-4.009-3.268-4.789-5.029c-0.777-1.761-2.055-1.761-2.832,0
			c-0.776,1.763-2.934,4.023-4.786,5.031l-0.009,0.004c-1.853,1.003-1.853,2.646,0,3.648l0.009,0.006
			c1.852,1.004,3.903,3.466,4.557,5.472l0.462,1.414c0.651,2.008,1.722,2.008,2.373,0L130.562,236.034z" style="display:inline;fill:#FFBF00;"></path>
	</g>
	<g id="Layer_2_1_">
		<path d="M159.034,3.148v91.123c0,5.521-4.519,10.041-10.041,10.041h-44.512
			c-5.522,0-10.04-4.521-10.04-10.041l0.001-91.123l0,0l0,0" style="fill:#F0F0FF;"></path>
		<path d="M159.034,3.148v91.123c0,5.521-4.519,10.041-10.041,10.041h-44.512
			c-5.522,0-10.04-4.521-10.04-10.041l0.001-91.123l0,0l0,0" style="fill:#FFFFFF;"></path>
		<rect height="90.428" width="64.594" style="fill:#BDDCFF;" y="1.095" x="94.442"></rect>
		<polygon points="156.045,1.095 94.442,62.695 94.442,41.948 
			135.299,1.095" style="opacity:0.49;fill:#DEEFFF;enable-background:new    ;"></polygon>
		<polygon points="94.442,41.948 135.299,1.095 94.442,1.095" style="opacity:0.4;fill:#FFFFFF;enable-background:new    ;"></polygon>
		<rect height="3" width="64.594" style="fill:#6E6E96;" y="90.813" x="94.442"></rect>
		<path d="M131.1,99.201h-8.722c-0.552,0-1-0.448-1-1s0.448-1,1-1h8.722c0.553,0,1,0.448,1,1
			S131.653,99.201,131.1,99.201z" style="fill:#6E6E96;"></path>
		<path d="M126.738,3.328" style="fill:none;stroke:#6E6E96;stroke-width:2;stroke-linecap:round;"></path>
		<polygon points="94.442,92.313 159.036,92.313 159.036,1.095 
			156.045,1.095 156.045,89.255 94.442,89.255" style="opacity:0.15;fill:#6E6E96;enable-background:new    ;"></polygon>
		<rect height="2.63" width="64.594" style="opacity:0.15;fill:#6E6E96;enable-background:new    ;" y="93.738" x="94.442"></rect>
		<path d="M93.995,0h-0.002v2.46h0.002" style="opacity:0.15;fill:#6E6E96;enable-background:new    ;"></path>
		<path d="M158.588,2.46V0" style="opacity:0.15;fill:#6E6E96;enable-background:new    ;"></path>
		<polygon points="158.359,69.749 142.924,88.209 115.24,88.209 
			157.942,42.485" style="opacity:0.17;fill:#FFFFFF;enable-background:new    ;"></polygon>
		<path d="M148.993,105.812h-44.512c-8.089,0-11.54-3.452-11.54-11.541l0.001-93.123h3l-0.001,93.123
			c0,6.466,2.075,8.541,8.54,8.541h44.512c6.466,0,8.541-2.075,8.541-8.541V1.148h3v93.123
			C160.534,102.36,157.083,105.812,148.993,105.812z" style="fill:#6E6E96;"></path>
	</g>
</g>
<g id="Layer_3">
</g>
<g id="Layer_3_copy">
</g>
</svg>
