<svg xml:space="preserve" style="enable-background:new 0 0 256.5 253.117;" viewBox="0 0 256.5 253.117" height="253.117px" width="256.5px" y="0px" x="0px" xmlns:xlink="http://www.w3.org/1999/xlink" xmlns="http://www.w3.org/2000/svg" id="Layer_1" version="1.1">
<g style="opacity:0.67;enable-background:new    ;">
	<path d="M253.479,114.938c0-42.077-33.074-76.185-73.871-76.185c-0.635,0-1.262,0.03-1.893,0.048
		C164.834,16.48,141.217,1.515,114.201,1.515c-40.798,0-73.871,34.111-73.871,76.188c0,0.546,0.029,1.084,0.04,1.629
		C18.056,92.439,3,117.175,3,145.555c0,42.075,33.073,76.183,73.872,76.183c2.32,0,4.612-0.123,6.878-0.339
		c13.551,16.933,34.051,27.723,56.998,27.723c37.711,0,68.793-29.146,73.289-66.779
		C237.488,169.572,253.479,144.188,253.479,114.938z" style="fill:#A196B3;"></path>
</g>
<path d="M26.989,201.736c13.143,12.416,30.652,19.998,49.883,19.998c2.32,0,4.612-0.123,6.878-0.336
	c13.551,16.929,34.051,27.719,56.998,27.719c30.912,0,57.359-19.592,68.37-47.381H26.989z" style="fill:#D6F0FF;"></path>
<g style="opacity:0.37;enable-background:new    ;">
	<polygon points="176.625,101.931 160.416,131.979 124.895,76.944 92.862,136.328 76.699,111.287 
		29.233,199.288 207.613,199.288 221.59,171.598" style="fill:#B6B6CF;"></polygon>
	<path d="M207.613,200.788H29.233c-0.528,0-1.018-0.277-1.288-0.731c-0.271-0.453-0.283-1.016-0.032-1.48
		l47.466-88.001c0.252-0.467,0.731-0.766,1.261-0.787c0.546-0.01,1.032,0.24,1.319,0.686l14.787,22.909l30.829-57.151
		c0.252-0.467,0.731-0.766,1.262-0.787c0.528-0.002,1.032,0.24,1.319,0.686l34.146,52.903l15.004-27.814
		c0.252-0.467,0.731-0.766,1.262-0.787c0.522-0.022,1.031,0.24,1.319,0.686l44.965,69.667c0.288,0.447,0.318,1.014,0.078,1.489
		l-13.977,27.69C208.697,200.47,208.18,200.788,207.613,200.788z M31.746,197.788H206.69l13.173-26.099l-43.123-66.813
		l-15.004,27.814c-0.252,0.467-0.731,0.767-1.262,0.787c-0.537,0.022-1.031-0.24-1.319-0.686l-34.145-52.903L94.182,137.04
		c-0.252,0.467-0.731,0.767-1.261,0.787c-0.533,0.031-1.031-0.24-1.319-0.686l-14.787-22.909L31.746,197.788z" style="fill:#6E6E96;"></path>
</g>
<g style="opacity:0.22;enable-background:new    ;">
	<polygon points="124.895,76.944 165.814,176.635 124.639,134.784 144.393,180.719 83.466,188.494 
		114.266,96.647 58.901,199.288 203.311,198.409" style="fill:#6E6E96;"></polygon>
</g>
<g style="opacity:0.22;enable-background:new    ;">
	<polygon points="76.699,111.287 47.311,188.883 89.971,131.85 92.861,136.327 58.901,199.288 
		29.233,199.288" style="fill:#6E6E96;"></polygon>
</g>
<g style="opacity:0.22;enable-background:new    ;">
	<path d="M161.645,133.868l41.666,65.222l4.381,0.023c1.197-2.649,2.248-5.385,3.149-8.189h-0.837
		L161.645,133.868z M176.625,101.931l38.717,73.667c2.15-1.229,4.235-2.562,6.248-4L176.625,101.931z" style="fill:#6E6E96;"></path>
</g>
<g style="opacity:0.61;enable-background:new    ;">
	<rect height="3" width="39.334" style="fill:#FFFFFF;" y="215.333" x="114.333"></rect>
</g>
<g style="opacity:0.48;enable-background:new    ;">
	<rect height="3" width="10" style="fill:#FFFFFF;" y="218" x="194.334"></rect>
</g>
<g style="opacity:0.48;enable-background:new    ;">
	<rect height="3" width="15.334" style="fill:#FFFFFF;" y="221.333" x="78.333"></rect>
</g>
<g style="display:none;" id="Layer_3">
	<g style="display:inline;">
		<path d="M85.16,142.542c0-11.563-10.059-20.936-22.467-20.936
			c-0.194,0-0.385,0.009-0.576,0.014c-3.917-6.134-11.102-10.245-19.318-10.245c-12.409,0-22.469,9.372-22.469,20.936
			c0,0.149,0.009,0.297,0.012,0.446c-6.785,3.603-11.365,10.399-11.365,18.198c0,11.562,10.059,20.934,22.468,20.934
			c0.705,0,1.403-0.033,2.092-0.094c4.122,4.65,10.358,7.617,17.335,7.617c11.471,0,20.925-8.01,22.293-18.35
			C80.297,157.555,85.16,150.579,85.16,142.542z" style="fill:#D7F7E4;stroke:#CCCCDE;stroke-width:3;"></path>
		<path d="M62.314,120.853c-0.193,0-0.384,0.009-0.575,0.014
			c-3.141-4.918-8.383-8.534-14.573-9.775c4.898,1.229,9.023,4.208,11.558,8.175c0.165-0.004,2.416,3.886,2.583,3.886
			c10.648,0,15.601,5.738,15.601,15.66c0,6.896-2.583,11.291-8.704,14.302c-1.173,8.875-9.287,15.748-19.129,15.748
			c-5.99,0-11.34-2.544-14.877-6.53c-0.591,0.05-1.189,0.075-1.794,0.075c-10.649,0-19.013-5.048-19.013-14.968
			c0-6.683,2.99-9.973,8.432-13.938c-0.145-0.855-0.75-8.421,1.267-10.437c4.792-4.793,6.963-8.909,11.25-11.038
			c-8.414,3.025-14.385,10.627-14.385,19.536c0,0.147,0.009,0.3,0.012,0.447c-6.787,3.604-11.366,10.396-11.366,18.195
			c0,11.562,10.059,20.938,22.468,20.938c0.707,0,1.403-0.035,2.093-0.098c4.121,4.648,10.356,7.617,17.336,7.617
			c11.469,0,20.924-8.012,22.291-18.354c7.133-3.507,11.997-10.479,11.997-18.521C84.783,130.227,74.724,120.853,62.314,120.853z" style="opacity:0.1;fill:#6E6E96;enable-background:new    ;"></path>
		<path d="M30.336,153.865c0,0,11.635,2.277,11.635,13.662
			c0,0,3.132,19.342-8.976,33.026h27.96c-0.277-0.39-24.422-32.646,2.449-51.815C47.016,158.107,30.336,153.865,30.336,153.865z" style="fill:#EDE3DA;stroke:#CCCCDE;stroke-width:3;"></path>
		<g>
			<path d="M37.703,131.025" style="fill:#D57E58;"></path>
		</g>
		<path d="M56.43,153.833c0,0-17.654,22.793-4.085,46.722h8.611
			C60.955,200.555,43.04,175.518,56.43,153.833z" style="opacity:0.11;fill:#6E6E96;enable-background:new    ;"></path>
	</g>
	<g style="display:inline;">
		<path d="M255,141.26c0-10.828-9.42-19.604-21.04-19.604
			c-0.183,0-0.36,0.008-0.539,0.013c-3.669-5.744-10.396-9.595-18.091-9.595c-11.62,0-21.041,8.777-21.041,19.604
			c0,0.141,0.009,0.279,0.012,0.418c-6.354,3.375-10.644,9.739-10.644,17.043c0,10.825,9.421,19.604,21.04,19.604
			c0.66,0,1.312-0.032,1.96-0.089c3.858,4.354,9.698,7.134,16.233,7.134c10.735,0,19.596-7.499,20.875-17.185
			C250.445,155.316,255,148.786,255,141.26z" style="fill:#D7F7E4;stroke:#CCCCDE;stroke-width:3;"></path>
		<path d="M233.605,120.949c-0.187,0-0.358,0.008-0.539,0.012
			c-2.94-4.606-7.854-7.992-13.646-9.154c4.586,1.15,8.449,3.94,10.822,7.655c0.154-0.004,2.263,3.639,2.419,3.639
			c9.971,0,14.608,5.374,14.608,14.665c0,6.459-2.42,10.573-8.148,13.396c-1.1,8.311-8.698,14.742-17.914,14.742
			c-5.607,0-10.619-2.381-13.934-6.117c-0.56,0.047-1.112,0.072-1.685,0.072c-9.975,0-17.806-4.729-17.806-14.017
			c0-6.26,2.8-9.342,7.896-13.058c-0.14-0.809-0.701-7.885,1.188-9.772c4.482-4.488,6.521-8.343,10.531-10.337
			c-7.879,2.833-13.471,9.952-13.471,18.292c0,0.14,0.006,0.274,0.012,0.418c-6.354,3.373-10.646,9.735-10.646,17.041
			c0,10.823,9.421,19.604,21.041,19.604c0.661,0,1.313-0.031,1.959-0.09c3.858,4.354,9.699,7.136,16.233,7.136
			c10.74,0,19.595-7.5,20.875-17.188c6.681-3.285,11.231-9.812,11.231-17.342C254.646,129.727,245.227,120.949,233.605,120.949z" style="opacity:0.1;fill:#6E6E96;enable-background:new    ;"></path>
		<path d="M203.66,151.861c0,0,10.896,2.133,10.896,12.797
			c0,0,2.934,18.109-8.406,30.927h26.184c-0.26-0.358-22.87-30.565,2.294-48.521C219.279,155.836,203.66,151.861,203.66,151.861z" style="fill:#EDE3DA;stroke:#CCCCDE;stroke-width:3;"></path>
		<g>
			<path d="M210.561,130.477" style="fill:#D57E58;"></path>
		</g>
		<path d="M228.096,151.833c0,0-16.531,21.345-3.824,43.752h8.063
			C232.333,195.585,215.557,172.139,228.096,151.833z" style="opacity:0.11;fill:#6E6E96;enable-background:new    ;"></path>
	</g>
	<g style="display:inline;">
		<path d="M218.298,143.02c0-16.622-14.461-30.095-32.299-30.095
			c-0.278,0-0.554,0.012-0.828,0.019c-5.632-8.817-15.959-14.729-27.771-14.729c-17.838,0-32.301,13.475-32.301,30.096
			c0,0.215,0.014,0.429,0.018,0.646c-9.755,5.182-16.339,14.945-16.339,26.156c0,16.621,14.462,30.098,32.3,30.098
			c1.014,0,2.018-0.05,3.008-0.139c5.926,6.688,14.889,10.951,24.921,10.951c16.489,0,30.081-11.515,32.048-26.379
			C211.307,164.602,218.298,154.572,218.298,143.02z" style="fill:#D7F7E4;stroke:#CCCCDE;stroke-width:3;"></path>
		<path d="M185.456,111.841c-0.276,0-0.552,0.012-0.827,0.019
			c-4.516-7.071-12.051-12.269-20.949-14.052c7.041,1.766,12.971,6.049,16.614,11.751c0.237-0.006,3.474,5.586,3.713,5.586
			c15.308,0,22.429,8.248,22.429,22.511c0,9.914-3.715,16.231-12.513,20.562c-1.687,12.754-13.353,22.635-27.5,22.635
			c-8.61,0-16.302-3.655-21.387-9.396c-0.851,0.071-1.71,0.114-2.58,0.114c-15.31,0-27.332-7.254-27.332-21.516
			c0-9.604,4.298-14.337,12.12-20.039c-0.209-1.234-1.077-12.104,1.82-15.002c6.89-6.89,10.011-12.808,16.174-15.868
			c-12.096,4.349-20.679,15.277-20.679,28.08c0,0.215,0.011,0.429,0.017,0.646c-9.756,5.178-16.34,14.947-16.34,26.156
			c0,16.621,14.461,30.097,32.3,30.097c1.017,0,2.017-0.049,3.008-0.136c5.925,6.688,14.89,10.949,24.922,10.949
			c16.487,0,30.078-11.518,32.046-26.379c10.254-5.043,17.244-15.07,17.244-26.623C217.756,125.314,203.295,111.841,185.456,111.841
			z" style="opacity:0.1;fill:#6E6E96;enable-background:new    ;"></path>
		<path d="M139.484,159.296c0,0,16.727,3.272,16.727,19.644
			c0,0,4.504,27.809-12.904,47.479h40.195c-0.398-0.556-35.107-46.922,3.521-74.483
			C163.464,165.396,139.484,159.296,139.484,159.296z" style="fill:#EDE3DA;stroke:#CCCCDE;stroke-width:3;"></path>
		<g>
			<path d="M150.077,126.465" style="fill:#D57E58;"></path>
		</g>
		<path d="M176.997,159.251c0,0-25.378,32.767-5.873,67.164h12.378
			C183.502,226.415,157.748,190.423,176.997,159.251z" style="opacity:0.11;fill:#6E6E96;enable-background:new    ;"></path>
	</g>
	<g style="display:inline;">
		<path d="M146.461,144.131c0-13.645-11.873-24.707-26.517-24.707
			c-0.229,0-0.454,0.01-0.68,0.016c-4.624-7.239-13.102-12.092-22.8-12.092c-14.644,0-26.518,11.063-26.518,24.707
			c0,0.178,0.012,0.354,0.015,0.529c-8.01,4.251-13.414,12.271-13.414,21.477c0,13.646,11.872,24.707,26.518,24.707
			c0.832,0,1.655-0.041,2.469-0.104c4.864,5.482,12.224,8.982,20.46,8.982c13.537,0,24.695-9.45,26.309-21.65
			C140.721,161.85,146.461,153.617,146.461,144.131z" style="fill:#D7F7E4;stroke:#CCCCDE;stroke-width:3;"></path>
		<path d="M119.498,118.535c-0.228,0-0.452,0.009-0.679,0.015
			c-3.707-5.805-9.894-10.072-17.199-11.537c5.78,1.45,10.648,4.966,13.641,9.647c0.194-0.005,2.851,4.586,3.048,4.586
			c12.567,0,18.414,6.771,18.414,18.48c0,8.139-3.05,13.325-10.271,16.881c-1.384,10.472-10.961,18.584-22.576,18.584
			c-7.069,0-13.384-3.004-17.559-7.715c-0.698,0.061-1.404,0.096-2.118,0.096c-12.568,0-22.438-5.957-22.438-17.664
			c0-7.885,3.528-11.771,9.949-16.452c-0.171-1.015-0.884-9.938,1.496-12.316c5.655-5.657,8.218-10.515,13.277-13.028
			c-9.93,3.571-16.978,12.542-16.978,23.053c0,0.177,0.01,0.353,0.015,0.528c-8.011,4.25-13.415,12.271-13.415,21.477
			c0,13.645,11.873,24.706,26.518,24.706c0.834,0,1.655-0.04,2.469-0.108c4.864,5.488,12.224,8.988,20.461,8.988
			c13.536,0,24.693-9.451,26.311-21.656c8.418-4.141,14.158-12.371,14.158-21.854C146.016,129.598,134.143,118.535,119.498,118.535z" style="opacity:0.1;fill:#6E6E96;enable-background:new    ;"></path>
		<path d="M81.757,157.494c0,0,13.731,2.688,13.731,16.128
			c0,0,3.697,22.823-10.595,38.978h33c-0.328-0.455-28.824-38.521,2.89-61.151C101.443,162.502,81.757,157.494,81.757,157.494z" style="fill:#EDE3DA;stroke:#CCCCDE;stroke-width:3;"></path>
		<g>
			<path d="M90.453,130.541" style="fill:#D57E58;"></path>
		</g>
		<path d="M112.553,157.458c0,0-20.835,26.899-4.821,55.142h10.162
			C117.894,212.6,96.75,183.049,112.553,157.458z" style="opacity:0.11;fill:#6E6E96;enable-background:new    ;"></path>
	</g>
	<g style="display:inline;">
		<path d="M253.684,168.268c0-12.345-10.74-22.35-23.988-22.35
			c-0.199,0-0.403,0.008-0.607,0.014c-4.188-6.549-11.854-10.938-20.625-10.938c-13.248,0-23.982,10.007-23.982,22.35
			c0,0.161,0.012,0.318,0.014,0.479c-7.244,3.852-12.135,11.104-12.135,19.434c0,12.351,10.733,22.354,23.982,22.354
			c0.754,0,1.497-0.039,2.229-0.104c4.4,4.972,11.063,8.138,18.514,8.138c12.245,0,22.339-8.556,23.799-19.596
			C248.49,184.295,253.684,176.85,253.684,168.268z" style="fill:#D7F7E4;stroke:#CCCCDE;stroke-width:3;"></path>
		<path d="M229.292,145.111c-0.206,0-0.409,0.011-0.614,0.016
			c-3.354-5.251-8.949-9.111-15.558-10.438c5.229,1.312,9.633,4.492,12.339,8.728c0.175-0.004,2.579,4.149,2.757,4.149
			c11.368,0,16.655,6.123,16.655,16.718c0,7.362-2.757,12.055-9.291,15.271c-1.252,9.473-9.915,16.813-20.423,16.813
			c-6.396,0-12.106-2.72-15.884-6.979c-0.631,0.055-1.271,0.086-1.916,0.086c-11.368,0-20.299-5.389-20.299-15.979
			c0-7.135,3.188-10.646,9.002-14.885c-0.156-0.918-0.807-8.987,1.353-11.142c5.116-5.116,7.435-9.516,12.011-11.784
			c-8.98,3.229-15.357,11.346-15.357,20.854c0,0.158,0.016,0.316,0.02,0.479c-7.246,3.847-12.141,11.104-12.141,19.429
			c0,12.346,10.738,22.353,23.988,22.353c0.754,0,1.496-0.031,2.231-0.103c4.401,4.969,11.06,8.135,18.509,8.135
			c12.245,0,22.338-8.556,23.799-19.595c7.615-3.74,12.813-11.188,12.813-19.771C253.279,155.118,242.541,145.111,229.292,145.111z" style="opacity:0.1;fill:#6E6E96;enable-background:new    ;"></path>
		<path d="M195.15,180.355c0,0,12.422,2.431,12.422,14.588
			c0,0,3.345,20.646-9.584,35.259h29.853c-0.296-0.41-26.073-34.847,2.615-55.317C212.96,184.887,195.15,180.355,195.15,180.355z" style="fill:#EDE3DA;stroke:#CCCCDE;stroke-width:3;"></path>
		<g>
			<path d="M203.018,155.975" style="fill:#D57E58;"></path>
		</g>
		<path d="M223.01,180.322c0,0-18.847,24.334-4.361,49.88h9.192
			C227.841,230.202,208.714,203.473,223.01,180.322z" style="opacity:0.11;fill:#6E6E96;enable-background:new    ;"></path>
	</g>
	<g style="display:inline;">
		<path d="M89.418,166.416c0-13.111-11.408-23.738-25.479-23.738
			c-0.22,0-0.436,0.008-0.653,0.014c-4.443-6.954-12.589-11.611-21.907-11.611c-14.071,0-25.48,10.629-25.48,23.734
			c0,0.17,0.011,0.336,0.015,0.507c-7.695,4.086-12.889,11.795-12.889,20.643c0,13.104,11.407,23.734,25.479,23.734
			c0.8,0,1.59-0.041,2.372-0.104c4.674,5.271,11.745,8.639,19.659,8.639c13.007,0,23.729-9.082,25.279-20.81
			C83.903,183.439,89.418,175.531,89.418,166.416z" style="fill:#D7F7E4;stroke:#CCCCDE;stroke-width:3;"></path>
		<path d="M63.511,141.822c-0.219,0-0.435,0.01-0.652,0.015
			c-3.562-5.577-9.506-9.678-16.525-11.085c5.553,1.393,10.231,4.771,13.106,9.27c0.186-0.004,2.739,4.406,2.928,4.406
			c12.076,0,17.692,6.506,17.692,17.758c0,7.82-2.929,12.806-9.87,16.222c-1.33,10.063-10.531,17.854-21.693,17.854
			c-6.792,0-12.859-2.886-16.871-7.412c-0.67,0.058-1.348,0.092-2.035,0.092c-12.076,0-21.561-5.723-21.561-16.975
			c0-7.574,3.391-11.308,9.561-15.807c-0.165-0.975-0.85-9.549,1.437-11.836c5.435-5.434,7.896-10.103,12.758-12.516
			c-9.541,3.43-16.313,12.051-16.313,22.146c0,0.17,0.01,0.338,0.014,0.508c-7.696,4.084-12.889,11.792-12.889,20.64
			c0,13.105,11.407,23.734,25.479,23.734c0.801,0,1.591-0.039,2.373-0.104c4.674,5.271,11.745,8.639,19.659,8.639
			c13.006,0,23.728-9.081,25.278-20.809c8.089-3.979,13.604-11.895,13.604-21.002C88.991,152.449,77.583,141.822,63.511,141.822z" style="opacity:0.1;fill:#6E6E96;enable-background:new    ;"></path>
		<path d="M27.248,179.256c0,0,13.193,2.583,13.193,15.496
			c0,0,3.553,21.932-10.179,37.45h31.707c-0.314-0.437-27.694-37.015,2.777-58.759C46.163,184.066,27.248,179.256,27.248,179.256z" style="fill:#EDE3DA;stroke:#CCCCDE;stroke-width:3;"></path>
		<g>
			<path d="M35.603,153.357" style="fill:#D57E58;"></path>
		</g>
		<path d="M56.838,179.221c0,0-20.02,25.848-4.633,52.981h9.764
			C61.969,232.202,41.654,203.811,56.838,179.221z" style="opacity:0.11;fill:#6E6E96;enable-background:new    ;"></path>
	</g>
</g>
<path d="M140.748,253.117c28.939,0,53.486-20.205,65.602-45.197l-172.019-0.087
	c12.243,9.287,26.176,17.901,42.541,17.901c2.32,0,4.612-0.123,6.878-0.336C97.301,242.327,117.801,253.117,140.748,253.117z" style="fill:#B9EBE4;"></path>
<path d="M209.43,200.979l-176.28-0.026c-11.4,0,1.181,6.882,1.181,6.882l172.019,0.087
	C206.35,207.92,208.282,203.344,209.43,200.979z" style="fill:#A5D1CB;"></path>
<rect height="3" width="20.417" style="fill:#FFFFFF;" y="224.227" x="125.667"></rect>
<g style="opacity:0.53;enable-background:new    ;">
	<polygon points="83.466,190.494 125.25,101.559 165.814,178.635 124.895,78.944" style="fill:#D6D6EB;"></polygon>
</g>
<g style="opacity:0.44;enable-background:new    ;">
	<path d="M210.75,63.892h-23.333c-0.828,0-1.5-0.671-1.5-1.5s0.672-1.5,1.5-1.5h23.333
		c0.828,0,1.5,0.671,1.5,1.5S211.578,63.892,210.75,63.892z" style="fill:#FFFFFF;"></path>
</g>
<path d="M201.084,73.226H174.75c-0.828,0-1.5-0.671-1.5-1.5s0.672-1.5,1.5-1.5h26.334
	c0.828,0,1.5,0.671,1.5,1.5S201.912,73.226,201.084,73.226z" style="fill:#FFFFFF;"></path>
<g style="opacity:0.44;enable-background:new    ;">
	<path d="M219.417,73.226h-6.667c-0.828,0-1.5-0.671-1.5-1.5s0.672-1.5,1.5-1.5h6.667
		c0.828,0,1.5,0.671,1.5,1.5S220.245,73.226,219.417,73.226z" style="fill:#FFFFFF;"></path>
</g>
<path d="M29.456,126.281H11.028c-0.829,0-1.5-0.671-1.5-1.5s0.671-1.5,1.5-1.5h18.428
	c0.829,0,1.5,0.671,1.5,1.5S30.285,126.281,29.456,126.281z" style="fill:#FFFFFF;"></path>
<path d="M82.75,105.226h-8c-0.829,0-1.5-0.671-1.5-1.5s0.671-1.5,1.5-1.5h8c0.829,0,1.5,0.671,1.5,1.5
	S83.579,105.226,82.75,105.226z" style="fill:#FFFFFF;"></path>
<path d="M76.75,94.559h-14c-0.829,0-1.5-0.671-1.5-1.5s0.671-1.5,1.5-1.5h14c0.829,0,1.5,0.671,1.5,1.5
	S77.579,94.559,76.75,94.559z" style="fill:#FFFFFF;"></path>
<g id="Layer_2_1_">
</g>
<g style="opacity:0.44;enable-background:new    ;">
	<path d="M20.75,135.559h-11c-0.829,0-1.5-0.672-1.5-1.5s0.671-1.5,1.5-1.5h11c0.829,0,1.5,0.672,1.5,1.5
		S21.579,135.559,20.75,135.559z" style="fill:#FFFFFF;"></path>
</g>
<g>
	<path d="M203.221,115.12c0.764-2.338,3.152-5.207,5.314-6.381l0.01-0.005c2.166-1.173,2.166-3.09,0-4.261
		l-0.01-0.006c-2.162-1.172-4.676-3.812-5.584-5.865c-0.909-2.056-2.396-2.056-3.311,0c-0.906,2.056-3.422,4.693-5.589,5.865
		l-0.011,0.006c-2.165,1.171-2.165,3.087,0,4.261l0.011,0.005c2.167,1.17,4.554,4.043,5.314,6.381l0.543,1.652
		c0.764,2.337,2,2.337,2.769,0L203.221,115.12z" style="fill:#FFFFFF;"></path>
</g>
<g>
	<path d="M10.599,47.375c0.713-2.19,2.953-4.88,4.981-5.977l0.008-0.004c2.024-1.098,2.024-2.894,0-3.99
		l-0.008-0.005c-2.025-1.098-4.38-3.569-5.232-5.495c-0.851-1.924-2.245-1.924-3.094,0C6.4,33.83,4.045,36.3,2.022,37.398
		l-0.01,0.005c-2.023,1.097-2.023,2.893,0,3.99l0.01,0.004c2.023,1.097,4.269,3.788,4.983,5.977l0.503,1.55
		c0.715,2.189,1.88,2.189,2.593,0L10.599,47.375z" style="fill:#FFB0B8;"></path>
</g>
<g>
	<path d="M-3.905,189.854c0.648-1.99,2.683-4.435,4.522-5.431l0.009-0.004c1.838-0.996,1.838-2.627,0-3.623
		l-0.009-0.008c-1.841-0.99-3.977-3.24-4.75-4.986c-0.773-1.745-2.04-1.745-2.813,0c-0.771,1.746-2.911,3.996-4.75,4.986
		l-0.007,0.008c-1.84,0.994-1.84,2.625,0,3.623l0.007,0.004c1.84,0.996,3.874,3.441,4.522,5.431l0.458,1.403
		c0.647,1.99,1.708,1.99,2.354,0L-3.905,189.854z" style="fill:#7FDCFF;"></path>
</g>
<g>
	<path d="M177.893,19.014c0.488-1.505,2.028-3.354,3.422-4.105l0.006-0.003c1.394-0.756,1.394-1.991,0-2.744
		l-0.006-0.003c-1.392-0.755-3.01-2.453-3.596-3.776c-0.585-1.322-1.544-1.322-2.127,0c-0.587,1.323-2.205,3.021-3.596,3.776
		l-0.008,0.003c-1.391,0.753-1.391,1.987,0,2.744l0.008,0.003c1.391,0.753,2.93,2.602,3.424,4.105l0.348,1.063
		c0.49,1.508,1.291,1.508,1.779,0L177.893,19.014z" style="fill:#B6FF7F;"></path>
</g>
<g>
	<path d="M55.614,106.019c0.489-1.505,2.028-3.355,3.422-4.107l0.006-0.002c1.391-0.755,1.391-1.99,0-2.743
		l-0.006-0.003c-1.392-0.757-3.008-2.453-3.596-3.776c-0.584-1.322-1.543-1.322-2.127,0c-0.586,1.323-2.203,3.02-3.594,3.776
		l-0.007,0.003c-1.39,0.753-1.39,1.987,0,2.743l0.007,0.002c1.391,0.754,2.931,2.604,3.422,4.107l0.348,1.063
		c0.49,1.508,1.292,1.508,1.779,0L55.614,106.019z" style="fill:#FFFFFF;"></path>
</g>
<g>
	<g>
		<path d="M105.466,45.52c-2.675,0-5.314,0.147-7.914,0.427c25.295,9.026,43.401,33.188,43.401,61.584
			c0,36.104-29.269,65.373-65.374,65.373c-8.443,0-16.512-1.603-23.92-4.516c13.376,14.489,32.529,23.567,53.805,23.567
			c40.438,0,73.218-32.781,73.218-73.22C178.684,78.3,145.902,45.52,105.466,45.52z" style="fill:#FFFFA8;"></path>
	</g>
	<path d="M143.725,108.272c0,4.682-0.502,9.245-1.438,13.648
		c1.82-6.059,2.822-12.523,2.822-19.249c0-24.998-12.267-46.51-31.023-56.158c-1.932-0.153-3.879-0.253-5.85-0.253
		c-2.675,0-5.313,0.147-7.913,0.427C125.619,55.714,143.725,79.877,143.725,108.272z M161.484,69.252
		c8.725,11.938,13.971,27.262,13.971,43.977c0,38.091-37.145,66.969-70.735,66.969c-12.014,0-27.999-1.613-39.535-7.896
		c-3.706-0.758-7.303-1.815-10.751-3.174c13.376,14.49,32.529,23.568,53.805,23.568c40.438,0,73.217-32.781,73.217-73.22
		C181.453,100.029,173.855,82.365,161.484,69.252z" style="opacity:0.77;fill:#FFDAA3;enable-background:new    ;"></path>
	<g>
		<path d="M106.464,193.956c-20.923,0-41.07-8.824-55.274-24.211c-0.632-0.685-0.708-1.716-0.181-2.485
			c0.527-0.771,1.515-1.073,2.383-0.732c7.385,2.904,15.187,4.377,23.188,4.377c34.944,0,63.374-28.429,63.374-63.373
			c0-26.729-16.907-50.721-42.072-59.7c-0.878-0.313-1.423-1.192-1.314-2.119c0.11-0.926,0.845-1.654,1.772-1.753
			c2.701-0.292,5.435-0.439,8.127-0.439c20.091,0,38.979,7.824,53.187,22.03s22.03,33.095,22.029,53.186
			C181.682,160.212,147.939,193.956,106.464,193.956z M60.25,172.913c12.816,10.913,29.246,17.043,46.213,17.043
			c39.27,0,71.218-31.949,71.218-71.22c0.001-19.022-7.406-36.906-20.857-50.357c-13.27-13.269-30.853-20.657-49.588-20.854
			c22.269,11.394,36.717,34.531,36.717,60.007c0,37.149-30.224,67.373-67.374,67.373C71.025,174.904,65.561,174.236,60.25,172.913z" style="fill:#6E6E96;"></path>
	</g>
</g>
</svg>
