<svg xml:space="preserve" style="enable-background:new 0 0 257 253.59;" viewBox="0 0 257 253.59" height="253.59px" width="257px" y="0px" x="0px" xmlns:xlink="http://www.w3.org/1999/xlink" xmlns="http://www.w3.org/2000/svg" id="Layer_1" version="1.1">
<g id="Layer_1_1_">
	<g style="display:none;" id="Layer_2_2_">
		<path d="M10.434,148.913c-2.346,0-4.438-1.658-4.903-4.047
			c-5.201-26.759,0.33-53.941,15.575-76.541C36.35,45.727,59.482,30.417,86.241,25.217c18.103-3.518,36.788-2.085,54.037,4.141
			c2.598,0.938,3.943,3.804,3.006,6.401s-3.802,3.943-6.4,3.005c-15.553-5.615-32.404-6.905-48.734-3.731
			c-24.137,4.691-45.003,18.5-58.753,38.885s-18.74,44.903-14.048,69.04c0.527,2.711-1.244,5.335-3.954,5.862
			C11.071,148.883,10.75,148.913,10.434,148.913z" style="display:inline;fill:#F59FB3;"></path>
		<path d="M19.412,104.784c-0.473,0-0.954-0.068-1.43-0.21
			c-2.646-0.789-4.152-3.574-3.363-6.22c10.143-34.025,38.079-59.367,72.906-66.136c40.084-7.792,80.55,10.82,100.695,46.312
			c1.363,2.401,0.521,5.453-1.881,6.816c-2.402,1.363-5.452,0.521-6.816-1.881c-18.021-31.751-54.226-48.4-90.089-41.432
			C58.272,48.09,33.277,70.765,24.202,101.21C23.555,103.38,21.566,104.784,19.412,104.784z" style="display:inline;fill:#FFFF75;"></path>
		<path d="M24.232,119.808c-0.213,0-0.429-0.014-0.646-0.042
			c-2.739-0.354-4.672-2.86-4.319-5.599c4.825-37.381,32.943-67.332,69.969-74.528c27.589-5.363,56.27,2.981,76.723,22.319
			c2.006,1.897,2.095,5.062,0.197,7.068c-1.896,2.006-5.06,2.096-7.068,0.198c-18.114-17.127-43.515-24.519-67.944-19.769
			c-32.788,6.373-57.687,32.893-61.959,65.992C28.859,117.969,26.708,119.808,24.232,119.808z" style="display:inline;fill:#AFEB75;"></path>
		<path d="M176.344,105.673c-2.067,0-4.001-1.292-4.721-3.354
			c-11.312-32.417-45.3-51.915-79.066-45.354C74.878,60.401,59.41,70.382,49.002,85.069c-1.597,2.252-4.717,2.785-6.971,1.188
			c-2.253-1.597-2.785-4.718-1.188-6.971c11.902-16.795,29.59-28.208,49.806-32.138c18.918-3.677,38.507-0.382,55.157,9.276
			c16.489,9.563,29.011,24.692,35.259,42.6c0.91,2.607-0.466,5.458-3.073,6.368C177.446,105.583,176.89,105.673,176.344,105.673z" style="display:inline;fill:#75D5EB;"></path>
	</g>
	<g id="Layer_7_1_">
		<g style="opacity:0.63;" id="Layer_4_2_">
			<path d="M206.559,20.118c-30.029-28.15-77.248-26.564-105.461,3.536c-0.438,0.467-0.85,0.951-1.275,1.428
				c-24.84-5.429-51.854,1.983-70.538,21.916C1.064,77.1,2.535,124.321,32.565,152.471c0.391,0.365,0.794,0.704,1.192,1.063
				c-6.078,25.231,1.164,52.891,21.417,71.876c30.029,28.146,77.245,26.562,105.463-3.538c1.604-1.711,3.1-3.485,4.514-5.304
				c21.455,1.328,43.334-6.577,59.205-23.51c26.08-27.822,26.777-70.255,3.029-98.75C234.491,68.466,227.434,39.686,206.559,20.118z" style="fill:#D4DDFC;"></path>
		</g>
		<path d="M256,169.607H0v35.933c14.8,27.679,44.028,46.519,77.671,46.519c2.763,0,5.492-0.146,8.191-0.393
			c0.538,0.648,1.086,1.29,1.642,1.924h132.447c11.287-12.876,18.873-29.064,21.078-46.921c5.34-2.812,10.352-6.159,14.971-9.963
			V169.607z" style="fill:#D6F0FF;"></path>
		<rect height="3" width="256" style="fill:#CCCCDE;" y="168.107" x="1"></rect>
		<rect height="3" width="34" style="fill:#FFFFFF;" y="190.507" x="8"></rect>
		<rect height="3" width="46" style="fill:#FFFFFF;" y="218.156" x="33.333"></rect>
		<rect height="3" width="39.334" style="opacity:0.61;fill:#FFFFFF;enable-background:new    ;" y="186.736" x="115.333"></rect>
		<rect height="3" width="12.667" style="fill:#FFFFFF;" y="199.305" x="228"></rect>
		<rect height="3" width="10" style="opacity:0.48;fill:#FFFFFF;enable-background:new    ;" y="191.764" x="195.334"></rect>
		<rect height="3" width="15.334" style="opacity:0.48;fill:#FFFFFF;enable-background:new    ;" y="198.048" x="79.333"></rect>
		<rect height="3" width="5.333" style="opacity:0.48;fill:#FFFFFF;enable-background:new    ;" y="228.21" x="8.667"></rect>
		<rect height="7.974" width="256" style="opacity:0.1;fill:#6E6E96;enable-background:new    ;" y="169.607" x="1"></rect>
		<path d="M67,126.59H37c-1.657,0-3-1.343-3-3s1.343-3,3-3h30c1.657,0,3,1.343,3,3S68.657,126.59,67,126.59z" style="fill:#FFFFFF;"></path>
		<path d="M213.044,99.59H187c-1.657,0-3-1.343-3-3s1.343-3,3-3
			h26.044c1.657,0,3,1.343,3,3S214.701,99.59,213.044,99.59z" style="opacity:0.55;fill:#FFFFFF;enable-background:new    ;"></path>
		<path d="M200.875,52.59H184c-1.657,0-3-1.343-3-3s1.343-3,3-3h16.875c1.657,0,3,1.343,3,3
			S202.532,52.59,200.875,52.59z" style="fill:#FFFFFF;"></path>
		<g>
			<path d="M46.85,86.126l-2.993-0.142c0-5.442-7.432-7.195-7.507-7.212c-0.808-0.184-1.314-0.988-1.13-1.795
				c0.184-0.808,0.99-1.312,1.795-1.13c0.301,0.069,5.677,1.341,8.354,5.261c1.437-2.576,4.012-4.904,8.27-4.904
				c0.829,0,1.5,0.671,1.5,1.5s-0.671,1.5-1.5,1.5C47.58,79.203,46.877,85.843,46.85,86.126z" style="fill:#FFFFFF;"></path>
			<path d="M48.512,87.09h-6.703c-0.829,0-1.5-0.671-1.5-1.5s0.671-1.5,1.5-1.5h6.703
				c0.829,0,1.5,0.671,1.5,1.5S49.341,87.09,48.512,87.09z" style="fill:#FFFFFF;"></path>
		</g>
		<g>
			<path d="M208.736,122.69l-2.993-0.147c0-5.598-7.676-7.438-7.753-7.456
				c-0.807-0.187-1.311-0.99-1.126-1.797c0.186-0.806,0.992-1.311,1.793-1.128c0.311,0.071,5.873,1.387,8.602,5.448
				c1.465-2.66,4.107-5.079,8.497-5.079c0.828,0,1.5,0.671,1.5,1.5s-0.672,1.5-1.5,1.5
				C209.535,115.531,208.766,122.397,208.736,122.69z" style="fill:#FFFFFF;"></path>
			<path d="M210.486,123.637h-6.891c-0.828,0-1.5-0.671-1.5-1.5s0.672-1.5,1.5-1.5h6.891
				c0.828,0,1.5,0.671,1.5,1.5S211.314,123.637,210.486,123.637z" style="fill:#FFFFFF;"></path>
		</g>
	</g>
</g>
<g id="Layer_2_1_">
	<polygon points="122.162,56.21 148.791,62.131 146.02,91.522 112.218,84.007" style="fill:#D59758;"></polygon>
	<polygon points="118.592,66.188 147.795,72.682 148.791,62.131 122.162,56.21" style="fill:#00A0C6;"></polygon>
	<path d="M112.283,84.455c0,0,21.711-24.267,33.736,7.066
		l1.774-18.84l-29.203-6.493l-6.374,17.819" style="opacity:0.22;fill:#5A3D1C;enable-background:new    ;"></path>
	<path d="M147.354,93.354l-37.121-8.251l10.963-30.645l29.212,6.496L147.354,93.354z M114.203,82.913
		l30.483,6.775l2.488-26.38l-24.045-5.346L114.203,82.913z" style="fill:#6E6E96;"></path>
	<polygon points="215.346,111.719 236.868,128.538 210.613,134.948" style="fill:#E67373;"></polygon>
	<path d="M216.053,133.62c0,0-5.736-11.121,3.678-11.121c9.412,0,16.695,5.692,16.695,5.692l-19.217-15.017
		c0,0-7.843,12.304-6.596,21.772L216.053,133.62z" style="fill:#CC6666;"></path>
	<path d="M208.649,154.97c-1.346,0-2.456-1.069-2.498-2.423c-0.029-0.972-0.637-24.009,7.72-42.54
		c0.567-1.259,2.052-1.818,3.307-1.251c1.259,0.567,1.819,2.048,1.252,3.307c-7.873,17.458-7.287,40.104-7.28,40.331
		c0.041,1.38-1.043,2.532-2.423,2.574C208.7,154.969,208.675,154.97,208.649,154.97z" style="fill:#C2C2C2;"></path>
	<path d="M201.033,118.728V157.1H139.52v-1.651H79.656c-4.954-72.66,22.295-71.423,22.295-71.423h60.689
		l2.889,16.928h20.229C185.759,100.952,201.033,101.582,201.033,118.728z" style="fill:#E3E3E3;"></path>
	<path d="M153.093,153.17v-1.65H93.23c-1.56-22.888,0.077-38.429,3.048-49
		c1.576-4.224,6.403-11.843,20.93-13.592h46.269l-0.836-4.902l-60.768-0.001l0,0c-1.594-0.003-27.015,1.035-22.216,71.424h59.864
		v1.652h61.513v-3.931L153.093,153.17L153.093,153.17z" style="fill:#F0F0F0;"></path>
	<g>
		<path d="M81.934,109.428h5.773c0,0,7.659-1.103,9.066-14.069c0.627-5.777-4.195-4.721-6.4-4.721
			C87.23,94.382,84.104,100.248,81.934,109.428z" style="fill:#55C1DB;"></path>
		<path d="M87.814,110.928h-7.776l0.436-1.845c1.962-8.3,4.906-14.83,8.75-19.409l0.45-0.536h0.699
			c0.249,0,0.534-0.016,0.842-0.031c0.418-0.021,0.872-0.044,1.336-0.044c1.333,0,3.254,0.167,4.553,1.614
			c0.998,1.112,1.388,2.742,1.16,4.844c-1.515,13.963-9.983,15.34-10.343,15.392L87.814,110.928z M83.854,107.928h3.712
			c0.824-0.18,6.531-1.819,7.715-12.73c0.091-0.838,0.094-1.956-0.411-2.517c-0.378-0.422-1.115-0.618-2.32-0.618
			c-0.411,0-0.812,0.021-1.182,0.041c-0.091,0.004-0.18,0.009-0.268,0.013C88.042,95.961,85.609,101.27,83.854,107.928z" style="fill:#6E6E96;"></path>
	</g>
	<g>
		<circle r="11.214" cy="122.366" cx="115.504" style="fill:#55C1DB;"></circle>
		<path d="M115.504,135.08c-7.01,0-12.714-5.703-12.714-12.714s5.704-12.714,12.714-12.714
			s12.714,5.704,12.714,12.714S122.514,135.08,115.504,135.08z M115.504,112.652c-5.356,0-9.714,4.358-9.714,9.714
			s4.357,9.714,9.714,9.714s9.714-4.357,9.714-9.714S120.86,112.652,115.504,112.652z" style="fill:#6E6E96;"></path>
	</g>
	<g>
		<circle r="11.214" cy="122.366" cx="146.895" style="fill:#55C1DB;"></circle>
		<path d="M146.895,135.08c-7.011,0-12.715-5.703-12.715-12.714s5.704-12.714,12.715-12.714
			c7.01,0,12.713,5.704,12.713,12.714S153.904,135.08,146.895,135.08z M146.895,112.652c-5.356,0-9.715,4.358-9.715,9.714
			s4.358,9.714,9.715,9.714c5.355,0,9.713-4.357,9.713-9.714S152.25,112.652,146.895,112.652z" style="fill:#6E6E96;"></path>
	</g>
	<g>
		<circle r="11.214" cy="122.366" cx="184.141" style="fill:#55C1DB;"></circle>
		<path d="M184.141,135.08c-7.011,0-12.715-5.703-12.715-12.714s5.704-12.714,12.715-12.714
			c7.01,0,12.713,5.704,12.713,12.714S191.15,135.08,184.141,135.08z M184.141,112.652c-5.356,0-9.715,4.358-9.715,9.714
			s4.358,9.714,9.715,9.714c5.355,0,9.713-4.357,9.713-9.714S189.496,112.652,184.141,112.652z" style="fill:#6E6E96;"></path>
	</g>
	<path d="M202.533,158.6H138.02v-1.651H78.255l-0.095-1.398c-1.568-22.998-0.759-53.28,12-66.939
		c5.412-5.794,10.7-6.087,11.705-6.087l62.042,0.001l2.889,16.928h18.964c0.04,0,4.242,0.157,8.421,2.678
		c3.811,2.299,8.354,7.045,8.354,16.598V158.6z M141.02,155.6h58.514v-36.871c0-15.462-13.271-16.251-13.836-16.277l-21.434,0.001
		l-2.889-16.928h-59.424c-0.002,0-0.005,0-0.008,0c-0.599,0-4.948,0.164-9.591,5.134c-6.561,7.023-13.798,23.702-11.292,63.29
		h59.958V155.6z" style="fill:#6E6E96;"></path>
	<rect height="50.524" width="3" style="fill:#6E6E96;" y="100.952" x="164.027"></rect>
	<path d="M210.117,211.338H59.339c-19.492-24.193-17.458-77.986-17.458-77.986h57.363l5.82,18.838H217.6
		C217.6,152.189,222.504,176.824,210.117,211.338z" style="fill:#3FB6D4;"></path>
	<rect height="23.797" width="102.428" style="opacity:0.14;fill:#666666;enable-background:new    ;" y="145.449" x="98.487"></rect>
	<path d="M105.063,151.477l-5.82-18.84H41.881c0,0-0.762,20.203,3.133,41.415
		c27.535,6.095,59.27,9.572,93.062,9.572c24.722,0,46.344-0.797,79.855-6.91c1.582-15.627-0.332-25.237-0.332-25.237H105.063
		L105.063,151.477z" style="fill:#E3E3E3;"></path>
	<path d="M114.708,199.979c-23.069,0-44.962-2.154-64.657-6.016c2.363,6.529,5.396,12.543,9.289,17.375
		h150.778c3.696-10.298,3.681-8.367,4.888-16.516C187.62,205.092,153.943,199.979,114.708,199.979z" style="fill:#00A0C6;"></path>
	<path d="M217.6,151.477H105.063l-5.82-18.84H66.021l0,0h-24.14
		c0,0-2.033,53.795,17.458,77.987h16.077c-15.264-31.5-13.854-54.968-11.553-67.873l0,0h28.769l6.836,13.53H218.21
		C217.938,153.17,217.6,151.477,217.6,151.477z" style="opacity:0.35;fill:#FFFFFF;enable-background:new    ;"></path>
	<path d="M210.118,212.838c-0.168,0-0.339-0.028-0.507-0.088c-0.779-0.28-1.185-1.139-0.905-1.919
		c10.583-29.487,8.372-51.826,7.616-57.142H105.064c-0.658,0-1.239-0.429-1.433-1.058l-5.493-17.78H43.347
		c-0.137,8.689,0.006,54.255,17.16,75.545c0.52,0.646,0.418,1.59-0.227,2.109c-0.645,0.52-1.59,0.417-2.109-0.227
		c-8.264-10.258-13.768-26.687-16.36-48.833c-1.919-16.397-1.434-30.016-1.429-30.151c0.031-0.806,0.693-1.443,1.499-1.443h57.363
		c0.658,0,1.239,0.429,1.433,1.058l5.493,17.78H217.6c0.716,0,1.331,0.506,1.471,1.207c0.204,1.022,4.844,25.44-7.54,59.948
		C211.311,212.457,210.733,212.838,210.118,212.838z" style="fill:#6E6E96;"></path>
	<path d="M138.076,185.124c-32.698,0-64.99-3.322-93.386-9.607c-0.589-0.131-1.042-0.601-1.151-1.194
		c-3.88-21.13-3.165-41.538-3.157-41.742c0.03-0.806,0.692-1.443,1.499-1.443h57.362c0.658,0,1.239,0.429,1.433,1.058l5.493,17.782
		H217.6c0.716,0,1.331,0.505,1.471,1.207c0.08,0.401,1.94,10.011,0.354,25.682c-0.067,0.664-0.565,1.204-1.223,1.324
		C186.245,184.019,165.388,185.124,138.076,185.124z M46.313,172.802c27.95,6.1,59.655,9.322,91.763,9.322
		c26.815,0,47.368-1.072,78.472-6.684c1.058-11.48,0.193-19.542-0.226-22.464H105.063c-0.658,0-1.239-0.429-1.433-1.058
		l-5.493-17.782H43.346C43.265,139.02,43.26,155.564,46.313,172.802z" style="fill:#6E6E96;"></path>
	<ellipse ry="16.87" rx="26.111" cy="217.925" cx="164.109" style="fill:#D6F0FF;"></ellipse>
	<circle r="13.699" cy="217.994" cx="65.199" style="fill:#D6F0FF;"></circle>
	<circle r="21.383" cy="222.063" cx="92.417" style="fill:#D6F0FF;"></circle>
	<circle r="24.696" cy="224.6" cx="132.193" style="fill:#D6F0FF;"></circle>
	<circle r="12.5" cy="215.795" cx="216.5" style="fill:#D6F0FF;"></circle>
	<circle r="8.981" cy="215.019" cx="194.3" style="fill:#D6F0FF;"></circle>
	<circle r="10.743" cy="215.052" cx="115.082" style="fill:#D6F0FF;"></circle>
	<circle r="4.839" cy="194.134" cx="194.839" style="fill:#D6F0FF;"></circle>
	<circle r="2.881" cy="181.176" cx="173.881" style="fill:#D6F0FF;"></circle>
</g>
</svg>
