<svg xml:space="preserve" style="enable-background:new 0 0 256.5 253.117;" viewBox="0 0 256.5 253.117" height="253.117px" width="256.5px" y="0px" x="0px" xmlns:xlink="http://www.w3.org/1999/xlink" xmlns="http://www.w3.org/2000/svg" id="Layer_1" version="1.1">
<g id="Layer_1_1_">
	<g id="Layer_3_3_">
		<path d="M248.789,112.863c0-41.101-32.57-74.416-72.745-74.416
			c-0.626,0-1.242,0.029-1.862,0.047c-12.686-21.803-35.942-36.421-62.547-36.421c-40.177,0-72.747,33.319-72.747,74.419
			c0,0.534,0.029,1.06,0.04,1.591C16.954,90.886,2.126,115.048,2.126,142.771c0,41.097,32.57,74.41,72.747,74.41
			c2.285,0,4.542-0.119,6.774-0.33c13.343,16.534,34.516,27.073,57.113,27.073c37.137,0,66.762-28.469,71.188-65.226
			C233.042,166.229,248.789,141.434,248.789,112.863z" style="opacity:0.42;fill:#9FCCFF;enable-background:new    ;"></path>
	</g>
	<g>
		<g>
			<rect height="42" width="65" style="fill:#FFFFFF;" y="98.059" x="2.819"></rect>
			<path d="M67.819,141.559h-65c-0.829,0-1.5-0.672-1.5-1.5v-42c0-0.829,0.671-1.5,1.5-1.5h65
				c0.829,0,1.5,0.671,1.5,1.5v42C69.319,140.887,68.647,141.559,67.819,141.559z M4.319,138.559h62v-39h-62V138.559z" style="fill:#CCCCDE;"></path>
		</g>
		<rect height="3" width="32" style="fill:#CCCCDE;" y="107.059" x="10.819"></rect>
		<rect height="3" width="15" style="fill:#CCCCDE;" y="115.059" x="10.819"></rect>
		<rect height="3" width="10.5" style="fill:#CCCCDE;" y="115.559" x="35.319"></rect>
		<rect height="3" width="9.25" style="fill:#CCCCDE;" y="106.559" x="48.819"></rect>
		<rect height="3" width="27.125" style="fill:#CCCCDE;" y="122.559" x="10.819"></rect>
	</g>
	<g>
		<g>
			<polygon points="231.63,248.398 196.426,248.398 196.426,192.854 251.971,192.854 251.971,228.059" style="fill:#FAFFFA;"></polygon>
			<path d="M231.63,249.898h-35.204c-0.828,0-1.5-0.672-1.5-1.5v-55.545c0-0.828,0.672-1.5,1.5-1.5h55.545
				c0.828,0,1.5,0.672,1.5,1.5v35.205c0,0.397-0.158,0.779-0.439,1.061l-20.341,20.34
				C232.409,249.74,232.027,249.898,231.63,249.898z M197.926,246.898h33.083l19.462-19.461v-33.084h-52.545V246.898z" style="fill:#CCCCDE;"></path>
		</g>
		<g>
			<polygon points="231.63,248.398 231.63,228.059 251.971,228.059" style="fill:#EDFFEB;"></polygon>
			<path d="M231.63,249.898c-0.193,0-0.389-0.037-0.574-0.114c-0.561-0.232-0.926-0.779-0.926-1.386v-20.34
				c0-0.828,0.672-1.5,1.5-1.5h20.341c0.606,0,1.153,0.365,1.386,0.926s0.104,1.206-0.325,1.635l-20.341,20.34
				C232.403,249.746,232.02,249.898,231.63,249.898z M233.13,229.559v15.219l15.22-15.219H233.13z" style="fill:#CCCCDE;"></path>
		</g>
	</g>
	<g>
		<g>
			<polygon points="226.266,3.075 143.049,3.075 143.049,125.342 239.707,125.342 239.707,15.878" style="fill:#FFFFFF;"></polygon>
			<path d="M239.707,126.842h-96.658c-0.828,0-1.5-0.671-1.5-1.5V3.075c0-0.829,0.672-1.5,1.5-1.5h83.217
				c0.385,0,0.756,0.148,1.034,0.414l13.441,12.803c0.298,0.283,0.466,0.675,0.466,1.086v109.464
				C241.207,126.17,240.535,126.842,239.707,126.842z M144.549,123.842h93.658V16.521L225.666,4.575h-81.117V123.842z" style="fill:#CCCCDE;"></path>
		</g>
		<g>
			<polygon points="239.707,15.878 226.266,15.878 226.266,3.075" style="fill:#FFFFFF;"></polygon>
			<path d="M239.727,17.378c-0.005,0-0.012,0.001-0.02,0h-13.441c-0.828,0-1.5-0.671-1.5-1.5V3.075
				c0-0.6,0.357-1.143,0.909-1.379c0.551-0.237,1.19-0.121,1.625,0.293l13.305,12.672c0.377,0.272,0.622,0.716,0.622,1.217
				C241.227,16.707,240.556,17.378,239.727,17.378z M227.766,14.378h8.191l-8.191-7.802V14.378z" style="fill:#CCCCDE;"></path>
		</g>
		<path d="M198.107,23.851h-17.244c-0.828,0-1.5-0.671-1.5-1.5
			s0.672-1.5,1.5-1.5h17.244c0.828,0,1.5,0.671,1.5,1.5S198.936,23.851,198.107,23.851z" style="opacity:0.21;fill:#6E6E96;enable-background:new    ;"></path>
		<g style="opacity:0.21;">
			<path d="M202.086,35.535h-43.773c-0.828,0-1.5-0.671-1.5-1.5s0.672-1.5,1.5-1.5h43.773
				c0.828,0,1.5,0.671,1.5,1.5S202.914,35.535,202.086,35.535z" style="fill:#6E6E96;"></path>
			<path d="M221.32,35.535h-9.945c-0.828,0-1.5-0.671-1.5-1.5s0.672-1.5,1.5-1.5h9.945
				c0.828,0,1.5,0.671,1.5,1.5S222.148,35.535,221.32,35.535z" style="fill:#6E6E96;"></path>
			<path d="M194.129,41.503h-35.816c-0.828,0-1.5-0.671-1.5-1.5s0.672-1.5,1.5-1.5h35.816
				c0.828,0,1.5,0.671,1.5,1.5S194.957,41.503,194.129,41.503z" style="fill:#6E6E96;"></path>
			<path d="M221.32,41.503h-22.549c-0.828,0-1.5-0.671-1.5-1.5s0.672-1.5,1.5-1.5h22.549
				c0.828,0,1.5,0.671,1.5,1.5S222.148,41.503,221.32,41.503z" style="fill:#6E6E96;"></path>
			<path d="M175.229,48.8h-16.916c-0.828,0-1.5-0.671-1.5-1.5s0.672-1.5,1.5-1.5h16.916
				c0.828,0,1.5,0.671,1.5,1.5S176.057,48.8,175.229,48.8z" style="fill:#6E6E96;"></path>
			<path d="M191.477,48.8h-9.951c-0.828,0-1.5-0.671-1.5-1.5s0.672-1.5,1.5-1.5h9.951
				c0.828,0,1.5,0.671,1.5,1.5S192.305,48.8,191.477,48.8z" style="fill:#6E6E96;"></path>
			<path d="M221.32,48.8h-25.201c-0.828,0-1.5-0.671-1.5-1.5s0.672-1.5,1.5-1.5h25.201
				c0.828,0,1.5,0.671,1.5,1.5S222.148,48.8,221.32,48.8z" style="fill:#6E6E96;"></path>
			<path d="M185.174,56.095h-26.861c-0.828,0-1.5-0.671-1.5-1.5s0.672-1.5,1.5-1.5h26.861
				c0.828,0,1.5,0.671,1.5,1.5S186.002,56.095,185.174,56.095z" style="fill:#6E6E96;"></path>
			<path d="M195.787,56.095h-3.316c-0.828,0-1.5-0.671-1.5-1.5s0.672-1.5,1.5-1.5h3.316
				c0.828,0,1.5,0.671,1.5,1.5S196.615,56.095,195.787,56.095z" style="fill:#6E6E96;"></path>
			<path d="M221.32,56.095h-18.902c-0.828,0-1.5-0.671-1.5-1.5s0.672-1.5,1.5-1.5h18.902
				c0.828,0,1.5,0.671,1.5,1.5S222.148,56.095,221.32,56.095z" style="fill:#6E6E96;"></path>
		</g>
		<path d="M193.797,63.062h-35.484c-0.828,0-1.5-0.671-1.5-1.5
			s0.672-1.5,1.5-1.5h35.484c0.828,0,1.5,0.671,1.5,1.5S194.625,63.062,193.797,63.062z" style="opacity:0.21;fill:#6E6E96;enable-background:new    ;"></path>
		<g style="opacity:0.21;">
			<path d="M202.086,69.228h-43.773c-0.828,0-1.5-0.671-1.5-1.5s0.672-1.5,1.5-1.5h43.773
				c0.828,0,1.5,0.671,1.5,1.5S202.914,69.228,202.086,69.228z" style="fill:#6E6E96;"></path>
			<path d="M221.32,69.228h-9.945c-0.828,0-1.5-0.671-1.5-1.5s0.672-1.5,1.5-1.5h9.945
				c0.828,0,1.5,0.671,1.5,1.5S222.148,69.228,221.32,69.228z" style="fill:#6E6E96;"></path>
			<path d="M194.129,75.199h-35.816c-0.828,0-1.5-0.671-1.5-1.5s0.672-1.5,1.5-1.5h35.816
				c0.828,0,1.5,0.671,1.5,1.5S194.957,75.199,194.129,75.199z" style="fill:#6E6E96;"></path>
			<path d="M221.32,75.199h-22.549c-0.828,0-1.5-0.671-1.5-1.5s0.672-1.5,1.5-1.5h22.549
				c0.828,0,1.5,0.671,1.5,1.5S222.148,75.199,221.32,75.199z" style="fill:#6E6E96;"></path>
			<path d="M175.229,82.496h-16.916c-0.828,0-1.5-0.671-1.5-1.5s0.672-1.5,1.5-1.5h16.916
				c0.828,0,1.5,0.671,1.5,1.5S176.057,82.496,175.229,82.496z" style="fill:#6E6E96;"></path>
			<path d="M191.477,82.496h-9.951c-0.828,0-1.5-0.671-1.5-1.5s0.672-1.5,1.5-1.5h9.951
				c0.828,0,1.5,0.671,1.5,1.5S192.305,82.496,191.477,82.496z" style="fill:#6E6E96;"></path>
			<path d="M221.32,82.496h-25.201c-0.828,0-1.5-0.671-1.5-1.5s0.672-1.5,1.5-1.5h25.201
				c0.828,0,1.5,0.671,1.5,1.5S222.148,82.496,221.32,82.496z" style="fill:#6E6E96;"></path>
			<path d="M185.174,89.791h-26.861c-0.828,0-1.5-0.671-1.5-1.5s0.672-1.5,1.5-1.5h26.861
				c0.828,0,1.5,0.671,1.5,1.5S186.002,89.791,185.174,89.791z" style="fill:#6E6E96;"></path>
			<path d="M195.787,89.791h-3.316c-0.828,0-1.5-0.671-1.5-1.5s0.672-1.5,1.5-1.5h3.316
				c0.828,0,1.5,0.671,1.5,1.5S196.615,89.791,195.787,89.791z" style="fill:#6E6E96;"></path>
			<path d="M221.32,89.791h-18.902c-0.828,0-1.5-0.671-1.5-1.5s0.672-1.5,1.5-1.5h18.902
				c0.828,0,1.5,0.671,1.5,1.5S222.148,89.791,221.32,89.791z" style="fill:#6E6E96;"></path>
		</g>
	</g>
	<g id="Layer_2_2_">
		<g>
			<rect height="78.122" width="100.369" style="fill:#FFFFFF;" y="161.571" x="47.936"></rect>
			<path d="M148.305,241.193H47.936c-0.829,0-1.5-0.672-1.5-1.5v-78.122c0-0.828,0.671-1.5,1.5-1.5h100.369
				c0.828,0,1.5,0.672,1.5,1.5v78.122C149.805,240.521,149.133,241.193,148.305,241.193z M49.436,238.193h97.369v-75.122H49.436
				V238.193z" style="fill:#CCCCDE;"></path>
		</g>
		<g id="Layer_2_5_">
			<rect height="64.053" width="85.48" style="fill:#D6F1FF;" y="168.374" x="55.396"></rect>
		</g>
		<g style="opacity:0.47;" id="Layer_3_1_">
			<path d="M55.396,194.559c0,0,3.338-4.674,11.686-4.674
				c8.349,0,2.672-5.679,12.689-5.679c10.016,0,16.36-5.008,28.383-0.334c12.021,4.676,32.724,4.901,32.724,4.901l0.267,16.779
				l-85.748,4.696L55.396,194.559L55.396,194.559z" style="opacity:0.08;enable-background:new    ;"></path>
			<polygon points="96.008,197.298 55.396,221.062 55.396,232.214 141.145,232.214" style="fill:#FFE5B0;"></polygon>
			<path d="M55.396,206.473c0,0,12.549-7.226,20.416-6.506c7.865,0.719-5.076,12.118-5.076,12.118
				l-15.34,8.978V206.473z" style="fill:#FFE5B0;"></path>
			<path d="M75.813,199.967c0,0,2.721,1.204-3.132,3.467c-5.853,2.26-7.758,12.205,1.771,7.383
				c9.527-4.821,21.557-13.519,21.557-13.519S87.517,202.635,75.813,199.967z" style="fill:#F2D9A6;"></path>
			<path d="M108.154,197.531c0,0,10.795-6.678,32.62-2.303l0.371,6.547L108.154,197.531z" style="fill:#FFE5B0;"></path>
			<path d="M74.451,210.816c4.002-2.025,8.44-4.732,12.25-7.193c-8.342-0.791-9.65-3.4-9.65-3.4
				s-0.002-0.003-0.004-0.003c-0.408-0.075-0.818-0.157-1.234-0.252c0,0,2.723,1.204-3.131,3.468
				C66.828,205.693,64.924,215.639,74.451,210.816z" style="fill:#D6C093;"></path>
			<path d="M112.304,195.781c0,0,16.044,0.035,28.652,2.691
				l0.188,3.303L112.304,195.781z" style="opacity:0.42;fill:#D6C093;enable-background:new    ;"></path>
			<g>
				<path d="M104.939,195.145c0,0-14.699-1.205-7.351,8.138c7.351,9.344,43.557,28.934,43.557,28.934v-30.438
					C141.145,201.775,115.283,195.145,104.939,195.145z" style="fill:#D6C093;"></path>
			</g>
			<path d="M55.396,223.168c0,0,22.738-4.729,33.406-19.395
				c0,0-6.025,12.049-33.406,24.401V223.168z" style="opacity:0.27;fill:#D6C093;enable-background:new    ;"></path>
			<path d="M99.209,205.066c0,0,20.633,16.494,24.639,27.146h17.296
				L99.209,205.066z" style="opacity:0.25;fill:#D6C093;enable-background:new    ;"></path>
			<g>
				<path d="M102.275,205.834c-8.586-10.768,8.59-9.377,8.59-9.377c1.854,0,3.836,0.006,5.867,0.02
					c-4.56-0.781-8.817-1.33-11.793-1.33c0,0-14.699-1.205-7.351,8.137c3.257,4.141,12.183,10.293,21.11,15.861
					C112.031,214.795,105.587,209.982,102.275,205.834z M140.544,201.623v30.205c0,0-0.854-0.438-2.312-1.217
					c1.828,1.016,2.912,1.604,2.912,1.604v-30.438C141.145,201.775,140.932,201.721,140.544,201.623z" style="fill:#C7B289;"></path>
			</g>
			<g>
				<path d="M74.685,203.434c2.212-0.854,3.197-1.558,3.568-2.103c-0.956-0.621-1.203-1.11-1.203-1.11
					s-0.002-0.002-0.004-0.002c-0.408-0.074-0.817-0.158-1.233-0.252c0,0,2.721,1.204-3.132,3.467
					c-5.087,1.963-7.19,9.731-1.396,8.563C68.152,211.078,70.32,205.119,74.685,203.434z" style="fill:#C7B289;"></path>
			</g>
		</g>
		<path d="M141.145,233.715H55.396c-0.829,0-1.5-0.672-1.5-1.5v-63.841c0-0.828,0.671-1.5,1.5-1.5h85.749
			c0.828,0,1.5,0.672,1.5,1.5v63.841C142.645,233.043,141.973,233.715,141.145,233.715z M56.896,230.715h82.749v-60.841H56.896
			V230.715z" style="fill:#CCCCDE;"></path>
	</g>
	<path d="M98.516,56.057V48.81h6.666V26.654h-6.666v-7.248h6.666v-7.249h-70v7.249h4.667v7.248h-4.667V48.81
		h4.667v7.248h-4.667v8.101h70v-8.101L98.516,56.057L98.516,56.057z M56.849,56.057h-8.333V48.81h8.333V56.057z M56.849,26.654
		h-8.333v-7.248h8.333V26.654z M73.516,56.057h-8.333V48.81h8.333V56.057z M73.516,26.654h-8.333v-7.248h8.333V26.654z
		 M89.849,56.057h-8.333V48.81h8.333V56.057z M89.849,26.654h-8.333v-7.248h8.333V26.654z" style="fill:#E8F1FF;"></path>
	<path d="M105.182,65.659h-70c-0.829,0-1.5-0.671-1.5-1.5v-8.102c0-0.829,0.671-1.5,1.5-1.5h3.167V50.31
		h-3.167c-0.829,0-1.5-0.671-1.5-1.5V26.654c0-0.829,0.671-1.5,1.5-1.5h3.167v-4.248h-3.167c-0.829,0-1.5-0.671-1.5-1.5v-7.249
		c0-0.829,0.671-1.5,1.5-1.5h70c0.829,0,1.5,0.671,1.5,1.5v7.249c0,0.829-0.671,1.5-1.5,1.5h-5.166v4.248h5.166
		c0.829,0,1.5,0.671,1.5,1.5V48.81c0,0.829-0.671,1.5-1.5,1.5h-5.166v4.247h5.166c0.829,0,1.5,0.671,1.5,1.5v8.102
		C106.682,64.988,106.011,65.659,105.182,65.659z M36.682,62.659h67v-5.102h-5.166c-0.829,0-1.5-0.671-1.5-1.5V48.81
		c0-0.829,0.671-1.5,1.5-1.5h5.166V28.154h-5.166c-0.829,0-1.5-0.671-1.5-1.5v-7.248c0-0.829,0.671-1.5,1.5-1.5h5.166v-4.249h-67
		v4.249h3.167c0.829,0,1.5,0.671,1.5,1.5v7.248c0,0.829-0.671,1.5-1.5,1.5h-3.167V47.31h3.167c0.829,0,1.5,0.671,1.5,1.5v7.247
		c0,0.829-0.671,1.5-1.5,1.5h-3.167V62.659z M89.85,57.557h-8.334c-0.829,0-1.5-0.671-1.5-1.5V48.81c0-0.829,0.671-1.5,1.5-1.5
		h8.334c0.829,0,1.5,0.671,1.5,1.5v7.247C91.35,56.886,90.679,57.557,89.85,57.557z M83.016,54.557h5.334V50.31h-5.334V54.557z
		 M73.516,57.557h-8.332c-0.829,0-1.5-0.671-1.5-1.5V48.81c0-0.829,0.671-1.5,1.5-1.5h8.332c0.829,0,1.5,0.671,1.5,1.5v7.247
		C75.016,56.886,74.345,57.557,73.516,57.557z M66.684,54.557h5.332V50.31h-5.332V54.557z M56.85,57.557h-8.334
		c-0.829,0-1.5-0.671-1.5-1.5V48.81c0-0.829,0.671-1.5,1.5-1.5h8.334c0.829,0,1.5,0.671,1.5,1.5v7.247
		C58.35,56.886,57.679,57.557,56.85,57.557z M50.016,54.557h5.334V50.31h-5.334V54.557z M89.85,28.154h-8.334
		c-0.829,0-1.5-0.671-1.5-1.5v-7.248c0-0.829,0.671-1.5,1.5-1.5h8.334c0.829,0,1.5,0.671,1.5,1.5v7.248
		C91.35,27.483,90.679,28.154,89.85,28.154z M83.016,25.154h5.334v-4.248h-5.334V25.154z M73.516,28.154h-8.332
		c-0.829,0-1.5-0.671-1.5-1.5v-7.248c0-0.829,0.671-1.5,1.5-1.5h8.332c0.829,0,1.5,0.671,1.5,1.5v7.248
		C75.016,27.483,74.345,28.154,73.516,28.154z M66.684,25.154h5.332v-4.248h-5.332V25.154z M56.85,28.154h-8.334
		c-0.829,0-1.5-0.671-1.5-1.5v-7.248c0-0.829,0.671-1.5,1.5-1.5h8.334c0.829,0,1.5,0.671,1.5,1.5v7.248
		C58.35,27.483,57.679,28.154,56.85,28.154z M50.016,25.154h5.334v-4.248h-5.334V25.154z" style="fill:#CCCCDE;"></path>
</g>
<g id="Layer_2_1_">
	<path d="M185.979,49.882c0-7.16-5.858-13.018-13.02-13.018H81.731c-7.16,0-13.018,5.858-13.018,13.018
		v136.273c0,7.159,5.858,13.018,13.018,13.018h91.228c7.16,0,13.02-5.856,13.02-13.018V49.882z" style="fill:#DDDDEB;"></path>
	<path d="M74.109,191.29V55.017c0-9.826,3.192-13.018,13.018-13.018
		h91.229c1.772,0,3.465,0.361,5.01,1.01c-1.973-4.692-6.621-8.01-12.01-8.01H80.127c-7.16,0-13.018,5.858-13.018,13.018V184.29
		c0,5.388,3.317,10.035,8.01,12.008C74.471,194.754,74.109,193.062,74.109,191.29z" style="opacity:0.54;fill:#FFFFFF;enable-background:new    ;"></path>
	<path d="M163.982,116.809c0-6.208,4.117-11.451,9.768-13.159V60.191c-0.064,0.001-0.127,0.01-0.191,0.01
		c-5.914,0-10.711-4.75-10.8-10.642h-71.21C91.46,55.45,86.663,60.201,80.75,60.201c-0.684,0-1.351-0.071-2-0.192V104.3
		c4.754,2.164,8.066,6.945,8.066,12.51s-3.312,10.346-8.066,12.51v44.625c0.649-0.121,1.316-0.192,2-0.192
		c5.969,0,10.808,4.839,10.808,10.808c0,0.512-0.048,1.01-0.116,1.5h71.425c-0.068-0.49-0.116-0.988-0.116-1.5
		c0-5.969,4.839-10.808,10.808-10.808c0.065,0,0.129,0.009,0.192,0.01V129.97C168.1,128.259,163.982,123.017,163.982,116.809z" style="fill:#EBEBFA;"></path>
	<path d="M172.959,201.173H81.731c-8.281,0-15.018-6.737-15.018-15.018V49.882
		c0-8.281,6.737-15.018,15.018-15.018h91.228c8.282,0,15.02,6.737,15.02,15.018v136.273
		C187.979,194.436,181.241,201.173,172.959,201.173z M81.731,38.864c-6.075,0-11.018,4.942-11.018,11.018v136.273
		c0,6.075,4.943,11.018,11.018,11.018h91.228c6.076,0,11.02-4.942,11.02-11.018V49.882c0-6.075-4.943-11.018-11.02-11.018H81.731z" style="fill:#6E6E96;"></path>
	<path d="M172.73,36.767H81.503c-7.16,0-13.018,5.858-13.018,13.018
		v136.273c0,7.159,5.858,13.018,13.018,13.018h91.228c7.16,0,13.02-5.857,13.02-13.018V49.785
		C185.75,42.625,179.893,36.767,172.73,36.767z M181.417,181.232c0,6.697-5.479,12.178-12.178,12.178H82.421
		c-6.698,0-12.177-5.479-12.177-12.178V49.763c0-6.697,5.479-12.177,12.177-12.177h86.818c6.698,0,12.178,5.48,12.178,12.177
		V181.232z" style="opacity:0.15;fill:#6E6E96;enable-background:new    ;"></path>
	<polygon points="78.75,165.059 168.625,77.183 168.625,56.059 
		78.997,143.881" style="opacity:0.44;fill:#FFFFFF;enable-background:new    ;"></polygon>
	<path d="M79.92,46.193c-1.595,0-2.887,1.292-2.887,2.887c0,1.595,1.292,2.887,2.887,2.887
		c1.594,0,2.887-1.292,2.887-2.887C82.807,47.485,81.514,46.193,79.92,46.193z M173.25,46.193c-1.596,0-2.887,1.292-2.887,2.887
		c0,1.595,1.292,2.887,2.887,2.887c1.594,0,2.887-1.292,2.887-2.887C176.137,47.485,174.844,46.193,173.25,46.193z" style="fill:#6E6E96;"></path>
	<path d="M172.559,59.201c-1.42,0-2.771-0.28-4.014-0.778
		c0.844,2.099,2.323,3.87,4.205,5.075v-4.307C172.686,59.192,172.623,59.201,172.559,59.201z M172.75,131.244v-2.276
		c-0.788-0.237-1.543-0.552-2.264-0.921C171.086,129.223,171.852,130.295,172.75,131.244z M84.314,109.58
		c0.956,1.87,1.502,3.983,1.502,6.229c0,5.564-3.312,10.346-8.066,12.509v44.625c0.649-0.12,1.316-0.191,2-0.191
		c1.415,0,2.762,0.279,4,0.773v-39.207c4.754-2.163,8.066-6.944,8.066-12.509C91.816,116.469,88.762,111.856,84.314,109.58z
		 M90.549,48.559C90.46,54.45,85.663,59.201,79.75,59.201c-0.684,0-1.351-0.071-2-0.192V103.3c2.485,1.131,4.57,2.982,6,5.282
		V65.008c0.649,0.122,1.316,0.192,2,0.192c5.913,0,10.71-4.75,10.799-10.642h67.139c-1.187-1.707-1.896-3.771-1.93-6L90.549,48.559
		L90.549,48.559z M89.775,179.533c0.5,1.244,0.783,2.602,0.783,4.025c0,0.51-0.048,1.008-0.116,1.5h5.125
		C94.417,182.554,92.343,180.564,89.775,179.533z" style="opacity:0.75;fill:#FFFFFF;enable-background:new    ;"></path>
	<path d="M79.92,182.284c-1.595,0-2.887,1.292-2.887,2.888c0,1.594,1.292,2.887,2.887,2.887
		c1.594,0,2.887-1.293,2.887-2.887C82.807,183.576,81.514,182.284,79.92,182.284z M173.25,182.284c-1.596,0-2.887,1.292-2.887,2.888
		c0,1.594,1.292,2.887,2.887,2.887c1.594,0,2.887-1.293,2.887-2.887C176.137,183.576,174.844,182.284,173.25,182.284z" style="fill:#6E6E96;"></path>
	<path d="M163.936,53.781c-0.724-1.423-1.15-3.022-1.177-4.723h-3.56
		C160.239,51.091,161.898,52.749,163.936,53.781z M78.75,102.623v1.176c0.473,0.215,0.927,0.463,1.37,0.729
		C79.716,103.854,79.259,103.216,78.75,102.623z M169,168.511c-0.064-0.001-0.127-0.01-0.191-0.01
		c-5.97,0-10.809,4.839-10.809,10.808c0,0.512,0.048,1.01,0.116,1.5H91.059c0.323,1.026,0.499,2.117,0.499,3.25
		c0,0.512-0.048,1.01-0.116,1.5h71.425c-0.068-0.49-0.116-0.988-0.116-1.5c0-5.969,4.839-10.808,10.808-10.808
		c0.065,0,0.129,0.009,0.192,0.01v-43.793c-1.758-0.53-3.367-1.405-4.75-2.545L169,168.511L169,168.511z M78.75,168.867v4.576
		c0.649-0.121,1.316-0.192,2-0.192c1.759,0,3.415,0.431,4.883,1.175C84.252,171.708,81.759,169.658,78.75,168.867z M173.559,59.701
		c-1.633,0-3.173-0.372-4.559-1.02v39.718c-5.65,1.708-9.768,6.951-9.768,13.159c0,5.019,2.691,9.404,6.709,11.804
		c-1.238-2.063-1.959-4.473-1.959-7.054c0-6.208,4.117-11.451,9.768-13.159V59.691C173.686,59.692,173.623,59.701,173.559,59.701z" style="opacity:0.15;fill:#6E6E96;enable-background:new    ;"></path>
	<g>
		<rect height="12" width="41.5" style="fill:#BFF2FF;" y="75.559" x="104.75"></rect>
		<path d="M146.25,89.559h-41.5c-1.104,0-2-0.896-2-2v-12c0-1.104,0.896-2,2-2h41.5c1.104,0,2,0.896,2,2v12
			C148.25,88.664,147.354,89.559,146.25,89.559z M106.75,85.559h37.5v-8h-37.5V85.559z" style="fill:#6E6E96;"></path>
	</g>
	<path d="M136.25,100.059h-31.5c-1.104,0-2-0.896-2-2s0.896-2,2-2
		h31.5c1.104,0,2,0.896,2,2S137.354,100.059,136.25,100.059z" style="opacity:0.35;fill:#6E6E96;enable-background:new    ;"></path>
	<path d="M126,110.059h-21.25c-1.104,0-2-0.896-2-2s0.896-2,2-2H126
		c1.104,0,2,0.896,2,2S127.104,110.059,126,110.059z" style="opacity:0.35;fill:#6E6E96;enable-background:new    ;"></path>
	<path d="M137.375,119.559H104.75c-1.104,0-2-0.896-2-2s0.896-2,2-2
		h32.625c1.104,0,2,0.896,2,2S138.479,119.559,137.375,119.559z" style="opacity:0.35;fill:#6E6E96;enable-background:new    ;"></path>
	<path d="M165.941,124.363c0,0-0.191-14.971,9.476-14.971v-6
		C175.417,103.392,156.466,105.667,165.941,124.363z" style="opacity:0.15;fill:#6E6E96;enable-background:new    ;"></path>
	<path d="M85.466,124.363c0,0,0.172-14.971-8.512-14.971v-6
		C76.954,103.392,93.978,105.667,85.466,124.363z" style="opacity:0.15;fill:#6E6E96;enable-background:new    ;"></path>
	<polygon points="84.686,173.122 173.75,84.058 173.75,95.808 
		88.811,180.747" style="opacity:0.2;fill:#FFFFFF;enable-background:new    ;"></polygon>
	<path d="M162.887,188.061c-0.005,0-0.013,0-0.02,0H91.442c-0.578,0-1.128-0.25-1.508-0.687
		c-0.379-0.436-0.552-1.015-0.473-1.588c0.066-0.479,0.097-0.869,0.097-1.226c0-4.856-3.951-8.808-8.808-8.808
		c-0.528,0-1.062,0.052-1.633,0.158c-0.583,0.112-1.188-0.048-1.645-0.428c-0.458-0.38-0.722-0.943-0.722-1.538V129.32
		c0-0.784,0.458-1.495,1.171-1.82c4.188-1.907,6.895-6.103,6.895-10.69s-2.706-8.783-6.895-10.69
		c-0.713-0.325-1.171-1.037-1.171-1.82V60.009c0-0.595,0.265-1.159,0.722-1.539c0.457-0.379,1.063-0.537,1.645-0.427
		c0.571,0.106,1.105,0.158,1.633,0.158c4.78,0,8.727-3.89,8.799-8.672c0.017-1.093,0.907-1.97,2-1.97h71.21
		c1.093,0,1.983,0.877,2,1.97c0.072,4.782,4.02,8.672,8.8,8.672c0.051-0.004,0.142-0.01,0.191-0.01c0.524,0,1.029,0.206,1.403,0.575
		c0.382,0.376,0.597,0.889,0.597,1.425v43.459c0,0.882-0.577,1.659-1.421,1.915c-4.915,1.485-8.347,6.109-8.347,11.245
		c0,5.215,3.354,9.735,8.348,11.247c0.844,0.255,1.421,1.032,1.421,1.914v43.793c0,0.536-0.215,1.049-0.597,1.425
		c-0.382,0.377-0.891,0.571-1.435,0.575c-0.038-0.001-0.165-0.007-0.203-0.01c-4.814,0-8.766,3.951-8.766,8.808
		c0,0.292,0.021,0.603,0.063,0.963c0.047,0.171,0.072,0.351,0.072,0.537C164.887,187.165,163.992,188.061,162.887,188.061z
		 M93.548,184.061h67.212c0.239-6.224,4.941-11.322,10.99-12.181v-40.499c-5.9-2.406-9.769-8.088-9.769-14.572
		c0-6.485,3.867-12.167,9.768-14.571V62.072c-5.468-0.786-9.87-5.079-10.808-10.513H93.365c-1.039,6.022-6.333,10.642-12.615,10.642
		v40.872c4.939,2.768,8.066,8.025,8.066,13.737s-3.126,10.97-8.066,13.737v41.206C87.645,171.753,93.285,177.229,93.548,184.061z" style="fill:#6E6E96;"></path>
	<g style="opacity:0.43;">
		<rect height="3" width="16" style="fill:#966E6E;" y="162.559" x="237.75"></rect>
		<rect height="20.5" width="3" style="fill:#966E6E;" y="156.309" x="244.25"></rect>
	</g>
	<path d="M20.394,177.083c-3.874,0-7.025-3.151-7.025-7.024
		c0-3.874,3.151-7.025,7.025-7.025s7.025,3.151,7.025,7.025C27.419,173.932,24.268,177.083,20.394,177.083z M20.394,166.033
		c-2.219,0-4.025,1.806-4.025,4.025c0,2.219,1.806,4.024,4.025,4.024s4.025-1.806,4.025-4.024
		C24.419,167.839,22.613,166.033,20.394,166.033z" style="opacity:0.38;fill:#6E967E;enable-background:new    ;"></path>
	<g style="opacity:0.43;">
		<rect height="3" width="12.878" style="fill:#9FBFFF;" y="45.046" x="5.75"></rect>
		<rect height="16.5" width="3" style="fill:#9FBFFF;" y="40.309" x="10.689"></rect>
	</g>
</g>
</svg>
