<svg xml:space="preserve" style="enable-background:new 0 0 242.697 242.697;" viewBox="0 0 242.697 242.697" height="242.697px" width="242.697px" y="0px" x="0px" xmlns:xlink="http://www.w3.org/1999/xlink" xmlns="http://www.w3.org/2000/svg" id="Layer_1" version="1.1">
<g style="opacity:0.12;enable-background:new    ;">
	<circle r="121.349" cy="121.349" cx="121.349" style="fill:#6E6E96;"></circle>
</g>
<circle r="7.5" cy="17.215" cx="8.785" style="fill:#77BD91;"></circle>
<circle r="8" cy="229.215" cx="230.785" style="fill:#ED8EDE;"></circle>
<circle r="5.906" cy="28.426" cx="209.267" style="fill:#FFBF00;"></circle>
<g>
	<path d="M203.937,172.326c9.095-14.671,14.35-31.972,14.35-50.501c0-53.02-42.979-96-96-96
		c-53.02,0-96,42.98-96,96c0,53.021,42.98,96,96,96c20.761,0,39.982-6.592,55.688-17.794l33.993,6.271L203.937,172.326z" style="fill:#FFBAF4;"></path>
	<path d="M122.286,219.325c-53.762,0-97.5-43.738-97.5-97.5s43.738-97.5,97.5-97.5s97.5,43.738,97.5,97.5
		c0,17.965-4.925,35.502-14.247,50.759l8.416,35.61l-35.631-6.573C161.859,213.206,142.498,219.325,122.286,219.325z
		 M122.286,27.325c-52.107,0-94.5,42.393-94.5,94.5s42.393,94.5,94.5,94.5c19.797,0,38.752-6.057,54.816-17.515l0.518-0.37
		l32.358,5.969l-7.645-32.344l0.328-0.529c9.24-14.906,14.124-32.096,14.124-49.711C216.786,69.718,174.394,27.325,122.286,27.325z" style="fill:#6E6E96;"></path>
</g>
<circle r="73.285" cy="121.825" cx="122.285" style="fill:#FFE09F;"></circle>
<path d="M87.971,113.539c-3.313,0-6-2.687-6-6v-8.622c0-3.313,2.687-6,6-6s6,2.687,6,6v8.622
	C93.971,110.853,91.285,113.539,87.971,113.539z" style="fill:#6E6E96;"></path>
<g style="opacity:0.15;enable-background:new    ;">
	<path d="M122.285,48.54C81.811,48.54,49,81.351,49,121.825c0,40.475,32.813,73.285,73.285,73.285
		c0.252,0,0.499-0.018,0.75-0.021C85.394,194.687,55,164.062,55,126.325c0-37.989,30.797-68.785,68.785-68.785
		c37.989,0,68.784,30.796,68.784,68.785c0,22.273-10.596,42.064-27.014,54.636c18.191-13.335,30.014-34.851,30.014-59.136
		C195.569,81.351,162.76,48.54,122.285,48.54z" style="fill:#FFFFFF;"></path>
</g>
<path d="M156.996,113.539c-3.313,0-6-2.687-6-6v-8.622c0-3.313,2.687-6,6-6s6,2.687,6,6v8.622
	C162.996,110.853,160.31,113.539,156.996,113.539z" style="fill:#6E6E96;"></path>
<g>
	<path d="M122.108,161.214c-18.204,0-30.281-18.152-30.281-29.67h60.562
		C152.392,131.544,147.315,161.214,122.108,161.214z" style="fill:#FFFFFF;"></path>
	<path d="M122.108,162.714c-19.105,0-31.781-18.761-31.781-31.17c0-0.828,0.671-1.5,1.5-1.5h60.562
		c0.828,0,1.5,0.672,1.5,1.5c0,0.057-1.185,7.693-5.901,15.607C141.92,157.332,132.971,162.714,122.108,162.714z M93.395,133.044
		c0.986,11.267,12.74,26.67,28.714,26.67c20.213,0,26.866-20.482,28.413-26.67H93.395z" style="fill:#6E6E96;"></path>
</g>
<g style="opacity:0.15;enable-background:new    ;">
	<path d="M151.919,54.252c21.262,11.831,35.65,34.518,35.65,60.573c0,38.266-31.021,69.285-69.284,69.285
		C80.021,184.11,49,153.091,49,114.825c0-3.249,0.241-6.439,0.674-9.569C48.587,110.275,48,115.48,48,120.825
		c0,40.475,32.813,73.285,73.285,73.285c40.475,0,73.284-32.812,73.284-73.285C194.569,91.291,177.09,65.854,151.919,54.252z" style="fill:#6E6E96;"></path>
</g>
<path d="M122.285,196.61c-41.237,0-74.785-33.549-74.785-74.785c0-41.237,33.548-74.785,74.785-74.785
	c41.236,0,74.784,33.548,74.784,74.785C197.069,163.062,163.521,196.61,122.285,196.61z M122.285,50.04
	c-39.583,0-71.785,32.203-71.785,71.785c0,39.582,32.203,71.785,71.785,71.785c39.582,0,71.784-32.203,71.784-71.785
	C194.069,82.243,161.867,50.04,122.285,50.04z" style="fill:#6E6E96;"></path>
<g style="opacity:0.15;enable-background:new    ;">
	<polygon points="93.201,138.955 150.246,138.955 152.39,131.544 91.827,131.544" style="fill:#6E6E96;"></polygon>
</g>
</svg>
