<svg xml:space="preserve" style="enable-background:new 0 0 248.785 242.697;" viewBox="0 0 248.785 242.697" height="242.697px" width="248.785px" y="0px" x="0px" xmlns:xlink="http://www.w3.org/1999/xlink" xmlns="http://www.w3.org/2000/svg" id="Layer_1" version="1.1">
<g style="opacity:0.12;enable-background:new    ;">
	<circle r="121.349" cy="121.349" cx="121.349" style="fill:#6E6E96;"></circle>
</g>
<g>
	<path d="M207.828,193.447c0,9.391-7.684,17.073-17.074,17.073H46.476c-9.391,0-17.075-7.685-17.075-17.073
		V67.844c0-9.392,7.684-17.074,17.075-17.074h144.278c9.393,0,17.074,7.683,17.074,17.074V193.447z" style="fill:#BBBBC7;"></path>
	<path d="M207.828,193.447c0,9.391-7.684,17.073-17.074,17.073H46.476c-9.391,0-17.075-7.685-17.075-17.073
		V67.844c0-9.392,7.684-17.074,17.075-17.074h144.278c9.393,0,17.074,7.683,17.074,17.074V193.447z" style="fill:#BBBBC7;"></path>
</g>
<g style="opacity:0.15;enable-background:new    ;">
	<path d="M190.754,50.769H46.476c-9.391,0-17.075,7.683-17.075,17.074v6.5
		c0-9.392,7.684-17.074,17.075-17.074h144.278c9.393,0,17.074,7.683,17.074,17.074v-6.5
		C207.828,58.452,200.146,50.769,190.754,50.769z" style="fill:#FFFFFF;"></path>
</g>
<g>
	<path d="M190.754,212.021H46.476c-10.242,0-18.575-8.332-18.575-18.573V67.844
		c0-10.242,8.333-18.574,18.575-18.574h144.278c10.242,0,18.574,8.332,18.574,18.574v125.604
		C209.328,203.688,200.996,212.021,190.754,212.021z M46.476,52.27c-8.588,0-15.575,6.986-15.575,15.574v125.604
		c0,8.587,6.987,15.573,15.575,15.573h144.278c8.588,0,15.574-6.986,15.574-15.573V67.844c0-8.587-6.986-15.574-15.574-15.574
		H46.476z" style="fill:#6E6E96;"></path>
	<path d="M190.754,212.021H46.476c-10.242,0-18.575-8.332-18.575-18.573V67.844
		c0-10.242,8.333-18.574,18.575-18.574h144.278c10.242,0,18.574,8.332,18.574,18.574v125.604
		C209.328,203.688,200.996,212.021,190.754,212.021z M46.476,52.27c-8.588,0-15.575,6.986-15.575,15.574v125.604
		c0,8.587,6.987,15.573,15.575,15.573h144.278c8.588,0,15.574-6.986,15.574-15.573V67.844c0-8.587-6.986-15.574-15.574-15.574
		H46.476z" style="fill:#6E6E96;"></path>
</g>
<g style="opacity:0.15;enable-background:new    ;">
	<rect height="15.5" width="146.194" style="fill:#FFFFFF;" y="159.849" x="45.698"></rect>
</g>
<path d="M219.568,192.485H17.661c0,0,5.699,18.035,17.199,18.035s167.511,0,167.511,0
	S213.668,208.707,219.568,192.485z" style="fill:#BBBBC7;"></path>
<rect height="101.909" width="145.834" style="fill:#A6D2FF;" y="68.091" x="45.698"></rect>
<path d="M191.532,171.5H45.698c-0.829,0-1.5-0.672-1.5-1.5V68.091c0-0.829,0.671-1.5,1.5-1.5h145.834
	c0.828,0,1.5,0.671,1.5,1.5V170C193.032,170.828,192.36,171.5,191.532,171.5z M47.198,168.5h142.834V69.591H47.198V168.5z" style="fill:#6E6E96;"></path>
<g style="opacity:0.15;enable-background:new    ;">
	<rect height="6.758" width="145.834" style="fill:#6E6E96;" y="68.091" x="45.698"></rect>
</g>
<g>
	<g>
		<path d="M62.195,169.565V39.25c0-4.02,3.289-7.309,7.309-7.309h99.04c4.021,0,7.31,3.289,7.31,7.309
			v130.315" style="fill:#FFFFFF;"></path>
		<path d="M177.354,169.565h-3V39.25c0-3.203-2.606-5.809-5.81-5.809h-99.04
			c-3.203,0-5.809,2.606-5.809,5.809v130.315h-3V39.25c0-4.857,3.952-8.809,8.809-8.809h99.04c4.857,0,8.81,3.952,8.81,8.809
			V169.565z" style="fill:#6E6E96;"></path>
	</g>
	<g>
		<path d="M62.195,169.565V39.25c0-4.02,3.289-7.309,7.309-7.309h99.04c4.021,0,7.31,3.289,7.31,7.309
			v130.315H62.195z" style="fill:#FFFFFF;"></path>
		<path d="M177.354,171.065H60.695V39.25c0-4.857,3.952-8.809,8.809-8.809h99.04
			c4.857,0,8.81,3.952,8.81,8.809V171.065z M63.695,168.065h110.659V39.25c0-3.203-2.606-5.809-5.81-5.809h-99.04
			c-3.203,0-5.809,2.606-5.809,5.809V168.065z" style="fill:#6E6E96;"></path>
	</g>
</g>
<g>
	<rect height="30.892" width="113.657" style="fill:#B6E0C4;" y="71.819" x="62.195"></rect>
	<path d="M177.352,104.211H60.695V70.319h116.657V104.211z M63.695,101.211h110.657V73.319H63.695V101.211z" style="fill:#6E6E96;"></path>
</g>
<g>
	<rect height="3" width="58.473" style="fill:#6E6E96;" y="46.113" x="98.864"></rect>
	<rect height="3" width="9.746" style="fill:#6E6E96;" y="46.113" x="80.833"></rect>
</g>
<g>
	<rect height="3" width="58.473" style="fill:#6E6E96;" y="85.261" x="98.864"></rect>
	<rect height="3" width="9.746" style="fill:#6E6E96;" y="85.261" x="80.833"></rect>
</g>
<g>
	<rect height="3" width="58.473" style="fill:#6E6E96;" y="119.9" x="99.742"></rect>
	<rect height="3" width="9.746" style="fill:#6E6E96;" y="119.9" x="81.712"></rect>
</g>
<g>
	<rect height="3" width="58.473" style="fill:#6E6E96;" y="129.349" x="99.742"></rect>
	<rect height="3" width="9.746" style="fill:#6E6E96;" y="129.349" x="81.712"></rect>
</g>
<circle r="7.5" cy="26.215" cx="7.785" style="fill:#77BD91;"></circle>
<g style="opacity:0.25;enable-background:new    ;">
	<polygon points="20.566,197.51 216.893,197.51 219.052,192.83 18.161,191.813" style="fill:#FFFFFF;"></polygon>
</g>
<circle r="8" cy="150.215" cx="240.785" style="fill:#ED8EDE;"></circle>
<circle r="4.5" cy="17.715" cx="106.285" style="fill:#FFBF00;"></circle>
<path d="M202.371,212.021H34.86c-12.456,0-18.383-18.304-18.629-19.083c-0.144-0.456-0.062-0.953,0.22-1.339
	s0.732-0.613,1.21-0.613h201.907c0.489,0,0.948,0.238,1.229,0.64c0.281,0.4,0.349,0.913,0.181,1.373
	c-6.131,16.856-17.872,18.924-18.369,19.004C202.53,212.015,202.451,212.021,202.371,212.021z M19.815,193.985
	c1.797,4.465,6.91,15.035,15.045,15.035h167.373c1.119-0.227,9.769-2.364,15.136-15.035H19.815z" style="fill:#6E6E96;"></path>
<g style="opacity:0.15;enable-background:new    ;">
	<path d="M202.871,205.077c0,0-156.011,0-167.511,0c-6.184,0-10.688-3.762-13.532-7.239h-3.667
		c0,0,5.699,13.011,17.199,13.011s167.511,0,167.511,0s11.297-1.309,17.197-13.011h-3.99
		C210.152,204.228,202.871,205.077,202.871,205.077z" style="fill:#6E6E96;"></path>
</g>
<g style="opacity:0.15;enable-background:new    ;">
	<rect height="6.637" width="178.427" style="fill:#6E6E96;" y="185.849" x="29.401"></rect>
</g>
<g>
	<rect height="3" width="26.15" style="fill:#6E6E96;" y="139.349" x="99.742"></rect>
	<rect height="3" width="9.746" style="fill:#6E6E96;" y="139.349" x="81.712"></rect>
</g>
<g>
	<rect height="3" width="42.15" style="fill:#6E6E96;" y="148.797" x="99.742"></rect>
	<rect height="3" width="9.746" style="fill:#6E6E96;" y="148.797" x="81.712"></rect>
</g>
<g>
	<rect height="3" width="43.028" style="fill:#6E6E96;" y="55.769" x="98.864"></rect>
	<rect height="3" width="9.746" style="fill:#6E6E96;" y="55.769" x="80.833"></rect>
</g>
<g>
	<rect height="7.25" width="41" style="fill:#BBBBC7;" y="192.349" x="99.893"></rect>
	<path d="M142.393,201.099h-44v-10.25h44V201.099z M101.393,198.099h38v-4.25h-38V198.099z" style="fill:#6E6E96;"></path>
</g>
</svg>
