<svg xml:space="preserve" style="enable-background:new 0 0 256.5 253.117;" viewBox="0 0 256.5 253.117" height="253.117px" width="256.5px" y="0px" x="0px" xmlns:xlink="http://www.w3.org/1999/xlink" xmlns="http://www.w3.org/2000/svg" id="Layer_1" version="1.1">
<g id="Layer_1_1_">
	<g>
		<g>
			<rect height="57.473" width="88.946" style="fill:#E8FFF9;" y="47.684" x="56.667"></rect>
			<path d="M145.613,106.657H56.667c-0.829,0-1.5-0.671-1.5-1.5V47.684c0-0.829,0.671-1.5,1.5-1.5h88.946
				c0.828,0,1.5,0.671,1.5,1.5v57.473C147.113,105.986,146.441,106.657,145.613,106.657z M58.167,103.657h85.946V49.184H58.167
				V103.657z" style="fill:#CCCCDE;"></path>
		</g>
		<rect height="3" width="43.789" style="fill:#CCCCDE;" y="60.553" x="67.614"></rect>
		<rect height="3" width="20.526" style="fill:#CCCCDE;" y="71.499" x="67.614"></rect>
		<rect height="3" width="14.369" style="fill:#CCCCDE;" y="72.183" x="101.14"></rect>
		<rect height="3" width="12.659" style="fill:#CCCCDE;" y="59.868" x="119.613"></rect>
		<rect height="3" width="37.118" style="fill:#CCCCDE;" y="81.762" x="67.614"></rect>
	</g>
	<g>
		<path d="M253.219,126.534c2.85,51.321-9.015,86.913-31.932,99.512
			c-22.771,12.795-56.596,16.448-94.303,15.61c-37.707-0.946-71.532-20.406-94.303-49.322C9.765,162.962-2.098,136.682,0.75,118.051
			c2.848-18.695,19.244-42.279,42.015-69.47C65.682,21.492,94.974,2.649,126.984,1.912c32.01-0.641,61.302,4.149,84.219,19.87
			C233.975,36.515,250.37,75.28,253.219,126.534z" style="fill:#C7E1FF;"></path>
	</g>
	<g style="opacity:0.58;">
		<g>
			<polygon points="223.5,75.209 140.283,75.209 140.283,197.475 236.941,197.475 236.941,88.012" style="fill:#FFFFFF;"></polygon>
			<path d="M236.941,198.975h-96.658c-0.828,0-1.5-0.672-1.5-1.5V75.209c0-0.829,0.672-1.5,1.5-1.5H223.5
				c0.385,0,0.756,0.148,1.034,0.414l13.441,12.803c0.298,0.283,0.466,0.675,0.466,1.086v109.463
				C238.441,198.303,237.77,198.975,236.941,198.975z M141.783,195.975h93.658V88.654L222.9,76.709h-81.117V195.975z" style="fill:#CCCCDE;"></path>
		</g>
		<g>
			<polygon points="236.941,88.012 223.5,88.012 223.5,75.209" style="fill:#FFFFFF;"></polygon>
			<path d="M236.961,89.512c-0.005,0-0.013,0.001-0.02,0H223.5c-0.828,0-1.5-0.671-1.5-1.5V75.209
				c0-0.6,0.357-1.143,0.909-1.379c0.551-0.238,1.191-0.121,1.625,0.293l13.305,12.672c0.377,0.272,0.622,0.716,0.622,1.217
				C238.461,88.84,237.79,89.512,236.961,89.512z M225,86.512h8.191L225,78.709V86.512z" style="fill:#CCCCDE;"></path>
		</g>
		<path d="M195.342,95.984h-17.244c-0.828,0-1.5-0.671-1.5-1.5
			s0.672-1.5,1.5-1.5h17.244c0.828,0,1.5,0.671,1.5,1.5S196.17,95.984,195.342,95.984z" style="opacity:0.21;fill:#6E6E96;enable-background:new    ;"></path>
		<g style="opacity:0.21;">
			<path d="M199.32,107.669h-43.773c-0.828,0-1.5-0.671-1.5-1.5s0.672-1.5,1.5-1.5h43.773
				c0.828,0,1.5,0.671,1.5,1.5S200.148,107.669,199.32,107.669z" style="fill:#6E6E96;"></path>
			<path d="M218.555,107.669h-9.945c-0.828,0-1.5-0.671-1.5-1.5s0.672-1.5,1.5-1.5h9.945
				c0.828,0,1.5,0.671,1.5,1.5S219.383,107.669,218.555,107.669z" style="fill:#6E6E96;"></path>
			<path d="M191.363,113.639h-35.816c-0.828,0-1.5-0.671-1.5-1.5s0.672-1.5,1.5-1.5h35.816
				c0.828,0,1.5,0.671,1.5,1.5S192.191,113.639,191.363,113.639z" style="fill:#6E6E96;"></path>
			<path d="M218.555,113.639h-22.55c-0.828,0-1.5-0.671-1.5-1.5s0.672-1.5,1.5-1.5h22.55
				c0.828,0,1.5,0.671,1.5,1.5S219.383,113.639,218.555,113.639z" style="fill:#6E6E96;"></path>
			<path d="M172.462,120.936h-16.915c-0.828,0-1.5-0.671-1.5-1.5s0.672-1.5,1.5-1.5h16.915
				c0.828,0,1.5,0.671,1.5,1.5S173.29,120.936,172.462,120.936z" style="fill:#6E6E96;"></path>
			<path d="M188.71,120.936h-9.95c-0.828,0-1.5-0.671-1.5-1.5s0.672-1.5,1.5-1.5h9.95
				c0.828,0,1.5,0.671,1.5,1.5S189.538,120.936,188.71,120.936z" style="fill:#6E6E96;"></path>
			<path d="M218.555,120.936h-25.201c-0.828,0-1.5-0.671-1.5-1.5s0.672-1.5,1.5-1.5h25.201
				c0.828,0,1.5,0.671,1.5,1.5S219.383,120.936,218.555,120.936z" style="fill:#6E6E96;"></path>
			<path d="M182.408,128.229h-26.861c-0.828,0-1.5-0.671-1.5-1.5s0.672-1.5,1.5-1.5h26.861
				c0.828,0,1.5,0.671,1.5,1.5S183.236,128.229,182.408,128.229z" style="fill:#6E6E96;"></path>
			<path d="M193.021,128.229h-3.316c-0.828,0-1.5-0.671-1.5-1.5s0.672-1.5,1.5-1.5h3.316
				c0.828,0,1.5,0.671,1.5,1.5S193.85,128.229,193.021,128.229z" style="fill:#6E6E96;"></path>
			<path d="M218.555,128.229h-18.902c-0.828,0-1.5-0.671-1.5-1.5s0.672-1.5,1.5-1.5h18.902
				c0.828,0,1.5,0.671,1.5,1.5S219.383,128.229,218.555,128.229z" style="fill:#6E6E96;"></path>
		</g>
		<path d="M194.353,182.542c-0.337,0-0.677-0.113-0.957-0.346
			c-0.638-0.529-0.726-1.475-0.196-2.112c6.062-7.304,10.29-10.471,12.575-9.424c1.98,0.912,1.494,3.738,1.334,4.667
			c-0.402,2.333-0.365,3.466-0.287,3.979c0.913-0.499,2.547-2.133,3.22-2.806c1.287-1.288,2.484-1.715,3.56-1.269
			c0.558,0.23,0.928,0.643,1.173,1.097l3.866-1.643c0.764-0.323,1.644,0.032,1.968,0.794c0.323,0.763-0.032,1.644-0.794,1.968
			l-5.472,2.324c-0.464,0.197-0.994,0.148-1.415-0.13c-0.382-0.253-0.625-0.665-0.666-1.117c-0.031,0.03-0.064,0.062-0.099,0.097
			c-2.19,2.19-4.667,4.67-6.82,3.559c-1.989-1.031-1.718-4.301-1.19-7.362c0.1-0.577,0.127-0.973,0.126-1.236
			c-1.611,0.757-5.43,4.395-8.77,8.419C195.211,182.357,194.783,182.542,194.353,182.542z" style="opacity:0.3;fill:#6E6E96;enable-background:new    ;"></path>
		<path d="M191.031,135.195h-35.484c-0.828,0-1.5-0.672-1.5-1.5
			s0.672-1.5,1.5-1.5h35.484c0.828,0,1.5,0.672,1.5,1.5S191.859,135.195,191.031,135.195z" style="opacity:0.21;fill:#6E6E96;enable-background:new    ;"></path>
		<g style="opacity:0.21;">
			<path d="M199.32,141.361h-43.773c-0.828,0-1.5-0.672-1.5-1.5s0.672-1.5,1.5-1.5h43.773
				c0.828,0,1.5,0.672,1.5,1.5S200.148,141.361,199.32,141.361z" style="fill:#6E6E96;"></path>
			<path d="M218.555,141.361h-9.945c-0.828,0-1.5-0.672-1.5-1.5s0.672-1.5,1.5-1.5h9.945
				c0.828,0,1.5,0.672,1.5,1.5S219.383,141.361,218.555,141.361z" style="fill:#6E6E96;"></path>
			<path d="M191.363,147.333h-35.816c-0.828,0-1.5-0.672-1.5-1.5s0.672-1.5,1.5-1.5h35.816
				c0.828,0,1.5,0.672,1.5,1.5S192.191,147.333,191.363,147.333z" style="fill:#6E6E96;"></path>
			<path d="M218.555,147.333h-22.55c-0.828,0-1.5-0.672-1.5-1.5s0.672-1.5,1.5-1.5h22.55
				c0.828,0,1.5,0.672,1.5,1.5S219.383,147.333,218.555,147.333z" style="fill:#6E6E96;"></path>
			<path d="M172.462,154.63h-16.915c-0.828,0-1.5-0.672-1.5-1.5s0.672-1.5,1.5-1.5h16.915
				c0.828,0,1.5,0.672,1.5,1.5S173.29,154.63,172.462,154.63z" style="fill:#6E6E96;"></path>
			<path d="M188.71,154.63h-9.95c-0.828,0-1.5-0.672-1.5-1.5s0.672-1.5,1.5-1.5h9.95
				c0.828,0,1.5,0.672,1.5,1.5S189.538,154.63,188.71,154.63z" style="fill:#6E6E96;"></path>
			<path d="M218.555,154.63h-25.201c-0.828,0-1.5-0.672-1.5-1.5s0.672-1.5,1.5-1.5h25.201
				c0.828,0,1.5,0.672,1.5,1.5S219.383,154.63,218.555,154.63z" style="fill:#6E6E96;"></path>
			<path d="M182.408,161.924h-26.861c-0.828,0-1.5-0.672-1.5-1.5s0.672-1.5,1.5-1.5h26.861
				c0.828,0,1.5,0.672,1.5,1.5S183.236,161.924,182.408,161.924z" style="fill:#6E6E96;"></path>
			<path d="M193.021,161.924h-3.316c-0.828,0-1.5-0.672-1.5-1.5s0.672-1.5,1.5-1.5h3.316
				c0.828,0,1.5,0.672,1.5,1.5S193.85,161.924,193.021,161.924z" style="fill:#6E6E96;"></path>
			<path d="M218.555,161.924h-18.902c-0.828,0-1.5-0.672-1.5-1.5s0.672-1.5,1.5-1.5h18.902
				c0.828,0,1.5,0.672,1.5,1.5S219.383,161.924,218.555,161.924z" style="fill:#6E6E96;"></path>
		</g>
	</g>
	<g>
		<g>
			<polygon points="1.615,196.711 1.615,151.711 72.615,151.711 72.615,222.711 27.615,222.711" style="fill:#FAFFFA;"></polygon>
			<path d="M72.615,224.211h-45c-0.398,0-0.779-0.158-1.061-0.439l-26-26
				c-0.281-0.281-0.439-0.663-0.439-1.061v-45c0-0.828,0.671-1.5,1.5-1.5h71c0.829,0,1.5,0.672,1.5,1.5v71
				C74.115,223.539,73.444,224.211,72.615,224.211z M28.236,221.211h42.879v-68h-68v42.879L28.236,221.211z" style="fill:#CCCCDE;"></path>
		</g>
		<g>
			<polygon points="1.615,196.711 27.615,196.711 27.615,222.711" style="fill:#EDFFEB;"></polygon>
			<path d="M27.616,224.211c-0.391,0-0.774-0.152-1.061-0.439l-26-26c-0.429-0.429-0.558-1.074-0.325-1.635
				c0.232-0.561,0.779-0.926,1.386-0.926h26c0.829,0,1.5,0.672,1.5,1.5v26c0,0.606-0.365,1.153-0.926,1.386
				C28.004,224.174,27.809,224.211,27.616,224.211z M5.236,198.211l20.879,20.879v-20.879H5.236z" style="fill:#CCCCDE;"></path>
		</g>
	</g>
</g>
<g>
	<g>
		<path d="M225.997,203.208h-3v-63.039c0-2.874-2.339-5.212-5.213-5.212h-0.197
			c-2.874,0-5.213,2.338-5.213,5.212v9.354c0,4.527-3.684,8.211-8.211,8.211h-23.575v-3h23.575c2.873,0,5.211-2.338,5.211-5.211
			v-9.354c0-4.528,3.685-8.212,8.213-8.212h0.197c4.528,0,8.213,3.684,8.213,8.212V203.208z" style="fill:#6E6E96;"></path>
	</g>
	<g style="opacity:0.18;">
		<path d="M226.243,205.609h-3v-63.038c0-2.875-2.338-5.214-5.212-5.214h-0.198
			c-2.873,0-5.211,2.339-5.211,5.214v9.354c0,4.527-3.685,8.211-8.213,8.211h-23.575v-3h23.575c2.874,0,5.213-2.338,5.213-5.211
			v-9.354c0-4.529,3.684-8.214,8.211-8.214h0.198c4.528,0,8.212,3.685,8.212,8.214V205.609z" style="fill:#6E6E96;"></path>
	</g>
	<g>
		<path d="M228.075,187.462c0,1.412-1.155,2.565-2.566,2.565h-1.426c-1.411,0-2.565-1.153-2.565-2.565v-7.555
			c0-1.412,1.154-2.566,2.565-2.566h1.426c1.411,0,2.566,1.154,2.566,2.566V187.462z" style="fill:#D5D7E0;"></path>
		<path d="M225.509,191.527h-1.426c-2.241,0-4.065-1.824-4.065-4.065v-7.555c0-2.242,1.824-4.066,4.065-4.066
			h1.426c2.242,0,4.066,1.824,4.066,4.066v7.555C229.575,189.703,227.751,191.527,225.509,191.527z M224.083,178.841
			c-0.588,0-1.065,0.479-1.065,1.066v7.555c0,0.588,0.478,1.065,1.065,1.065h1.426c0.588,0,1.066-0.478,1.066-1.065v-7.555
			c0-0.588-0.479-1.066-1.066-1.066H224.083z" style="fill:#6E6E96;"></path>
	</g>
	<g>
		<path d="M244.098,229.958c0,11.583-8.646,21.062-19.209,21.062c-10.562,0-19.209-9.479-19.209-21.062
			v-25.272c0-11.584,8.646-21.062,19.209-21.062c10.563,0,19.209,9.478,19.209,21.062V229.958L244.098,229.958z" style="fill:#FFFFFF;"></path>
	</g>
	<path d="M208.329,236.061V210.79
		c0-11.585,8.644-21.062,19.208-21.062c6.186,0,11.71,3.252,15.229,8.27c-2.671-8.122-9.783-13.973-18.078-13.973
		c-10.564,0-19.209,9.478-19.209,21.062v25.271c0,4.802,1.489,9.238,3.979,12.791C208.729,240.932,208.329,238.544,208.329,236.061z" style="opacity:0.3;fill:#F5F5F5;enable-background:new    ;"></path>
	<g>
		<path d="M224.889,252.52c-11.419,0-20.709-10.121-20.709-22.562v-25.272c0-12.44,9.29-22.562,20.709-22.562
			s20.709,10.121,20.709,22.562v25.272C245.598,242.398,236.308,252.52,224.889,252.52z M224.889,185.124
			c-9.765,0-17.709,8.775-17.709,19.562v25.272c0,10.786,7.944,19.562,17.709,19.562s17.709-8.775,17.709-19.562v-25.272
			C242.598,193.899,234.653,185.124,224.889,185.124z" style="fill:#6E6E96;"></path>
	</g>
	<path d="M235.846,187.42c2.831,3.67,4.547,8.405,4.547,13.561
		v25.272c0,11.583-8.646,21.062-19.209,21.062c-4.064,0-7.843-1.408-10.957-3.795c3.531,4.578,8.801,7.5,14.662,7.5
		c10.563,0,19.209-9.477,19.209-21.062v-25.271C244.098,197.559,240.822,191.234,235.846,187.42z" style="opacity:0.25;fill:#6E6E96;enable-background:new    ;"></path>
	<path d="M224.496,199.913c-0.828,0-1.5-0.672-1.5-1.5V184.48c0-0.828,0.672-1.5,1.5-1.5s1.5,0.672,1.5,1.5
		v13.933C225.996,199.241,225.324,199.913,224.496,199.913z" style="fill:#6E6E96;"></path>
</g>
<g>
	<g>
		<path d="M181.486,198.677c0,2.304-1.885,4.188-4.188,4.188H29.332c-2.304,0-4.188-1.885-4.188-4.188
			v-85.219c0-2.303,1.884-4.187,4.188-4.187h147.966c2.304,0,4.188,1.884,4.188,4.187V198.677L181.486,198.677z" style="fill:#D5D7E0;"></path>
	</g>
	<path d="M176.88,108.778H28.913c-2.304,0-4.189,1.886-4.189,4.189
		v5.027c0-2.304,1.885-4.19,4.189-4.19H176.88c2.304,0,4.188,1.886,4.188,4.19v-5.027
		C181.066,110.666,179.184,108.778,176.88,108.778z" style="opacity:0.45;fill:#FFFFFF;enable-background:new    ;"></path>
	<g>
		<path d="M121.686,190.626c0,1.383-1.13,2.512-2.513,2.512h-34.45c-1.382,0-2.513-1.129-2.513-2.512v-12.635
			c0-1.382,1.13-2.513,2.513-2.513h34.45c1.382,0,2.513,1.131,2.513,2.513V190.626L121.686,190.626z" style="fill:#F0F0F0;"></path>
		<path d="M119.173,194.638h-34.45c-2.213,0-4.013-1.8-4.013-4.012v-12.635c0-2.213,1.8-4.013,4.013-4.013
			h34.45c2.213,0,4.013,1.8,4.013,4.013v12.635C123.186,192.838,121.386,194.638,119.173,194.638z M84.723,176.979
			c-0.559,0-1.013,0.454-1.013,1.013v12.635c0,0.558,0.455,1.012,1.013,1.012h34.45c0.559,0,1.013-0.454,1.013-1.012v-12.635
			c0-0.549-0.464-1.013-1.013-1.013H84.723z" style="fill:#6E6E96;"></path>
		<rect height="3" width="39.476" style="fill:#6E6E96;" y="185.659" x="82.21"></rect>
		<rect height="5.979" width="3" style="fill:#6E6E96;" y="187.159" x="100.446"></rect>
	</g>
	<g>
		<path d="M177.298,204.365H29.332c-3.136,0-5.688-2.552-5.688-5.688v-85.219
			c0-3.136,2.552-5.687,5.688-5.687h147.966c3.137,0,5.688,2.551,5.688,5.687v85.219
			C182.986,201.813,180.435,204.365,177.298,204.365z M29.332,110.771c-1.482,0-2.688,1.206-2.688,2.687v85.219
			c0,1.482,1.206,2.688,2.688,2.688h147.966c1.482,0,2.688-1.206,2.688-2.688v-85.219c0-1.481-1.206-2.687-2.688-2.687H29.332z" style="fill:#6E6E96;"></path>
	</g>
	<g>
		<path d="M183.441,100.597c0,2.5-2.045,4.543-4.545,4.543H28.013c-2.5,0-4.544-2.043-4.544-4.543V7.767
			c0-2.5,2.044-4.544,4.544-4.544h150.883c2.5,0,4.545,2.045,4.545,4.544V100.597L183.441,100.597z" style="fill:#D0D2DB;"></path>
	</g>
	<rect height="80.447" width="141.645" style="fill:#FFFFFF;" y="12.615" x="32.545"></rect>
	<path d="M178.896,4.131H28.013c-2.5,0-4.544,2.045-4.544,4.545v3.03
		c0-2.5,2.044-4.545,4.544-4.545h150.883c2.5,0,4.545,2.045,4.545,4.545v-3.03C183.441,6.176,181.396,4.131,178.896,4.131z" style="opacity:0.57;fill:#F2F5FF;enable-background:new    ;"></path>
	<g>
		<path d="M178.896,106.64H28.013c-3.333,0-6.044-2.711-6.044-6.043V7.767c0-3.333,2.711-6.044,6.044-6.044
			h150.883c3.333,0,6.045,2.711,6.045,6.044v92.83C184.941,103.929,182.229,106.64,178.896,106.64z M28.013,4.723
			c-1.679,0-3.044,1.366-3.044,3.044v92.83c0,1.678,1.366,3.043,3.044,3.043h150.883c1.679,0,3.045-1.365,3.045-3.043V7.767
			c0-1.678-1.366-3.044-3.045-3.044H28.013z" style="fill:#6E6E96;"></path>
	</g>
	<path d="M177.298,197.63H29.332c-2.304,0-4.188-1.885-4.188-4.188
		v6.144c0,2.304,1.884,4.188,4.188,4.188h147.966c2.304,0,4.188-1.885,4.188-4.188v-6.144
		C181.486,195.745,179.602,197.63,177.298,197.63z" style="opacity:0.15;fill:#6E6E96;enable-background:new    ;"></path>
	<rect height="5.758" width="141.645" style="opacity:0.15;fill:#6E6E96;enable-background:new    ;" y="12.615" x="32.545"></rect>
	<polygon points="174.189,18.373 104.955,93.062 174.264,93.062" style="opacity:0.25;fill:#FFFFFF;enable-background:new    ;"></polygon>
	<polygon points="126.919,93.062 174.264,40.264 174.264,93.062" style="opacity:0.25;fill:#FFFFFF;enable-background:new    ;"></polygon>
	<polygon points="83.286,93.062 152.521,18.373 142.373,18.373 
		73.139,93.062" style="opacity:0.25;fill:#FFFFFF;enable-background:new    ;"></polygon>
	<path d="M174.189,94.562H32.545c-0.829,0-1.5-0.671-1.5-1.5V12.615c0-0.829,0.671-1.5,1.5-1.5h141.645
		c0.828,0,1.5,0.671,1.5,1.5v80.447C175.689,93.891,175.018,94.562,174.189,94.562z M34.045,91.562h138.645V14.115H34.045V91.562z" style="fill:#6E6E96;"></path>
	<path d="M114.042,8.661h-19.09c-0.829,0-1.5-0.671-1.5-1.5V3.222c0-0.829,0.671-1.5,1.5-1.5h19.09
		c0.829,0,1.5,0.671,1.5,1.5v3.939C115.542,7.99,114.871,8.661,114.042,8.661z M96.452,5.661h16.09V4.722h-16.09V5.661z" style="fill:#6E6E96;"></path>
	<g>
		<rect height="7.221" width="18.991" style="fill:#DADCE6;" y="103.753" x="36.148"></rect>
		<path d="M55.139,112.474H36.148c-0.829,0-1.5-0.671-1.5-1.5v-7.221c0-0.829,0.671-1.5,1.5-1.5h18.991
			c0.829,0,1.5,0.671,1.5,1.5v7.221C56.639,111.803,55.968,112.474,55.139,112.474z M37.648,109.474h15.991v-4.221H37.648V109.474z" style="fill:#6E6E96;"></path>
	</g>
	<g>
		<rect height="7.221" width="19.574" style="fill:#DADCE6;" y="103.753" x="149.855"></rect>
		<path d="M169.43,112.474h-19.574c-0.828,0-1.5-0.671-1.5-1.5v-7.221c0-0.829,0.672-1.5,1.5-1.5h19.574
			c0.828,0,1.5,0.671,1.5,1.5v7.221C170.93,111.803,170.258,112.474,169.43,112.474z M151.355,109.474h16.574v-4.221h-16.574
			V109.474z" style="fill:#6E6E96;"></path>
	</g>
	<rect height="3.15" width="17.172" style="opacity:0.15;fill:#6E6E96;enable-background:new    ;" y="107.825" x="36.148"></rect>
	<rect height="3.148" width="19.574" style="opacity:0.15;fill:#6E6E96;enable-background:new    ;" y="107.827" x="149.855"></rect>
	<rect height="3" width="39.476" style="opacity:0.15;fill:#6E6E96;enable-background:new    ;" y="187.49" x="82.21"></rect>
	<rect height="3" width="39.476" style="opacity:0.15;fill:#6E6E96;enable-background:new    ;" y="176.491" x="82.21"></rect>
	<g style="opacity:0.57;">
		<path d="M74.538,136.509v-4.405c0-0.896-0.85-1.625-1.89-1.625
			h-5.554c-1.039,0-1.89,0.729-1.89,1.625v4.405c0,0.894,0.851,1.625,1.89,1.625h5.554
			C73.687,138.134,74.538,137.402,74.538,136.509z" style="opacity:0.55;fill:#6E6E96;enable-background:new    ;"></path>
		<path d="M62.053,136.509v-4.405c0-0.896-0.85-1.625-1.891-1.625
			H54.61c-1.039,0-1.889,0.729-1.889,1.625v4.405c0,0.894,0.85,1.625,1.889,1.625h5.553
			C61.204,138.134,62.053,137.402,62.053,136.509z" style="opacity:0.55;fill:#6E6E96;enable-background:new    ;"></path>
		<path d="M85.134,138.134c1.037,0,1.888-0.729,1.888-1.625v-4.405
			c0-0.896-0.85-1.625-1.888-1.625h-5.555c-1.04,0-1.889,0.729-1.889,1.625v4.405c0,0.894,0.85,1.625,1.889,1.625H85.134z" style="opacity:0.55;fill:#6E6E96;enable-background:new    ;"></path>
		<path d="M122.584,138.134c1.041,0,1.891-0.729,1.891-1.625v-4.405
			c0-0.896-0.85-1.625-1.891-1.625h-5.551c-1.039,0-1.89,0.729-1.89,1.625v4.405c0,0.894,0.85,1.625,1.89,1.625H122.584z" style="opacity:0.55;fill:#6E6E96;enable-background:new    ;"></path>
		<path d="M97.617,138.134c1.039,0,1.89-0.729,1.89-1.625v-4.405
			c0-0.896-0.851-1.625-1.89-1.625h-5.553c-1.039,0-1.89,0.729-1.89,1.625v4.405c0,0.894,0.851,1.625,1.89,1.625H97.617z" style="opacity:0.55;fill:#6E6E96;enable-background:new    ;"></path>
		<path d="M104.547,138.134h5.553c1.039,0,1.893-0.729,1.893-1.625
			v-4.405c0-0.896-0.854-1.625-1.893-1.625h-5.553c-1.041,0-1.89,0.729-1.89,1.625v4.405
			C102.658,137.402,103.507,138.134,104.547,138.134z" style="opacity:0.55;fill:#6E6E96;enable-background:new    ;"></path>
		<path d="M135.07,138.134c1.037,0,1.887-0.729,1.887-1.625v-4.405
			c0-0.896-0.85-1.625-1.887-1.625h-5.555c-1.04,0-1.89,0.729-1.89,1.625v4.405c0,0.894,0.85,1.625,1.89,1.625H135.07z" style="opacity:0.55;fill:#6E6E96;enable-background:new    ;"></path>
		<path d="M140.113,132.104v4.405c0,0.896,0.848,1.625,1.887,1.625
			h5.555c1.036,0,1.887-0.729,1.887-1.625v-4.405c0-0.894-0.849-1.625-1.887-1.625H142
			C140.961,130.479,140.113,131.21,140.113,132.104z" style="opacity:0.55;fill:#6E6E96;enable-background:new    ;"></path>
		<path d="M42.125,138.134h5.553c1.04,0,1.889-0.729,1.889-1.625
			v-4.405c0-0.896-0.849-1.625-1.889-1.625h-5.553c-1.038,0-1.889,0.729-1.889,1.625v4.405
			C40.237,137.402,41.087,138.134,42.125,138.134z" style="opacity:0.55;fill:#6E6E96;enable-background:new    ;"></path>
		<path d="M164.762,130.479h-10.277
			c-1.041,0-1.891,0.729-1.891,1.625v4.405c0,0.894,0.85,1.625,1.891,1.625h10.277c1.035,0,1.889-0.729,1.889-1.625v-4.405
			C166.65,131.21,165.797,130.479,164.762,130.479z" style="opacity:0.55;fill:#6E6E96;enable-background:new    ;"></path>
		<path d="M126.063,145.907V141.5c0-0.895-0.85-1.624-1.889-1.624
			h-5.094c-1.04,0-1.891,0.731-1.891,1.624v4.407c0,0.892,0.851,1.625,1.891,1.625h5.094
			C125.211,147.531,126.063,146.799,126.063,145.907z" style="opacity:0.55;fill:#6E6E96;enable-background:new    ;"></path>
		<path d="M103.341,145.907V141.5c0-0.895-0.849-1.624-1.889-1.624
			h-5.095c-1.039,0-1.89,0.731-1.89,1.624v4.407c0,0.892,0.851,1.625,1.89,1.625h5.095
			C102.492,147.531,103.341,146.799,103.341,145.907z" style="opacity:0.55;fill:#6E6E96;enable-background:new    ;"></path>
		<path d="M114.701,145.907V141.5c0-0.895-0.85-1.624-1.89-1.624
			h-5.094c-1.037,0-1.89,0.731-1.89,1.624v4.407c0,0.892,0.851,1.625,1.89,1.625h5.094
			C113.852,147.531,114.701,146.799,114.701,145.907z" style="opacity:0.55;fill:#6E6E96;enable-background:new    ;"></path>
		<path d="M148.781,145.907V141.5c0-0.895-0.852-1.624-1.891-1.624
			h-5.095c-1.038,0-1.888,0.731-1.888,1.624v4.407c0,0.892,0.85,1.625,1.888,1.625h5.095
			C147.932,147.531,148.781,146.799,148.781,145.907z" style="opacity:0.55;fill:#6E6E96;enable-background:new    ;"></path>
		<path d="M62.276,147.531h5.096c1.039,0,1.889-0.732,1.889-1.624
			v-4.408c0-0.896-0.849-1.624-1.889-1.624h-5.096c-1.038,0-1.888,0.73-1.888,1.624v4.408
			C60.388,146.799,61.238,147.531,62.276,147.531z" style="opacity:0.55;fill:#6E6E96;enable-background:new    ;"></path>
		<path d="M73.638,147.531h5.095c1.039,0,1.889-0.732,1.889-1.624
			v-4.408c0-0.896-0.849-1.624-1.889-1.624h-5.095c-1.04,0-1.89,0.73-1.89,1.624v4.408
			C71.748,146.799,72.597,147.531,73.638,147.531z" style="opacity:0.55;fill:#6E6E96;enable-background:new    ;"></path>
		<path d="M130.438,147.531h5.096c1.04,0,1.891-0.732,1.891-1.624
			v-4.408c0-0.896-0.851-1.624-1.891-1.624h-5.096c-1.037,0-1.887,0.73-1.887,1.624v4.408
			C128.551,146.799,129.398,147.531,130.438,147.531z" style="opacity:0.55;fill:#6E6E96;enable-background:new    ;"></path>
		<path d="M91.981,145.907V141.5c0-0.895-0.85-1.624-1.89-1.624
			h-5.094c-1.039,0-1.889,0.731-1.889,1.624v4.407c0,0.892,0.85,1.625,1.889,1.625h5.094
			C91.131,147.531,91.981,146.799,91.981,145.907z" style="opacity:0.55;fill:#6E6E96;enable-background:new    ;"></path>
		<path d="M40.237,145.907c0,0.892,0.849,1.625,1.889,1.625h13.775
			c1.038,0,1.889-0.731,1.889-1.625V141.5c0-0.895-0.85-1.624-1.889-1.624H42.125c-1.038,0-1.889,0.731-1.889,1.624L40.237,145.907
			L40.237,145.907z" style="opacity:0.55;fill:#6E6E96;enable-background:new    ;"></path>
		<path d="M164.762,139.875h-11.572c-1.037,0-1.888,0.73-1.888,1.624
			v4.408c0,0.891,0.851,1.624,1.888,1.624h11.571c1.035,0,1.89-0.732,1.89-1.624v-4.408
			C166.65,140.604,165.797,139.875,164.762,139.875z" style="opacity:0.55;fill:#6E6E96;enable-background:new    ;"></path>
		<path d="M73.669,149.617h-5.096c-1.038,0-1.888,0.732-1.888,1.626
			v4.407c0,0.893,0.85,1.628,1.888,1.628h5.096c1.039,0,1.889-0.733,1.889-1.628v-4.407C75.56,150.35,74.709,149.617,73.669,149.617
			z" style="opacity:0.55;fill:#6E6E96;enable-background:new    ;"></path>
		<path d="M79.938,157.277h5.095c1.04,0,1.889-0.732,1.889-1.627
			v-4.407c0-0.894-0.85-1.626-1.889-1.626h-5.095c-1.039,0-1.888,0.732-1.888,1.626v4.407
			C78.05,156.543,78.899,157.277,79.938,157.277z" style="opacity:0.55;fill:#6E6E96;enable-background:new    ;"></path>
		<path d="M136.762,157.277h5.096c1.039,0,1.888-0.732,1.888-1.627
			v-4.407c0-0.894-0.851-1.626-1.888-1.626h-5.096c-1.039,0-1.89,0.732-1.89,1.626v4.407
			C134.872,156.543,135.723,157.277,136.762,157.277z" style="opacity:0.55;fill:#6E6E96;enable-background:new    ;"></path>
		<path d="M91.304,157.277h5.095c1.039,0,1.888-0.732,1.888-1.627
			v-4.407c0-0.894-0.85-1.626-1.888-1.626h-5.095c-1.039,0-1.89,0.732-1.89,1.626v4.407
			C89.414,156.543,90.265,157.277,91.304,157.277z" style="opacity:0.55;fill:#6E6E96;enable-background:new    ;"></path>
		<path d="M132.38,155.65v-4.407c0-0.894-0.849-1.626-1.887-1.626
			h-5.095c-1.041,0-1.89,0.732-1.89,1.626v4.407c0,0.893,0.85,1.627,1.89,1.627h5.095C131.529,157.277,132.38,156.543,132.38,155.65
			z" style="opacity:0.55;fill:#6E6E96;enable-background:new    ;"></path>
		<path d="M114.032,157.277h5.096c1.039,0,1.89-0.732,1.89-1.627
			v-4.407c0-0.894-0.85-1.626-1.89-1.626h-5.096c-1.039,0-1.89,0.732-1.89,1.626v4.407
			C112.142,156.543,112.991,157.277,114.032,157.277z" style="opacity:0.55;fill:#6E6E96;enable-background:new    ;"></path>
		<path d="M102.667,157.277h5.095c1.042,0,1.889-0.732,1.889-1.627
			v-4.407c0-0.894-0.848-1.626-1.889-1.626h-5.095c-1.039,0-1.889,0.732-1.889,1.626v4.407
			C100.778,156.543,101.628,157.277,102.667,157.277z" style="opacity:0.55;fill:#6E6E96;enable-background:new    ;"></path>
		<path d="M64.401,151.243c0-0.894-0.85-1.626-1.889-1.626H42.125
			c-1.038,0-1.889,0.73-1.889,1.626v4.405c0,0.895,0.849,1.627,1.889,1.627h20.387c1.039,0,1.889-0.732,1.889-1.627V151.243
			L64.401,151.243z" style="opacity:0.55;fill:#6E6E96;enable-background:new    ;"></path>
		<path d="M164.762,149.617h-16.453
			c-1.035,0-1.888,0.732-1.888,1.626v4.407c0,0.893,0.851,1.628,1.888,1.628h16.453c1.035,0,1.889-0.733,1.889-1.628v-4.407
			C166.65,150.35,165.797,149.617,164.762,149.617z" style="opacity:0.55;fill:#6E6E96;enable-background:new    ;"></path>
		<path d="M47.68,159.938h-5.553c-1.038,0-1.889,0.731-1.889,1.625
			v4.407c0,0.89,0.849,1.622,1.889,1.622h5.553c1.04,0,1.889-0.73,1.889-1.622v-4.407C49.569,160.669,48.719,159.938,47.68,159.938z" style="opacity:0.55;fill:#6E6E96;enable-background:new    ;"></path>
		<path d="M59.85,159.938h-5.555c-1.037,0-1.888,0.731-1.888,1.625
			v4.407c0,0.89,0.85,1.622,1.888,1.622h5.555c1.04,0,1.888-0.73,1.888-1.622v-4.407C61.738,160.669,60.888,159.938,59.85,159.938z" style="opacity:0.55;fill:#6E6E96;enable-background:new    ;"></path>
		<path d="M71.657,159.938h-5.554c-1.04,0-1.889,0.731-1.889,1.625
			v4.407c0,0.89,0.85,1.622,1.889,1.622h5.554c1.038,0,1.889-0.73,1.889-1.622v-4.407C73.546,160.669,72.695,159.938,71.657,159.938
			z" style="opacity:0.55;fill:#6E6E96;enable-background:new    ;"></path>
		<path d="M122.806,159.938H78.383c-1.04,0-1.889,0.731-1.889,1.625
			v4.407c0,0.89,0.849,1.622,1.889,1.622h44.423c1.04,0,1.891-0.73,1.891-1.622v-4.407
			C124.697,160.669,123.846,159.938,122.806,159.938z" style="opacity:0.55;fill:#6E6E96;enable-background:new    ;"></path>
		<path d="M136.189,159.938h-6.959c-1.039,0-1.888,0.731-1.888,1.625
			v4.407c0,0.89,0.849,1.622,1.888,1.622h6.959c1.037,0,1.889-0.73,1.889-1.622v-4.407
			C138.078,160.669,137.229,159.938,136.189,159.938z" style="opacity:0.55;fill:#6E6E96;enable-background:new    ;"></path>
		<path d="M164.762,159.938h-6.957c-1.039,0-1.89,0.731-1.89,1.625
			v4.407c0,0.89,0.849,1.622,1.89,1.622h6.957c1.035,0,1.889-0.73,1.889-1.622v-4.407
			C166.65,160.669,165.797,159.938,164.762,159.938z" style="opacity:0.55;fill:#6E6E96;enable-background:new    ;"></path>
		<path d="M61.229,127.891h5.095c1.04,0,1.889-0.729,1.889-1.625
			v-4.408c0-0.892-0.85-1.625-1.889-1.625h-5.095c-1.038,0-1.888,0.732-1.888,1.625v4.408
			C59.341,127.16,60.19,127.891,61.229,127.891z" style="opacity:0.55;fill:#6E6E96;enable-background:new    ;"></path>
		<path d="M98.056,127.891h5.094c1.039,0,1.89-0.729,1.89-1.625
			v-4.408c0-0.892-0.851-1.625-1.89-1.625h-5.094c-1.04,0-1.888,0.732-1.888,1.625v4.408
			C96.168,127.16,97.016,127.891,98.056,127.891z" style="opacity:0.55;fill:#6E6E96;enable-background:new    ;"></path>
		<path d="M159.436,127.891h5.094c1.039,0,1.891-0.729,1.891-1.625
			v-4.408c0-0.892-0.852-1.625-1.891-1.625h-5.094c-1.039,0-1.889,0.732-1.889,1.625v4.408
			C157.547,127.16,158.396,127.891,159.436,127.891z" style="opacity:0.55;fill:#6E6E96;enable-background:new    ;"></path>
		<path d="M110.333,127.891h5.092c1.04,0,1.891-0.729,1.891-1.625
			v-4.408c0-0.892-0.851-1.625-1.891-1.625h-5.092c-1.037,0-1.892,0.732-1.892,1.625v4.408
			C108.442,127.16,109.294,127.891,110.333,127.891z" style="opacity:0.55;fill:#6E6E96;enable-background:new    ;"></path>
		<path d="M85.781,127.891h5.093c1.039,0,1.89-0.729,1.89-1.625
			v-4.408c0-0.892-0.85-1.625-1.89-1.625h-5.093c-1.04,0-1.889,0.732-1.889,1.625v4.408
			C83.892,127.16,84.741,127.891,85.781,127.891z" style="opacity:0.55;fill:#6E6E96;enable-background:new    ;"></path>
		<path d="M147.158,127.891h5.094c1.039,0,1.891-0.729,1.891-1.625
			v-4.408c0-0.892-0.851-1.625-1.891-1.625h-5.094c-1.038,0-1.891,0.732-1.891,1.625v4.408
			C145.27,127.16,146.121,127.891,147.158,127.891z" style="opacity:0.55;fill:#6E6E96;enable-background:new    ;"></path>
		<path d="M122.608,127.891h5.093c1.039,0,1.89-0.729,1.89-1.625
			v-4.408c0-0.892-0.851-1.625-1.89-1.625h-5.093c-1.038,0-1.891,0.732-1.891,1.625v4.408
			C120.718,127.16,121.571,127.891,122.608,127.891z" style="opacity:0.55;fill:#6E6E96;enable-background:new    ;"></path>
		<path d="M134.883,127.891h5.096c1.037,0,1.887-0.729,1.887-1.625
			v-4.408c0-0.892-0.85-1.625-1.887-1.625h-5.096c-1.04,0-1.89,0.732-1.89,1.625v4.408
			C132.995,127.16,133.846,127.891,134.883,127.891z" style="opacity:0.55;fill:#6E6E96;enable-background:new    ;"></path>
		<path d="M73.504,127.891h5.094c1.04,0,1.89-0.729,1.89-1.625
			v-4.408c0-0.892-0.85-1.625-1.89-1.625h-5.094c-1.04,0-1.889,0.732-1.889,1.625v4.408
			C71.615,127.16,72.465,127.891,73.504,127.891z" style="opacity:0.55;fill:#6E6E96;enable-background:new    ;"></path>
		<path d="M42.001,127.891h12.135c1.04,0,1.89-0.729,1.89-1.625
			v-4.408c0-0.892-0.85-1.625-1.89-1.625H42.001c-1.04,0-1.89,0.732-1.89,1.625v4.408C40.111,127.16,40.961,127.891,42.001,127.891z" style="opacity:0.55;fill:#6E6E96;enable-background:new    ;"></path>
		<path d="M150.38,159.938h-6.957c-1.038,0-1.888,0.731-1.888,1.625
			v4.407c0,0.89,0.85,1.622,1.888,1.622h6.957c1.04,0,1.892-0.73,1.892-1.622v-4.407C152.271,160.669,151.42,159.938,150.38,159.938
			z" style="opacity:0.55;fill:#6E6E96;enable-background:new    ;"></path>
	</g>
	<g>
		<rect height="8.264" width="9.853" style="fill:#FFE95F;" y="180.538" x="147.023"></rect>
		<path d="M156.876,190.302h-9.853c-0.828,0-1.5-0.672-1.5-1.5v-8.264c0-0.828,0.672-1.5,1.5-1.5h9.853
			c0.828,0,1.5,0.672,1.5,1.5v8.264C158.376,189.63,157.704,190.302,156.876,190.302z M148.523,187.302h6.853v-5.264h-6.853V187.302
			z" style="fill:#6E6E96;"></path>
	</g>
	<g>
		<rect height="8.264" width="9.854" style="fill:#A6FFC9;" y="180.538" x="163.203"></rect>
		<path d="M173.057,190.302h-9.854c-0.828,0-1.5-0.672-1.5-1.5v-8.264c0-0.828,0.672-1.5,1.5-1.5h9.854
			c0.828,0,1.5,0.672,1.5,1.5v8.264C174.557,189.63,173.885,190.302,173.057,190.302z M164.703,187.302h6.854v-5.264h-6.854V187.302
			z" style="fill:#6E6E96;"></path>
	</g>
	<path d="M178.596,100.597H27.71c-2.5,0-4.545-2.047-4.545-4.546
		v4.546c0,2.5,2.045,4.543,4.545,4.543h150.884c2.499,0,4.545-2.043,4.545-4.543V96.05
		C183.139,98.55,181.092,100.597,178.596,100.597z" style="opacity:0.25;fill:#6E6E96;enable-background:new    ;"></path>
	<path d="M191.934,204.686H12.75c-0.829,0-1.5-0.672-1.5-1.5
		s0.671-1.5,1.5-1.5h179.184c0.828,0,1.5,0.672,1.5,1.5S192.762,204.686,191.934,204.686z" style="opacity:0.15;fill:#6E6E96;enable-background:new    ;"></path>
	<rect height="17.378" width="128.632" style="fill:#FFD4D4;" y="31.586" x="39.084"></rect>
	<rect height="16.116" width="33.826" style="fill:#D6EEFA;" y="56.082" x="39.084"></rect>
	<rect height="16.117" width="33.826" style="fill:#D6EEFA;" y="56.082" x="133.891"></rect>
	<rect height="16.117" width="33.827" style="fill:#D6EEFA;" y="56.082" x="86.487"></rect>
	<path d="M60.112,26.924H39.084c-0.829,0-1.5-0.671-1.5-1.5
		s0.671-1.5,1.5-1.5h21.028c0.829,0,1.5,0.671,1.5,1.5S60.94,26.924,60.112,26.924z" style="opacity:0.35;fill:#6E6E96;enable-background:new    ;"></path>
	<path d="M134.534,26.924h-7.11c-0.829,0-1.5-0.671-1.5-1.5
		s0.671-1.5,1.5-1.5h7.11c0.828,0,1.5,0.671,1.5,1.5S135.362,26.924,134.534,26.924z" style="opacity:0.3;fill:#6E6E96;enable-background:new    ;"></path>
	<path d="M149.703,26.924h-6.162c-0.828,0-1.5-0.671-1.5-1.5
		s0.672-1.5,1.5-1.5h6.162c0.828,0,1.5,0.671,1.5,1.5S150.531,26.924,149.703,26.924z" style="opacity:0.3;fill:#6E6E96;enable-background:new    ;"></path>
	<path d="M167.243,26.924h-9.479c-0.828,0-1.5-0.671-1.5-1.5
		s0.672-1.5,1.5-1.5h9.479c0.828,0,1.5,0.671,1.5,1.5S168.071,26.924,167.243,26.924z" style="opacity:0.3;fill:#6E6E96;enable-background:new    ;"></path>
	<path d="M172.273,19.873H32.545c-0.829,0-1.5-0.671-1.5-1.5s0.671-1.5,1.5-1.5h139.729
		c0.828,0,1.5,0.671,1.5,1.5S173.102,19.873,172.273,19.873z" style="fill:#6E6E96;"></path>
	<path d="M56.793,80.963H39.084c-0.829,0-1.5-0.671-1.5-1.5
		s0.671-1.5,1.5-1.5h17.709c0.829,0,1.5,0.671,1.5,1.5S57.622,80.963,56.793,80.963z" style="opacity:0.32;fill:#6E6E96;enable-background:new    ;"></path>
	<path d="M69.118,87.126H39.084c-0.829,0-1.5-0.671-1.5-1.5
		s0.671-1.5,1.5-1.5h30.034c0.829,0,1.5,0.671,1.5,1.5S69.947,87.126,69.118,87.126z" style="opacity:0.32;fill:#6E6E96;enable-background:new    ;"></path>
	<path d="M115.258,80.963H86.487c-0.829,0-1.5-0.671-1.5-1.5
		s0.671-1.5,1.5-1.5h28.771c0.829,0,1.5,0.671,1.5,1.5S116.086,80.963,115.258,80.963z" style="opacity:0.32;fill:#6E6E96;enable-background:new    ;"></path>
	<path d="M103.248,87.126H86.487c-0.829,0-1.5-0.671-1.5-1.5
		s0.671-1.5,1.5-1.5h16.761c0.829,0,1.5,0.671,1.5,1.5S104.077,87.126,103.248,87.126z" style="opacity:0.32;fill:#6E6E96;enable-background:new    ;"></path>
	<path d="M162.027,80.963h-28.137c-0.828,0-1.5-0.671-1.5-1.5
		s0.672-1.5,1.5-1.5h28.137c0.828,0,1.5,0.671,1.5,1.5S162.855,80.963,162.027,80.963z" style="opacity:0.32;fill:#6E6E96;enable-background:new    ;"></path>
	<path d="M155.866,87.126h-21.976c-0.828,0-1.5-0.671-1.5-1.5
		s0.672-1.5,1.5-1.5h21.976c0.828,0,1.5,0.671,1.5,1.5S156.694,87.126,155.866,87.126z" style="opacity:0.32;fill:#6E6E96;enable-background:new    ;"></path>
</g>
</svg>
