<svg xml:space="preserve" style="enable-background:new 0 0 256.5 253.117;" viewBox="0 0 256.5 253.117" height="253.117px" width="256.5px" y="0px" x="0px" xmlns:xlink="http://www.w3.org/1999/xlink" xmlns="http://www.w3.org/2000/svg" id="Layer_1" version="1.1">
<g id="Layer_1_1_">
	<g id="Layer_3_1_">
		<path d="M248.789,112.863c0-41.101-32.57-74.416-72.745-74.416
			c-0.626,0-1.242,0.029-1.862,0.047c-12.686-21.803-35.942-36.421-62.547-36.421c-40.177,0-72.747,33.319-72.747,74.419
			c0,0.534,0.029,1.06,0.04,1.591C16.954,90.886,2.126,115.048,2.126,142.771c0,41.097,32.57,74.41,72.747,74.41
			c2.285,0,4.542-0.119,6.774-0.33c13.343,16.534,34.516,27.073,57.113,27.073c37.137,0,66.762-28.469,71.188-65.226
			C233.042,166.229,248.789,141.434,248.789,112.863z" style="opacity:0.42;fill:#9FCCFF;enable-background:new    ;"></path>
	</g>
	<g style="opacity:0.48;" id="Layer_2_3_">
		<path d="M9.889,169.626c-2.012,0-3.91-1.224-4.671-3.215c-8.767-22.925-8.962-48.265-0.55-71.353
			C10.98,77.733,21.835,62.457,36.06,50.882c2.142-1.742,5.292-1.418,7.034,0.723c1.743,2.142,1.419,5.292-0.723,7.034
			C29.546,69.074,19.758,82.852,14.064,98.481c-7.588,20.826-7.413,43.682,0.494,64.357c0.987,2.579-0.305,5.47-2.884,6.456
			C11.086,169.52,10.483,169.626,9.889,169.626z" style="fill:#F59FB3;"></path>
		<path d="M34.133,195.754c-1.356,0-2.708-0.549-3.695-1.63c-23.933-26.226-31.255-63.226-19.11-96.561
			c13.981-38.367,50.767-63.446,91.58-62.432c2.761,0.069,4.942,2.363,4.873,5.124s-2.341,4.952-5.124,4.873
			C66.172,44.23,33.233,66.66,20.724,100.987c-10.866,29.825-4.313,62.93,17.102,86.397c1.861,2.04,1.717,5.202-0.323,7.063
			C36.543,195.322,35.336,195.754,34.133,195.754z" style="fill:#FFFF75;"></path>
		<path d="M49.489,199.369c-1.087,0-2.182-0.353-3.1-1.08C16.838,174.892,5.659,135.36,18.57,99.92
			c9.62-26.409,31.549-46.688,58.661-54.248c2.661-0.739,5.417,0.813,6.159,3.474c0.742,2.66-0.813,5.417-3.474,6.159
			C55.906,62,36.484,79.958,27.966,103.343c-11.434,31.383-1.536,66.389,24.63,87.106c2.165,1.714,2.53,4.858,0.816,7.023
			C52.425,198.72,50.964,199.369,49.489,199.369z" style="fill:#AFEB75;"></path>
		<path d="M32.193,164.821c-1.925,0-3.76-1.118-4.583-2.995c-8.259-18.855-8.926-39.896-1.876-59.245
			c6.597-18.106,19.514-33.196,36.371-42.49c16.694-9.203,36.111-12.14,54.679-8.267c2.703,0.563,4.438,3.212,3.874,5.916
			c-0.564,2.703-3.211,4.436-5.916,3.874c-33.61-7.007-67.837,12.075-79.612,44.391c-6.165,16.921-5.582,35.321,1.641,51.81
			c1.108,2.529-0.044,5.478-2.574,6.586C33.544,164.687,32.863,164.821,32.193,164.821z" style="fill:#75D5EB;"></path>
	</g>
	<g>
		<polygon points="197.618,73.615 204.958,94.756 243.41,30.171" style="fill:#FFF2DE;"></polygon>
		<path d="M204.958,96.005c-0.041,0-0.084-0.002-0.127-0.006c-0.481-0.049-0.896-0.374-1.054-0.833
			l-7.34-21.142c-0.16-0.463-0.035-0.978,0.32-1.315l45.792-43.444c0.453-0.429,1.152-0.458,1.64-0.069
			c0.487,0.39,0.612,1.079,0.293,1.615l-38.453,64.584C205.805,95.776,205.396,96.005,204.958,96.005z M199.062,73.966l6.194,17.845
			l32.457-54.515L199.062,73.966z" style="fill:#CCCCDE;"></path>
		<polygon points="179.292,65.468 243.41,30.171 197.618,73.615" style="fill:#FFF2DE;"></polygon>
		<path d="M197.618,74.864c-0.171,0-0.345-0.036-0.507-0.108l-18.326-8.146
			c-0.434-0.193-0.721-0.615-0.741-1.088c-0.021-0.474,0.229-0.918,0.646-1.147l64.119-35.297c0.549-0.303,1.24-0.15,1.61,0.357
			c0.371,0.507,0.308,1.211-0.149,1.643l-45.791,43.444C198.242,74.746,197.934,74.864,197.618,74.864z M182.1,65.349l15.266,6.786
			l38.143-36.187L182.1,65.349z" style="fill:#CCCCDE;"></path>
		<polygon points="243.41,30.171 204.975,76.639 234.467,88.089" style="fill:#FFF2DE;"></polygon>
		<path d="M234.467,89.339c-0.152,0-0.306-0.028-0.451-0.085l-29.494-11.451
			c-0.373-0.146-0.653-0.461-0.756-0.85c-0.102-0.389-0.01-0.802,0.246-1.111l38.438-46.467c0.357-0.433,0.962-0.573,1.475-0.344
			c0.514,0.229,0.809,0.775,0.723,1.331l-8.943,57.919c-0.059,0.374-0.281,0.701-0.609,0.891
			C234.898,89.283,234.684,89.339,234.467,89.339z M207.039,76.101l26.432,10.263l8.016-51.904L207.039,76.101z" style="fill:#CCCCDE;"></path>
		<path d="M204.975,96.005c-0.688,0-1.25-0.56-1.25-1.249V76.639c0-0.69,0.562-1.249,1.25-1.249
			s1.248,0.559,1.248,1.249v18.118C206.223,95.446,205.663,96.005,204.975,96.005z" style="fill:#CCCCDE;"></path>
	</g>
	<g>
		<path d="M68.008,41.416c0-0.111,0.008-0.219,0.008-0.329c0-11.601-10.234-21.008-22.863-21.008
			c-10.865,0-19.961,6.976-22.28,16.315c-0.358-0.023-0.718-0.045-1.082-0.045c-7.513,0-13.601,5.596-13.601,12.498
			c0,1.478,0.285,2.898,0.797,4.215c-2.107,2.736-3.35,6.08-3.35,9.688c0,9.15,7.964,16.588,17.866,16.784v0.008h35.128
			c12.039,0,21.801-8.968,21.801-20.038C80.432,51.526,75.354,44.64,68.008,41.416z" style="fill:#FFFFFF;"></path>
		<path d="M58.631,81.042H23.503c-0.064,0-0.127-0.004-0.19-0.012C12.725,80.74,4.137,72.571,4.137,62.75
			c0-3.557,1.094-6.975,3.171-9.937c-0.411-1.291-0.619-2.621-0.619-3.966c0-7.705,6.75-13.976,15.057-13.998
			c2.982-9.64,12.426-16.27,23.406-16.27c13.206,0,23.992,9.758,24.354,21.879c7.58,3.708,12.425,11.084,12.425,19.046
			C81.932,71.38,71.479,81.042,58.631,81.042z M23.657,78.042h34.974c11.194,0,20.301-8.316,20.301-18.538
			c0-7.08-4.525-13.641-11.527-16.714c-0.545-0.239-0.897-0.778-0.897-1.374l0.008-0.329c0-10.757-9.583-19.508-21.363-19.508
			c-9.883,0-18.641,6.383-20.824,15.176c-0.174,0.704-0.829,1.181-1.552,1.136c-0.326-0.021-0.654-0.042-0.986-0.042
			c-6.672,0-12.101,4.934-12.101,10.998c0,1.25,0.234,2.485,0.695,3.671c0.19,0.49,0.111,1.043-0.209,1.458
			c-1.987,2.581-3.038,5.615-3.038,8.773c0,8.249,7.355,15.105,16.396,15.285C23.574,78.035,23.616,78.038,23.657,78.042z" style="fill:#CCCCDE;"></path>
	</g>
</g>
<g id="Layer_2_1_">
	<g>
		<path d="M126.417,227.393l96.431-91.318c0-2.857-1.035-6.992-5.5-10.41L140.253,67.18
			c-2.183-1.67-7.192-5.512-12.258-5.528c-5.301-0.018-10.666,3.867-12.919,5.648l-70.431,57.243
			c-4.408,3.484-7.252,6.63-6.67,11.53L126.417,227.393z" style="fill:#FFFFFF;"></path>
		<path d="M126.417,228.893c-0.392,0-0.783-0.153-1.078-0.456l-88.442-91.319
			c-0.229-0.236-0.373-0.541-0.412-0.867c-0.718-6.048,3.178-9.681,7.229-12.884l70.415-57.23c3.462-2.737,8.656-5.984,13.829-5.984
			c5.602,0.018,10.921,4.089,13.193,5.827l77.103,58.49c5.303,4.059,6.094,9.013,6.094,11.605c0,0.412-0.17,0.806-0.469,1.089
			l-96.431,91.318C127.159,228.756,126.788,228.893,126.417,228.893z M39.42,135.409l87.042,89.874l94.867-89.837
			c-0.141-2.447-1.163-5.736-4.894-8.591l-77.089-58.48c-2.05-1.568-6.807-5.208-11.356-5.223c-3.395,0-7.64,1.891-11.984,5.325
			l-70.415,57.23C41.509,128.934,39.172,131.587,39.42,135.409z" style="fill:#6E6E96;"></path>
	</g>
	<g>
		<path d="M37.577,136.059v115.668h185.271V136.059c0-13.5-21.219,8.426-21.219,8.426l-73.706,71.684
			c0,0-58.348-58.282-74.49-73.854C53.433,142.312,37.577,125.559,37.577,136.059z" style="fill:#FFFFFF;"></path>
		<path d="M222.848,253.227H37.577c-0.829,0-1.5-0.672-1.5-1.5V136.059c0-4.476,2.642-4.959,3.777-4.959
			c2.217,0,5.295,1.706,9.408,5.216c3.16,2.696,4.559,4.143,5.179,4.954l0.034-0.034c14.776,14.253,65.513,64.891,73.462,72.827
			l72.646-70.653c1.283-1.327,12.997-13.243,19.291-13.243c1.345,0,4.474,0.574,4.474,5.893v115.668
			C224.348,252.555,223.676,253.227,222.848,253.227z M39.077,250.227h182.271V136.059c0-2.893-0.995-2.893-1.474-2.893
			c-3.788,0-12.54,7.582-17.167,12.361l-73.738,71.716c-0.588,0.571-1.526,0.565-2.106-0.014
			c-0.583-0.583-58.523-58.451-74.471-73.836c-0.019-0.018-0.037-0.036-0.055-0.056c-2.838-3.016-9.622-9.238-12.482-9.238
			c-0.232,0-0.777,0-0.777,1.959V250.227z" style="fill:#6E6E96;"></path>
	</g>
	<path d="M223.348,134.727c0-2.633-4.756-8.354-9.221-11.506
		l-62.164,57.356c-6.332-4.86-16.352-11.019-26.213-11.019c-7.038,0-16.416,6.875-22.263,11.83l-59.381-56.511
		c-3.804,2.917-6.166,5.701-5.631,9.849l56.729,53.986l-51.88,43.346v10.748h171.591v-11.248l-53.416-42.85L223.348,134.727z" style="opacity:0.1;fill:#6E6E96;enable-background:new    ;"></path>
	<g>
		<path d="M222.152,251.573c0-2.857-4.029-7.992-8.475-11.41l-73.729-57.483
			c-2.172-1.67-7.157-5.512-12.2-5.527c-5.276-0.019-10.614,3.867-12.858,5.647l-68.096,57.243c-4.676,3.713-8.93,9.068-8.639,11.53
			H222.152z" style="fill:#FFFFFF;"></path>
		<path d="M222.152,253.073H38.156c-0.76,0-1.4-0.568-1.49-1.324c-0.439-3.716,5.407-9.873,9.196-12.881
			l68.063-57.217c3.467-2.751,8.64-5.999,13.786-5.999c5.582,0.018,10.876,4.089,13.137,5.827L214.6,238.98
			c4.385,3.371,9.053,8.935,9.053,12.593C223.652,252.401,222.98,253.073,222.152,253.073z M39.992,250.073h180.276
			c-0.988-2.319-3.799-5.872-7.504-8.721l-73.736-57.49c-2.027-1.559-6.759-5.196-11.283-5.21c-4.314,0-8.86,2.895-11.921,5.322
			L47.76,241.191C43.736,244.387,40.937,248,39.992,250.073z" style="fill:#6E6E96;"></path>
	</g>
	<path d="M214.227,132.666c0.435,0.652,0.688,1.619,0.688,3.012
		v107.129H43.324V135.678c0-1.131,0.206-1.908,0.557-2.421c-3.458-2.208-6.557-2.896-6.557,1.746V250.67h185.27V135.003
		C222.594,129.211,218.688,129.946,214.227,132.666z" style="opacity:0.15;fill:#6E6E96;enable-background:new    ;"></path>
	<polygon points="124.75,217.059 135.417,237.727 131.084,241.059 
		117.75,222.059" style="opacity:0.38;fill:#FFFFFF;enable-background:new    ;"></polygon>
	<polygon points="121.854,217.896 132.521,238.562 128.188,241.896 
		114.854,222.896" style="opacity:0.38;fill:#FFFFFF;enable-background:new    ;"></polygon>
	<path d="M245.75,254.17h-229c-0.829,0-1.5-0.672-1.5-1.5
		s0.671-1.5,1.5-1.5h229c0.828,0,1.5,0.672,1.5,1.5S246.578,254.17,245.75,254.17z" style="opacity:0.15;fill:#6E6E96;enable-background:new    ;"></path>
</g>
</svg>
