<svg xml:space="preserve" style="enable-background:new 0 0 256.5 253.117;" viewBox="0 0 256.5 253.117" height="253.117px" width="256.5px" y="0px" x="0px" xmlns:xlink="http://www.w3.org/1999/xlink" xmlns="http://www.w3.org/2000/svg" id="Layer_1" version="1.1">
<g id="Layer_1_1_">
	<path d="M251.497,118.451c0-40.379-32.813-73.11-73.286-73.11
		c-0.63,0-1.252,0.029-1.878,0.046c-12.778-21.421-36.21-35.782-63.011-35.782c-40.476,0-73.287,32.734-73.287,73.113
		c0,0.525,0.029,1.041,0.04,1.563C17.937,96.86,3,120.598,3,147.832c0,40.377,32.812,73.104,73.288,73.104
		c2.302,0,4.576-0.114,6.824-0.319c13.443,16.243,34.773,26.601,57.539,26.601c37.414,0,67.259-27.97,71.72-64.085
		C235.634,170.881,251.497,146.52,251.497,118.451z" style="opacity:0.44;fill:#B58F8F;enable-background:new    ;"></path>
	<path d="M3.564,138.797C3.199,141.758,3,144.771,3,147.832c0,40.377,32.812,73.104,73.288,73.104
		c2.302,0,4.576-0.114,6.824-0.319c13.443,16.243,34.773,26.601,57.539,26.601c37.414,0,67.259-27.97,71.72-64.085
		c17.412-9.169,30.677-25.121,36.25-44.335H3.564L3.564,138.797z" style="fill:#FAF0E6;"></path>
	<g>
		<polygon points="126.971,119.835 179.07,45.269 241.412,119.835" style="fill:#CECEDB;"></polygon>
		<path d="M241.432,121.335c-0.005,0-0.013,0-0.02,0H126.971c-0.559,0-1.072-0.311-1.33-0.807
			s-0.22-1.094,0.101-1.552l52.099-74.566c0.268-0.383,0.698-0.62,1.165-0.64c0.47-0.02,0.916,0.178,1.215,0.537l62.213,74.411
			c0.306,0.275,0.498,0.673,0.498,1.117C242.932,120.664,242.261,121.335,241.432,121.335z M129.849,118.335h108.354l-59.026-70.6
			L129.849,118.335z" style="fill:#CCCCDE;"></path>
	</g>
	<g>
		<polygon points="32.845,119.835 79.936,52.435 136.287,119.835" style="fill:#CECEDB;"></polygon>
		<path d="M136.307,121.335c-0.005,0-0.013,0-0.02,0H32.845c-0.559,0-1.072-0.311-1.33-0.807
			s-0.22-1.094,0.101-1.552l47.091-67.4c0.268-0.383,0.698-0.62,1.165-0.64c0.477-0.013,0.917,0.179,1.216,0.537l56.222,67.245
			c0.306,0.275,0.498,0.673,0.498,1.117C137.807,120.664,137.136,121.335,136.307,121.335z M35.723,118.335h97.355L80.043,54.901
			L35.723,118.335z" style="fill:#CCCCDE;"></path>
	</g>
	<g>
		<polygon points="62.278,119.835 127.75,26.131 206.091,119.835" style="fill:#CECEDB;"></polygon>
		<path d="M206.11,121.335c-0.005,0-0.013,0-0.02,0H62.278c-0.559,0-1.072-0.311-1.33-0.807
			s-0.22-1.094,0.101-1.552l65.472-93.705c0.268-0.383,0.698-0.619,1.165-0.639c0.478-0.014,0.917,0.179,1.215,0.537l78.212,93.549
			c0.306,0.275,0.498,0.673,0.498,1.117C207.61,120.664,206.939,121.335,206.11,121.335z M65.156,118.335h137.726l-75.025-89.738
			L65.156,118.335z" style="fill:#CCCCDE;"></path>
	</g>
	<polygon points="127.75,26.131 168.348,102.484 127.496,70.432 
		147.093,105.611 86.649,111.568 117.205,41.222 62.278,119.835 205.544,119.162" style="opacity:0.1;fill:#6E6E96;enable-background:new    ;"></polygon>
	<polygon points="79.936,52.435 50.779,111.865 93.103,68.183 
		95.97,71.613 62.278,119.835 32.845,119.835" style="opacity:0.1;fill:#6E6E96;enable-background:new    ;"></polygon>
	<polygon points="164.208,69.729 212.186,113.429 225.473,113.429 
		179.07,45.269 241.412,119.835 205.544,119.683" style="opacity:0.1;fill:#6E6E96;enable-background:new    ;"></polygon>
	<path d="M3.485,139.457h244.93c1.999-6.652,3.082-13.703,3.082-21.006c0-8.11-1.345-15.902-3.786-23.19
		H25.392C13.485,106.726,5.463,122.172,3.485,139.457z" style="fill:#C4DBE8;"></path>
	<rect height="3" width="222.319" style="fill:#CCCCDE;" y="93.761" x="25.392"></rect>
	<rect height="3" width="244.93" style="fill:#CCCCDE;" y="137.957" x="3.485"></rect>
	<rect height="3" width="45.636" style="fill:#FFFFFF;" y="120.1" x="32.101"></rect>
	<rect height="3" width="39.024" style="opacity:0.61;fill:#FFFFFF;enable-background:new    ;" y="103.564" x="113.452"></rect>
	<rect height="3" width="34.393" style="fill:#FFFFFF;" y="128.697" x="180.254"></rect>
	<rect height="3" width="9.921" style="opacity:0.48;fill:#FFFFFF;enable-background:new    ;" y="106.21" x="192.82"></rect>
	<rect height="3" width="15.213" style="opacity:0.48;fill:#FFFFFF;enable-background:new    ;" y="109.517" x="77.737"></rect>
	<rect height="3" width="5.291" style="opacity:0.48;fill:#FFFFFF;enable-background:new    ;" y="125.391" x="7.63"></rect>
	<path d="M249.631,102.088c-0.529-2.32-1.173-4.598-1.92-6.828H25.392
		c-2.224,2.142-4.31,4.423-6.249,6.828H249.631z" style="opacity:0.1;fill:#6E6E96;enable-background:new    ;"></path>
	<polygon points="3.992,132.514 251.021,132.514 248.415,139.457 
		3,137.805" style="opacity:0.38;fill:#FFFFFF;enable-background:new    ;"></polygon>
	<g style="display:none;" id="Layer_3_3_">
		<g style="display:inline;">
			<g>
				<path d="M84.16,142.542c0-11.563-10.059-20.936-22.467-20.936c-0.194,0-0.385,0.009-0.576,0.014
					c-3.917-6.134-11.102-10.245-19.318-10.245c-12.409,0-22.469,9.372-22.469,20.936c0,0.149,0.009,0.297,0.012,0.446
					c-6.785,3.603-11.365,10.399-11.365,18.198c0,11.562,10.059,20.934,22.468,20.934c0.705,0,1.403-0.033,2.092-0.094
					c4.122,4.65,10.358,7.617,17.335,7.617c11.471,0,20.925-8.01,22.293-18.35C79.297,157.555,84.16,150.579,84.16,142.542z" style="fill:#D7F7E4;"></path>
				<path d="M49.872,180.912c-6.895,0-13.393-2.749-17.95-7.568c-0.499,0.03-0.993,0.045-1.477,0.045
					c-13.216,0-23.968-10.063-23.968-22.434c0-7.768,4.328-14.997,11.357-19.076c0.247-12.173,10.902-22.004,23.964-22.004
					c8.091,0,15.716,3.9,20.112,10.232c13.116,0.11,23.749,10.131,23.749,22.435c0,8.109-4.626,15.515-12.127,19.506
					C71.687,172.857,61.662,180.912,49.872,180.912z M33.159,170.234l0.501,0.565c4.006,4.52,9.916,7.112,16.212,7.112
					c10.575,0,19.52-7.328,20.806-17.046l0.105-0.796l0.72-0.354c6.882-3.385,11.157-9.966,11.157-17.175
					c0-10.717-9.406-19.436-20.967-19.436c-0.115,0-0.229,0.004-0.344,0.008l-1.041,0.027l-0.456-0.714
					c-3.763-5.892-10.68-9.552-18.054-9.552c-11.562,0-20.969,8.719-20.969,19.436l0.029,1.339l-0.814,0.433
					c-6.519,3.461-10.568,9.927-10.568,16.873c0,10.716,9.406,19.434,20.968,19.434c0.637,0,1.296-0.029,1.961-0.088L33.159,170.234
					z" style="fill:#CCCCDE;"></path>
			</g>
			<path d="M61.314,120.853c-0.193,0-0.384,0.009-0.575,0.014
				c-3.141-4.918-8.383-8.534-14.573-9.775c4.898,1.229,9.023,4.208,11.558,8.175c0.165-0.004,2.416,3.886,2.583,3.886
				c10.648,0,15.601,5.738,15.601,15.66c0,6.896-2.583,11.291-8.704,14.302c-1.173,8.875-9.287,15.748-19.129,15.748
				c-5.99,0-11.34-2.544-14.877-6.53c-0.591,0.05-1.189,0.075-1.794,0.075c-10.649,0-19.013-5.048-19.013-14.968
				c0-6.683,2.99-9.973,8.432-13.938c-0.145-0.855-0.75-8.421,1.267-10.437c4.792-4.793,6.963-8.909,11.25-11.038
				c-8.414,3.025-14.385,10.627-14.385,19.536c0,0.147,0.009,0.3,0.012,0.447c-6.787,3.604-11.366,10.396-11.366,18.195
				c0,11.562,10.059,20.938,22.468,20.938c0.707,0,1.403-0.035,2.093-0.098c4.121,4.648,10.356,7.617,17.336,7.617
				c11.469,0,20.924-8.012,22.291-18.354c7.133-3.507,11.997-10.479,11.997-18.521C83.783,130.227,73.724,120.853,61.314,120.853z" style="opacity:0.1;fill:#6E6E96;enable-background:new    ;"></path>
			<g>
				<path d="M29.336,153.865c0,0,11.635,2.277,11.635,13.662c0,0,3.132,19.342-8.976,33.026h27.96
					c-0.277-0.39-24.422-32.646,2.449-51.815C46.016,158.107,29.336,153.865,29.336,153.865z" style="fill:#EDE3DA;"></path>
				<path d="M59.955,202.054h-31.29l2.207-2.494c11.477-12.972,8.648-31.607,8.619-31.794l-0.019-0.238
					c0-9.079-8.398-11.683-10.144-12.124c-0.238-0.053-0.362-0.084-0.362-0.084l0.658-2.926c0,0,0.139,0.026,0.39,0.089
					c0.935,0.203,4.231,0.841,8.802,0.841c5.724,0,14.333-1.021,22.844-5.887l1.616,2.522c-6.625,4.727-10.561,10.698-11.699,17.75
					c-2.42,14.998,8.331,30.237,9.565,31.926l1.744,2.385L59.955,202.054z M35.13,199.054h21.999
					c-3.445-5.4-10.647-18.605-8.514-31.822c0.806-4.992,2.849-9.486,6.097-13.435c-6.069,2.011-11.71,2.526-15.896,2.526
					c-0.463,0-0.915-0.006-1.352-0.018c2.655,2.276,4.974,5.786,5.007,11.104C42.731,169.146,44.9,185.741,35.13,199.054z" style="fill:#CCCCDE;"></path>
			</g>
			<g>
				<path d="M36.703,131.025" style="fill:#D57E58;"></path>
			</g>
			<path d="M55.43,153.833c0,0-17.654,22.793-4.085,46.722h8.611
				C59.955,200.555,42.04,175.518,55.43,153.833z" style="opacity:0.11;fill:#6E6E96;enable-background:new    ;"></path>
		</g>
		<g style="display:inline;">
			<g>
				<path d="M254,141.26c0-10.828-9.42-19.604-21.04-19.604c-0.183,0-0.36,0.008-0.539,0.013
					c-3.669-5.744-10.396-9.595-18.091-9.595c-11.62,0-21.041,8.777-21.041,19.604c0,0.141,0.009,0.279,0.012,0.418
					c-6.354,3.375-10.644,9.739-10.644,17.043c0,10.825,9.421,19.604,21.04,19.604c0.66,0,1.312-0.032,1.96-0.089
					c3.858,4.354,9.698,7.134,16.233,7.134c10.735,0,19.596-7.499,20.875-17.185C249.445,155.316,254,148.786,254,141.26z" style="fill:#D7F7E4;"></path>
				<path d="M221.891,177.288c-6.467,0-12.563-2.573-16.848-7.085c-0.458,0.027-0.902,0.04-1.346,0.04
					c-12.429,0-22.54-9.468-22.54-21.104c0-7.289,4.053-14.077,10.637-17.92c0.262-11.426,10.271-20.646,22.536-20.646
					c7.59,0,14.745,3.652,18.885,9.583c12.312,0.128,22.285,9.545,22.285,21.103c0,7.612-4.335,14.567-11.367,18.328
					C242.377,169.733,232.962,177.288,221.891,177.288z M206.279,167.094l0.501,0.565c3.733,4.213,9.241,6.629,15.11,6.629
					c9.857,0,18.192-6.827,19.388-15.881l0.105-0.795l0.72-0.354c6.413-3.156,10.396-9.286,10.396-15.998
					c0-9.982-8.766-18.104-19.54-18.104c-0.117,0-0.231,0.004-0.346,0.007l-1.001,0.028l-0.456-0.715
					c-3.508-5.491-9.955-8.902-16.827-8.902c-10.775,0-19.541,8.122-19.541,18.104l0.031,1.31l-0.815,0.433
					c-6.074,3.227-9.848,9.25-9.848,15.719c0,9.982,8.766,18.104,19.54,18.104c0.591,0,1.189-0.027,1.829-0.083L206.279,167.094z" style="fill:#CCCCDE;"></path>
			</g>
			<path d="M232.605,120.949c-0.187,0-0.358,0.008-0.539,0.012
				c-2.94-4.606-7.854-7.992-13.646-9.154c4.586,1.15,8.449,3.94,10.822,7.655c0.154-0.004,2.263,3.639,2.419,3.639
				c9.971,0,14.608,5.374,14.608,14.665c0,6.459-2.42,10.573-8.148,13.396c-1.1,8.311-8.698,14.742-17.914,14.742
				c-5.607,0-10.619-2.381-13.934-6.117c-0.56,0.047-1.112,0.072-1.685,0.072c-9.975,0-17.806-4.729-17.806-14.017
				c0-6.26,2.8-9.342,7.896-13.058c-0.14-0.809-0.701-7.885,1.188-9.772c4.482-4.488,6.521-8.343,10.531-10.337
				c-7.879,2.833-13.471,9.952-13.471,18.292c0,0.14,0.006,0.274,0.012,0.418c-6.354,3.373-10.646,9.735-10.646,17.041
				c0,10.823,9.421,19.604,21.041,19.604c0.661,0,1.313-0.031,1.959-0.09c3.858,4.354,9.699,7.136,16.233,7.136
				c10.74,0,19.595-7.5,20.875-17.188c6.681-3.285,11.231-9.812,11.231-17.342C253.646,129.727,244.227,120.949,232.605,120.949z" style="opacity:0.1;fill:#6E6E96;enable-background:new    ;"></path>
			<g>
				<path d="M202.66,151.861c0,0,10.896,2.133,10.896,12.797c0,0,2.934,18.109-8.406,30.927h26.184
					c-0.26-0.358-22.87-30.565,2.294-48.521C218.279,155.836,202.66,151.861,202.66,151.861z" style="fill:#EDE3DA;"></path>
				<path d="M231.334,197.085H201.82l2.207-2.494c10.744-12.145,8.077-29.519,8.049-29.692l-0.02-0.24
					c0-8.432-7.802-10.853-9.426-11.264c-0.225-0.05-0.341-0.08-0.341-0.08l0.658-2.925c0,0,0.132,0.024,0.369,0.084
					c0.876,0.19,3.955,0.786,8.226,0.786c5.348,0,13.39-0.954,21.341-5.498l1.615,2.523c-6.195,4.421-9.87,10.006-10.924,16.602
					c-2.247,14.071,7.8,28.223,8.952,29.79l1.758,2.389L231.334,197.085z M208.273,194.085h20.232
					c-3.271-5.141-9.861-17.346-7.893-29.672c0.735-4.605,2.589-8.76,5.534-12.422c-5.576,1.803-10.748,2.269-14.604,2.269
					c-0.344,0-0.681-0.004-1.009-0.011c2.417,2.149,4.489,5.412,4.522,10.291C215.305,166.203,217.305,181.631,208.273,194.085z" style="fill:#CCCCDE;"></path>
			</g>
			<g>
				<path d="M209.561,130.477" style="fill:#D57E58;"></path>
			</g>
			<path d="M227.096,151.833c0,0-16.531,21.345-3.824,43.752h8.063
				C231.333,195.585,214.557,172.139,227.096,151.833z" style="opacity:0.11;fill:#6E6E96;enable-background:new    ;"></path>
		</g>
		<g style="display:inline;">
			<g>
				<path d="M217.298,143.02c0-16.622-14.461-30.095-32.299-30.095c-0.278,0-0.554,0.012-0.828,0.019
					c-5.632-8.817-15.959-14.729-27.771-14.729c-17.838,0-32.301,13.475-32.301,30.096c0,0.215,0.014,0.429,0.018,0.646
					c-9.755,5.182-16.339,14.945-16.339,26.156c0,16.621,14.462,30.098,32.3,30.098c1.014,0,2.018-0.05,3.008-0.139
					c5.926,6.688,14.889,10.951,24.921,10.951c16.489,0,30.081-11.515,32.048-26.379
					C210.307,164.602,217.298,154.572,217.298,143.02z" style="fill:#D7F7E4;"></path>
				<path d="M168.007,197.523c-9.839,0-19.102-3.963-25.537-10.897c-0.812,0.057-1.614,0.085-2.392,0.085
					c-18.638,0-33.8-14.175-33.8-31.598c0-11.043,6.23-21.32,16.322-27.035c0.134-17.315,15.246-31.363,33.8-31.363
					c11.535,0,22.398,5.615,28.566,14.71c0.011,0,0.021,0,0.032,0c18.637,0,33.799,14.173,33.799,31.595
					c0,11.516-6.635,22.026-17.371,27.612C198.969,186.018,184.751,197.523,168.007,197.523z M143.706,183.511l0.503,0.566
					c5.881,6.639,14.556,10.446,23.798,10.446c15.531,0,28.669-10.78,30.561-25.075l0.105-0.796l0.72-0.354
					c10.119-4.978,16.405-14.664,16.405-25.279c0-15.768-13.816-28.595-30.799-28.595c-0.179,0-0.355,0.006-0.532,0.011
					l-1.104,0.028l-0.455-0.713c-5.531-8.658-15.688-14.037-26.507-14.037c-16.983,0-30.801,12.828-30.801,28.596
					c0,0.108,0.004,0.217,0.009,0.325l0.028,1.213l-0.815,0.434c-9.587,5.092-15.543,14.606-15.543,24.831
					c0,15.769,13.817,28.598,30.8,28.598c0.926,0,1.893-0.045,2.874-0.133L143.706,183.511z" style="fill:#CCCCDE;"></path>
			</g>
			<path d="M184.456,111.841c-0.276,0-0.552,0.012-0.827,0.019
				c-4.516-7.071-12.051-12.269-20.949-14.052c7.041,1.766,12.971,6.049,16.614,11.751c0.237-0.006,3.474,5.586,3.713,5.586
				c15.308,0,22.429,8.248,22.429,22.511c0,9.914-3.715,16.231-12.513,20.562c-1.687,12.754-13.353,22.635-27.5,22.635
				c-8.61,0-16.302-3.655-21.387-9.396c-0.851,0.071-1.71,0.114-2.58,0.114c-15.31,0-27.332-7.254-27.332-21.516
				c0-9.604,4.298-14.337,12.12-20.039c-0.209-1.234-1.077-12.104,1.82-15.002c6.89-6.89,10.011-12.808,16.174-15.868
				c-12.096,4.349-20.679,15.277-20.679,28.08c0,0.215,0.011,0.429,0.017,0.646c-9.756,5.178-16.34,14.947-16.34,26.156
				c0,16.621,14.461,30.097,32.3,30.097c1.017,0,2.017-0.049,3.008-0.136c5.925,6.688,14.89,10.949,24.922,10.949
				c16.487,0,30.078-11.518,32.046-26.379c10.254-5.043,17.244-15.07,17.244-26.623
				C216.756,125.314,202.295,111.841,184.456,111.841z" style="opacity:0.1;fill:#6E6E96;enable-background:new    ;"></path>
			<g>
				<path d="M138.484,159.296c0,0,16.727,3.272,16.727,19.644c0,0,4.504,27.809-12.904,47.479h40.195
					c-0.398-0.556-35.107-46.922,3.521-74.483C162.464,165.396,138.484,159.296,138.484,159.296z" style="fill:#EDE3DA;"></path>
				<path d="M182.502,227.919h-43.525l2.207-2.494c16.743-18.92,12.591-45.975,12.547-46.245l-0.02-0.24
					c0-13.557-12.515-17.422-15.086-18.071c-0.336-0.074-0.511-0.118-0.511-0.118l0.658-2.926c0,0,0.192,0.037,0.538,0.123
					c1.35,0.295,6.158,1.228,12.813,1.228c8.306,0,20.799-1.481,33.155-8.542l1.615,2.523c-9.681,6.907-15.431,15.647-17.09,25.977
					c-3.512,21.865,12.087,43.917,13.878,46.359l1.749,2.387L182.502,227.919z M145.496,224.919h34.146
					c-4.573-6.926-15.963-26.566-12.799-46.262c1.264-7.868,4.702-14.865,10.257-20.899c-9.522,3.547-18.479,4.417-24.976,4.417
					c-1.404,0-2.727-0.039-3.958-0.104c4.314,3.1,8.506,8.287,8.545,16.75C157.048,181.028,160.401,205.692,145.496,224.919z" style="fill:#CCCCDE;"></path>
			</g>
			<g>
				<path d="M149.077,126.465" style="fill:#D57E58;"></path>
			</g>
			<path d="M175.997,159.251c0,0-25.378,32.767-5.873,67.164h12.378
				C182.502,226.415,156.748,190.423,175.997,159.251z" style="opacity:0.11;fill:#6E6E96;enable-background:new    ;"></path>
		</g>
		<g style="display:inline;">
			<g>
				<path d="M145.461,144.131c0-13.645-11.873-24.707-26.517-24.707c-0.229,0-0.454,0.01-0.68,0.016
					c-4.624-7.239-13.102-12.092-22.8-12.092c-14.644,0-26.518,11.063-26.518,24.707c0,0.178,0.012,0.354,0.015,0.529
					c-8.01,4.251-13.414,12.271-13.414,21.477c0,13.646,11.872,24.707,26.518,24.707c0.832,0,1.655-0.041,2.469-0.104
					c4.864,5.482,12.224,8.982,20.46,8.982c13.537,0,24.695-9.45,26.309-21.65C139.721,161.85,145.461,153.617,145.461,144.131z" style="fill:#D7F7E4;"></path>
				<path d="M104.994,189.146c-8.109,0-15.748-3.248-21.08-8.937c-0.657,0.039-1.267,0.058-1.849,0.058
					c-15.449,0-28.018-11.757-28.018-26.207c0-9.119,5.111-17.604,13.401-22.354c0.2-14.291,12.691-25.858,28.016-25.858
					c9.509,0,18.468,4.606,23.595,12.076c15.396,0.059,27.902,11.793,27.902,26.207c0,9.51-5.454,18.196-14.288,22.851
					C130.576,179.673,118.825,189.146,104.994,189.146z M85.162,177.111l0.494,0.558c4.78,5.388,11.828,8.478,19.338,8.478
					c12.617,0,23.288-8.747,24.821-20.347l0.105-0.795l0.719-0.354c8.217-4.047,13.321-11.91,13.321-20.52
					c0-12.797-11.223-23.207-25.017-23.207c-0.145,0-0.287,0.005-0.429,0.009l-1.059,0.028L117,120.248
					c-4.492-7.031-12.744-11.399-21.536-11.399c-13.795,0-25.018,10.411-25.018,23.207l0.03,1.423l-0.812,0.432
					c-7.783,4.13-12.617,11.852-12.617,20.151c0,12.797,11.223,23.207,25.018,23.207c0.716,0,1.486-0.032,2.354-0.099
					L85.162,177.111z" style="fill:#CCCCDE;"></path>
			</g>
			<path d="M118.498,118.535c-0.228,0-0.452,0.009-0.679,0.015
				c-3.707-5.805-9.894-10.072-17.199-11.537c5.78,1.45,10.648,4.966,13.641,9.647c0.194-0.005,2.851,4.586,3.048,4.586
				c12.567,0,18.414,6.771,18.414,18.48c0,8.139-3.05,13.325-10.271,16.881c-1.384,10.472-10.961,18.584-22.576,18.584
				c-7.069,0-13.384-3.004-17.559-7.715c-0.698,0.061-1.404,0.096-2.118,0.096c-12.568,0-22.438-5.957-22.438-17.664
				c0-7.885,3.528-11.771,9.949-16.452c-0.171-1.015-0.884-9.938,1.496-12.316c5.655-5.657,8.218-10.515,13.277-13.028
				c-9.93,3.571-16.978,12.542-16.978,23.053c0,0.177,0.01,0.353,0.015,0.528c-8.011,4.25-13.415,12.271-13.415,21.477
				c0,13.645,11.873,24.706,26.518,24.706c0.834,0,1.655-0.04,2.469-0.108c4.864,5.488,12.224,8.988,20.461,8.988
				c13.536,0,24.693-9.451,26.311-21.656c8.418-4.141,14.158-12.371,14.158-21.854C145.016,129.598,133.143,118.535,118.498,118.535
				z" style="opacity:0.1;fill:#6E6E96;enable-background:new    ;"></path>
			<g>
				<path d="M80.757,157.494c0,0,13.731,2.688,13.731,16.128c0,0,3.697,22.823-10.595,38.978h33
					c-0.328-0.455-28.824-38.521,2.89-61.151C100.443,162.502,80.757,157.494,80.757,157.494z" style="fill:#EDE3DA;"></path>
				<path d="M116.893,214.1h-36.33l2.207-2.494c13.636-15.412,10.273-37.523,10.237-37.744l-0.019-0.239
					c0-10.926-10.094-14.049-12.179-14.576c-0.278-0.062-0.422-0.098-0.422-0.098l0.658-2.926c0,0,0.161,0.03,0.451,0.103
					c1.105,0.241,5.025,1.001,10.455,1.001c6.786,0,16.995-1.211,27.088-6.98l1.615,2.523c-7.892,5.632-12.577,12.753-13.924,21.167
					c-2.861,17.866,9.887,35.854,11.351,37.847l1.753,2.388L116.893,214.1z M87.055,211.1h26.991
					c-3.932-6.047-12.823-21.844-10.278-37.738c0.989-6.177,3.596-11.703,7.777-16.517c-7.478,2.623-14.465,3.281-19.595,3.281
					c-0.833,0-1.63-0.017-2.39-0.046c3.334,2.627,6.39,6.832,6.426,13.424C96.28,175.44,98.933,195.348,87.055,211.1z" style="fill:#CCCCDE;"></path>
			</g>
			<g>
				<path d="M89.453,130.541" style="fill:#D57E58;"></path>
			</g>
			<path d="M111.553,157.458c0,0-20.835,26.899-4.821,55.142h10.162
				C116.894,212.6,95.75,183.049,111.553,157.458z" style="opacity:0.11;fill:#6E6E96;enable-background:new    ;"></path>
		</g>
		<g style="display:inline;">
			<g>
				<path d="M252.684,168.268c0-12.345-10.74-22.35-23.988-22.35c-0.199,0-0.403,0.008-0.607,0.014
					c-4.188-6.549-11.854-10.938-20.625-10.938c-13.248,0-23.982,10.007-23.982,22.35c0,0.161,0.012,0.318,0.014,0.479
					c-7.244,3.852-12.135,11.104-12.135,19.434c0,12.351,10.733,22.354,23.982,22.354c0.754,0,1.497-0.039,2.229-0.104
					c4.4,4.972,11.063,8.138,18.514,8.138c12.245,0,22.339-8.556,23.799-19.596C247.49,184.295,252.684,176.85,252.684,168.268z" style="fill:#D7F7E4;"></path>
				<path d="M216.084,209.145c-7.356,0-14.283-2.938-19.128-8.086c-0.555,0.035-1.088,0.053-1.614,0.053
					c-14.051,0-25.482-10.701-25.482-23.854c0-8.271,4.622-15.974,12.125-20.311c0.228-12.968,11.57-23.452,25.479-23.452
					c8.619,0,16.745,4.166,21.42,10.925c13.968,0.095,25.301,10.757,25.301,23.849c0,8.63-4.935,16.518-12.932,20.766
					C239.312,200.554,228.64,209.145,216.084,209.145z M198.191,197.945l0.502,0.567c4.293,4.851,10.632,7.632,17.391,7.632
					c11.341,0,20.933-7.864,22.312-18.292l0.105-0.794l0.718-0.354c7.38-3.643,11.965-10.706,11.965-18.437
					c0-11.496-10.088-20.85-22.488-20.85c-0.144,0-0.29,0.005-0.438,0.009l-0.976,0.028l-0.458-0.716
					c-4.041-6.319-11.46-10.245-19.361-10.245c-12.396,0-22.482,9.354-22.482,20.85l0.024,1.375l-0.807,0.429
					c-6.994,3.719-11.339,10.658-11.339,18.109c0,11.499,10.086,20.854,22.482,20.854c0.669,0,1.354-0.032,2.095-0.099
					L198.191,197.945z" style="fill:#CCCCDE;"></path>
			</g>
			<path d="M228.292,145.111c-0.206,0-0.409,0.011-0.614,0.016
				c-3.354-5.251-8.949-9.111-15.558-10.438c5.229,1.312,9.633,4.492,12.339,8.728c0.175-0.004,2.579,4.149,2.757,4.149
				c11.368,0,16.655,6.123,16.655,16.718c0,7.362-2.757,12.055-9.291,15.271c-1.252,9.473-9.915,16.813-20.423,16.813
				c-6.396,0-12.106-2.72-15.884-6.979c-0.631,0.055-1.271,0.086-1.916,0.086c-11.368,0-20.299-5.389-20.299-15.979
				c0-7.135,3.188-10.646,9.002-14.885c-0.156-0.918-0.807-8.987,1.353-11.142c5.116-5.116,7.435-9.516,12.011-11.784
				c-8.98,3.229-15.357,11.346-15.357,20.854c0,0.158,0.016,0.316,0.02,0.479c-7.246,3.847-12.141,11.104-12.141,19.429
				c0,12.346,10.738,22.353,23.988,22.353c0.754,0,1.496-0.031,2.231-0.103c4.401,4.969,11.06,8.135,18.509,8.135
				c12.245,0,22.338-8.556,23.799-19.595c7.615-3.74,12.813-11.188,12.813-19.771C252.279,155.118,241.541,145.111,228.292,145.111z" style="opacity:0.1;fill:#6E6E96;enable-background:new    ;"></path>
			<g>
				<path d="M194.15,180.355c0,0,12.422,2.431,12.422,14.588c0,0,3.345,20.646-9.584,35.259h29.853
					c-0.296-0.41-26.073-34.847,2.615-55.317C211.96,184.887,194.15,180.355,194.15,180.355z" style="fill:#EDE3DA;"></path>
				<path d="M226.841,231.702h-33.183l2.207-2.494c12.288-13.89,9.258-33.826,9.227-34.026l-0.02-0.238
					c0-9.771-9.034-12.57-10.906-13.045c-0.254-0.056-0.386-0.089-0.386-0.089l0.658-2.926c0,0,0.148,0.028,0.414,0.095
					c0.999,0.218,4.531,0.9,9.425,0.9c6.122,0,15.33-1.092,24.435-6.296l1.615,2.522c-7.106,5.071-11.325,11.482-12.537,19.054
					c-2.579,16.108,8.921,32.332,10.241,34.129l1.754,2.389L226.841,231.702z M200.134,228.702h23.868
					c-3.634-5.641-11.454-19.779-9.175-34.017c0.872-5.444,3.125-10.332,6.725-14.611c-6.594,2.236-12.737,2.805-17.274,2.805
					c-0.6,0-1.179-0.009-1.737-0.026c2.908,2.41,5.497,6.182,5.532,11.973C208.345,196.638,210.695,214.473,200.134,228.702z" style="fill:#CCCCDE;"></path>
			</g>
			<g>
				<path d="M202.018,155.975" style="fill:#D57E58;"></path>
			</g>
			<path d="M222.01,180.322c0,0-18.847,24.334-4.361,49.88h9.192
				C226.841,230.202,207.714,203.473,222.01,180.322z" style="opacity:0.11;fill:#6E6E96;enable-background:new    ;"></path>
		</g>
		<g style="display:inline;">
			<g>
				<path d="M88.418,166.416c0-13.111-11.408-23.738-25.479-23.738c-0.22,0-0.436,0.008-0.653,0.014
					c-4.443-6.954-12.589-11.611-21.907-11.611c-14.071,0-25.48,10.629-25.48,23.734c0,0.17,0.011,0.336,0.015,0.507
					c-7.695,4.086-12.889,11.795-12.889,20.643c0,13.104,11.407,23.734,25.479,23.734c0.8,0,1.59-0.041,2.372-0.104
					c4.674,5.271,11.745,8.639,19.659,8.639c13.007,0,23.729-9.082,25.279-20.81C82.903,183.439,88.418,175.531,88.418,166.416z" style="fill:#D7F7E4;"></path>
				<path d="M49.535,209.732c-7.796,0-15.142-3.122-20.277-8.591c-0.62,0.038-1.198,0.057-1.754,0.057
					c-14.876,0-26.979-11.32-26.979-25.234c0-8.774,4.911-16.94,12.877-21.521c0.213-13.743,12.233-24.863,26.977-24.863
					c9.147,0,17.765,4.424,22.703,11.598c14.81,0.073,26.836,11.367,26.836,25.238c0,9.149-5.242,17.508-13.734,21.992
					C74.152,200.621,62.844,209.732,49.535,209.732z M30.501,198.038l0.497,0.561c4.583,5.169,11.339,8.134,18.537,8.134
					c12.094,0,22.322-8.386,23.792-19.506l0.105-0.795l0.719-0.354c7.875-3.878,12.767-11.412,12.767-19.661
					c0-12.263-10.757-22.238-23.979-22.238c-0.162,0-0.321,0.005-0.48,0.01l-0.98,0.026l-0.457-0.715
					c-4.303-6.735-12.213-10.919-20.643-10.919c-13.223,0-23.98,9.975-23.98,22.234l0.036,1.397l-0.817,0.435
					c-7.459,3.96-12.093,11.362-12.093,19.317c0,12.26,10.757,22.234,23.979,22.234c0.689,0,1.425-0.032,2.251-0.1L30.501,198.038z" style="fill:#CCCCDE;"></path>
			</g>
			<path d="M62.511,141.822c-0.219,0-0.435,0.01-0.652,0.015
				c-3.562-5.577-9.506-9.678-16.525-11.085c5.553,1.393,10.231,4.771,13.106,9.27c0.186-0.004,2.739,4.406,2.928,4.406
				c12.076,0,17.692,6.506,17.692,17.758c0,7.82-2.929,12.806-9.87,16.222c-1.33,10.063-10.531,17.854-21.693,17.854
				c-6.792,0-12.859-2.886-16.871-7.412c-0.67,0.058-1.348,0.092-2.035,0.092c-12.076,0-21.561-5.723-21.561-16.975
				c0-7.574,3.391-11.308,9.561-15.807c-0.165-0.975-0.85-9.549,1.437-11.836c5.435-5.434,7.896-10.103,12.758-12.516
				c-9.541,3.43-16.313,12.051-16.313,22.146c0,0.17,0.01,0.338,0.014,0.508c-7.696,4.084-12.889,11.792-12.889,20.64
				c0,13.105,11.407,23.734,25.479,23.734c0.801,0,1.591-0.039,2.373-0.104c4.674,5.271,11.745,8.639,19.659,8.639
				c13.006,0,23.728-9.081,25.278-20.809c8.089-3.979,13.604-11.895,13.604-21.002C87.991,152.449,76.583,141.822,62.511,141.822z" style="opacity:0.1;fill:#6E6E96;enable-background:new    ;"></path>
			<g>
				<path d="M26.248,179.256c0,0,13.193,2.583,13.193,15.496c0,0,3.553,21.932-10.179,37.45h31.707
					c-0.314-0.437-27.694-37.015,2.777-58.759C45.163,184.066,26.248,179.256,26.248,179.256z" style="fill:#EDE3DA;"></path>
				<path d="M60.969,233.702H25.932l2.207-2.494c13.083-14.784,9.855-36.005,9.821-36.217l-0.019-0.239
					c0-10.454-9.661-13.443-11.658-13.948c-0.266-0.059-0.405-0.094-0.405-0.094l0.658-2.926c0,0,0.155,0.029,0.434,0.099
					c1.061,0.231,4.819,0.96,10.029,0.96c6.514,0,16.314-1.163,26.002-6.701l1.616,2.522c-7.567,5.4-12.06,12.228-13.353,20.293
					c-2.748,17.136,9.488,34.414,10.893,36.328l1.751,2.388L60.969,233.702z M32.418,230.702h25.708
					c-3.81-5.884-12.263-21.012-9.824-36.22c0.941-5.872,3.401-11.134,7.34-15.726c-7.116,2.464-13.756,3.086-18.643,3.086
					c-0.734,0-1.44-0.014-2.115-0.038c3.159,2.54,6.021,6.566,6.057,12.829C41.226,196.521,43.755,215.578,32.418,230.702z" style="fill:#CCCCDE;"></path>
			</g>
			<g>
				<path d="M34.603,153.357" style="fill:#D57E58;"></path>
			</g>
			<path d="M55.838,179.221c0,0-20.02,25.848-4.633,52.981h9.764
				C60.969,232.202,40.654,203.811,55.838,179.221z" style="opacity:0.11;fill:#6E6E96;enable-background:new    ;"></path>
		</g>
	</g>
	<g style="display:none;" id="Layer_3_2_">
		<g style="display:inline;">
			<g>
				<path d="M85.16,142.542c0-11.563-10.059-20.936-22.467-20.936c-0.194,0-0.385,0.009-0.576,0.014
					c-3.917-6.134-11.102-10.245-19.318-10.245c-12.409,0-22.469,9.372-22.469,20.936c0,0.149,0.009,0.297,0.012,0.446
					c-6.785,3.603-11.365,10.399-11.365,18.198c0,11.562,10.059,20.934,22.468,20.934c0.705,0,1.403-0.033,2.092-0.094
					c4.122,4.65,10.358,7.617,17.335,7.617c11.471,0,20.925-8.01,22.293-18.35C80.297,157.555,85.16,150.579,85.16,142.542z" style="fill:#D7F7E4;"></path>
				<path d="M50.872,180.912c-6.895,0-13.393-2.749-17.95-7.568c-0.499,0.03-0.993,0.045-1.477,0.045
					c-13.216,0-23.968-10.063-23.968-22.434c0-7.768,4.328-14.997,11.357-19.076c0.247-12.173,10.902-22.004,23.964-22.004
					c8.091,0,15.716,3.9,20.112,10.232c13.116,0.11,23.749,10.131,23.749,22.435c0,8.109-4.626,15.515-12.127,19.506
					C72.687,172.857,62.662,180.912,50.872,180.912z M34.159,170.234l0.501,0.565c4.006,4.52,9.916,7.112,16.212,7.112
					c10.575,0,19.52-7.328,20.806-17.046l0.105-0.796l0.72-0.354c6.882-3.385,11.157-9.966,11.157-17.175
					c0-10.717-9.406-19.436-20.967-19.436c-0.115,0-0.229,0.004-0.344,0.008l-1.041,0.027l-0.456-0.714
					c-3.763-5.892-10.68-9.552-18.054-9.552c-11.562,0-20.969,8.719-20.969,19.436l0.029,1.339l-0.814,0.433
					c-6.519,3.461-10.568,9.927-10.568,16.873c0,10.716,9.406,19.434,20.968,19.434c0.637,0,1.296-0.029,1.961-0.088L34.159,170.234
					z" style="fill:#CCCCDE;"></path>
			</g>
			<path d="M62.314,120.853c-0.193,0-0.384,0.009-0.575,0.014
				c-3.141-4.918-8.383-8.534-14.573-9.775c4.898,1.229,9.023,4.208,11.558,8.175c0.165-0.004,2.416,3.886,2.583,3.886
				c10.648,0,15.601,5.738,15.601,15.66c0,6.896-2.583,11.291-8.704,14.302c-1.173,8.875-9.287,15.748-19.129,15.748
				c-5.99,0-11.34-2.544-14.877-6.531c-0.591,0.05-1.189,0.076-1.794,0.076c-10.649,0-19.013-5.048-19.013-14.968
				c0-6.683,2.99-9.973,8.432-13.938c-0.145-0.855-0.75-8.421,1.267-10.437c4.792-4.793,6.963-8.909,11.25-11.038
				c-8.414,3.025-14.385,10.627-14.385,19.536c0,0.147,0.009,0.3,0.012,0.447c-6.787,3.604-11.366,10.396-11.366,18.195
				c0,11.562,10.059,20.938,22.468,20.938c0.707,0,1.403-0.035,2.093-0.098c4.121,4.648,10.356,7.617,17.336,7.617
				c11.469,0,20.924-8.012,22.291-18.354c7.133-3.507,11.997-10.479,11.997-18.521C84.783,130.227,74.724,120.853,62.314,120.853z" style="opacity:0.1;fill:#6E6E96;enable-background:new    ;"></path>
			<g>
				<path d="M30.336,153.865c0,0,11.635,2.277,11.635,13.662c0,0,3.132,19.342-8.976,33.026h27.96
					c-0.277-0.389-24.422-32.646,2.449-51.815C47.016,158.107,30.336,153.865,30.336,153.865z" style="fill:#EDE3DA;"></path>
				<path d="M60.955,202.054h-31.29l2.207-2.494c11.477-12.972,8.648-31.607,8.619-31.794l-0.019-0.238
					c0-9.079-8.398-11.683-10.144-12.124c-0.238-0.053-0.362-0.084-0.362-0.084l0.658-2.926c0,0,0.139,0.026,0.39,0.089
					c0.935,0.203,4.231,0.841,8.802,0.841c5.724,0,14.333-1.021,22.844-5.887l1.616,2.522c-6.626,4.728-10.562,10.701-11.7,17.755
					c-2.418,15.007,8.333,30.235,9.567,31.922l1.745,2.386L60.955,202.054z M36.13,199.054h21.998
					c-3.445-5.398-10.645-18.595-8.514-31.817c0.805-4.994,2.848-9.49,6.098-13.439c-6.069,2.011-11.71,2.526-15.896,2.526
					c-0.463,0-0.915-0.006-1.352-0.018c2.655,2.276,4.974,5.786,5.007,11.104C43.731,169.146,45.9,185.741,36.13,199.054z" style="fill:#CCCCDE;"></path>
			</g>
			<g>
				<path d="M37.703,131.025" style="fill:#D57E58;"></path>
			</g>
			<path d="M56.43,153.833c0,0-17.654,22.793-4.085,46.722h8.611
				C60.955,200.555,43.04,175.518,56.43,153.833z" style="opacity:0.11;fill:#6E6E96;enable-background:new    ;"></path>
		</g>
		<g style="display:inline;">
			<g>
				<path d="M255,141.26c0-10.828-9.42-19.604-21.04-19.604c-0.183,0-0.36,0.008-0.539,0.013
					c-3.669-5.744-10.396-9.595-18.091-9.595c-11.62,0-21.041,8.777-21.041,19.604c0,0.141,0.009,0.279,0.012,0.418
					c-6.354,3.375-10.644,9.739-10.644,17.043c0,10.825,9.421,19.604,21.04,19.604c0.66,0,1.312-0.032,1.96-0.089
					c3.858,4.354,9.698,7.134,16.233,7.134c10.736,0,19.596-7.499,20.875-17.185C250.445,155.316,255,148.786,255,141.26z" style="fill:#D7F7E4;"></path>
				<path d="M222.891,177.288c-6.467,0-12.563-2.573-16.848-7.085c-0.458,0.027-0.902,0.04-1.346,0.04
					c-12.429,0-22.54-9.468-22.54-21.104c0-7.289,4.053-14.077,10.637-17.92c0.262-11.426,10.271-20.646,22.536-20.646
					c7.59,0,14.745,3.652,18.885,9.583c12.312,0.128,22.285,9.545,22.285,21.103c0,7.612-4.335,14.567-11.367,18.328
					C243.377,169.733,233.962,177.288,222.891,177.288z M207.279,167.094l0.501,0.565c3.733,4.213,9.241,6.629,15.11,6.629
					c9.857,0,18.192-6.827,19.388-15.881l0.105-0.795l0.72-0.354c6.413-3.156,10.396-9.286,10.396-15.998
					c0-9.982-8.766-18.104-19.54-18.104c-0.117,0-0.231,0.004-0.346,0.007l-1.001,0.028l-0.456-0.715
					c-3.508-5.491-9.955-8.902-16.827-8.902c-10.775,0-19.541,8.122-19.541,18.104l0.031,1.31l-0.815,0.433
					c-6.074,3.227-9.848,9.25-9.848,15.719c0,9.982,8.766,18.104,19.54,18.104c0.591,0,1.189-0.027,1.829-0.083L207.279,167.094z" style="fill:#CCCCDE;"></path>
			</g>
			<path d="M233.605,120.949c-0.186,0-0.358,0.008-0.539,0.012
				c-2.94-4.606-7.854-7.992-13.646-9.154c4.586,1.15,8.449,3.94,10.822,7.655c0.154-0.004,2.263,3.639,2.419,3.639
				c9.971,0,14.608,5.374,14.608,14.665c0,6.459-2.42,10.573-8.148,13.396c-1.1,8.311-8.698,14.742-17.914,14.742
				c-5.607,0-10.619-2.381-13.934-6.117c-0.559,0.047-1.112,0.072-1.684,0.072c-9.975,0-17.806-4.729-17.806-14.017
				c0-6.259,2.8-9.341,7.896-13.057c-0.139-0.808-0.701-7.885,1.188-9.772c4.483-4.488,6.521-8.343,10.532-10.337
				c-7.879,2.833-13.471,9.952-13.471,18.292c0,0.139,0.006,0.274,0.012,0.418c-6.354,3.373-10.646,9.735-10.646,17.041
				c0,10.823,9.421,19.604,21.041,19.604c0.661,0,1.313-0.032,1.959-0.091c3.859,4.355,9.699,7.136,16.234,7.136
				c10.739,0,19.594-7.5,20.875-17.188c6.68-3.285,11.231-9.812,11.231-17.342C254.646,129.727,245.227,120.949,233.605,120.949z" style="opacity:0.1;fill:#6E6E96;enable-background:new    ;"></path>
			<g>
				<path d="M203.66,151.861c0,0,10.896,2.133,10.896,12.797c0,0,2.934,18.109-8.406,30.927h26.184
					c-0.26-0.358-22.87-30.565,2.294-48.521C219.279,155.836,203.66,151.861,203.66,151.861z" style="fill:#EDE3DA;"></path>
				<path d="M232.334,197.085H202.82l2.207-2.494c10.744-12.145,8.077-29.519,8.049-29.692l-0.02-0.24
					c0-8.432-7.802-10.853-9.426-11.264c-0.225-0.05-0.341-0.08-0.341-0.08l0.658-2.925c0,0,0.132,0.024,0.369,0.084
					c0.876,0.19,3.955,0.786,8.226,0.786c5.348,0,13.39-0.954,21.341-5.498l1.615,2.523c-6.195,4.421-9.87,10.006-10.924,16.602
					c-2.247,14.071,7.8,28.223,8.952,29.79l1.758,2.389L232.334,197.085z M209.273,194.085h20.232
					c-3.271-5.141-9.861-17.346-7.893-29.672c0.735-4.605,2.589-8.76,5.534-12.422c-5.576,1.803-10.748,2.269-14.604,2.269
					c-0.344,0-0.681-0.004-1.009-0.011c2.417,2.149,4.489,5.412,4.522,10.291C216.305,166.203,218.305,181.631,209.273,194.085z" style="fill:#CCCCDE;"></path>
			</g>
			<g>
				<path d="M210.561,130.477" style="fill:#D57E58;"></path>
			</g>
			<path d="M228.096,151.833c0,0-16.531,21.345-3.824,43.752h8.063
				C232.333,195.585,215.557,172.139,228.096,151.833z" style="opacity:0.11;fill:#6E6E96;enable-background:new    ;"></path>
		</g>
		<g style="display:inline;">
			<g>
				<path d="M218.298,143.02c0-16.622-14.461-30.095-32.299-30.095c-0.278,0-0.554,0.012-0.828,0.019
					c-5.632-8.817-15.959-14.729-27.771-14.729c-17.838,0-32.301,13.475-32.301,30.096c0,0.215,0.014,0.429,0.018,0.646
					c-9.755,5.182-16.339,14.945-16.339,26.156c0,16.621,14.462,30.098,32.3,30.098c1.014,0,2.018-0.05,3.008-0.139
					c5.926,6.688,14.889,10.951,24.921,10.951c16.489,0,30.081-11.515,32.048-26.379
					C211.307,164.602,218.298,154.572,218.298,143.02z" style="fill:#D7F7E4;"></path>
				<path d="M169.007,197.523c-9.839,0-19.102-3.963-25.537-10.897c-0.812,0.057-1.614,0.085-2.392,0.085
					c-18.638,0-33.8-14.175-33.8-31.598c0-11.043,6.23-21.32,16.322-27.035c0.134-17.315,15.246-31.363,33.8-31.363
					c11.535,0,22.398,5.615,28.566,14.71c0.011,0,0.021,0,0.032,0c18.637,0,33.799,14.173,33.799,31.595
					c0,11.516-6.635,22.026-17.371,27.612C199.969,186.018,185.751,197.523,169.007,197.523z M144.706,183.511l0.503,0.566
					c5.881,6.639,14.556,10.446,23.798,10.446c15.531,0,28.669-10.78,30.561-25.075l0.105-0.796l0.72-0.354
					c10.119-4.978,16.405-14.664,16.405-25.279c0-15.768-13.816-28.595-30.799-28.595c-0.179,0-0.355,0.006-0.532,0.011
					l-1.104,0.028l-0.455-0.713c-5.531-8.658-15.688-14.037-26.507-14.037c-16.983,0-30.801,12.828-30.801,28.596
					c0,0.108,0.004,0.217,0.009,0.325l0.028,1.213l-0.815,0.434c-9.587,5.092-15.543,14.606-15.543,24.831
					c0,15.769,13.817,28.598,30.8,28.598c0.926,0,1.893-0.045,2.874-0.133L144.706,183.511z" style="fill:#CCCCDE;"></path>
			</g>
			<path d="M185.456,111.841c-0.276,0-0.552,0.012-0.827,0.019
				c-4.516-7.071-12.051-12.269-20.949-14.052c7.041,1.766,12.971,6.049,16.614,11.751c0.237-0.006,3.474,5.586,3.713,5.586
				c15.308,0,22.429,8.248,22.429,22.511c0,9.914-3.715,16.231-12.513,20.562c-1.687,12.754-13.353,22.635-27.5,22.635
				c-8.61,0-16.302-3.655-21.387-9.396c-0.851,0.071-1.71,0.114-2.58,0.114c-15.31,0-27.332-7.254-27.332-21.516
				c0-9.604,4.298-14.337,12.12-20.039c-0.209-1.234-1.077-12.104,1.82-15.002c6.89-6.89,10.011-12.808,16.174-15.868
				c-12.096,4.349-20.679,15.277-20.679,28.08c0,0.215,0.011,0.429,0.017,0.646c-9.756,5.178-16.34,14.947-16.34,26.156
				c0,16.621,14.461,30.097,32.3,30.097c1.017,0,2.017-0.049,3.008-0.136c5.925,6.688,14.89,10.949,24.922,10.949
				c16.487,0,30.078-11.517,32.046-26.379c10.254-5.043,17.244-15.07,17.244-26.623
				C217.756,125.314,203.295,111.841,185.456,111.841z" style="opacity:0.1;fill:#6E6E96;enable-background:new    ;"></path>
			<g>
				<path d="M139.484,159.296c0,0,16.727,3.272,16.727,19.644c0,0,4.504,27.808-12.904,47.479h40.195
					c-0.398-0.556-35.107-46.922,3.521-74.483C163.464,165.396,139.484,159.296,139.484,159.296z" style="fill:#EDE3DA;"></path>
				<path d="M183.502,227.919h-43.525l2.207-2.494c16.743-18.921,12.591-45.975,12.547-46.245l-0.02-0.24
					c0-13.557-12.515-17.422-15.086-18.071c-0.336-0.074-0.511-0.118-0.511-0.118l0.658-2.926c0,0,0.192,0.037,0.538,0.123
					c1.35,0.295,6.158,1.228,12.813,1.228c8.306,0,20.799-1.481,33.155-8.542l1.615,2.523c-9.681,6.907-15.431,15.647-17.09,25.977
					c-3.512,21.865,12.087,43.917,13.878,46.359l1.749,2.387L183.502,227.919z M146.496,224.919h34.146
					c-4.573-6.926-15.963-26.566-12.799-46.262c1.264-7.868,4.702-14.865,10.257-20.899c-9.522,3.547-18.479,4.417-24.976,4.417
					c-1.404,0-2.727-0.039-3.958-0.104c4.314,3.1,8.506,8.287,8.545,16.75C158.048,181.028,161.4,205.692,146.496,224.919z" style="fill:#CCCCDE;"></path>
			</g>
			<g>
				<path d="M150.077,126.465" style="fill:#D57E58;"></path>
			</g>
			<path d="M176.997,159.251c0,0-25.378,32.767-5.873,67.164h12.378
				C183.502,226.415,157.748,190.423,176.997,159.251z" style="opacity:0.11;fill:#6E6E96;enable-background:new    ;"></path>
		</g>
		<g style="display:inline;">
			<g>
				<path d="M146.461,144.131c0-13.645-11.873-24.707-26.517-24.707c-0.229,0-0.454,0.01-0.68,0.016
					c-4.624-7.239-13.102-12.092-22.8-12.092c-14.644,0-26.518,11.063-26.518,24.707c0,0.178,0.012,0.354,0.015,0.529
					c-8.01,4.251-13.414,12.271-13.414,21.477c0,13.646,11.872,24.707,26.518,24.707c0.832,0,1.655-0.041,2.469-0.104
					c4.864,5.483,12.224,8.983,20.46,8.983c13.537,0,24.695-9.45,26.309-21.651C140.721,161.85,146.461,153.617,146.461,144.131z" style="fill:#D7F7E4;"></path>
				<path d="M105.994,189.146c-8.109,0-15.748-3.248-21.08-8.938c-0.654,0.039-1.265,0.059-1.85,0.059
					c-15.449,0-28.018-11.757-28.018-26.207c0-9.119,5.111-17.604,13.401-22.354c0.2-14.291,12.691-25.858,28.016-25.858
					c9.509,0,18.468,4.606,23.595,12.076c15.396,0.059,27.902,11.793,27.902,26.207c0,9.51-5.454,18.196-14.288,22.85
					C131.576,179.673,119.825,189.146,105.994,189.146z M86.161,177.109l0.495,0.559c4.78,5.388,11.828,8.479,19.338,8.479
					c12.617,0,23.288-8.748,24.821-20.348l0.105-0.795l0.719-0.354c8.217-4.046,13.321-11.908,13.321-20.519
					c0-12.797-11.223-23.207-25.017-23.207c-0.145,0-0.287,0.005-0.429,0.009l-1.059,0.028L118,120.248
					c-4.492-7.031-12.744-11.399-21.536-11.399c-13.795,0-25.018,10.411-25.018,23.207l0.03,1.423l-0.812,0.432
					c-7.783,4.13-12.617,11.852-12.617,20.151c0,12.797,11.223,23.207,25.018,23.207c0.721,0,1.49-0.032,2.353-0.1L86.161,177.109z" style="fill:#CCCCDE;"></path>
			</g>
			<path d="M119.498,118.535c-0.228,0-0.452,0.009-0.679,0.015
				c-3.707-5.805-9.894-10.072-17.199-11.537c5.78,1.45,10.648,4.966,13.641,9.647c0.194-0.005,2.851,4.586,3.048,4.586
				c12.567,0,18.414,6.771,18.414,18.48c0,8.139-3.05,13.325-10.271,16.881c-1.384,10.472-10.961,18.584-22.576,18.584
				c-7.069,0-13.384-3.004-17.559-7.715c-0.698,0.061-1.404,0.096-2.118,0.096c-12.568,0-22.438-5.957-22.438-17.664
				c0-7.885,3.528-11.771,9.949-16.452c-0.171-1.015-0.884-9.938,1.496-12.316c5.655-5.657,8.218-10.515,13.277-13.028
				c-9.93,3.571-16.978,12.542-16.978,23.053c0,0.177,0.01,0.353,0.015,0.528c-8.011,4.25-13.415,12.271-13.415,21.477
				c0,13.645,11.873,24.706,26.518,24.706c0.834,0,1.655-0.04,2.469-0.108c4.864,5.488,12.224,8.988,20.461,8.988
				c13.536,0,24.693-9.451,26.311-21.656c8.418-4.141,14.158-12.371,14.158-21.854C146.016,129.598,134.143,118.535,119.498,118.535
				z" style="opacity:0.1;fill:#6E6E96;enable-background:new    ;"></path>
			<g>
				<path d="M81.757,157.494c0,0,13.731,2.688,13.731,16.128c0,0,3.697,22.823-10.595,38.978h33
					c-0.328-0.455-28.824-38.521,2.89-61.151C101.443,162.502,81.757,157.494,81.757,157.494z" style="fill:#EDE3DA;"></path>
				<path d="M117.893,214.1h-36.33l2.207-2.494c13.636-15.412,10.273-37.523,10.237-37.744l-0.019-0.239
					c0-10.926-10.094-14.049-12.179-14.576c-0.278-0.062-0.422-0.098-0.422-0.098l0.658-2.926c0,0,0.161,0.03,0.451,0.103
					c1.105,0.241,5.025,1.001,10.455,1.001c6.786,0,16.995-1.211,27.088-6.98l1.615,2.523c-7.892,5.632-12.577,12.753-13.924,21.167
					c-2.861,17.866,9.887,35.854,11.351,37.847l1.753,2.388L117.893,214.1z M88.055,211.1h26.991
					c-3.932-6.047-12.823-21.844-10.278-37.738c0.989-6.177,3.596-11.703,7.777-16.517c-7.478,2.623-14.465,3.281-19.595,3.281
					c-0.833,0-1.63-0.017-2.39-0.046c3.334,2.627,6.39,6.832,6.426,13.424C97.28,175.44,99.933,195.348,88.055,211.1z" style="fill:#CCCCDE;"></path>
			</g>
			<g>
				<path d="M90.453,130.541" style="fill:#D57E58;"></path>
			</g>
			<path d="M112.553,157.458c0,0-20.835,26.899-4.821,55.142h10.162
				C117.894,212.6,96.75,183.049,112.553,157.458z" style="opacity:0.11;fill:#6E6E96;enable-background:new    ;"></path>
		</g>
		<g style="display:inline;">
			<g>
				<path d="M253.684,168.268c0-12.345-10.74-22.35-23.988-22.35c-0.2,0-0.404,0.008-0.608,0.014
					c-4.188-6.549-11.854-10.938-20.625-10.938c-13.248,0-23.983,10.007-23.983,22.35c0,0.161,0.012,0.318,0.014,0.479
					c-7.244,3.851-12.135,11.104-12.135,19.433c0,12.35,10.734,22.354,23.983,22.354c0.753,0,1.497-0.038,2.229-0.104
					c4.4,4.971,11.062,8.137,18.513,8.137c12.245,0,22.339-8.555,23.799-19.595C248.49,184.295,253.684,176.85,253.684,168.268z" style="fill:#D7F7E4;"></path>
				<path d="M217.083,209.143c-7.355,0-14.282-2.938-19.128-8.086c-0.552,0.035-1.093,0.053-1.614,0.053
					c-14.052,0-25.483-10.7-25.483-23.854c0-8.271,4.622-15.974,12.125-20.311c0.228-12.967,11.57-23.451,25.479-23.451
					c8.617,0,16.744,4.166,21.42,10.925c13.969,0.093,25.302,10.756,25.302,23.849c0,8.63-4.935,16.519-12.933,20.765
					C240.311,200.552,229.639,209.143,217.083,209.143z M199.191,197.944l0.502,0.567c4.293,4.85,10.632,7.631,17.39,7.631
					c11.341,0,20.933-7.863,22.312-18.291l0.105-0.795l0.719-0.354c7.38-3.64,11.965-10.704,11.965-18.435
					c0-11.496-10.088-20.85-22.488-20.85c-0.145,0-0.291,0.005-0.438,0.009l-0.976,0.028l-0.458-0.715
					c-4.042-6.32-11.461-10.246-19.361-10.246c-12.397,0-22.483,9.354-22.483,20.85l0.024,1.375l-0.807,0.429
					c-6.994,3.718-11.339,10.656-11.339,18.108c0,11.499,10.086,20.854,22.483,20.854c0.666,0,1.371-0.033,2.096-0.098
					L199.191,197.944z" style="fill:#CCCCDE;"></path>
			</g>
			<path d="M229.292,145.111c-0.206,0-0.409,0.011-0.614,0.016
				c-3.354-5.251-8.949-9.111-15.558-10.438c5.229,1.312,9.633,4.492,12.339,8.728c0.175-0.004,2.579,4.149,2.757,4.149
				c11.368,0,16.655,6.123,16.655,16.718c0,7.362-2.757,12.055-9.291,15.271c-1.252,9.473-9.915,16.813-20.423,16.813
				c-6.396,0-12.106-2.72-15.884-6.979c-0.631,0.055-1.271,0.086-1.916,0.086c-11.368,0-20.299-5.389-20.299-15.979
				c0-7.135,3.188-10.646,9.002-14.885c-0.156-0.918-0.806-8.987,1.353-11.142c5.116-5.116,7.435-9.515,12.011-11.784
				c-8.98,3.229-15.357,11.346-15.357,20.854c0,0.158,0.015,0.316,0.019,0.479c-7.246,3.847-12.14,11.104-12.14,19.429
				c0,12.345,10.738,22.352,23.988,22.352c0.754,0,1.496-0.032,2.231-0.102c4.401,4.968,11.06,8.134,18.509,8.134
				c12.245,0,22.338-8.555,23.799-19.594c7.615-3.741,12.813-11.189,12.813-19.771C253.279,155.118,242.541,145.111,229.292,145.111
				z" style="opacity:0.1;fill:#6E6E96;enable-background:new    ;"></path>
			<g>
				<path d="M195.15,180.355c0,0,12.422,2.431,12.422,14.588c0,0,3.345,20.646-9.584,35.259h29.853
					c-0.296-0.41-26.073-34.847,2.615-55.317C212.96,184.887,195.15,180.355,195.15,180.355z" style="fill:#EDE3DA;"></path>
				<path d="M227.841,231.702h-33.183l2.207-2.494c12.288-13.89,9.258-33.826,9.227-34.026l-0.02-0.238
					c0-9.771-9.034-12.57-10.906-13.045c-0.254-0.056-0.386-0.089-0.386-0.089l0.658-2.926c0,0,0.148,0.028,0.414,0.095
					c0.999,0.218,4.531,0.9,9.425,0.9c6.122,0,15.33-1.092,24.435-6.296l1.615,2.522c-7.106,5.071-11.325,11.482-12.537,19.054
					c-2.579,16.108,8.921,32.332,10.241,34.129l1.754,2.389L227.841,231.702z M201.134,228.702h23.868
					c-3.634-5.641-11.454-19.779-9.175-34.017c0.872-5.444,3.125-10.332,6.725-14.611c-6.594,2.236-12.737,2.805-17.274,2.805
					c-0.6,0-1.179-0.009-1.737-0.026c2.908,2.41,5.497,6.182,5.532,11.973C209.345,196.638,211.695,214.473,201.134,228.702z" style="fill:#CCCCDE;"></path>
			</g>
			<g>
				<path d="M203.018,155.975" style="fill:#D57E58;"></path>
			</g>
			<path d="M223.01,180.322c0,0-18.847,24.334-4.361,49.88h9.192
				C227.841,230.202,208.714,203.473,223.01,180.322z" style="opacity:0.11;fill:#6E6E96;enable-background:new    ;"></path>
		</g>
		<g style="display:inline;">
			<g>
				<path d="M89.418,166.416c0-13.111-11.408-23.738-25.479-23.738c-0.22,0-0.436,0.008-0.653,0.014
					c-4.443-6.954-12.589-11.612-21.907-11.612c-14.071,0-25.48,10.629-25.48,23.735c0,0.17,0.011,0.336,0.015,0.507
					c-7.695,4.086-12.889,11.795-12.889,20.642c0,13.105,11.407,23.735,25.479,23.735c0.8,0,1.59-0.041,2.372-0.104
					c4.674,5.271,11.745,8.639,19.659,8.639c13.007,0,23.729-9.082,25.279-20.81C83.903,183.439,89.418,175.531,89.418,166.416z" style="fill:#D7F7E4;"></path>
				<path d="M50.535,209.732c-7.796,0-15.142-3.122-20.277-8.591c-0.62,0.038-1.198,0.057-1.754,0.057
					c-14.876,0-26.979-11.32-26.979-25.235c0-8.773,4.911-16.939,12.877-21.52c0.213-13.744,12.233-24.864,26.977-24.864
					c9.147,0,17.764,4.424,22.703,11.599c14.81,0.073,26.836,11.367,26.836,25.238c0,9.149-5.242,17.508-13.734,21.992
					C75.152,200.621,63.844,209.732,50.535,209.732z M31.501,198.038l0.497,0.561c4.583,5.169,11.339,8.134,18.537,8.134
					c12.094,0,22.322-8.386,23.792-19.506l0.105-0.795l0.719-0.354c7.875-3.878,12.767-11.412,12.767-19.661
					c0-12.263-10.757-22.238-23.979-22.238c-0.162,0-0.321,0.005-0.48,0.01l-0.98,0.026l-0.457-0.715
					c-4.304-6.735-12.214-10.92-20.643-10.92c-13.223,0-23.98,9.975-23.98,22.235l0.036,1.397l-0.817,0.435
					c-7.459,3.96-12.093,11.362-12.093,19.316c0,12.261,10.757,22.235,23.979,22.235c0.689,0,1.425-0.032,2.251-0.1L31.501,198.038z" style="fill:#CCCCDE;"></path>
			</g>
			<path d="M63.511,141.822c-0.219,0-0.435,0.01-0.652,0.015
				c-3.562-5.577-9.506-9.678-16.525-11.085c5.553,1.393,10.231,4.771,13.106,9.27c0.186-0.004,2.739,4.406,2.928,4.406
				c12.076,0,17.692,6.506,17.692,17.758c0,7.82-2.929,12.806-9.87,16.222c-1.33,10.063-10.531,17.854-21.693,17.854
				c-6.792,0-12.859-2.886-16.871-7.412c-0.67,0.058-1.348,0.092-2.035,0.092c-12.076,0-21.561-5.723-21.561-16.975
				c0-7.574,3.391-11.308,9.561-15.807c-0.165-0.975-0.85-9.549,1.437-11.836c5.435-5.434,7.896-10.103,12.758-12.516
				c-9.541,3.43-16.313,12.051-16.313,22.146c0,0.17,0.01,0.338,0.014,0.508c-7.696,4.084-12.889,11.792-12.889,20.64
				c0,13.105,11.407,23.734,25.479,23.734c0.801,0,1.591-0.039,2.373-0.104c4.674,5.271,11.745,8.639,19.659,8.639
				c13.006,0,23.728-9.081,25.278-20.809c8.089-3.979,13.604-11.894,13.604-21.002C88.991,152.449,77.583,141.822,63.511,141.822z" style="opacity:0.1;fill:#6E6E96;enable-background:new    ;"></path>
			<g>
				<path d="M27.248,179.256c0,0,13.193,2.583,13.193,15.496c0,0,3.553,21.932-10.179,37.45h31.707
					c-0.314-0.437-27.694-37.015,2.777-58.759C46.163,184.066,27.248,179.256,27.248,179.256z" style="fill:#EDE3DA;"></path>
				<path d="M61.969,233.702H26.932l2.207-2.494c13.083-14.784,9.855-36.005,9.821-36.217l-0.019-0.239
					c0-10.454-9.661-13.443-11.658-13.948c-0.266-0.059-0.405-0.094-0.405-0.094l0.658-2.926c0,0,0.155,0.029,0.434,0.099
					c1.061,0.231,4.819,0.96,10.029,0.96c6.514,0,16.314-1.163,26.002-6.701l1.616,2.522c-7.567,5.4-12.06,12.228-13.353,20.293
					c-2.748,17.136,9.488,34.414,10.893,36.328l1.751,2.388L61.969,233.702z M33.418,230.702h25.708
					c-3.81-5.884-12.263-21.012-9.824-36.22c0.941-5.872,3.401-11.134,7.34-15.726c-7.116,2.464-13.756,3.086-18.643,3.086
					c-0.734,0-1.44-0.014-2.115-0.038c3.159,2.54,6.021,6.566,6.057,12.829C42.226,196.521,44.755,215.578,33.418,230.702z" style="fill:#CCCCDE;"></path>
			</g>
			<g>
				<path d="M35.603,153.357" style="fill:#D57E58;"></path>
			</g>
			<path d="M56.838,179.221c0,0-20.02,25.848-4.633,52.981h9.764
				C61.969,232.202,41.654,203.811,56.838,179.221z" style="opacity:0.11;fill:#6E6E96;enable-background:new    ;"></path>
		</g>
	</g>
	<g>
		<g>
			<path d="M102.795,139.318c0-13.601-11.835-24.625-26.434-24.625c-0.228,0-0.453,0.006-0.676,0.013
				c-4.609-7.214-13.061-12.052-22.728-12.052c-14.601,0-26.436,11.025-26.436,24.629c0,0.174,0.011,0.353,0.015,0.523
				c-7.983,4.237-13.372,12.23-13.372,21.41c0,13.602,11.834,24.625,26.432,24.625c0.831,0,1.65-0.037,2.461-0.107
				c4.849,5.479,12.186,8.957,20.394,8.957c13.497,0,24.618-9.424,26.227-21.586C97.074,156.98,102.795,148.775,102.795,139.318z" style="fill:#D7F7E4;"></path>
			<path d="M62.451,184.191c-8.092,0-15.705-3.237-21.012-8.907c-16.261,0.994-29.775-11.094-29.775-26.067
				c0-9.091,5.095-17.551,13.359-22.289c0.204-14.244,12.657-25.774,27.934-25.774c9.48,0,18.413,4.592,23.525,12.039
				c15.347,0.061,27.813,11.757,27.813,26.125c0,9.485-5.438,18.143-14.248,22.773C87.955,174.746,76.239,184.191,62.451,184.191z
				 M42.68,172.175l0.5,0.565c4.753,5.371,11.777,8.451,19.271,8.451c12.574,0,23.21-8.72,24.74-20.282l0.105-0.796l0.72-0.354
				c8.191-4.023,13.279-11.855,13.279-20.44c0-12.751-11.186-23.125-24.934-23.125c-0.212,0-0.422,0.006-0.63,0.013l-0.852,0.026
				l-0.458-0.718c-4.477-7.007-12.701-11.359-21.464-11.359c-13.75,0-24.936,10.375-24.936,23.129c0,0.087,0.004,0.176,0.007,0.263
				l0.028,1.151l-0.817,0.435c-7.757,4.117-12.575,11.813-12.575,20.085c0,12.751,11.185,23.125,24.932,23.125
				c0.768,0,1.552-0.034,2.332-0.102L42.68,172.175z" style="fill:#CCCCDE;"></path>
		</g>
		<path d="M75.917,113.805c-0.225,0-0.45,0.01-0.677,0.018
			c-3.695-5.788-9.861-10.042-17.145-11.502c5.762,1.448,10.615,4.952,13.599,9.621c0.192-0.007,2.841,4.572,3.037,4.572
			c12.529,0,18.355,6.75,18.355,18.417c0,8.116-3.04,13.283-10.24,16.827c-1.382,10.438-10.927,18.527-22.505,18.527
			c-7.046,0-13.34-2.993-17.502-7.688c-0.695,0.062-1.399,0.096-2.111,0.096c-12.527,0-22.368-5.938-22.368-17.608
			c0-7.858,3.518-11.729,9.921-16.394c-0.169-1.013-0.88-9.906,1.492-12.282c5.637-5.64,8.191-10.482,13.235-12.984
			c-9.898,3.56-16.922,12.501-16.922,22.979c0,0.174,0.006,0.351,0.014,0.524c-7.986,4.238-13.375,12.229-13.375,21.412
			c0,13.601,11.834,24.622,26.435,24.622c0.83,0,1.652-0.037,2.461-0.104c4.849,5.478,12.187,8.955,20.395,8.955
			c13.492,0,24.616-9.424,26.226-21.59c8.391-4.123,14.115-12.33,14.115-21.783C102.352,124.831,90.515,113.805,75.917,113.805z" style="opacity:0.1;fill:#6E6E96;enable-background:new    ;"></path>
		<g>
			<path d="M38.297,152.639c0,0,13.688,2.685,13.688,16.08c0,0,3.686,22.754-10.559,38.85h32.893
				c-0.325-0.444-28.731-38.398,2.884-60.959C57.92,157.631,38.297,152.639,38.297,152.639z" style="fill:#EDE3DA;"></path>
			<path d="M74.319,209.068H38.095l2.208-2.494c13.589-15.354,10.237-37.396,10.201-37.616l-0.019-0.239
				c0-10.891-10.064-14.004-12.142-14.529c-0.274-0.061-0.416-0.097-0.416-0.097l0.659-2.926c0,0,0.159,0.03,0.444,0.102
				c1.102,0.24,5.008,0.998,10.423,0.998c6.765,0,16.942-1.207,27.006-6.96l1.615,2.523c-7.877,5.622-12.549,12.733-13.885,21.137
				c-1.509,9.496,1.534,19.064,4.352,25.419c2.991,6.744,6.332,11.407,6.971,12.273l1.765,2.391L74.319,209.068z M44.587,206.068
				h26.877c-3.918-6.005-12.763-21.686-10.238-37.573c0.98-6.169,3.577-11.689,7.749-16.495c-7.451,2.611-14.412,3.267-19.522,3.267
				c-0.824,0-1.614-0.017-2.368-0.045c3.321,2.621,6.363,6.812,6.399,13.379C53.777,170.533,56.421,190.373,44.587,206.068z" style="fill:#CCCCDE;"></path>
		</g>
		<g>
			<path d="M46.965,125.771" style="fill:#D57E58;"></path>
		</g>
		<path d="M68.995,152.605c0,0-20.767,26.812-4.808,54.965h10.131
			C74.318,207.568,53.244,178.115,68.995,152.605z" style="opacity:0.11;fill:#6E6E96;enable-background:new    ;"></path>
	</g>
	<g>
		<g>
			<path d="M236.879,146.536c0-12.164-10.585-22.022-23.641-22.022c-0.204,0-0.405,0.005-0.604,0.011
				c-4.124-6.451-11.68-10.778-20.327-10.778c-13.055,0-23.64,9.861-23.64,22.026c0,0.155,0.01,0.312,0.015,0.471
				c-7.137,3.789-11.957,10.938-11.957,19.146c0,12.161,10.582,22.021,23.635,22.021c0.744,0,1.479-0.034,2.205-0.098
				c4.334,4.896,10.896,8.012,18.237,8.012c12.07,0,22.015-8.43,23.456-19.307C231.762,162.33,236.879,154.992,236.879,146.536z" style="fill:#D7F7E4;"></path>
			<path d="M200.802,186.826c-7.252,0-14.079-2.893-18.854-7.962c-0.535,0.031-1.066,0.048-1.589,0.048
				c-13.859,0-25.135-10.552-25.135-23.521c0-8.157,4.554-15.75,11.946-20.023c0.231-12.787,11.418-23.12,25.136-23.12
				c8.5,0,16.513,4.105,21.124,10.768c13.774,0.098,24.948,10.611,24.948,23.521c0,8.515-4.866,16.289-12.753,20.469
				C223.704,178.359,213.18,186.826,200.802,186.826z M183.187,175.754l0.501,0.566c4.223,4.771,10.46,7.506,17.114,7.506
				c11.164,0,20.609-7.74,21.969-18.004l0.105-0.795l0.72-0.354c7.269-3.574,11.783-10.523,11.783-18.138
				c0-11.315-9.933-20.522-22.141-20.522c-0.189,0-0.376,0.005-0.561,0.01l-0.85,0.025l-0.458-0.716
				c-3.978-6.221-11.282-10.086-19.063-10.086c-12.208,0-22.14,9.208-22.14,20.526c0,0.082,0.004,0.166,0.008,0.249l0.035,1.108
				l-0.825,0.438c-6.884,3.654-11.16,10.483-11.16,17.821c0,11.315,9.93,20.521,22.135,20.521c0.678,0,1.376-0.031,2.074-0.092
				L183.187,175.754z" style="fill:#CCCCDE;"></path>
		</g>
		<path d="M212.843,123.716c-0.202,0-0.403,0.01-0.606,0.016
			c-3.303-5.174-8.816-8.98-15.329-10.286c5.149,1.296,9.491,4.429,12.159,8.604c0.173-0.005,2.543,4.09,2.713,4.09
			c11.207,0,16.416,6.035,16.416,16.471c0,7.26-2.717,11.879-9.154,15.05c-1.234,9.336-9.771,16.567-20.126,16.567
			c-6.304,0-11.931-2.677-15.649-6.875c-0.625,0.053-1.252,0.084-1.889,0.084c-11.205,0-20.005-5.312-20.005-15.748
			c0-7.027,3.147-10.49,8.873-14.66c-0.153-0.903-0.788-8.86,1.334-10.984c5.041-5.043,7.323-9.375,11.836-11.612
			c-8.853,3.184-15.133,11.179-15.133,20.551c0,0.153,0.008,0.312,0.012,0.47c-7.142,3.79-11.96,10.938-11.96,19.149
			c0,12.159,10.584,22.02,23.641,22.02c0.741,0,1.479-0.033,2.2-0.096c4.337,4.897,10.896,8.011,18.239,8.011
			c12.064,0,22.014-8.429,23.455-19.308c7.504-3.688,12.623-11.028,12.623-19.48C236.48,133.576,225.895,123.716,212.843,123.716z" style="opacity:0.1;fill:#6E6E96;enable-background:new    ;"></path>
		<g>
			<path d="M179.197,158.445c0,0,12.242,2.399,12.242,14.381c0,0,3.295,20.348-9.444,34.742h29.415
				c-0.292-0.398-25.692-34.34,2.578-54.517C196.747,162.911,179.197,158.445,179.197,158.445z" style="fill:#EDE3DA;"></path>
			<path d="M211.41,209.068h-32.746l2.208-2.494c12.128-13.704,9.118-33.312,9.087-33.508l-0.02-0.24
				c0-9.617-8.892-12.372-10.735-12.84c-0.248-0.055-0.377-0.087-0.377-0.087l0.658-2.926c0,0,0.146,0.027,0.405,0.093
				c0.984,0.214,4.462,0.888,9.283,0.888c6.031,0,15.103-1.076,24.07-6.204l1.615,2.522c-7.011,5.004-11.167,11.331-12.353,18.807
				c-2.571,16.209,9.581,32.882,10.1,33.584l1.767,2.391L211.41,209.068z M185.139,206.068h23.426
				c-3.59-5.559-11.25-19.404-9.021-33.459c0.851-5.362,3.059-10.179,6.588-14.396c-6.474,2.185-12.5,2.741-16.958,2.741
				c-0.567,0-1.117-0.009-1.648-0.024c2.852,2.381,5.38,6.093,5.414,11.778C193.209,174.503,195.517,192.055,185.139,206.068z" style="fill:#CCCCDE;"></path>
		</g>
		<g>
			<path d="M186.949,134.418" style="fill:#D57E58;"></path>
		</g>
		<path d="M206.648,158.416c0,0-18.569,23.979-4.299,49.154h9.061
			C211.41,207.568,192.562,181.229,206.648,158.416z" style="opacity:0.11;fill:#6E6E96;enable-background:new    ;"></path>
	</g>
	<g>
		<g>
			<path d="M202.448,128.29c0-14.933-12.995-27.037-29.023-27.037c-0.25,0-0.497,0.007-0.741,0.014
				c-5.062-7.919-14.342-13.232-24.955-13.232c-16.03,0-29.024,12.107-29.024,27.042c0,0.19,0.012,0.385,0.017,0.576
				c-8.764,4.652-14.68,13.428-14.68,23.506c0,14.935,12.993,27.036,29.02,27.036c0.914,0,1.812-0.041,2.703-0.115
				c5.324,6.012,13.381,9.834,22.393,9.834c14.818,0,27.031-10.35,28.795-23.701C196.165,147.682,202.448,138.672,202.448,128.29z" style="fill:#D7F7E4;"></path>
			<path d="M158.156,177.414c-8.865,0-17.207-3.558-23.012-9.785c-0.706,0.045-1.394,0.066-2.084,0.066
				c-16.829,0-30.52-12.801-30.52-28.536c0-9.955,5.596-19.218,14.665-24.385c0.174-15.599,13.799-28.239,30.523-28.239
				c10.386,0,20.171,5.044,25.752,13.218c16.806,0.028,30.468,12.819,30.468,28.537c0,10.38-5.967,19.854-15.626,24.909
				C186.071,167.06,173.251,177.414,158.156,177.414z M136.389,164.522l0.498,0.563c5.25,5.928,13.003,9.328,21.27,9.328
				c13.881,0,25.621-9.629,27.308-22.397l0.105-0.796l0.72-0.354c9.042-4.447,14.659-13.098,14.659-22.577
				c0-14.081-12.347-25.537-27.523-25.537c-0.234,0-0.467,0.007-0.696,0.014l-0.851,0.025l-0.458-0.717
				c-4.945-7.735-14.022-12.54-23.691-12.54c-15.177,0-27.524,11.458-27.524,25.542c0,0.104,0.004,0.209,0.009,0.315l0.034,1.149
				l-0.822,0.436c-8.563,4.545-13.883,13.045-13.883,22.182c0,14.081,12.345,25.536,27.52,25.536c0.847,0,1.689-0.036,2.578-0.11
				L136.389,164.522z" style="fill:#CCCCDE;"></path>
		</g>
		<path d="M172.938,100.275c-0.246,0-0.494,0.011-0.742,0.019
			c-4.059-6.354-10.828-11.025-18.825-12.628c6.325,1.59,11.653,5.437,14.931,10.563c0.213-0.008,3.121,5.021,3.334,5.021
			c13.756,0,20.152,7.41,20.152,20.221c0,8.914-3.337,14.586-11.241,18.479c-1.521,11.463-11.999,20.342-24.709,20.342
			c-7.735,0-14.646-3.287-19.218-8.443c-0.766,0.063-1.534,0.104-2.317,0.104c-13.755,0-24.559-6.52-24.559-19.331
			c0-8.629,3.863-12.88,10.892-18c-0.187-1.11-0.967-10.878,1.638-13.488c6.188-6.191,8.995-11.508,14.532-14.256
			c-10.869,3.909-18.581,13.726-18.581,25.23c0,0.19,0.007,0.384,0.015,0.577c-8.769,4.652-14.684,13.426-14.684,23.508
			c0,14.934,12.994,27.037,29.022,27.037c0.911,0,1.813-0.043,2.702-0.119c5.326,6.016,13.381,9.837,22.395,9.837
			c14.812,0,27.027-10.351,28.794-23.707c9.214-4.526,15.496-13.536,15.496-23.916C201.961,112.382,188.963,100.275,172.938,100.275
			z" style="opacity:0.1;fill:#6E6E96;enable-background:new    ;"></path>
		<g>
			<path d="M131.633,142.912c0,0,15.028,2.945,15.028,17.654c0,0,4.044,24.981-11.597,42.656h36.112
				c-0.354-0.49-31.546-42.16,3.166-66.932C153.178,148.396,131.633,142.912,131.633,142.912z" style="fill:#EDE3DA;"></path>
			<path d="M171.177,204.723h-39.442l2.207-2.494c14.996-16.946,11.278-41.18,11.239-41.423l-0.02-0.239
				c0-12.066-11.144-15.514-13.44-16.094c-0.301-0.066-0.458-0.107-0.458-0.107l0.658-2.925c0,0,0.174,0.033,0.487,0.111
				c1.21,0.265,5.514,1.1,11.476,1.1c7.443,0,18.642-1.329,29.714-7.662l1.616,2.522c-8.672,6.189-13.819,14.019-15.299,23.271
				c-3.138,19.63,10.845,39.341,12.449,41.523l1.756,2.389L171.177,204.723z M138.239,201.723h30.081
				c-4.217-6.43-14.174-23.857-11.367-41.414c1.104-6.912,4.067-13.079,8.839-18.425c-8.357,3.018-16.19,3.768-21.908,3.768
				c-1.074,0-2.095-0.025-3.057-0.068c3.758,2.836,7.297,7.469,7.334,14.865C148.473,162.502,151.426,184.468,138.239,201.723z" style="fill:#CCCCDE;"></path>
		</g>
		<g>
			<path d="M141.15,113.415" style="fill:#D57E58;"></path>
		</g>
		<path d="M165.337,142.877c0,0-22.801,29.439-5.278,60.348h11.125
			C171.182,203.223,148.043,170.887,165.337,142.877z" style="opacity:0.11;fill:#6E6E96;enable-background:new    ;"></path>
	</g>
	<path d="M230.27,130.755c-4.701-4.379-10.933-6.802-17.562-6.842
		c-3.308-4.781-8.366-8.238-14.099-9.814c-5.393-8.061-14.961-13.439-25.856-13.449c-5.576-8.168-15.344-13.219-25.726-13.219
		c-16.727,0-30.346,12.648-30.506,28.251c-7.057,4.02-12.002,10.517-13.855,17.886c-3.139-11.167-14.006-19.433-26.909-19.475
		c-5.111-7.443-14.026-12.042-23.501-12.042c-15.278,0-27.724,11.537-27.915,25.784c-8.261,4.734-13.366,13.18-13.366,22.268
		c0,14.399,12.525,26.113,27.92,26.113c0.606,0,1.229-0.027,1.856-0.063c2.566,2.743,5.674,4.911,9.111,6.429
		c-0.81,7.521-3.334,17.066-10.253,24.891l-2.189,2.473h39.119l-1.719-2.362c-1.052-1.427-7.766-10.868-10.548-22.617
		c12.673-1.069,23.106-10.125,25.061-22.006c6.734-3.545,11.493-9.438,13.365-16.254c3.217,12.526,15.29,21.864,29.659,21.864
		c0.685,0,1.387-0.028,2.098-0.073c2.839,3.045,6.286,5.45,10.104,7.116c-0.882,8.3-3.652,18.863-11.307,27.512l-2.188,2.475h42.342
		l-1.719-2.362c-1.162-1.578-8.61-12.046-11.646-25.056c2.521-0.197,4.96-0.694,7.279-1.438c3.647,1.933,7.856,3.043,12.342,3.043
		c0.513,0,1.05-0.037,1.584-0.063c2.275,2.42,5.023,4.342,8.059,5.692c-0.736,6.685-2.994,15.132-9.121,22.058l-2.188,2.475h35.643
		l-1.718-2.363c-0.935-1.268-6.86-9.604-9.364-19.998c11.286-1.032,20.549-9.109,22.34-19.701
		c7.896-4.176,12.778-11.941,12.778-20.46C237.666,141.115,235.04,135.199,230.27,130.755z" style="opacity:0.28;fill:#423434;enable-background:new    ;"></path>
</g>
<g id="Layer_2">
	<g style="opacity:0.64;">
		<path d="M54.992,97.811c-0.512,0-1.024-0.195-1.414-0.586c-0.781-0.781-0.781-2.047,0-2.828l20.5-20.5
			c0.78-0.781,2.048-0.781,2.828,0c0.781,0.781,0.781,2.047,0,2.828l-20.5,20.5C56.016,97.616,55.504,97.811,54.992,97.811z" style="fill:#FFFFFF;"></path>
		<path d="M102.992,84.811c-0.512,0-1.024-0.195-1.414-0.586c-0.781-0.781-0.781-2.047,0-2.828l17.5-17.5
			c0.78-0.781,2.048-0.781,2.828,0c0.781,0.781,0.781,2.047,0,2.828l-17.5,17.5C104.016,84.616,103.504,84.811,102.992,84.811z" style="fill:#FFFFFF;"></path>
		<path d="M118.322,120.141c-0.512,0-1.023-0.195-1.414-0.586
			c-0.781-0.781-0.781-2.047,0-2.828l17-17c0.781-0.781,2.047-0.781,2.828,0c0.781,0.781,0.781,2.047,0,2.828l-17,17
			C119.346,119.946,118.833,120.141,118.322,120.141z" style="opacity:0.45;fill:#FFFFFF;enable-background:new    ;"></path>
		<path d="M66.492,134.311c-0.512,0-1.023-0.195-1.414-0.586c-0.781-0.781-0.781-2.047,0-2.828l13-13
			c0.78-0.781,2.047-0.781,2.828,0c0.781,0.781,0.781,2.047,0,2.828l-13,13C67.516,134.115,67.004,134.311,66.492,134.311z" style="fill:#FFFFFF;"></path>
		<path d="M120.836,155.709c-0.512,0-1.024-0.195-1.414-0.586c-0.781-0.781-0.781-2.047,0-2.828l16-16
			c0.781-0.781,2.047-0.781,2.828,0s0.781,2.047,0,2.828l-16,16C121.86,155.514,121.348,155.709,120.836,155.709z" style="fill:#FFFFFF;"></path>
		<path d="M164.992,96.811c-0.512,0-1.023-0.195-1.414-0.586c-0.781-0.781-0.781-2.047,0-2.828l13-13
			c0.781-0.781,2.047-0.781,2.828,0c0.781,0.781,0.781,2.047,0,2.828l-13,13C166.016,96.616,165.504,96.811,164.992,96.811z" style="fill:#FFFFFF;"></path>
		<path d="M151.242,62.061c-0.512,0-1.023-0.195-1.414-0.586
			c-0.781-0.781-0.781-2.047,0-2.828l13.75-13.75c0.781-0.781,2.047-0.781,2.828,0c0.781,0.781,0.781,2.047,0,2.828l-13.75,13.75
			C152.266,61.866,151.754,62.061,151.242,62.061z" style="opacity:0.45;fill:#FFFFFF;enable-background:new    ;"></path>
		<path d="M107.492,44.311c-0.512,0-1.024-0.195-1.414-0.586c-0.781-0.781-0.781-2.047,0-2.828l14-14
			c0.78-0.781,2.048-0.781,2.828,0c0.781,0.781,0.781,2.047,0,2.828l-14,14C108.516,44.116,108.004,44.311,107.492,44.311z" style="fill:#FFFFFF;"></path>
		<path d="M63.492,52.311c-0.512,0-1.024-0.195-1.414-0.586
			c-0.781-0.781-0.781-2.047,0-2.828l17-17c0.78-0.781,2.048-0.781,2.828,0c0.781,0.781,0.781,2.047,0,2.828l-17,17
			C64.516,52.116,64.004,52.311,63.492,52.311z" style="opacity:0.45;fill:#FFFFFF;enable-background:new    ;"></path>
		<path d="M215.697,91.112c-0.512,0-1.023-0.195-1.414-0.586
			c-0.781-0.781-0.781-2.047,0-2.828l13.053-13.053c0.781-0.781,2.047-0.781,2.828,0c0.781,0.781,0.781,2.047,0,2.828
			l-13.053,13.053C216.721,90.917,216.209,91.112,215.697,91.112z" style="opacity:0.45;fill:#FFFFFF;enable-background:new    ;"></path>
		<path d="M204.686,173.361c-0.512,0-1.023-0.195-1.414-0.586
			c-0.781-0.781-0.781-2.047,0-2.828l16.246-16.246c0.781-0.781,2.047-0.781,2.828,0s0.781,2.047,0,2.828L206.1,172.775
			C205.709,173.166,205.197,173.361,204.686,173.361z" style="opacity:0.45;fill:#FFFFFF;enable-background:new    ;"></path>
		<path d="M169.844,142.792c-0.512,0-1.023-0.195-1.414-0.586c-0.781-0.781-0.781-2.047,0-2.828
			l13.452-13.452c0.781-0.781,2.047-0.781,2.828,0c0.781,0.781,0.781,2.047,0,2.828l-13.452,13.452
			C170.867,142.597,170.355,142.792,169.844,142.792z" style="fill:#FFFFFF;"></path>
		<path d="M83.75,201.059c-0.512,0-1.024-0.195-1.414-0.586c-0.781-0.781-0.781-2.047,0-2.828l14-14
			c0.78-0.781,2.048-0.781,2.828,0c0.781,0.781,0.781,2.047,0,2.828l-14,14C84.774,200.863,84.262,201.059,83.75,201.059z" style="fill:#FFFFFF;"></path>
		<path d="M35.697,187.006c-0.512,0-1.024-0.195-1.414-0.586c-0.781-0.781-0.781-2.047,0-2.828l16.288-16.287
			c0.78-0.781,2.048-0.781,2.828,0c0.781,0.781,0.781,2.047,0,2.828L37.111,186.42C36.721,186.811,36.208,187.006,35.697,187.006z" style="fill:#FFFFFF;"></path>
		<path d="M123.25,232.559c-0.512,0-1.024-0.195-1.414-0.586c-0.781-0.781-0.781-2.047,0-2.828l16.387-16.387
			c0.781-0.781,2.047-0.781,2.828,0s0.781,2.047,0,2.828l-16.387,16.387C124.274,232.363,123.762,232.559,123.25,232.559z" style="fill:#FFFFFF;"></path>
	</g>
</g>
</svg>
